<svg width="18" height="18" viewBox="0 0 18 18" fill="none" xmlns="http://www.w3.org/2000/svg">
<path d="M9.68538 12.4367C10.0305 12.4367 10.3102 12.1569 10.3102 11.8118C10.3102 11.4668 10.0305 11.187 9.68538 11.187C9.3403 11.187 9.06055 11.4668 9.06055 11.8118C9.06055 12.1569 9.3403 12.4367 9.68538 12.4367Z" fill="#99A1B7"/>
<path d="M11.7786 15.7483H3.99934C3.31027 15.7483 2.74967 15.1877 2.74967 14.4986V9.37497C2.74967 8.6859 3.31027 8.1253 3.99934 8.1253H12.997C13.1393 8.1253 13.2521 8.13786 13.3421 8.16363C13.6738 8.25867 14.0198 8.06678 14.1149 7.73505C14.2099 7.40333 14.018 7.05736 13.6863 6.96229C13.4828 6.90399 13.2574 6.87566 12.997 6.87566H12.246V4.67205C12.246 2.64848 10.5642 1.0022 8.49701 1.0022C6.4298 1.0022 4.74799 2.64848 4.74799 4.67205V6.87566H3.99934C2.62121 6.87566 1.5 7.99686 1.5 9.375V14.4987C1.5 15.8768 2.62121 16.998 3.99934 16.998H11.7786C12.1236 16.998 12.4034 16.7183 12.4034 16.3732C12.4034 16.0281 12.1236 15.7483 11.7786 15.7483ZM5.99766 4.67205C5.99766 3.33755 7.11887 2.25187 8.49701 2.25187C9.87515 2.25187 10.9964 3.33755 10.9964 4.67205V6.87566H5.99766V4.67205Z" fill="#99A1B7"/>
<path d="M7.34212 12.4367C7.68721 12.4367 7.96696 12.1569 7.96696 11.8118C7.96696 11.4668 7.68721 11.187 7.34212 11.187C6.99703 11.187 6.71729 11.4668 6.71729 11.8118C6.71729 12.1569 6.99703 12.4367 7.34212 12.4367Z" fill="#99A1B7"/>
<path d="M16.4995 11.3497C16.4859 10.1379 15.4957 9.15625 14.2807 9.15625C13.0572 9.15625 12.0618 10.1517 12.0618 11.3752C12.0618 11.7203 12.3415 12 12.6866 12C13.0317 12 13.3114 11.7203 13.3114 11.3752C13.3114 10.8407 13.7463 10.4059 14.2807 10.4059C14.8152 10.4059 15.25 10.8407 15.25 11.3752C15.25 11.3809 15.2501 11.3865 15.2502 11.3922C15.2438 11.7748 15.014 12.1173 14.6609 12.268C14.0504 12.5287 13.6559 13.1309 13.6559 13.802V14.3424C13.6559 14.6875 13.9357 14.9672 14.2807 14.9672C14.6258 14.9672 14.9056 14.6875 14.9056 14.3424V13.802C14.9056 13.6321 15.0022 13.4811 15.1516 13.4174C15.971 13.0676 16.5003 12.2659 16.5001 11.3751C16.5001 11.3666 16.4999 11.3581 16.4995 11.3497Z" fill="#99A1B7"/>
<path d="M14.2779 16.998C14.623 16.998 14.9027 16.7182 14.9027 16.3731C14.9027 16.028 14.623 15.7483 14.2779 15.7483C13.9328 15.7483 13.6531 16.028 13.6531 16.3731C13.6531 16.7182 13.9328 16.998 14.2779 16.998Z" fill="#99A1B7"/>
<path d="M4.9991 12.4367C5.34419 12.4367 5.62394 12.1569 5.62394 11.8118C5.62394 11.4668 5.34419 11.187 4.9991 11.187C4.65402 11.187 4.37427 11.4668 4.37427 11.8118C4.37427 12.1569 4.65402 12.4367 4.9991 12.4367Z" fill="#99A1B7"/>
</svg>
