<svg width="18" height="18" viewBox="0 0 18 18" fill="none" xmlns="http://www.w3.org/2000/svg">
<path d="M9 17.4375C8.88281 17.4375 8.77148 17.4229 8.66602 17.3936C8.56055 17.3643 8.45508 17.3262 8.34961 17.2793C8.25586 17.2324 8.16504 17.1738 8.07715 17.1035C7.98926 17.0332 7.91016 16.957 7.83984 16.875L6.53906 15.3105C6.51562 15.2871 6.49512 15.2666 6.47754 15.249C6.45996 15.2314 6.43945 15.2168 6.41602 15.2051C6.39258 15.1934 6.36621 15.1846 6.33691 15.1787C6.30762 15.1729 6.28125 15.1699 6.25781 15.1699H4.95703C4.42969 15.1699 3.91992 15.0674 3.42773 14.8623C2.93555 14.6572 2.50195 14.3672 2.12695 13.9922C1.74023 13.6172 1.44434 13.1836 1.23926 12.6914C1.03418 12.1992 0.931641 11.6836 0.931641 11.1445V5.32617C0.931641 4.78711 1.03418 4.27148 1.23926 3.7793C1.44434 3.28711 1.74023 2.85352 2.12695 2.47852C2.50195 2.10352 2.93555 1.81348 3.42773 1.6084C3.91992 1.40332 4.42969 1.30078 4.95703 1.30078H13.043C13.5703 1.30078 14.0801 1.40332 14.5723 1.6084C15.0645 1.81348 15.498 2.10352 15.873 2.47852C16.2598 2.85352 16.5557 3.28711 16.7607 3.7793C16.9658 4.27148 17.0684 4.78711 17.0684 5.32617V11.1445C17.0684 11.6836 16.9658 12.1992 16.7607 12.6914C16.5557 13.1836 16.2598 13.6172 15.873 13.9922C15.498 14.3672 15.0645 14.6572 14.5723 14.8623C14.0801 15.0674 13.5703 15.1699 13.043 15.1699H11.6191C11.5957 15.1699 11.5723 15.1729 11.5488 15.1787C11.5254 15.1846 11.4961 15.1934 11.4609 15.2051C11.4375 15.2168 11.417 15.2314 11.3994 15.249C11.3818 15.2666 11.3672 15.2871 11.3555 15.3105L10.1426 16.875C10.0723 16.957 9.99609 17.0332 9.91406 17.1035C9.83203 17.1738 9.73828 17.2324 9.63281 17.2793C9.53906 17.3379 9.43652 17.3789 9.3252 17.4023C9.21387 17.4258 9.10547 17.4375 9 17.4375ZM4.99219 2.44336C4.79297 2.44336 4.59961 2.46094 4.41211 2.49609C4.22461 2.53125 4.04297 2.58398 3.86719 2.6543C3.69141 2.72461 3.52441 2.8125 3.36621 2.91797C3.20801 3.02344 3.05859 3.14062 2.91797 3.26953C2.78906 3.41016 2.67188 3.55957 2.56641 3.71777C2.46094 3.87598 2.36719 4.04297 2.28516 4.21875C2.21484 4.39453 2.15918 4.57617 2.11816 4.76367C2.07715 4.95117 2.05664 5.13867 2.05664 5.32617V11.1445C2.05664 11.5312 2.13281 11.9033 2.28516 12.2607C2.4375 12.6182 2.64844 12.9316 2.91797 13.2012C3.1875 13.4707 3.50098 13.6787 3.8584 13.8252C4.21582 13.9717 4.58203 14.0449 4.95703 14.0449H6.25781C6.375 14.0449 6.48633 14.0596 6.5918 14.0889C6.69727 14.1182 6.79688 14.1562 6.89062 14.2031C6.99609 14.25 7.08984 14.3086 7.17188 14.3789C7.25391 14.4492 7.33008 14.5312 7.40039 14.625L8.70117 16.207C8.72461 16.2305 8.74512 16.248 8.7627 16.2598C8.78027 16.2715 8.80078 16.2832 8.82422 16.2949C8.85938 16.3066 8.88867 16.3154 8.91211 16.3213C8.93555 16.3271 8.95898 16.3301 8.98242 16.3301C9.00586 16.3301 9.03223 16.3271 9.06152 16.3213C9.09082 16.3154 9.11719 16.3066 9.14062 16.2949C9.16406 16.2832 9.18457 16.2686 9.20215 16.251C9.21973 16.2334 9.24023 16.2129 9.26367 16.1895L10.459 14.625C10.5293 14.5312 10.6084 14.4492 10.6963 14.3789C10.7842 14.3086 10.875 14.25 10.9688 14.2031C11.0742 14.1445 11.1826 14.1035 11.2939 14.0801C11.4053 14.0566 11.5137 14.0449 11.6191 14.0449H13.043C13.418 14.0449 13.7842 13.9717 14.1416 13.8252C14.499 13.6787 14.8125 13.4707 15.082 13.2012C15.3516 12.9199 15.5625 12.6035 15.7148 12.252C15.8672 11.9004 15.9434 11.5312 15.9434 11.1445V5.32617C15.9434 4.93945 15.8672 4.57031 15.7148 4.21875C15.5625 3.86719 15.3516 3.55078 15.082 3.26953C14.8125 3 14.499 2.79199 14.1416 2.64551C13.7842 2.49902 13.418 2.42578 13.043 2.42578L4.99219 2.44336ZM6.41602 10.2832C6.46289 10.2246 6.50098 10.1631 6.53027 10.0986C6.55957 10.0342 6.57422 9.96094 6.57422 9.87891C6.57422 9.80859 6.55957 9.73828 6.53027 9.66797C6.50098 9.59766 6.46289 9.53906 6.41602 9.49219L5.30859 8.41992L6.39844 7.36523C6.43359 7.35352 6.46582 7.33301 6.49512 7.30371C6.52441 7.27441 6.55078 7.24219 6.57422 7.20703C6.59766 7.17188 6.61523 7.13379 6.62695 7.09277C6.63867 7.05176 6.65039 7.01367 6.66211 6.97852C6.66211 6.93164 6.66211 6.8877 6.66211 6.84668C6.66211 6.80566 6.65625 6.76758 6.64453 6.73242C6.63281 6.68555 6.61523 6.64453 6.5918 6.60938C6.56836 6.57422 6.54492 6.53906 6.52148 6.50391C6.48633 6.48047 6.45117 6.45703 6.41602 6.43359C6.38086 6.41016 6.3457 6.38672 6.31055 6.36328C6.27539 6.35156 6.2373 6.34277 6.19629 6.33691C6.15527 6.33105 6.11133 6.32812 6.06445 6.32812C6.0293 6.32812 5.99121 6.33398 5.9502 6.3457C5.90918 6.35742 5.87109 6.375 5.83594 6.39844C5.80078 6.42188 5.76562 6.44531 5.73047 6.46875C5.69531 6.49219 5.66602 6.52148 5.64258 6.55664L4.14844 7.99805C4.125 8.0332 4.10156 8.06543 4.07812 8.09473C4.05469 8.12402 4.03711 8.15625 4.02539 8.19141C4.00195 8.22656 3.9873 8.26172 3.98145 8.29688C3.97559 8.33203 3.97266 8.36719 3.97266 8.40234C3.97266 8.48438 3.9873 8.56055 4.0166 8.63086C4.0459 8.70117 4.08984 8.75977 4.14844 8.80664L5.64258 10.3184C5.66602 10.3418 5.69238 10.3623 5.72168 10.3799C5.75098 10.3975 5.7832 10.418 5.81836 10.4414C5.85352 10.4531 5.88867 10.4619 5.92383 10.4678C5.95898 10.4736 5.99414 10.4766 6.0293 10.4766C6.09961 10.4766 6.16992 10.459 6.24023 10.4238C6.31055 10.3887 6.36914 10.3418 6.41602 10.2832ZM12.4102 10.2832L13.9043 8.78906C13.9629 8.73047 14.0068 8.66602 14.0361 8.5957C14.0654 8.52539 14.0801 8.45508 14.0801 8.38477C14.0801 8.33789 14.0771 8.29688 14.0713 8.26172C14.0654 8.22656 14.0508 8.19141 14.0273 8.15625C14.0156 8.12109 13.998 8.08887 13.9746 8.05957C13.9512 8.03027 13.9277 8.00391 13.9043 7.98047L12.4102 6.53906C12.3867 6.50391 12.3574 6.47168 12.3223 6.44238C12.2871 6.41309 12.252 6.38672 12.2168 6.36328C12.1816 6.35156 12.1436 6.33984 12.1025 6.32812C12.0615 6.31641 12.0234 6.31055 11.9883 6.31055C11.9414 6.29883 11.8975 6.2959 11.8564 6.30176C11.8154 6.30762 11.7773 6.32227 11.7422 6.3457C11.707 6.35742 11.6719 6.375 11.6367 6.39844C11.6016 6.42188 11.5664 6.45117 11.5312 6.48633C11.5078 6.50977 11.4844 6.53906 11.4609 6.57422C11.4375 6.60938 11.4199 6.65039 11.4082 6.69727C11.3965 6.73242 11.3906 6.77051 11.3906 6.81152C11.3906 6.85254 11.3906 6.89648 11.3906 6.94336C11.4023 6.97852 11.4141 7.0166 11.4258 7.05762C11.4375 7.09863 11.4551 7.13672 11.4785 7.17188C11.502 7.20703 11.5283 7.23926 11.5576 7.26855C11.5869 7.29785 11.6191 7.32422 11.6543 7.34766L12.7441 8.38477L11.6543 9.45703C11.6074 9.49219 11.5664 9.5332 11.5312 9.58008C11.4961 9.62695 11.4727 9.67969 11.4609 9.73828C11.4492 9.79688 11.4434 9.85547 11.4434 9.91406C11.4434 9.97266 11.4551 10.0254 11.4785 10.0723C11.4902 10.1309 11.5137 10.1836 11.5488 10.2305C11.584 10.2773 11.625 10.3184 11.6719 10.3535C11.7188 10.3887 11.7715 10.415 11.8301 10.4326C11.8887 10.4502 11.9473 10.459 12.0059 10.459C12.041 10.459 12.0762 10.4561 12.1113 10.4502C12.1465 10.4443 12.1816 10.4297 12.2168 10.4062C12.2402 10.3945 12.2666 10.3799 12.2959 10.3623C12.3252 10.3447 12.3516 10.3184 12.375 10.2832H12.4102ZM8.87695 10.2832L10.2832 6.9082C10.2949 6.87305 10.3066 6.83789 10.3184 6.80273C10.3301 6.76758 10.3359 6.73242 10.3359 6.69727C10.3359 6.66211 10.333 6.62402 10.3271 6.58301C10.3213 6.54199 10.3125 6.50391 10.3008 6.46875C10.2891 6.43359 10.2744 6.39844 10.2568 6.36328C10.2393 6.32812 10.2129 6.29883 10.1777 6.27539C10.1543 6.25195 10.1279 6.22852 10.0986 6.20508C10.0693 6.18164 10.0371 6.16406 10.002 6.15234C9.9668 6.12891 9.92871 6.11426 9.8877 6.1084C9.84668 6.10254 9.80859 6.09961 9.77344 6.09961C9.73828 6.09961 9.7002 6.10547 9.65918 6.11719C9.61816 6.12891 9.58008 6.14062 9.54492 6.15234C9.50977 6.16406 9.47754 6.18164 9.44824 6.20508C9.41895 6.22852 9.39258 6.25195 9.36914 6.27539C9.3457 6.31055 9.32227 6.3457 9.29883 6.38086C9.27539 6.41602 9.25781 6.45117 9.24609 6.48633L7.83984 9.84375C7.82812 9.87891 7.81934 9.91406 7.81348 9.94922C7.80762 9.98438 7.80469 10.0254 7.80469 10.0723C7.79297 10.1074 7.79297 10.1426 7.80469 10.1777C7.81641 10.2129 7.82812 10.248 7.83984 10.2832C7.85156 10.3184 7.86914 10.3535 7.89258 10.3887C7.91602 10.4238 7.93945 10.4531 7.96289 10.4766C7.98633 10.5 8.0127 10.5234 8.04199 10.5469C8.07129 10.5703 8.10352 10.5879 8.13867 10.5996C8.17383 10.6113 8.21191 10.6201 8.25293 10.626C8.29395 10.6318 8.33203 10.6348 8.36719 10.6348C8.41406 10.6348 8.46387 10.626 8.5166 10.6084C8.56934 10.5908 8.61328 10.5645 8.64844 10.5293C8.69531 10.5059 8.73633 10.4736 8.77148 10.4326C8.80664 10.3916 8.83008 10.3418 8.8418 10.2832H8.87695Z" fill="#99A1B7"/>
</svg>
