<svg width="18" height="18" viewBox="0 0 18 18" fill="none" xmlns="http://www.w3.org/2000/svg">
<path d="M17.0683 9.36914C17.0683 8.70117 16.9862 8.04492 16.8222 7.40039C16.6581 6.75586 16.4179 6.13477 16.1015 5.53711C15.785 4.95117 15.4013 4.41211 14.9501 3.91992C14.4989 3.42773 13.9979 2.99414 13.4472 2.61914C12.8847 2.25586 12.287 1.96289 11.6542 1.74023C11.0214 1.51758 10.3768 1.37695 9.72059 1.31836C9.05262 1.25977 8.38759 1.2832 7.72548 1.38867C7.06337 1.49414 6.42762 1.68164 5.81825 1.95117C5.19716 2.20898 4.62294 2.54297 4.09559 2.95312C3.56825 3.36328 3.09364 3.83203 2.67177 4.35938C2.26161 4.875 1.91884 5.4375 1.64345 6.04688C1.36805 6.65625 1.17177 7.29492 1.05458 7.96289C0.937391 8.61914 0.905164 9.28125 0.957898 9.94922C1.01063 10.6172 1.14247 11.2676 1.35341 11.9004C1.56434 12.5332 1.84852 13.1309 2.20595 13.6934C2.56337 14.2559 2.98817 14.7656 3.48036 15.2227L3.76161 15.4863H3.81434C3.86122 15.5332 3.91395 15.5771 3.97255 15.6182C4.03114 15.6592 4.08973 15.7031 4.14833 15.75C4.20692 15.7969 4.2538 15.832 4.28895 15.8555C4.32411 15.8789 4.35927 15.9023 4.39442 15.9258C4.45302 15.9727 4.51454 16.0166 4.57899 16.0576C4.64345 16.0986 4.70497 16.1367 4.76356 16.1719L5.00966 16.3301C5.07997 16.3652 5.14735 16.4004 5.2118 16.4355C5.27626 16.4707 5.34364 16.5059 5.41395 16.541L5.67762 16.6641L6.08192 16.8398L6.36317 16.9453L6.78505 17.0859L7.10145 17.1562L7.50575 17.2441L7.92762 17.3145L8.24403 17.3496C8.37294 17.3496 8.49891 17.3555 8.62196 17.3672C8.74501 17.3789 8.87098 17.3848 8.99989 17.3848C9.11708 17.3848 9.24012 17.3848 9.36903 17.3848C9.49794 17.3848 9.62098 17.373 9.73817 17.3496L10.0722 17.3145L10.4765 17.2441L10.8807 17.1562L11.1972 17.0684L11.619 16.9453L11.9179 16.875L12.3222 16.6992L12.6034 16.5762L12.9901 16.3652L13.2362 16.207L13.6054 15.9785L13.8515 15.7852C13.91 15.7383 13.9686 15.6943 14.0272 15.6533C14.0858 15.6123 14.1444 15.5684 14.203 15.5215H14.2382L14.537 15.2578C14.9354 14.8828 15.2929 14.4697 15.6093 14.0186C15.9257 13.5674 16.1952 13.0898 16.4179 12.5859C16.6288 12.082 16.7899 11.5576 16.9013 11.0127C17.0126 10.4678 17.0683 9.91992 17.0683 9.36914ZM2.05653 9.36914C2.05653 8.45508 2.23231 7.57324 2.58387 6.72363C2.93544 5.87402 3.43934 5.12109 4.09559 4.46484C4.74012 3.82031 5.4872 3.32227 6.3368 2.9707C7.18641 2.61914 8.07411 2.44336 8.99989 2.44336C9.92567 2.44336 10.8134 2.61914 11.663 2.9707C12.5126 3.32227 13.2597 3.82031 13.9042 4.46484C14.5604 5.12109 15.0643 5.87402 15.4159 6.72363C15.7675 7.57324 15.9432 8.45508 15.9432 9.36914C15.9432 10.248 15.7792 11.0977 15.4511 11.918C15.1229 12.7383 14.66 13.4648 14.0624 14.0977C13.8163 13.6406 13.5145 13.2217 13.1571 12.8408C12.7997 12.46 12.3983 12.1348 11.953 11.8652C11.5077 11.5957 11.036 11.3906 10.538 11.25C10.0399 11.1094 9.52723 11.0391 8.99989 11.0391C8.47255 11.0391 7.95985 11.1094 7.4618 11.25C6.96376 11.3906 6.49208 11.5957 6.04677 11.8652C5.60145 12.1348 5.20009 12.46 4.84266 12.8408C4.48524 13.2217 4.18348 13.6406 3.93739 14.0977C3.33973 13.4648 2.87684 12.7383 2.54872 11.918C2.22059 11.0977 2.05653 10.248 2.05653 9.36914ZM13.078 14.9766L12.7792 15.1875L12.5682 15.3105C12.3807 15.416 12.1903 15.5156 11.997 15.6094C11.8036 15.7031 11.6073 15.791 11.4081 15.873L11.162 15.9609L10.8456 16.0488L10.5468 16.1367L10.2479 16.1895L9.8788 16.2598H9.6327C9.52723 16.2598 9.42177 16.2598 9.3163 16.2598C9.21083 16.2598 9.10536 16.2598 8.99989 16.2598C8.89442 16.2598 8.78895 16.2598 8.68348 16.2598C8.57802 16.2598 8.47255 16.2598 8.36708 16.2598H8.12098L7.75184 16.1895L7.45302 16.1191L7.15419 16.0488L6.83778 15.9609L6.59169 15.873C6.39247 15.791 6.19325 15.7031 5.99403 15.6094C5.79481 15.5156 5.60145 15.4102 5.41395 15.293L5.25575 15.1875L4.95692 14.9766C4.93348 14.9648 4.91298 14.9502 4.8954 14.9326C4.87782 14.915 4.85731 14.9004 4.83387 14.8887C5.00966 14.4785 5.2411 14.1064 5.52821 13.7725C5.81532 13.4385 6.14637 13.1484 6.52137 12.9023C6.89637 12.6562 7.29774 12.4717 7.72548 12.3486C8.15321 12.2256 8.58973 12.1641 9.03505 12.1641C9.48036 12.1641 9.91395 12.2256 10.3358 12.3486C10.7577 12.4717 11.1561 12.6562 11.5311 12.9023C11.9061 13.1484 12.2372 13.4385 12.5243 13.7725C12.8114 14.1064 13.0487 14.4785 13.2362 14.8887C13.2011 14.9004 13.1718 14.915 13.1483 14.9326C13.1249 14.9502 13.1015 14.9648 13.078 14.9766ZM8.99989 10.4766C9.3163 10.4883 9.62684 10.4473 9.93153 10.3535C10.2362 10.2598 10.5175 10.125 10.7753 9.94922C11.0331 9.77344 11.2645 9.5625 11.4696 9.31641C11.6747 9.07031 11.8358 8.80664 11.953 8.52539C12.0702 8.23242 12.1464 7.92773 12.1815 7.61133C12.2167 7.29492 12.1991 6.98438 12.1288 6.67969C12.0702 6.36328 11.9647 6.06738 11.8124 5.79199C11.66 5.5166 11.4725 5.26758 11.2499 5.04492C11.0272 4.82227 10.7782 4.63477 10.5028 4.48242C10.2274 4.33008 9.93153 4.22461 9.61512 4.16602C9.31044 4.10742 8.99989 4.0957 8.68348 4.13086C8.36708 4.16602 8.06239 4.24219 7.76942 4.35938C7.47645 4.47656 7.20985 4.6377 6.96962 4.84277C6.72938 5.04785 6.52137 5.2793 6.34559 5.53711C6.16981 5.80664 6.03798 6.09082 5.95009 6.38965C5.8622 6.68848 5.81825 6.99609 5.81825 7.3125C5.81825 7.73438 5.90028 8.1416 6.06434 8.53418C6.22841 8.92676 6.45692 9.26953 6.74989 9.5625C7.04286 9.86719 7.38563 10.1016 7.77821 10.2656C8.17079 10.4297 8.57802 10.5117 8.99989 10.5117V10.4766ZM8.99989 5.23828C9.19911 5.23828 9.39833 5.26758 9.59755 5.32617C9.79677 5.38477 9.97841 5.4668 10.1425 5.57227C10.3182 5.68945 10.4706 5.82715 10.5995 5.98535C10.7284 6.14355 10.8339 6.31641 10.9159 6.50391C10.9862 6.69141 11.0331 6.88477 11.0565 7.08398C11.08 7.2832 11.0741 7.48242 11.039 7.68164C10.9921 7.88086 10.9218 8.07129 10.828 8.25293C10.7343 8.43457 10.6171 8.60156 10.4765 8.75391C10.3358 8.89453 10.1747 9.01465 9.99305 9.11426C9.81141 9.21387 9.62098 9.28125 9.42177 9.31641C9.22255 9.36328 9.02333 9.375 8.82411 9.35156C8.62489 9.32812 8.43153 9.28125 8.24403 9.21094C8.04481 9.12891 7.8661 9.02637 7.7079 8.90332C7.5497 8.78027 7.41786 8.63086 7.31239 8.45508C7.1952 8.29102 7.10438 8.1123 7.03993 7.91895C6.97548 7.72559 6.94325 7.52344 6.94325 7.3125C6.94325 7.04297 6.99598 6.78223 7.10145 6.53027C7.20692 6.27832 7.35341 6.05859 7.54091 5.87109C7.74012 5.67188 7.96571 5.52246 8.21766 5.42285C8.46962 5.32324 8.73036 5.27344 8.99989 5.27344V5.23828Z" fill="#99A1B7"/>
<g opacity="0.1">
<path d="M16.9804 9.36914C16.9804 8.70117 16.8983 8.04785 16.7343 7.40918C16.5702 6.77051 16.3358 6.1582 16.0312 5.57227C15.7148 4.98633 15.3339 4.44727 14.8886 3.95508C14.4433 3.46289 13.9394 3.03516 13.3769 2.67188C12.8261 2.30859 12.2372 2.01855 11.6103 1.80176C10.9833 1.58496 10.3417 1.44727 9.68545 1.38867C9.01748 1.33008 8.3583 1.35059 7.70791 1.4502C7.05752 1.5498 6.42764 1.73438 5.81827 2.00391C5.20889 2.26172 4.64053 2.59277 4.11319 2.99707C3.58584 3.40137 3.11709 3.86719 2.70694 4.39453C2.29678 4.91016 1.95401 5.46973 1.67862 6.07324C1.40323 6.67676 1.20694 7.30664 1.08975 7.96289C0.984281 8.61914 0.954984 9.27832 1.00186 9.94043C1.04873 10.6025 1.17764 11.2441 1.38858 11.8652C1.5878 12.498 1.86612 13.0928 2.22354 13.6494C2.58096 14.2061 3.00577 14.7129 3.49795 15.1699L3.7792 15.4336H3.83194C3.87881 15.4805 3.93155 15.5244 3.99014 15.5654C4.04873 15.6064 4.10733 15.6504 4.16592 15.6973C4.2128 15.7441 4.25381 15.7793 4.28897 15.8027C4.32412 15.8262 4.36514 15.8496 4.41202 15.873C4.47061 15.9199 4.5292 15.9609 4.5878 15.9961C4.64639 16.0312 4.70498 16.0723 4.76358 16.1191L5.02725 16.2598C5.08584 16.3066 5.1503 16.3447 5.22061 16.374C5.29092 16.4033 5.35537 16.4355 5.41397 16.4707L5.67764 16.6113L6.08194 16.7695L6.36319 16.875L6.78506 17.0156L7.10147 17.0859L7.48819 17.1914L7.91006 17.2441L8.22647 17.2793C8.35537 17.2793 8.48135 17.2881 8.6044 17.3057C8.72745 17.3232 8.84756 17.332 8.96475 17.332C9.08194 17.332 9.20498 17.3291 9.33389 17.3232C9.4628 17.3174 9.58584 17.3027 9.70303 17.2793L10.037 17.2441L10.4413 17.1914L10.828 17.0859L11.162 16.998L11.5663 16.875L11.8827 16.8047L12.287 16.6465L12.5507 16.5059L12.9374 16.3125L13.1835 16.1543L13.5526 15.9258L13.7987 15.7324C13.8573 15.6855 13.9159 15.6416 13.9745 15.6006C14.0331 15.5596 14.0858 15.5156 14.1327 15.4688H14.1855L14.4667 15.2051C14.8651 14.8301 15.2226 14.4199 15.539 13.9746C15.8554 13.5293 16.119 13.0547 16.33 12.5508C16.5409 12.0469 16.7021 11.5283 16.8134 10.9951C16.9247 10.4619 16.9804 9.91992 16.9804 9.36914Z" fill="#99A1B7"/>
</g>
</svg>
