<svg width="18" height="18" viewBox="0 0 18 18" fill="none" xmlns="http://www.w3.org/2000/svg">
<path d="M6.48633 17.1387C6.32227 17.1387 6.15527 17.1182 5.98535 17.0771C5.81543 17.0361 5.6543 16.9688 5.50195 16.875L4.25391 16.1543C4.13672 16.084 4.03125 16.0078 3.9375 15.9258C3.84375 15.8438 3.75586 15.75 3.67383 15.6445C3.5918 15.5391 3.52148 15.4277 3.46289 15.3105C3.4043 15.1934 3.35742 15.0703 3.32227 14.9414C3.28711 14.8125 3.2666 14.6836 3.26074 14.5547C3.25488 14.4258 3.25781 14.291 3.26953 14.1504C3.29297 14.0215 3.3252 13.8955 3.36621 13.7725C3.40723 13.6494 3.46289 13.5293 3.5332 13.4121L3.86719 12.832C3.78516 12.7148 3.70605 12.5918 3.62988 12.4629C3.55371 12.334 3.48633 12.2051 3.42773 12.0762H2.72461C2.5957 12.0762 2.4668 12.0615 2.33789 12.0322C2.20898 12.0029 2.08594 11.9648 1.96875 11.918C1.85156 11.8711 1.7373 11.8096 1.62598 11.7334C1.51465 11.6572 1.41797 11.5723 1.33594 11.4785C1.24219 11.3965 1.15723 11.2998 1.08105 11.1885C1.00488 11.0771 0.943359 10.9629 0.896484 10.8457C0.849609 10.7168 0.814453 10.5879 0.791016 10.459C0.767578 10.3301 0.755859 10.2012 0.755859 10.0723V8.61328C0.755859 8.48438 0.767578 8.3584 0.791016 8.23535C0.814453 8.1123 0.849609 7.99219 0.896484 7.875C0.955078 7.75781 1.01953 7.64648 1.08984 7.54102C1.16016 7.43555 1.24219 7.33594 1.33594 7.24219C1.42969 7.14844 1.5293 7.06641 1.63477 6.99609C1.74023 6.92578 1.85156 6.86719 1.96875 6.82031C2.09766 6.77344 2.22363 6.73828 2.34668 6.71484C2.46973 6.69141 2.5957 6.67969 2.72461 6.67969H3.41016C3.46875 6.53906 3.53613 6.40723 3.6123 6.28418C3.68848 6.16113 3.76758 6.03516 3.84961 5.90625L3.51562 5.30859C3.45703 5.19141 3.40723 5.07129 3.36621 4.94824C3.3252 4.8252 3.29297 4.69922 3.26953 4.57031C3.25781 4.44141 3.25781 4.30957 3.26953 4.1748C3.28125 4.04004 3.30469 3.91406 3.33984 3.79688C3.375 3.66797 3.42188 3.54492 3.48047 3.42773C3.53906 3.31055 3.60938 3.19922 3.69141 3.09375C3.77344 2.98828 3.86426 2.89453 3.96387 2.8125C4.06348 2.73047 4.17188 2.66016 4.28906 2.60156L5.53711 1.88086C5.6543 1.81055 5.77441 1.75488 5.89746 1.71387C6.02051 1.67285 6.14648 1.64648 6.27539 1.63477C6.4043 1.62305 6.5332 1.62305 6.66211 1.63477C6.79102 1.64648 6.91992 1.66992 7.04883 1.70508C7.17773 1.74023 7.30078 1.78711 7.41797 1.8457C7.53516 1.9043 7.64062 1.97461 7.73438 2.05664C7.83984 2.13867 7.93652 2.22949 8.02441 2.3291C8.1123 2.42871 8.18555 2.53125 8.24414 2.63672L8.57812 3.2168C8.70703 3.20508 8.83887 3.19922 8.97363 3.19922C9.1084 3.19922 9.24609 3.20508 9.38672 3.2168L9.73828 2.61914C9.80859 2.50195 9.8877 2.39355 9.97559 2.29395C10.0635 2.19434 10.1602 2.10352 10.2656 2.02148C10.3594 1.95117 10.4648 1.88672 10.582 1.82812C10.6992 1.76953 10.8223 1.72266 10.9512 1.6875C11.0801 1.65234 11.2119 1.62891 11.3467 1.61719C11.4814 1.60547 11.6133 1.61133 11.7422 1.63477C11.8711 1.64648 11.9971 1.67285 12.1201 1.71387C12.2432 1.75488 12.3633 1.81055 12.4805 1.88086L13.7285 2.60156C13.9629 2.73047 14.1592 2.90039 14.3174 3.11133C14.4756 3.32227 14.5898 3.55664 14.6602 3.81445C14.7305 4.07227 14.748 4.33008 14.7129 4.58789C14.6777 4.8457 14.5898 5.0918 14.4492 5.32617L14.1328 5.90625C14.2148 6.02344 14.2939 6.14648 14.3701 6.27539C14.4463 6.4043 14.5195 6.5332 14.5898 6.66211H15.2754C15.5449 6.66211 15.7998 6.71484 16.04 6.82031C16.2803 6.92578 16.4941 7.07227 16.6816 7.25977C16.8574 7.44727 16.9951 7.66406 17.0947 7.91016C17.1943 8.15625 17.2441 8.4082 17.2441 8.66602V10.1426C17.2441 10.4121 17.1943 10.667 17.0947 10.9072C16.9951 11.1475 16.8516 11.3613 16.6641 11.5488C16.4766 11.7246 16.2627 11.8623 16.0225 11.9619C15.7822 12.0615 15.5273 12.1172 15.2578 12.1289H14.5723C14.5137 12.2461 14.4492 12.3662 14.3789 12.4893C14.3086 12.6123 14.2383 12.7266 14.168 12.832L14.502 13.4473C14.5723 13.5645 14.625 13.6846 14.6602 13.8076C14.6953 13.9307 14.7246 14.0566 14.748 14.1855C14.7598 14.3145 14.7598 14.4434 14.748 14.5723C14.7363 14.7012 14.7129 14.8301 14.6777 14.959C14.6426 15.0879 14.5957 15.208 14.5371 15.3193C14.4785 15.4307 14.4082 15.5391 14.3262 15.6445C14.2441 15.75 14.1533 15.8438 14.0537 15.9258C13.9541 16.0078 13.8516 16.084 13.7461 16.1543L12.4805 16.875C12.375 16.9336 12.2578 16.9834 12.1289 17.0244C12 17.0654 11.8711 17.0977 11.7422 17.1211C11.6133 17.1328 11.4844 17.1328 11.3555 17.1211C11.2266 17.1094 11.0977 17.0859 10.9688 17.0508C10.8398 17.0156 10.7197 16.9688 10.6084 16.9102C10.4971 16.8516 10.3887 16.7812 10.2832 16.6992C10.1777 16.6172 10.084 16.5264 10.002 16.4268C9.91992 16.3271 9.84375 16.2188 9.77344 16.1016L9.43945 15.5391C9.29883 15.5508 9.15527 15.5566 9.00879 15.5566C8.8623 15.5566 8.71875 15.5508 8.57812 15.5391L8.22656 16.1367C8.14453 16.2891 8.04199 16.4268 7.91895 16.5498C7.7959 16.6729 7.6582 16.7812 7.50586 16.875C7.35352 16.9688 7.19238 17.0361 7.02246 17.0771C6.85254 17.1182 6.67383 17.1387 6.48633 17.1387ZM2.74219 7.85742C2.63672 7.85742 2.53125 7.87793 2.42578 7.91895C2.32031 7.95996 2.22656 8.01562 2.14453 8.08594C2.10938 8.13281 2.07715 8.17676 2.04785 8.21777C2.01855 8.25879 1.99219 8.30859 1.96875 8.36719C1.94531 8.41406 1.92773 8.46387 1.91602 8.5166C1.9043 8.56934 1.89844 8.625 1.89844 8.68359V10.125C1.91016 10.2305 1.93945 10.3301 1.98633 10.4238C2.0332 10.5176 2.0918 10.6055 2.16211 10.6875C2.24414 10.7578 2.33203 10.8135 2.42578 10.8545C2.51953 10.8955 2.61914 10.916 2.72461 10.916H3.7793C3.83789 10.916 3.89648 10.9219 3.95508 10.9336C4.01367 10.9453 4.06641 10.9688 4.11328 11.0039C4.16016 11.0391 4.20117 11.0771 4.23633 11.1182C4.27148 11.1592 4.29492 11.209 4.30664 11.2676C4.40039 11.4785 4.50586 11.6807 4.62305 11.874C4.74023 12.0674 4.86914 12.2578 5.00977 12.4453C5.04492 12.4922 5.07129 12.542 5.08887 12.5947C5.10645 12.6475 5.11523 12.7031 5.11523 12.7617C5.12695 12.8203 5.12695 12.876 5.11523 12.9287C5.10352 12.9814 5.08008 13.0312 5.04492 13.0781L4.51758 13.9746C4.4707 14.0801 4.43848 14.1885 4.4209 14.2998C4.40332 14.4111 4.40625 14.5195 4.42969 14.625C4.46484 14.7305 4.51465 14.8271 4.5791 14.915C4.64355 15.0029 4.72852 15.0762 4.83398 15.1348L6.08203 15.8555C6.12891 15.8789 6.17871 15.8994 6.23145 15.917C6.28418 15.9346 6.33398 15.9492 6.38086 15.9609C6.43945 15.9727 6.49805 15.9756 6.55664 15.9697C6.61523 15.9639 6.66797 15.9551 6.71484 15.9434C6.82031 15.9082 6.91699 15.8584 7.00488 15.7939C7.09277 15.7295 7.16602 15.6445 7.22461 15.5391L7.75195 14.625C7.78711 14.5781 7.8252 14.5371 7.86621 14.502C7.90723 14.4668 7.95117 14.4316 7.99805 14.3965C8.05664 14.373 8.1123 14.3584 8.16504 14.3525C8.21777 14.3467 8.27344 14.3438 8.33203 14.3438C8.55469 14.3672 8.77734 14.3789 9 14.3789C9.22266 14.3789 9.44531 14.3672 9.66797 14.3438C9.71484 14.332 9.76758 14.332 9.82617 14.3438C9.88477 14.3555 9.9375 14.373 9.98438 14.3965C10.043 14.4199 10.0928 14.4521 10.1338 14.4932C10.1748 14.5342 10.207 14.5781 10.2305 14.625L10.7578 15.5215C10.8164 15.6152 10.8896 15.6973 10.9775 15.7676C11.0654 15.8379 11.1621 15.8906 11.2676 15.9258C11.373 15.9492 11.4814 15.9551 11.5928 15.9434C11.7041 15.9316 11.8066 15.8965 11.9004 15.8379L13.1484 15.1172C13.1953 15.0938 13.2393 15.0645 13.2803 15.0293C13.3213 14.9941 13.3594 14.9531 13.3945 14.9062C13.4297 14.8594 13.459 14.8125 13.4824 14.7656C13.5059 14.7188 13.5293 14.666 13.5527 14.6074C13.5762 14.502 13.5791 14.3936 13.5615 14.2822C13.5439 14.1709 13.5117 14.0684 13.4648 13.9746L12.9375 13.0605C12.9023 13.0137 12.8789 12.9609 12.8672 12.9023C12.8555 12.8438 12.8496 12.791 12.8496 12.7441C12.8496 12.6855 12.8555 12.6299 12.8672 12.5771C12.8789 12.5244 12.9023 12.4688 12.9375 12.4102C13.0664 12.2461 13.1865 12.0674 13.2979 11.874C13.4092 11.6807 13.5117 11.4844 13.6055 11.2852C13.6172 11.2266 13.6406 11.1768 13.6758 11.1357C13.7109 11.0947 13.752 11.0566 13.7988 11.0215C13.8457 10.9863 13.8984 10.96 13.957 10.9424C14.0156 10.9248 14.0742 10.9219 14.1328 10.9336H15.1699C15.2754 10.9336 15.3809 10.916 15.4863 10.8809C15.5918 10.8457 15.6855 10.793 15.7676 10.7227C15.8496 10.6406 15.917 10.5527 15.9697 10.459C16.0225 10.3652 16.0488 10.2598 16.0488 10.1426V8.70117C16.0488 8.64258 16.0459 8.58691 16.04 8.53418C16.0342 8.48145 16.0195 8.42578 15.9961 8.36719C15.9727 8.32031 15.9463 8.27344 15.917 8.22656C15.8877 8.17969 15.8555 8.13867 15.8203 8.10352C15.7734 8.05664 15.7295 8.01855 15.6885 7.98926C15.6475 7.95996 15.5977 7.93359 15.5391 7.91016C15.4922 7.88672 15.4424 7.86914 15.3896 7.85742C15.3369 7.8457 15.2812 7.83984 15.2227 7.83984H14.168C14.1211 7.83984 14.0684 7.83105 14.0098 7.81348C13.9512 7.7959 13.8984 7.77539 13.8516 7.75195C13.8047 7.7168 13.7637 7.67578 13.7285 7.62891C13.6934 7.58203 13.6641 7.53516 13.6406 7.48828C13.5586 7.27734 13.459 7.0752 13.3418 6.88184C13.2246 6.68848 13.0957 6.50391 12.9551 6.32812C12.9199 6.28125 12.8906 6.23145 12.8672 6.17871C12.8438 6.12598 12.832 6.07031 12.832 6.01172C12.832 5.95312 12.8379 5.89453 12.8496 5.83594C12.8613 5.77734 12.8848 5.72461 12.9199 5.67773L13.4297 4.78125C13.4883 4.67578 13.5234 4.57031 13.5352 4.46484C13.5469 4.35938 13.541 4.24805 13.5176 4.13086C13.4824 4.02539 13.4326 3.92871 13.3682 3.84082C13.3037 3.75293 13.2188 3.67969 13.1133 3.62109L11.8652 2.88281C11.7832 2.82422 11.6895 2.78906 11.584 2.77734C11.4785 2.76562 11.373 2.77148 11.2676 2.79492C11.1621 2.83008 11.0654 2.87988 10.9775 2.94434C10.8896 3.00879 10.8164 3.08789 10.7578 3.18164L10.2305 4.0957C10.207 4.1543 10.1748 4.20117 10.1338 4.23633C10.0928 4.27148 10.043 4.30078 9.98438 4.32422C9.9375 4.35938 9.88477 4.37988 9.82617 4.38574C9.76758 4.3916 9.71484 4.39453 9.66797 4.39453C9.44531 4.35938 9.22559 4.3418 9.00879 4.3418C8.79199 4.3418 8.57812 4.35938 8.36719 4.39453C8.30859 4.39453 8.25293 4.3916 8.2002 4.38574C8.14746 4.37988 8.09766 4.35938 8.05078 4.32422C7.99219 4.30078 7.94238 4.27148 7.90137 4.23633C7.86035 4.20117 7.82812 4.1543 7.80469 4.0957L7.25977 3.19922C7.20117 3.09375 7.12793 3.00879 7.04004 2.94434C6.95215 2.87988 6.85547 2.83008 6.75 2.79492C6.63281 2.77148 6.52148 2.76562 6.41602 2.77734C6.31055 2.78906 6.20508 2.82422 6.09961 2.88281L4.85156 3.58594C4.75781 3.64453 4.67578 3.71777 4.60547 3.80566C4.53516 3.89355 4.48242 3.99023 4.44727 4.0957C4.42383 4.20117 4.41797 4.30957 4.42969 4.4209C4.44141 4.53223 4.47656 4.63477 4.53516 4.72852L5.04492 5.66016C5.08008 5.70703 5.10352 5.75977 5.11523 5.81836C5.12695 5.87695 5.13281 5.93555 5.13281 5.99414C5.13281 6.05273 5.12109 6.11133 5.09766 6.16992C5.07422 6.22852 5.04492 6.28125 5.00977 6.32812C4.86914 6.50391 4.74023 6.68555 4.62305 6.87305C4.50586 7.06055 4.40039 7.25977 4.30664 7.4707C4.29492 7.51758 4.27148 7.56445 4.23633 7.61133C4.20117 7.6582 4.16016 7.69922 4.11328 7.73438C4.05469 7.75781 3.99902 7.77832 3.94629 7.7959C3.89355 7.81348 3.83789 7.82227 3.7793 7.82227H2.74219V7.85742ZM8.98242 12.4453C8.67773 12.4453 8.38184 12.4014 8.09473 12.3135C7.80762 12.2256 7.53516 12.0938 7.27734 11.918C7.03125 11.7539 6.81152 11.5547 6.61816 11.3203C6.4248 11.0859 6.26953 10.8281 6.15234 10.5469C6.03516 10.2656 5.96191 9.97559 5.93262 9.67676C5.90332 9.37793 5.91797 9.08203 5.97656 8.78906C6.03516 8.48438 6.1377 8.2002 6.28418 7.93652C6.43066 7.67285 6.60938 7.43555 6.82031 7.22461C7.03125 7.00195 7.27148 6.82031 7.54102 6.67969C7.81055 6.53906 8.0918 6.43945 8.38477 6.38086C8.67773 6.32227 8.97656 6.30762 9.28125 6.33691C9.58594 6.36621 9.87891 6.43945 10.1602 6.55664C10.4297 6.67383 10.6816 6.8291 10.916 7.02246C11.1504 7.21582 11.3555 7.43555 11.5312 7.68164C11.6953 7.92773 11.8213 8.19727 11.9092 8.49023C11.9971 8.7832 12.041 9.08203 12.041 9.38672C12.041 9.78516 11.9619 10.1719 11.8037 10.5469C11.6455 10.9219 11.4258 11.2559 11.1445 11.5488C10.8633 11.8301 10.5352 12.0498 10.1602 12.208C9.78516 12.3662 9.39258 12.4453 8.98242 12.4453ZM8.98242 7.4707C8.79492 7.4707 8.61035 7.49707 8.42871 7.5498C8.24707 7.60254 8.07422 7.68164 7.91016 7.78711C7.75781 7.89258 7.62305 8.01855 7.50586 8.16504C7.38867 8.31152 7.28906 8.47266 7.20703 8.64844C7.13672 8.82422 7.09277 9.00586 7.0752 9.19336C7.05762 9.38086 7.06641 9.56836 7.10156 9.75586C7.13672 9.94336 7.20117 10.1191 7.29492 10.2832C7.38867 10.4473 7.5 10.5996 7.62891 10.7402C7.75781 10.8691 7.90723 10.9775 8.07715 11.0654C8.24707 11.1533 8.42578 11.2148 8.61328 11.25C8.80078 11.2969 8.98828 11.3086 9.17578 11.2852C9.36328 11.2617 9.54492 11.2148 9.7207 11.1445C9.88477 11.0742 10.04 10.9805 10.1865 10.8633C10.333 10.7461 10.459 10.6055 10.5645 10.4414C10.6699 10.2891 10.752 10.1221 10.8105 9.94043C10.8691 9.75879 10.8984 9.57422 10.8984 9.38672C10.8984 9.12891 10.8486 8.88281 10.749 8.64844C10.6494 8.41406 10.5117 8.20898 10.3359 8.0332C10.1602 7.8457 9.95508 7.70508 9.7207 7.61133C9.48633 7.51758 9.24023 7.4707 8.98242 7.4707Z" fill="#99A1B7"/>
<g opacity="0.1">
<path d="M5.51953 16.8398C5.67188 16.9219 5.83008 16.9863 5.99414 17.0332C6.1582 17.0801 6.32812 17.1035 6.50391 17.1035C6.67969 17.1035 6.85254 17.0801 7.02246 17.0332C7.19238 16.9863 7.35352 16.9219 7.50586 16.8398C7.6582 16.7461 7.7959 16.6377 7.91895 16.5146C8.04199 16.3916 8.15039 16.2539 8.24414 16.1016L8.5957 15.5039C8.73633 15.5156 8.87695 15.5215 9.01758 15.5215C9.1582 15.5215 9.29883 15.5156 9.43945 15.5039L9.77344 16.0664C9.84375 16.1836 9.91992 16.292 10.002 16.3916C10.084 16.4912 10.1777 16.582 10.2832 16.6641C10.3887 16.7461 10.4971 16.8164 10.6084 16.875C10.7197 16.9336 10.8398 16.9805 10.9688 17.0156C11.0977 17.0508 11.2266 17.0742 11.3555 17.0859C11.4844 17.0977 11.6133 17.0918 11.7422 17.0684C11.8711 17.0566 11.9971 17.0303 12.1201 16.9893C12.2432 16.9482 12.3633 16.8984 12.4805 16.8398L13.7285 16.1191C13.8457 16.0488 13.9541 15.9727 14.0537 15.8906C14.1533 15.8086 14.2441 15.7148 14.3262 15.6094C14.4082 15.5156 14.4785 15.4102 14.5371 15.293C14.5957 15.1758 14.6426 15.0527 14.6777 14.9238C14.7129 14.7949 14.7334 14.666 14.7393 14.5371C14.7451 14.4082 14.7422 14.2793 14.7305 14.1504C14.7188 14.0215 14.6924 13.8955 14.6514 13.7725C14.6104 13.6494 14.5547 13.5293 14.4844 13.4121L14.1504 12.8145C14.2324 12.6973 14.3057 12.5801 14.3701 12.4629C14.4346 12.3457 14.502 12.2227 14.5723 12.0938H15.2402C15.5098 12.0938 15.7646 12.0439 16.0049 11.9443C16.2451 11.8447 16.459 11.7012 16.6465 11.5137C16.834 11.3379 16.9775 11.1299 17.0771 10.8896C17.1768 10.6494 17.2266 10.3945 17.2266 10.125V8.64844C17.2266 8.39062 17.1768 8.1416 17.0771 7.90137C16.9775 7.66113 16.8398 7.44727 16.6641 7.25977C16.4766 7.07227 16.2627 6.92578 16.0225 6.82031C15.7822 6.71484 15.5273 6.66211 15.2578 6.66211H14.5723C14.5137 6.52148 14.4463 6.38965 14.3701 6.2666C14.2939 6.14355 14.209 6.01758 14.1152 5.88867L14.4492 5.30859C14.5781 5.08594 14.6602 4.8457 14.6953 4.58789C14.7305 4.33008 14.7129 4.07227 14.6426 3.81445C14.5723 3.55664 14.458 3.3252 14.2998 3.12012C14.1416 2.91504 13.9512 2.74219 13.7285 2.60156L12.4805 1.89844C12.3633 1.82812 12.2432 1.77246 12.1201 1.73145C11.9971 1.69043 11.8711 1.6582 11.7422 1.63477C11.6133 1.62305 11.4814 1.62012 11.3467 1.62598C11.2119 1.63184 11.0801 1.65234 10.9512 1.6875C10.8223 1.72266 10.6992 1.76953 10.582 1.82812C10.4648 1.88672 10.3594 1.95703 10.2656 2.03906C10.1602 2.12109 10.0635 2.20898 9.97559 2.30273C9.8877 2.39648 9.81445 2.50195 9.75586 2.61914L9.38672 3.2168C9.25781 3.20508 9.12598 3.19922 8.99121 3.19922C8.85645 3.19922 8.71875 3.20508 8.57812 3.2168L8.26172 2.6543C8.19141 2.53711 8.11523 2.42871 8.0332 2.3291C7.95117 2.22949 7.85742 2.13867 7.75195 2.05664C7.64648 1.97461 7.53516 1.9043 7.41797 1.8457C7.30078 1.78711 7.18359 1.74023 7.06641 1.70508C6.9375 1.66992 6.80859 1.64648 6.67969 1.63477C6.55078 1.62305 6.42188 1.62891 6.29297 1.65234C6.16406 1.66406 6.03809 1.69043 5.91504 1.73145C5.79199 1.77246 5.67188 1.82227 5.55469 1.88086L4.30664 2.60156C4.18945 2.66016 4.08105 2.7334 3.98145 2.82129C3.88184 2.90918 3.79102 3 3.70898 3.09375C3.62695 3.19922 3.55664 3.31055 3.49805 3.42773C3.43945 3.54492 3.39258 3.66797 3.35742 3.79688C3.32227 3.91406 3.29883 4.04004 3.28711 4.1748C3.27539 4.30957 3.28125 4.44141 3.30469 4.57031C3.31641 4.69922 3.34277 4.8252 3.38379 4.94824C3.4248 5.07129 3.47461 5.19141 3.5332 5.30859L3.88477 5.90625C3.79102 6.02344 3.70898 6.14648 3.63867 6.27539C3.56836 6.4043 3.49805 6.5332 3.42773 6.66211H2.75977C2.63086 6.66211 2.50195 6.67383 2.37305 6.69727C2.24414 6.7207 2.12109 6.76172 2.00391 6.82031C1.88672 6.86719 1.77246 6.92578 1.66113 6.99609C1.5498 7.06641 1.44727 7.14844 1.35352 7.24219C1.27148 7.32422 1.19238 7.41797 1.11621 7.52344C1.04004 7.62891 0.978516 7.74023 0.931641 7.85742C0.884766 7.97461 0.84668 8.09766 0.817383 8.22656C0.788086 8.35547 0.773438 8.47852 0.773438 8.5957V10.0547C0.773438 10.1836 0.788086 10.3125 0.817383 10.4414C0.84668 10.5703 0.884766 10.6992 0.931641 10.8281C0.978516 10.9453 1.03711 11.0566 1.10742 11.1621C1.17773 11.2676 1.25977 11.3672 1.35352 11.4609C1.44727 11.5547 1.54688 11.6396 1.65234 11.7158C1.75781 11.792 1.875 11.8535 2.00391 11.9004C2.12109 11.9473 2.24414 11.9854 2.37305 12.0146C2.50195 12.0439 2.63086 12.0586 2.75977 12.0586H3.44531C3.50391 12.1875 3.57129 12.3164 3.64746 12.4453C3.72363 12.5742 3.80273 12.6973 3.88477 12.8145L3.55078 13.377C3.48047 13.4941 3.4248 13.6172 3.38379 13.7461C3.34277 13.875 3.31641 14.0039 3.30469 14.1328C3.28125 14.2617 3.27539 14.3906 3.28711 14.5195C3.29883 14.6484 3.32227 14.7773 3.35742 14.9062C3.38086 15.0352 3.42188 15.1582 3.48047 15.2754C3.53906 15.3926 3.60938 15.5039 3.69141 15.6094C3.77344 15.7148 3.86133 15.8086 3.95508 15.8906C4.04883 15.9727 4.1543 16.0488 4.27148 16.1191L5.51953 16.8398ZM9 12.375C8.70703 12.375 8.41699 12.3311 8.12988 12.2432C7.84277 12.1553 7.57617 12.0293 7.33008 11.8652C7.08398 11.7012 6.86719 11.5049 6.67969 11.2764C6.49219 11.0479 6.33984 10.7988 6.22266 10.5293C6.11719 10.248 6.0498 9.96094 6.02051 9.66797C5.99121 9.375 6.00586 9.08203 6.06445 8.78906C6.12305 8.49609 6.21973 8.2207 6.35449 7.96289C6.48926 7.70508 6.66211 7.4707 6.87305 7.25977C7.08398 7.04883 7.32129 6.87305 7.58496 6.73242C7.84863 6.5918 8.12695 6.49219 8.41992 6.43359C8.71289 6.375 9.00586 6.36035 9.29883 6.38965C9.5918 6.41895 9.87305 6.49219 10.1426 6.60938C10.4238 6.71484 10.6787 6.86133 10.9072 7.04883C11.1357 7.23633 11.332 7.45898 11.4961 7.7168C11.6602 7.96289 11.7861 8.22656 11.874 8.50781C11.9619 8.78906 12.0059 9.07617 12.0059 9.36914C12.0059 9.76758 11.9297 10.1514 11.7773 10.5205C11.625 10.8896 11.4082 11.2148 11.127 11.4961C10.8457 11.7773 10.5205 11.9941 10.1514 12.1465C9.78223 12.2988 9.39844 12.375 9 12.375Z" fill="#99A1B7"/>
</g>
</svg>
