<svg width="12" height="12" viewBox="0 0 12 12" fill="none" xmlns="http://www.w3.org/2000/svg">
<path d="M11.172 4.45207L9.92556 4.26835C9.8184 4.02429 9.68241 3.78474 9.51355 3.54159L9.9877 2.32761C10.0755 2.09797 9.985 1.84491 9.77832 1.72918L7.98843 0.665614C7.78084 0.539541 7.51114 0.590409 7.36073 0.785397L6.58398 1.8062C6.28319 1.77469 6.07245 1.77469 5.77168 1.8062L4.99449 0.784046C4.84769 0.593575 4.58698 0.5418 4.36949 0.664263L2.58277 1.72604C2.37923 1.83995 2.28649 2.09617 2.36889 2.32896L2.84213 3.53977C2.67868 3.77168 2.54089 4.01572 2.43056 4.26788L1.18822 4.45116C0.952284 4.48178 0.774414 4.69028 0.774414 4.93567V7.06507C0.774414 7.31092 0.952284 7.5194 1.18417 7.54867L2.43056 7.73239C2.53773 7.97645 2.67372 8.216 2.84258 8.45915L2.36843 9.67313C2.28062 9.90322 2.37113 10.1563 2.57781 10.2716L4.37445 11.3396C4.451 11.3824 4.53385 11.4031 4.61534 11.4031C4.76033 11.4031 4.90128 11.3378 4.99584 11.2149L5.77214 10.1941C6.01169 10.2202 6.34581 10.2202 6.58491 10.1941L7.3621 11.2163C7.50843 11.4063 7.76915 11.4585 7.9871 11.3365L8.50492 11.0285C8.61164 10.965 8.64676 10.8268 8.58327 10.7201C8.51978 10.6133 8.38155 10.5778 8.27484 10.6417L7.71963 10.943L6.86545 9.81948C6.81682 9.75555 6.73847 9.72313 6.65742 9.73259C6.38454 9.76771 5.97298 9.76771 5.7001 9.73259C5.61949 9.72357 5.5407 9.75555 5.49207 9.81948L4.6005 10.9497L2.80387 9.88162C2.78675 9.87172 2.78405 9.85011 2.78991 9.83525L3.30773 8.50962C3.33566 8.43758 3.3253 8.35697 3.27981 8.29483C3.07043 8.0071 2.91328 7.72882 2.79981 7.44423C2.77009 7.36949 2.70255 7.31635 2.62329 7.30465L1.25127 7.10247C1.24992 7.10247 1.22739 7.06464 1.22604 7.06464V4.93523L1.25127 4.89696L2.62329 4.69478C2.70299 4.68306 2.77009 4.62994 2.79981 4.5552C2.91778 4.25891 3.07853 3.97342 3.27846 3.70686C3.32483 3.64472 3.3361 3.56276 3.30773 3.49028L2.79215 2.17182C2.78584 2.15291 2.79171 2.12545 2.80927 2.11553L4.63833 1.05736L5.49251 2.18083C5.54114 2.24432 5.61949 2.27674 5.70055 2.26773C6.07518 2.21954 6.28321 2.21954 6.65786 2.26773C6.73935 2.27719 6.81726 2.24477 6.86589 2.18083L7.75746 1.05107L9.55365 2.11869C9.57077 2.12859 9.57392 2.15021 9.56807 2.16507L9.05025 3.4907C9.02232 3.56274 9.03269 3.64335 9.07817 3.70549C9.28756 3.99322 9.4447 4.27149 9.55817 4.55608C9.58789 4.63082 9.65543 4.68397 9.73469 4.69566L11.1067 4.89785C11.1081 4.89829 11.1306 4.93612 11.1319 4.93612V7.06551L11.1067 7.10333L10.2269 7.23302C10.1035 7.25102 10.0184 7.3654 10.0368 7.48833C10.0548 7.61126 10.1683 7.69771 10.2921 7.67836L11.1675 7.54912C11.4035 7.51895 11.5818 7.31092 11.5818 7.06507V4.93567C11.5813 4.69028 11.4039 4.48178 11.172 4.45207Z" fill="#60646C" stroke="#60646C" stroke-width="0.180108"/>
<path d="M8.80193 6.95426C8.55067 6.703 8.41379 6.3842 8.4273 6.07935C8.45117 5.5237 8.21882 4.99326 7.71675 4.45787C7.28718 3.99993 6.71036 3.74013 6.14931 3.74823C5.64905 3.75454 5.1722 3.92925 4.77009 4.25389C4.71291 4.30027 4.68184 4.37142 4.68678 4.44481C4.69218 4.5182 4.73271 4.58439 4.79575 4.62177L6.17183 5.44714C6.13086 5.86095 5.88636 6.22389 5.51217 6.4175L4.28019 5.67814C4.2122 5.63717 4.11764 5.64032 4.0474 5.67858C3.97895 5.71597 3.93483 5.78575 3.93032 5.86321C3.8934 6.49091 4.10998 7.08753 4.53955 7.54323C4.96372 7.99262 5.5608 8.25017 6.17814 8.25017C6.34386 8.25017 6.51001 8.22856 6.69238 8.18219L9.56656 11.0564C9.78945 11.2797 10.0857 11.4022 10.4014 11.4022C11.0521 11.4022 11.5811 10.8727 11.5811 10.222C11.5811 9.90679 11.4582 9.61049 11.2353 9.38759L8.80193 6.95426ZM10.4013 10.9523H10.4004C10.2055 10.9523 10.0222 10.8762 9.88441 10.7385L6.91748 7.77153C6.87426 7.72874 6.81708 7.70578 6.75808 7.70578C6.73603 7.70578 6.71441 7.70848 6.69415 7.71479C6.50142 7.77288 6.33797 7.79989 6.17857 7.79989C5.67695 7.79989 5.2118 7.59906 4.86779 7.23433C4.61292 6.96416 4.45217 6.63185 4.39769 6.27387L5.38696 6.86734C5.45316 6.90696 5.53421 6.90966 5.60354 6.87589L5.69855 6.82861C6.27175 6.54178 6.62838 5.96497 6.62838 5.32375C6.62838 5.2445 6.5865 5.17111 6.51896 5.13058L5.33021 4.41733C5.58552 4.27684 5.86559 4.20163 6.15514 4.19805C6.58967 4.19173 7.04535 4.39932 7.38847 4.76541C7.80903 5.21433 7.99635 5.62546 7.97744 6.05953C7.95853 6.49001 8.14315 6.93218 8.48357 7.2726L10.9169 9.7064C11.0551 9.84418 11.1308 10.0275 11.1308 10.2229C11.1312 10.625 10.8043 10.9523 10.4013 10.9523Z" fill="#60646C" stroke="#60646C" stroke-width="0.180108"/>
</svg>
