<svg width="12" height="12" viewBox="0 0 12 12" fill="none" xmlns="http://www.w3.org/2000/svg">
<path d="M6.78181 5.87395L9.65796 2.99798L10.2417 2.8812C10.2697 2.87559 10.296 2.86339 10.3183 2.84563C10.3407 2.82786 10.3585 2.80503 10.3703 2.77902L11.0074 1.37735C11.0226 1.34401 11.0274 1.3068 11.0209 1.27071C11.0145 1.23461 10.9972 1.20134 10.9713 1.17533L10.4612 0.665697C10.4352 0.639851 10.4019 0.622554 10.3658 0.616114C10.3297 0.609674 10.2925 0.614398 10.2591 0.629655L8.85747 1.26616C8.83146 1.27797 8.80863 1.2958 8.79086 1.31817C8.7731 1.34054 8.76091 1.36682 8.75529 1.39483L8.6387 1.97853L5.762 4.85504L4.8159 3.912C4.79218 3.88861 4.7756 3.85897 4.76807 3.82653C4.76054 3.79408 4.76238 3.76017 4.77337 3.72873C4.91392 3.33596 4.94704 2.91278 4.86932 2.50293C4.7916 2.09308 4.60585 1.71141 4.33127 1.39736C4.05668 1.08332 3.70322 0.848286 3.30741 0.716554C2.91159 0.584822 2.48778 0.561168 2.07977 0.648036C2.01723 0.661421 1.95948 0.691466 1.91262 0.734992C1.86577 0.778517 1.83155 0.833903 1.8136 0.895284C1.79481 0.957911 1.79327 1.02444 1.80913 1.08788C1.82498 1.15131 1.85766 1.20929 1.9037 1.2557L2.95091 2.30273C2.96769 2.31947 2.981 2.33935 2.99009 2.36125C2.99917 2.38314 3.00385 2.40661 3.00385 2.43031C3.00385 2.45402 2.99917 2.47749 2.99009 2.49938C2.981 2.52128 2.96769 2.54116 2.95091 2.5579L2.18681 3.32199C2.17007 3.33878 2.15019 3.35209 2.12829 3.36118C2.1064 3.37026 2.08293 3.37494 2.05923 3.37494C2.03552 3.37494 2.01205 3.37026 1.99016 3.36118C1.96826 3.35209 1.94838 3.33878 1.93164 3.32199L0.885517 2.27551C0.839045 2.22955 0.781065 2.19693 0.717653 2.18108C0.654241 2.16523 0.587732 2.16672 0.525097 2.18541C0.463705 2.20319 0.408256 2.23723 0.364609 2.28392C0.320962 2.33061 0.290737 2.38823 0.277128 2.45068C0.190025 2.85904 0.213643 3.28325 0.345537 3.67942C0.477432 4.07558 0.712809 4.4293 1.02731 4.70395C1.3418 4.9786 1.72399 5.16421 2.1343 5.24157C2.54462 5.31892 2.96815 5.28521 3.36106 5.14392C3.3921 5.13332 3.42551 5.13173 3.45741 5.13936C3.4893 5.14698 3.51839 5.1635 3.54127 5.18699L4.13939 5.78168C4.05887 5.81728 3.98557 5.86737 3.92314 5.92945L0.391741 9.46085C0.290389 9.56223 0.233452 9.69972 0.233452 9.84308C0.233452 9.98643 0.290389 10.1239 0.391741 10.2253L1.41101 11.2448C1.46121 11.295 1.52082 11.3348 1.58641 11.362C1.65201 11.3891 1.72232 11.4031 1.79333 11.4031C1.86433 11.4031 1.93464 11.3891 2.00024 11.362C2.06584 11.3348 2.12544 11.295 2.17564 11.2448L5.70632 7.71408C5.76911 7.65087 5.81964 7.57657 5.85535 7.49494L9.50731 11.1373C9.67635 11.3059 9.90529 11.4006 10.144 11.4006C10.1577 11.4006 10.1714 11.4006 10.1851 11.3997C10.3111 11.3936 10.4345 11.3614 10.5474 11.3051C10.6603 11.2487 10.7602 11.1695 10.8409 11.0725C10.9812 10.8931 11.0505 10.6682 11.0353 10.4409C11.0202 10.2137 10.9218 9.99995 10.7589 9.84073L6.78181 5.87395ZM8.93208 2.19478C8.95712 2.16955 8.97422 2.13753 8.98128 2.10269L9.09066 1.55593L10.2946 1.00882L10.6277 1.34185L10.0806 2.54583L9.53362 2.65522C9.49881 2.6622 9.46683 2.67932 9.44171 2.70441L6.40049 5.74564L6.39904 5.74672L6.39796 5.74816L5.57873 6.5674L5.06909 6.05776L5.88851 5.23835L5.89013 5.23727V5.23583L8.93208 2.19478ZM3.2387 4.80494C2.90671 4.92441 2.54884 4.95302 2.20209 4.88781C1.85534 4.8226 1.53231 4.66595 1.26639 4.43405C1.00048 4.20215 0.801349 3.90342 0.689589 3.56876C0.577828 3.2341 0.557497 2.87566 0.6307 2.53051L1.67772 3.57771C1.77924 3.67895 1.91676 3.73581 2.06013 3.73581C2.2035 3.73581 2.34102 3.67895 2.44253 3.57771L3.20662 2.81362C3.25686 2.76341 3.29672 2.7038 3.32391 2.63819C3.3511 2.57257 3.36509 2.50224 3.36509 2.43122C3.36509 2.36019 3.3511 2.28986 3.32391 2.22424C3.29672 2.15863 3.25686 2.09902 3.20662 2.04881L2.15474 1.00071C2.49995 0.927157 2.85854 0.947113 3.19346 1.05851C3.52838 1.16991 3.82749 1.36872 4.05987 1.63439C4.29225 1.90006 4.44949 2.22296 4.51533 2.56973C4.58117 2.91649 4.55323 3.27455 4.43439 3.60691C4.40029 3.70264 4.39404 3.80608 4.41637 3.90522C4.4387 4.00436 4.48869 4.09513 4.56054 4.167L5.50664 5.10986L4.79572 5.82079C4.73822 5.78679 4.67622 5.76107 4.61154 5.74438L3.79537 4.93181C3.72412 4.86011 3.63398 4.81012 3.53543 4.78766C3.43688 4.7652 3.33398 4.77119 3.2387 4.80494ZM2.52291 10.388L1.24864 9.11377L1.68385 8.67838L2.95829 9.95264L2.52291 10.388ZM1.92046 10.9899C1.90373 11.0067 1.88385 11.02 1.86197 11.0291C1.8401 11.0381 1.81665 11.0428 1.79297 11.0428C1.76928 11.0428 1.74583 11.0381 1.72396 11.0291C1.70208 11.02 1.6822 11.0067 1.66547 10.9899L0.646558 9.97049C0.612774 9.93669 0.593795 9.89086 0.593795 9.84308C0.593795 9.79529 0.612774 9.74946 0.646558 9.71567L0.993823 9.36858L2.26809 10.6428L1.92046 10.9899ZM5.4515 7.45926L3.21311 9.69801L1.93848 8.42356L4.17723 6.18499C4.24591 6.11951 4.33716 6.08298 4.43205 6.08298C4.52694 6.08298 4.61819 6.11951 4.68687 6.18499L5.4515 6.94962C5.51907 7.01721 5.55703 7.10887 5.55703 7.20444C5.55703 7.30001 5.51907 7.39167 5.4515 7.45926ZM10.5635 10.8425C10.5156 10.9008 10.4559 10.9485 10.3885 10.9824C10.321 11.0163 10.2472 11.0358 10.1718 11.0396C10.0964 11.0433 10.021 11.0313 9.95054 11.0042C9.88006 10.9771 9.816 10.9356 9.76249 10.8823L5.89139 7.02189C5.87475 6.95805 5.84928 6.89685 5.81571 6.84006L6.52699 6.12877L10.5044 10.0957C10.6043 10.1912 10.6655 10.3201 10.6765 10.4578C10.6874 10.5956 10.6472 10.7325 10.5635 10.8425Z" fill="#60646C" stroke="#60646C" stroke-width="0.180152"/>
</svg>
