<svg width="14" height="14" viewBox="0 0 14 14" fill="none" xmlns="http://www.w3.org/2000/svg">
<g clip-path="url(#clip0_806_845)">
<path d="M3.40616 12.985C3.32248 12.985 3.24001 12.9506 3.18085 12.8851C3.08582 12.7801 3.07568 12.6237 3.15673 12.5076L5.6743 8.89023C5.76568 8.71131 5.73144 8.49005 5.58859 8.34721C5.44594 8.20456 5.22448 8.16991 5.04557 8.2617L1.42838 10.7793C1.31187 10.8601 1.15524 10.8502 1.05069 10.755C0.945733 10.6599 0.920203 10.5053 0.989297 10.3815L3.75143 5.43554C3.75568 5.42825 3.75994 5.42095 3.7648 5.41386C3.97228 5.10608 4.35929 4.98511 4.70476 5.12026L5.98816 5.62033C6.14458 5.68132 6.22198 5.8574 6.16099 6.01382C6.10001 6.17004 5.92393 6.24785 5.7675 6.18666L4.4841 5.68659C4.40812 5.65701 4.32322 5.68132 4.27459 5.74596L2.16267 9.52788L4.71327 7.75251C4.72198 7.74643 4.7311 7.74076 4.74042 7.73569C5.15701 7.50694 5.68261 7.5815 6.01855 7.91745C6.3547 8.25359 6.42926 8.77919 6.2003 9.19558C6.19524 9.2049 6.18956 9.21402 6.18349 9.22273L4.40832 11.7735L8.19024 9.6614C8.25468 9.61278 8.27919 9.52808 8.24961 9.4521L7.86443 8.46331C7.75076 8.17194 7.82046 7.84065 8.04152 7.61959L8.77177 6.88935C8.8905 6.77061 9.08279 6.77061 9.20153 6.88935C9.32026 7.00808 9.32026 7.20037 9.20153 7.31911L8.47128 8.04935C8.42062 8.10001 8.40482 8.17579 8.43076 8.24265L8.81574 9.23124C8.95048 9.57711 8.82972 9.96351 8.52193 10.171C8.51484 10.1759 8.50755 10.1803 8.50025 10.1844L3.55428 12.9465C3.50767 12.9724 3.45682 12.985 3.40616 12.985Z" fill="#60646C"/>
<path d="M9.58632 7.4708C8.78658 7.4708 7.98683 7.16646 7.37816 6.55758C6.16041 5.33983 6.16041 3.35861 7.37816 2.14085C8.5955 0.923101 10.5769 0.923101 11.7947 2.14085C13.0122 3.35861 13.0122 5.33983 11.7947 6.55758C11.1858 7.16646 10.3859 7.4708 9.58632 7.4708ZM7.80792 2.57081C7.33277 3.04596 7.07119 3.67753 7.07119 4.34922C7.07119 5.02091 7.33277 5.65288 7.80792 6.12783C8.7884 7.10811 10.384 7.10851 11.3649 6.12783C12.3454 5.14714 12.3454 3.5513 11.3649 2.57061C10.384 1.59013 8.7884 1.59053 7.80792 2.57081Z" fill="#60646C"/>
<path d="M9.58638 6.06482C9.1469 6.06482 8.70741 5.89766 8.37288 5.56293C7.70383 4.89367 7.70383 3.80479 8.37288 3.13573C9.04194 2.46647 10.1308 2.46647 10.8001 3.13573C11.4691 3.80499 11.4691 4.89387 10.8001 5.56293C10.4656 5.89746 10.0261 6.06482 9.58638 6.06482ZM8.80244 3.56549C8.37025 3.99768 8.37025 4.70098 8.80244 5.13317C9.23463 5.56556 9.93793 5.56516 10.3701 5.13317C10.8023 4.70098 10.8023 3.99768 10.3701 3.56549C9.93793 3.1333 9.23463 3.1333 8.80244 3.56549Z" fill="#60646C"/>
</g>
<defs>
<clipPath id="clip0_806_845">
<rect width="12.9677" height="12.9677" fill="white" transform="translate(0.241699 0.516602)"/>
</clipPath>
</defs>
</svg>
