<svg width="17" height="17" viewBox="0 0 17 17" fill="none" xmlns="http://www.w3.org/2000/svg">
<mask id="path-1-inside-1_806_16416" fill="white">
<path fill-rule="evenodd" clip-rule="evenodd" d="M12.4997 8.50033C13.9724 8.50033 15.1663 7.30639 15.1663 5.83366C15.1663 4.3609 13.9724 3.16699 12.4997 3.16699C11.2571 3.16699 10.2131 4.01684 9.91701 5.16699H2.49967C2.13149 5.16699 1.83301 5.46547 1.83301 5.83366C1.83301 6.20185 2.13149 6.50033 2.49967 6.50033H9.91701C10.2131 7.65046 11.2571 8.50033 12.4997 8.50033ZM11.1663 5.83366C11.1663 6.57004 11.7633 7.16699 12.4997 7.16699C13.2361 7.16699 13.833 6.57004 13.833 5.83366C13.833 5.09728 13.2361 4.50033 12.4997 4.50033C11.7633 4.50033 11.1663 5.09728 11.1663 5.83366ZM1.83301 11.167C1.83301 9.69426 3.02691 8.50033 4.49967 8.50033C5.74223 8.50033 6.7863 9.35019 7.08233 10.5003H14.4997C14.8679 10.5003 15.1663 10.7988 15.1663 11.167C15.1663 11.5352 14.8679 11.8337 14.4997 11.8337H7.08233C6.7863 12.9838 5.74223 13.8337 4.49967 13.8337C3.02691 13.8337 1.83301 12.6397 1.83301 11.167ZM5.83301 11.167C5.83301 10.4306 5.23605 9.83366 4.49967 9.83366C3.76329 9.83366 3.16634 10.4306 3.16634 11.167C3.16634 11.9034 3.76329 12.5003 4.49967 12.5003C5.23605 12.5003 5.83301 11.9034 5.83301 11.167Z"/>
</mask>
<path d="M9.91701 5.16699V7.64042H11.8344L12.3124 5.78359L9.91701 5.16699ZM9.91701 6.50033L12.3123 5.88372L11.8344 4.0269H9.91701V6.50033ZM7.08233 10.5003L4.68697 11.1169L5.16491 12.9738H7.08233V10.5003ZM7.08233 11.8337V9.36023H5.16491L4.68697 11.2171L7.08233 11.8337ZM12.4997 8.50033V10.9738C15.3384 10.9738 17.6398 8.67243 17.6398 5.83366H15.1663H12.6929C12.6929 5.94035 12.6064 6.0269 12.4997 6.0269V8.50033ZM15.1663 5.83366H17.6398C17.6398 2.99484 15.3384 0.693562 12.4997 0.693562V3.16699V5.64042C12.6064 5.64042 12.6929 5.72695 12.6929 5.83366H15.1663ZM12.4997 3.16699V0.693562C10.1012 0.693562 8.09218 2.33406 7.52167 4.5504L9.91701 5.16699L12.3124 5.78359C12.3217 5.74734 12.3447 5.70953 12.3816 5.68052C12.4148 5.6545 12.4521 5.64042 12.4997 5.64042V3.16699ZM9.91701 5.16699V2.69356H2.49967V5.16699V7.64042H9.91701V5.16699ZM2.49967 5.16699V2.69356C0.76545 2.69356 -0.640422 4.09943 -0.640422 5.83366H1.83301H4.30644C4.30644 6.83151 3.49753 7.64042 2.49967 7.64042V5.16699ZM1.83301 5.83366H-0.640422C-0.640422 7.56791 0.765466 8.97376 2.49967 8.97376V6.50033V4.0269C3.49751 4.0269 4.30644 4.8358 4.30644 5.83366H1.83301ZM2.49967 6.50033V8.97376H9.91701V6.50033V4.0269H2.49967V6.50033ZM9.91701 6.50033L7.52167 7.11693C8.09219 9.33322 10.1012 10.9738 12.4997 10.9738V8.50033V6.0269C12.4521 6.0269 12.4148 6.01282 12.3817 5.9868C12.3447 5.95778 12.3217 5.91996 12.3123 5.88372L9.91701 6.50033ZM11.1663 5.83366H8.69291C8.69291 7.93605 10.3972 9.64042 12.4997 9.64042V7.16699V4.69356C13.1293 4.69356 13.6398 5.20403 13.6398 5.83366H11.1663ZM12.4997 7.16699V9.64042C14.6021 9.64042 16.3064 7.93605 16.3064 5.83366H13.833H11.3596C11.3596 5.20403 11.87 4.69356 12.4997 4.69356V7.16699ZM13.833 5.83366H16.3064C16.3064 3.73127 14.6021 2.0269 12.4997 2.0269V4.50033V6.97376C11.87 6.97376 11.3596 6.46329 11.3596 5.83366H13.833ZM12.4997 4.50033V2.0269C10.3972 2.0269 8.69291 3.73127 8.69291 5.83366H11.1663H13.6398C13.6398 6.46329 13.1293 6.97376 12.4997 6.97376V4.50033ZM1.83301 11.167H4.30644C4.30644 11.0603 4.39297 10.9738 4.49967 10.9738V8.50033V6.0269C1.66086 6.0269 -0.640422 8.32824 -0.640422 11.167H1.83301ZM4.49967 8.50033V10.9738C4.54723 10.9738 4.58461 10.9878 4.61771 11.0139C4.65462 11.0429 4.67765 11.0807 4.68697 11.1169L7.08233 10.5003L9.47769 9.8838C8.90722 7.66741 6.89816 6.0269 4.49967 6.0269V8.50033ZM7.08233 10.5003V12.9738H14.4997V10.5003V8.0269H7.08233V10.5003ZM14.4997 10.5003V12.9738C13.5018 12.9738 12.6929 12.1648 12.6929 11.167H15.1663H17.6398C17.6398 9.43275 16.2339 8.0269 14.4997 8.0269V10.5003ZM15.1663 11.167H12.6929C12.6929 10.1692 13.5018 9.36023 14.4997 9.36023V11.8337V14.3071C16.2339 14.3071 17.6398 12.9012 17.6398 11.167H15.1663ZM14.4997 11.8337V9.36023H7.08233V11.8337V14.3071H14.4997V11.8337ZM7.08233 11.8337L4.68697 11.2171C4.67765 11.2533 4.65462 11.2911 4.61771 11.3201C4.58461 11.3461 4.54723 11.3602 4.49967 11.3602V13.8337V16.3071C6.89816 16.3071 8.90722 14.6666 9.47769 12.4502L7.08233 11.8337ZM4.49967 13.8337V11.3602C4.39297 11.3602 4.30644 11.2737 4.30644 11.167H1.83301H-0.640422C-0.640422 14.0057 1.66086 16.3071 4.49967 16.3071V13.8337ZM5.83301 11.167H8.30644C8.30644 9.06453 6.60207 7.36023 4.49967 7.36023V9.83366V12.3071C3.87004 12.3071 3.35958 11.7967 3.35958 11.167H5.83301ZM4.49967 9.83366V7.36023C2.39728 7.36023 0.692911 9.06453 0.692911 11.167H3.16634H5.63977C5.63977 11.7967 5.12931 12.3071 4.49967 12.3071V9.83366ZM3.16634 11.167H0.692911C0.692911 13.2695 2.39728 14.9738 4.49967 14.9738V12.5003V10.0269C5.12931 10.0269 5.63977 10.5373 5.63977 11.167H3.16634ZM4.49967 12.5003V14.9738C6.60207 14.9738 8.30644 13.2695 8.30644 11.167H5.83301H3.35958C3.35958 10.5373 3.87004 10.0269 4.49967 10.0269V12.5003Z" fill="#141414" mask="url(#path-1-inside-1_806_16416)"/>
</svg>
