<svg width="11" height="11" viewBox="0 0 11 11" fill="none" xmlns="http://www.w3.org/2000/svg">
<path d="M7.15372 5.22123L10.6868 1.71766C10.8747 1.52712 10.9793 1.26973 10.9774 1.00212C10.9756 0.7345 10.8675 0.478576 10.677 0.290648C10.4864 0.102719 10.229 -0.00182161 9.96143 2.40293e-05C9.69381 0.00186966 9.43789 0.10995 9.24996 0.300489L5.76607 3.83358L2.28219 0.36938C2.0978 0.186081 1.84836 0.0831966 1.58837 0.0831966C1.32837 0.0831966 1.07894 0.186081 0.894543 0.36938C0.8023 0.460869 0.729085 0.569717 0.679121 0.689645C0.629157 0.809572 0.603433 0.938206 0.603433 1.06813C0.603433 1.19804 0.629157 1.32668 0.679121 1.4466C0.729085 1.56653 0.8023 1.67538 0.894543 1.76687L4.37843 5.22123L0.845335 8.7248C0.657406 8.91534 0.552866 9.17272 0.554712 9.44034C0.556557 9.70796 0.664638 9.96388 0.855177 10.1518C1.04572 10.3397 1.3031 10.4443 1.57072 10.4424C1.83834 10.4406 2.09426 10.3325 2.28219 10.142L5.76607 6.60888L9.24996 10.0731C9.43435 10.2564 9.68379 10.3593 9.94378 10.3593C10.2038 10.3593 10.4532 10.2564 10.6376 10.0731C10.7298 9.98159 10.8031 9.87274 10.853 9.75281C10.903 9.63289 10.9287 9.50425 10.9287 9.37433C10.9287 9.24441 10.903 9.11578 10.853 8.99585C10.8031 8.87593 10.7298 8.76708 10.6376 8.67559L7.15372 5.22123Z" fill="#979FB5"/>
</svg>
