<svg width="24" height="24" viewBox="0 0 24 24" fill="none" xmlns="http://www.w3.org/2000/svg">
<path d="M15.58 12C15.58 13.98 13.98 15.58 12 15.58C10.02 15.58 8.41998 13.98 8.41998 12C8.41998 10.02 10.02 8.41998 12 8.41998C13.98 8.41998 15.58 10.02 15.58 12Z" stroke="#979FB5" stroke-width="1.5" stroke-linecap="round" stroke-linejoin="round"/>
<path d="M11.9998 20.2707C15.5298 20.2707 18.8198 18.1907 21.1098 14.5907C22.0098 13.1807 22.0098 10.8107 21.1098 9.4007C18.8198 5.8007 15.5298 3.7207 11.9998 3.7207C8.46984 3.7207 5.17984 5.8007 2.88984 9.4007C1.98984 10.8107 1.98984 13.1807 2.88984 14.5907C5.17984 18.1907 8.46984 20.2707 11.9998 20.2707Z" stroke="#979FB5" stroke-width="1.5" stroke-linecap="round" stroke-linejoin="round"/>
</svg>
