<svg width="14" height="14" viewBox="0 0 14 14" fill="none" xmlns="http://www.w3.org/2000/svg">
<g id="vuesax/linear/trash">
<g id="trash">
<path id="Vector" d="M12.2453 3.48686C10.3036 3.29444 8.35019 3.19531 6.40264 3.19531C5.24811 3.19531 4.09357 3.25362 2.93903 3.37024L1.74951 3.48686" stroke="#979FB5" stroke-linecap="round" stroke-linejoin="round"/>
<path id="Vector_2" d="M4.95654 2.89977L5.08482 2.13591C5.17812 1.58197 5.24809 1.16797 6.23353 1.16797H7.76125C8.74669 1.16797 8.82249 1.60529 8.90996 2.14174L9.03824 2.89977" stroke="#979FB5" stroke-linecap="round" stroke-linejoin="round"/>
<path id="Vector_3" d="M10.9914 5.32812L10.6124 11.1999C10.5482 12.1154 10.4958 12.8268 8.86891 12.8268H5.12541C3.49856 12.8268 3.44609 12.1154 3.38194 11.1999L3.00293 5.32812" stroke="#979FB5" stroke-linecap="round" stroke-linejoin="round"/>
<path id="Vector_4" d="M6.02344 9.62109H7.96516" stroke="#979FB5" stroke-linecap="round" stroke-linejoin="round"/>
<path id="Vector_5" d="M5.53955 7.28906H8.45505" stroke="#979FB5" stroke-linecap="round" stroke-linejoin="round"/>
</g>
</g>
</svg>
