<svg width="15" height="16" viewBox="0 0 15 16" fill="none" xmlns="http://www.w3.org/2000/svg">
<path d="M7.49906 1.4502C3.88781 1.4502 0.949219 4.38832 0.949219 8.00004C0.949219 11.6118 3.88781 14.5499 7.49906 14.5499C11.1103 14.5499 14.0489 11.6118 14.0489 8.00004C14.0489 4.38832 11.1103 1.4502 7.49906 1.4502ZM7.49906 13.6119C4.40437 13.6119 1.88672 11.0943 1.88672 7.99957C1.88672 4.90488 4.40437 2.3877 7.49906 2.3877C10.5938 2.3877 13.1114 4.90535 13.1114 8.00004C13.1114 11.0947 10.5938 13.6119 7.49906 13.6119Z" fill="white"/>
<path d="M13.2317 3.33126C13.324 3.4311 13.4497 3.48126 13.5753 3.48126C13.6892 3.48126 13.8036 3.44001 13.894 3.3561C14.0839 3.18032 14.0956 2.8836 13.9194 2.69376L12.9064 1.60017C12.7301 1.40985 12.4339 1.3986 12.244 1.57485C12.0542 1.75063 12.0425 2.04735 12.2187 2.2372L13.2317 3.33126Z" fill="white"/>
<path d="M1.76202 3.33128L2.77499 2.23769C2.95124 2.04784 2.93999 1.75112 2.74968 1.57534C2.55937 1.39909 2.26312 1.41034 2.08733 1.60065L1.07437 2.69425C0.898115 2.88409 0.909365 3.18081 1.09968 3.35659C1.18968 3.44003 1.30452 3.48175 1.41843 3.48175C1.54452 3.48175 1.66968 3.43065 1.76202 3.33128Z" fill="white"/>
<path d="M10.4621 7.53135H7.96836V5.0376C7.96836 4.77885 7.75883 4.56885 7.49961 4.56885C7.24039 4.56885 7.03086 4.77885 7.03086 5.0376V7.53135H4.53711C4.27789 7.53135 4.06836 7.74135 4.06836 8.0001C4.06836 8.25885 4.27789 8.46885 4.53711 8.46885H7.03086V10.9626C7.03086 11.2213 7.24039 11.4313 7.49961 11.4313C7.75883 11.4313 7.96836 11.2213 7.96836 10.9626V8.46885H10.4621C10.7213 8.46885 10.9309 8.25885 10.9309 8.0001C10.9309 7.74135 10.7213 7.53135 10.4621 7.53135Z" fill="white"/>
</svg>
