<svg width="16" height="16" viewBox="0 0 16 16" fill="none" xmlns="http://www.w3.org/2000/svg">
<path d="M13.3333 4.6935V11.3068C13.3333 12.3202 13.24 13.0402 13 13.5535C13 13.5602 12.9933 13.5735 12.9867 13.5802C12.84 13.7668 12.6467 13.8602 12.42 13.8602C12.0667 13.8602 11.64 13.6268 11.18 13.1335C10.6333 12.5468 9.79331 12.5935 9.31331 13.2335L8.64001 14.1268C8.37335 14.4868 8.02 14.6668 7.66667 14.6668C7.31333 14.6668 6.95999 14.4868 6.69332 14.1268L6.01335 13.2268C5.54001 12.5935 4.70666 12.5468 4.15999 13.1268L4.15332 13.1335C3.39999 13.9402 2.73335 14.0602 2.34668 13.5802C2.34001 13.5735 2.33333 13.5602 2.33333 13.5535C2.09333 13.0402 2 12.3202 2 11.3068V4.6935C2 3.68016 2.09333 2.96016 2.33333 2.44683C2.33333 2.44016 2.33335 2.4335 2.34668 2.42683C2.72668 1.94016 3.39999 2.06016 4.15332 2.86683L4.15999 2.8735C4.70666 3.4535 5.54001 3.40683 6.01335 2.7735L6.69332 1.8735C6.95999 1.5135 7.31333 1.3335 7.66667 1.3335C8.02 1.3335 8.37335 1.5135 8.64001 1.8735L9.31331 2.76683C9.79331 3.40683 10.6333 3.4535 11.18 2.86683C11.64 2.3735 12.0667 2.14016 12.42 2.14016C12.6467 2.14016 12.84 2.24016 12.9867 2.42683C13 2.4335 13 2.44016 13 2.44683C13.24 2.96016 13.3333 3.68016 13.3333 4.6935Z" stroke="white" stroke-linecap="round" stroke-linejoin="round"/>
<path d="M5.33203 6.8335H10.6654" stroke="white" stroke-linecap="round" stroke-linejoin="round"/>
<path d="M5.33203 9.1665H9.33203" stroke="white" stroke-linecap="round" stroke-linejoin="round"/>
</svg>
