<svg width="16" height="16" viewBox="0 0 16 16" fill="none" xmlns="http://www.w3.org/2000/svg">
<path d="M14.3132 12.6668V3.3335C14.3132 2.00016 13.6465 1.3335 12.3132 1.3335H9.64648C8.31315 1.3335 7.64648 2.00016 7.64648 3.3335V12.6668C7.64648 14.0002 8.31315 14.6668 9.64648 14.6668H12.3132C13.6465 14.6668 14.3132 14.0002 14.3132 12.6668Z" stroke="#292D32" stroke-linecap="round"/>
<path d="M7.64648 4H10.9798" stroke="#292D32" stroke-linecap="round"/>
<path d="M7.64648 12H10.3132" stroke="#292D32" stroke-linecap="round"/>
<path d="M7.64648 9.2998L10.9798 9.33314" stroke="#292D32" stroke-linecap="round"/>
<path d="M7.64648 6.6665H9.64648" stroke="#292D32" stroke-linecap="round"/>
<path d="M3.66083 1.3335C2.57417 1.3335 1.6875 2.22016 1.6875 3.30016V11.9402C1.6875 12.2402 1.81417 12.6935 1.9675 12.9535L2.51417 13.8602C3.14083 14.9068 4.17417 14.9068 4.80083 13.8602L5.3475 12.9535C5.50083 12.6935 5.6275 12.2402 5.6275 11.9402V3.30016C5.6275 2.22016 4.74083 1.3335 3.66083 1.3335Z" stroke="#292D32" stroke-linecap="round"/>
<path d="M5.6275 4.6665H1.6875" stroke="#292D32" stroke-linecap="round"/>
</svg>
