<svg width="17" height="16" viewBox="0 0 17 16" fill="none" xmlns="http://www.w3.org/2000/svg">
<path d="M15.1663 6.00001V10C15.1663 10.1467 15.1663 10.2934 15.153 10.4334C14.6063 9.76003 13.773 9.33334 12.833 9.33334C12.1263 9.33334 11.473 9.58 10.9597 9.99334C10.2663 10.54 9.83301 11.3867 9.83301 12.3333C9.83301 13.2733 10.2597 14.1067 10.933 14.6533C10.793 14.6667 10.6463 14.6667 10.4997 14.6667H6.49967C3.16634 14.6667 1.83301 13.3333 1.83301 10V6.00001C1.83301 2.66668 3.16634 1.33334 6.49967 1.33334H10.4997C13.833 1.33334 15.1663 2.66668 15.1663 6.00001Z" stroke="white" stroke-linecap="round" stroke-linejoin="round"/>
<path d="M2.17969 4.73999H14.8197" stroke="white" stroke-linecap="round" stroke-linejoin="round"/>
<path d="M6.17969 1.40665V4.64664" stroke="white" stroke-linecap="round" stroke-linejoin="round"/>
<path d="M10.8193 1.40668V4.3467" stroke="white" stroke-linecap="round" stroke-linejoin="round"/>
<path d="M15.834 12.3333C15.834 13.2333 15.434 14.0333 14.814 14.5866C14.2807 15.0466 13.594 15.3333 12.834 15.3333C12.114 15.3333 11.4473 15.08 10.934 14.6533C10.2606 14.1066 9.83398 13.2733 9.83398 12.3333C9.83398 11.3866 10.2673 10.54 10.9607 9.99331C11.474 9.57997 12.1273 9.33331 12.834 9.33331C13.774 9.33331 14.6073 9.76 15.154 10.4333C15.5807 10.9467 15.834 11.6133 15.834 12.3333Z" stroke="white" stroke-miterlimit="10" stroke-linecap="round" stroke-linejoin="round"/>
<path d="M13.0202 11.3934V12.52L12.0869 13.08" stroke="white" stroke-miterlimit="10" stroke-linecap="round" stroke-linejoin="round"/>
</svg>
