<svg width="16" height="16" viewBox="0 0 16 16" fill="none" xmlns="http://www.w3.org/2000/svg">
<path d="M12 11.5312C12.4375 11.0104 12.776 10.4245 13.0156 9.77344C13.2552 9.1224 13.375 8.4375 13.375 7.71875C13.375 6.88542 13.2188 6.10417 12.9062 5.375C12.5938 4.64583 12.1667 4.01042 11.625 3.46875C11.0833 2.92708 10.4479 2.5 9.71875 2.1875C8.98958 1.875 8.20833 1.71875 7.375 1.71875C6.55208 1.71875 5.77604 1.875 5.04688 2.1875C4.31771 2.5 3.68229 2.92708 3.14062 3.46875C2.59896 4.01042 2.16667 4.64583 1.84375 5.375C1.53125 6.10417 1.375 6.88542 1.375 7.71875C1.375 8.54167 1.53125 9.31771 1.84375 10.0469C2.16667 10.776 2.59896 11.4115 3.14062 11.9531C3.68229 12.4948 4.31771 12.9219 5.04688 13.2344C5.77604 13.5573 6.55208 13.7188 7.375 13.7188C8.10417 13.7188 8.79427 13.5964 9.44531 13.3516C10.0964 13.1068 10.6823 12.7708 11.2031 12.3438L13.6406 14.7812C13.7552 14.8958 13.8906 14.9531 14.0469 14.9531C14.2031 14.9531 14.3385 14.8958 14.4531 14.7812C14.5573 14.6667 14.6094 14.5312 14.6094 14.375C14.6094 14.2188 14.5573 14.0885 14.4531 13.9844L12 11.5312ZM7.375 12.5938C6.70833 12.5938 6.07812 12.4688 5.48438 12.2188C4.89062 11.9583 4.3724 11.6068 3.92969 11.1641C3.48698 10.7214 3.13542 10.2031 2.875 9.60938C2.61458 9.01562 2.48438 8.38542 2.48438 7.71875C2.48438 7.04167 2.61458 6.40625 2.875 5.8125C3.13542 5.21875 3.48698 4.70052 3.92969 4.25781C4.3724 3.8151 4.89062 3.46354 5.48438 3.20312C6.07812 2.95312 6.70833 2.82812 7.375 2.82812C8.05208 2.82812 8.6875 2.95312 9.28125 3.20312C9.875 3.46354 10.3932 3.8151 10.8359 4.25781C11.2786 4.70052 11.6302 5.21875 11.8906 5.8125C12.1406 6.40625 12.2656 7.04167 12.2656 7.71875C12.2656 8.38542 12.1406 9.01562 11.8906 9.60938C11.6302 10.2031 11.2786 10.7214 10.8359 11.1641C10.3932 11.6068 9.875 11.9583 9.28125 12.2188C8.6875 12.4688 8.05208 12.5938 7.375 12.5938Z" fill="#BBBDC5"/>
</svg>
