<svg width="16" height="16" viewBox="0 0 16 16" fill="none" xmlns="http://www.w3.org/2000/svg">
<g clip-path="url(#clip0_791_1139)">
<path d="M14.9729 13.6234C14.4196 13.1934 13.8029 12.85 13.1329 12.5867C13.6896 11.8867 14.0263 11 14.0263 10.0367C14.0263 7.85337 12.3096 6.06671 10.1563 5.94337C9.92961 3.89004 8.18961 2.29004 6.07628 2.29004C3.81294 2.29004 1.96961 4.13004 1.96961 6.39337C1.96961 7.35671 2.30628 8.24337 2.86294 8.94337C2.19294 9.20671 1.57628 9.55004 1.02294 9.98004C0.806276 10.15 0.766277 10.4634 0.932943 10.6834C1.03294 10.81 1.17961 10.8767 1.32961 10.8767C1.43628 10.8767 1.54628 10.8434 1.63628 10.7734C2.23294 10.31 2.91961 9.96004 3.67628 9.72004C4.29294 10.1667 5.03628 10.4434 5.83961 10.49C5.92628 11.2767 6.23628 12 6.70628 12.59C6.03628 12.8534 5.41961 13.1967 4.86628 13.6267C4.64628 13.7967 4.60961 14.11 4.77628 14.3267C4.87628 14.4534 5.02294 14.52 5.17294 14.52C5.27961 14.52 5.38628 14.4867 5.47961 14.4167C6.07628 13.9534 6.76294 13.6034 7.51961 13.3634C8.19628 13.8534 9.02294 14.1434 9.91961 14.1434C10.8163 14.1434 11.6429 13.85 12.3196 13.3634C13.0763 13.6 13.7629 13.9534 14.3596 14.4167C14.4496 14.4867 14.5596 14.52 14.6663 14.52C14.8163 14.52 14.9629 14.4534 15.0629 14.3267C15.2329 14.1067 15.1929 13.7934 14.9729 13.6234ZM6.07628 3.29004C7.65628 3.29004 8.96294 4.47671 9.15294 6.00671C7.42961 6.33337 6.08961 7.73671 5.85628 9.49004C4.24628 9.37671 2.96961 8.03337 2.96961 6.39671C2.96961 4.76004 4.36294 3.29337 6.07628 3.29337V3.29004ZM6.81628 10.0367C6.81628 8.32337 8.20961 6.93337 9.92294 6.93337C11.6363 6.93337 13.0296 8.32671 13.0296 10.0367C13.0296 11.7467 11.6363 13.1434 9.92294 13.1434C8.20961 13.1434 6.81628 11.75 6.81628 10.0367Z" fill="white"/>
<path d="M12.726 0.47998C12.4493 0.47998 12.226 0.703314 12.226 0.97998V2.28998H10.916C10.6393 2.28998 10.416 2.51331 10.416 2.78998C10.416 3.06665 10.6393 3.28998 10.916 3.28998H12.226V4.59998C12.226 4.87665 12.4493 5.09998 12.726 5.09998C13.0027 5.09998 13.226 4.87665 13.226 4.59998V3.28998H14.536C14.8127 3.28998 15.036 3.06665 15.036 2.78998C15.036 2.51331 14.8127 2.28998 14.536 2.28998H13.226V0.97998C13.226 0.703314 13.0027 0.47998 12.726 0.47998Z" fill="white"/>
</g>
<defs>
<clipPath id="clip0_791_1139">
<rect width="16" height="15" fill="white" transform="translate(0 0.5)"/>
</clipPath>
</defs>
</svg>
