<svg width="16" height="16" viewBox="0 0 16 16" fill="none" xmlns="http://www.w3.org/2000/svg">
<path d="M12.9997 8.33366C12.9997 7.41366 13.7463 6.66699 14.6663 6.66699V6.00033C14.6663 3.33366 13.9997 2.66699 11.333 2.66699H4.66634C1.99967 2.66699 1.33301 3.33366 1.33301 6.00033V6.33366C2.25301 6.33366 2.99967 7.08033 2.99967 8.00033C2.99967 8.92033 2.25301 9.66699 1.33301 9.66699V10.0003C1.33301 12.667 1.99967 13.3337 4.66634 13.3337H11.333C13.9997 13.3337 14.6663 12.667 14.6663 10.0003C13.7463 10.0003 12.9997 9.25366 12.9997 8.33366Z" stroke="#6B7080" stroke-linecap="round" stroke-linejoin="round"/>
<path d="M6.66699 2.66699L6.66699 13.3337" stroke="#6B7080" stroke-linecap="round" stroke-linejoin="round" stroke-dasharray="3.33 3.33"/>
</svg>
