<svg width="30" height="31" viewBox="0 0 30 31" fill="none" xmlns="http://www.w3.org/2000/svg">
<g clip-path="url(#clip0_9454_20623)">
<path fill-rule="evenodd" clip-rule="evenodd" d="M8.28935 1.75H17.4906L25.2795 9.87619V25.6726C25.2795 27.6485 23.6779 29.25 21.702 29.25H8.28935C6.3134 29.25 4.71191 27.6485 4.71191 25.6726V5.32744C4.71191 3.35152 6.3134 1.75 8.28935 1.75Z" fill="#FF6600"/>
<path opacity="0.302" fill-rule="evenodd" clip-rule="evenodd" d="M17.4805 1.75V9.80945H25.2805L17.4805 1.75Z" fill="white"/>
<path d="M12.0668 23.9438H13.1664C13.1958 23.9438 13.2221 23.9233 13.228 23.8969L13.5505 22.7387H14.7968L15.1427 23.8969C15.1515 23.9233 15.1779 23.9438 15.2073 23.9438H16.3479C16.386 23.9438 16.4154 23.9145 16.4154 23.8793C16.4154 23.8676 16.4124 23.8588 16.4095 23.85L14.9551 19.1643C14.9463 19.1379 14.9228 19.1203 14.8935 19.1203H13.5007C13.4713 19.1203 13.445 19.1379 13.4391 19.1643L12.0023 23.8588C11.9964 23.8793 12.0023 23.8998 12.014 23.9174C12.0258 23.9321 12.0463 23.9438 12.0668 23.9438ZM17.4211 20.1201C17.7905 20.1201 18.0574 19.8709 18.0574 19.525C18.0486 19.1701 17.7905 18.9238 17.427 18.9238C17.2422 18.9238 17.078 18.9883 16.9637 19.1027C16.8581 19.2111 16.8024 19.3637 16.8053 19.525C16.8024 19.6832 16.8581 19.8299 16.9667 19.9383C17.078 20.0557 17.2393 20.1201 17.4211 20.1201ZM16.8991 20.4076C16.8611 20.4076 16.8317 20.4368 16.8317 20.472V23.8793C16.8317 23.9145 16.8611 23.9438 16.8991 23.9438H17.9577C17.9928 23.9438 18.0222 23.9145 18.0222 23.8793V20.472C18.0222 20.4368 17.9928 20.4076 17.9577 20.4076H16.8991ZM14.6033 21.815H13.7411L13.9962 20.9001C14.0402 20.7359 14.0842 20.5424 14.1282 20.3548C14.137 20.3108 14.1458 20.2697 14.1575 20.2257C14.2132 20.4515 14.2748 20.6949 14.3363 20.9031L14.6033 21.815Z" fill="white"/>
</g>
<defs>
<clipPath id="clip0_9454_20623">
<rect width="30" height="30" fill="white" transform="translate(0 0.5)"/>
</clipPath>
</defs>
</svg>
