<svg width="30" height="31" viewBox="0 0 30 31" fill="none" xmlns="http://www.w3.org/2000/svg">
<g clip-path="url(#clip0_9454_20628)">
<path d="M8.28935 1.75H17.4906L25.2795 9.87619V25.6726C25.2795 27.6485 23.6779 29.25 21.702 29.25H8.28935C6.3134 29.25 4.71191 27.6485 4.71191 25.6726V5.32744C4.71191 3.35152 6.3134 1.75 8.28935 1.75Z" fill="#0263D1"/>
<path opacity="0.302" fill-rule="evenodd" clip-rule="evenodd" d="M17.4805 1.75V9.80945H25.2805L17.4805 1.75Z" fill="white"/>
<path d="M7 23.7326V18.8245H8.73862C9.08633 18.8245 9.4101 18.8765 9.70986 18.9725C10.0096 19.0723 10.2814 19.2162 10.5252 19.408C10.769 19.5999 10.9609 19.8557 11.1008 20.1755C11.2407 20.4952 11.3126 20.8629 11.3126 21.2786C11.3126 21.6942 11.2407 22.0619 11.1008 22.3816C10.9609 22.7014 10.769 22.9572 10.5252 23.149C10.2814 23.3409 10.0096 23.4848 9.70986 23.5847C9.4101 23.6806 9.08637 23.7326 8.73862 23.7326H7ZM8.22702 22.6654H8.59073C8.78657 22.6654 8.97043 22.6414 9.13428 22.5975C9.30214 22.5495 9.45401 22.4737 9.59789 22.3737C9.74177 22.2737 9.85367 22.1299 9.93361 21.942C10.0176 21.7582 10.0575 21.5343 10.0575 21.2786C10.0575 21.0228 10.0175 20.7989 9.93361 20.6111C9.85367 20.4272 9.74177 20.2833 9.59789 20.1835C9.45401 20.0795 9.30214 20.0076 9.13428 19.9596C8.97043 19.9157 8.78657 19.8917 8.59073 19.8917H8.22702V22.6654ZM14.2902 23.7886C13.5508 23.7886 12.9393 23.5487 12.4557 23.0731C11.9721 22.5975 11.7322 21.9979 11.7322 21.2786C11.7322 20.5592 11.9721 19.9596 12.4557 19.484C12.9393 19.0084 13.5508 18.7686 14.2902 18.7686C15.0176 18.7686 15.6211 19.0084 16.1048 19.484C16.5844 19.9596 16.8241 20.5592 16.8241 21.2786C16.8241 21.9979 16.5844 22.5975 16.1048 23.0731C15.6211 23.5487 15.0176 23.7886 14.2902 23.7886ZM13.3469 22.3137C13.5907 22.5855 13.9024 22.7214 14.2822 22.7214C14.6618 22.7214 14.9696 22.5855 15.2134 22.3137C15.4572 22.038 15.5772 21.6942 15.5772 21.2786C15.5772 20.8629 15.4572 20.5192 15.2134 20.2433C14.9696 19.9716 14.6618 19.8356 14.2822 19.8356C13.9024 19.8356 13.5907 19.9716 13.3469 20.2433C13.1031 20.5192 12.9792 20.8629 12.9792 21.2786C12.9792 21.6942 13.1031 22.038 13.3469 22.3137ZM19.7418 23.7886C19.0265 23.7886 18.4308 23.5647 17.9593 23.1251C17.4837 22.6815 17.2478 22.066 17.2478 21.2786C17.2478 20.4952 17.4877 19.8797 17.9674 19.436C18.4509 18.9924 19.0385 18.7686 19.7418 18.7686C20.3774 18.7686 20.8969 18.9243 21.3086 19.2401C21.7163 19.5519 21.9521 19.9676 22.0121 20.4872L20.773 20.739C20.7212 20.4671 20.5972 20.2473 20.4054 20.0835C20.2135 19.9196 19.9896 19.8356 19.7339 19.8356C19.3821 19.8356 19.0904 19.9596 18.8545 20.2113C18.6187 20.4671 18.4989 20.8189 18.4989 21.2786C18.4989 21.7381 18.6187 22.0898 18.8505 22.3417C19.0863 22.5975 19.3781 22.7214 19.7339 22.7214C19.9896 22.7214 20.2094 22.6494 20.3894 22.5056C20.5691 22.3617 20.6811 22.1699 20.7291 21.93L21.996 22.2177C21.8801 22.7134 21.6243 23.0971 21.2246 23.3728C20.829 23.6487 20.3334 23.7886 19.7418 23.7886Z" fill="white"/>
</g>
<defs>
<clipPath id="clip0_9454_20628">
<rect width="30" height="30" fill="white" transform="translate(0 0.5)"/>
</clipPath>
</defs>
</svg>
