<svg width="30" height="30" viewBox="0 0 30 30" fill="none" xmlns="http://www.w3.org/2000/svg">
<g clip-path="url(#clip0_9469_20692)">
<g clip-path="url(#clip1_9469_20692)">
<path d="M8.28935 1.25H17.4906L25.2795 9.37619V25.1726C25.2795 27.1485 23.6779 28.75 21.702 28.75H8.28935C6.3134 28.75 4.71191 27.1485 4.71191 25.1726V4.82744C4.71191 2.85152 6.3134 1.25 8.28935 1.25Z" fill="#207245"/>
<path opacity="0.302" fill-rule="evenodd" clip-rule="evenodd" d="M17.4805 1.25V9.30945H25.2805L17.4805 1.25Z" fill="white"/>
<path d="M6 22.9532V18.0668H9.0301V18.9186H6.95075V20.0829H8.8742V20.9347H6.95075V22.1014H9.03888V22.9532H6Z" fill="white"/>
<path d="M10.3683 18.0668L11.2751 19.7322H11.3102L12.2215 18.0668H13.2952L11.9229 20.51L13.3259 22.9532H12.2324L11.3102 21.2854H11.2751L10.3529 22.9532H9.26383L10.6713 20.51L9.29018 18.0668H10.3683Z" fill="white"/>
<path d="M17.344 19.7775H16.3823C16.3647 19.6423 16.3288 19.5222 16.2747 19.4172C16.2205 19.3107 16.151 19.22 16.0661 19.1452C15.9812 19.0705 15.8831 19.0132 15.7718 18.9735C15.6621 18.9337 15.5428 18.9138 15.4139 18.9138C15.1812 18.9138 14.9785 18.9766 14.8057 19.1023C14.633 19.2264 14.4991 19.4077 14.4039 19.6463C14.3088 19.8833 14.2612 20.1712 14.2612 20.51C14.2612 20.8583 14.3088 21.151 14.4039 21.388C14.5005 21.625 14.6352 21.804 14.8079 21.9249C14.9806 22.0457 15.1805 22.1062 15.4074 22.1062C15.5347 22.1062 15.6525 22.0879 15.7609 22.0513C15.8706 22.0147 15.968 21.9614 16.0529 21.8915C16.1378 21.8199 16.2081 21.7332 16.2637 21.6314C16.3208 21.5296 16.3603 21.4135 16.3823 21.283L17.344 21.2878C17.3191 21.5121 17.2569 21.7284 17.1573 21.9368C17.0593 22.1436 16.9268 22.3289 16.7599 22.4927C16.5945 22.655 16.3969 22.7838 16.1671 22.8792C15.9387 22.9731 15.6804 23.02 15.392 23.02C14.9909 23.02 14.6323 22.9214 14.3161 22.7241C14.0014 22.5269 13.7525 22.2414 13.5695 21.8676C13.388 21.4938 13.2973 21.0413 13.2973 20.51C13.2973 19.9771 13.3895 19.5238 13.5739 19.15C13.7584 18.7762 14.0087 18.4915 14.3249 18.2959C14.641 18.0986 14.9968 18 15.392 18C15.6525 18 15.8941 18.0398 16.1166 18.1193C16.3405 18.1988 16.5389 18.3149 16.7116 18.4676C16.8843 18.6188 17.0249 18.8041 17.1332 19.0236C17.243 19.2431 17.3132 19.4944 17.344 19.7775Z" fill="white"/>
<path d="M17.7166 22.9532V18.0668H20.7467V18.9186H18.6673V20.0829H20.5908V20.9347H18.6673V22.1014H20.7555V22.9532H17.7166Z" fill="white"/>
<path d="M21.1934 22.9532V18.0668H22.1442V22.1014H24.072V22.9532H21.1934Z" fill="white"/>
</g>
</g>
<defs>
<clipPath id="clip0_9469_20692">
<rect width="30" height="30" fill="white"/>
</clipPath>
<clipPath id="clip1_9469_20692">
<rect width="30" height="30" fill="white"/>
</clipPath>
</defs>
</svg>
