<svg width="30" height="30" viewBox="0 0 30 30" fill="none" xmlns="http://www.w3.org/2000/svg">
<g clip-path="url(#clip0_9469_20664)">
<g clip-path="url(#clip1_9469_20664)">
<path fill-rule="evenodd" clip-rule="evenodd" d="M8.29101 1.25H17.4852L25.2775 9.3722V25.1699C25.2775 27.1489 23.6764 28.75 21.7043 28.75H8.29101C6.312 28.75 4.71094 27.1489 4.71094 25.1699V4.83007C4.7109 2.85107 6.31197 1.25 8.29101 1.25Z" fill="#885CA7"/>
<path opacity="0.302" fill-rule="evenodd" clip-rule="evenodd" d="M17.4785 1.25V9.31035H25.2778L17.4785 1.25Z" fill="white"/>
<path d="M8 23.02V18H11.6335V18.8751H9.16025V20.0712H11.3923V20.9463H9.16025V23.02H8Z" fill="white"/>
<path d="M13.1969 18V23.02H12.0366V18H13.1969Z" fill="white"/>
<path d="M13.7742 23.02V18H14.9344V22.1449H17.2871V23.02H13.7742Z" fill="white"/>
<path d="M17.6782 23.02V18H21.3759V18.8751H18.8384V20.0712H21.1857V20.9463H18.8384V22.1449H21.3867V23.02H17.6782Z" fill="white"/>
</g>
</g>
<defs>
<clipPath id="clip0_9469_20664">
<rect width="30" height="30" fill="white"/>
</clipPath>
<clipPath id="clip1_9469_20664">
<rect width="30" height="30" fill="white"/>
</clipPath>
</defs>
</svg>
