<svg width="30" height="30" viewBox="0 0 30 30" fill="none" xmlns="http://www.w3.org/2000/svg">
<g clip-path="url(#clip0_9454_20645)">
<g clip-path="url(#clip1_9454_20645)">
<path fill-rule="evenodd" clip-rule="evenodd" d="M8.29101 1.25H17.4852L25.2775 9.3722V25.1699C25.2775 27.1489 23.6764 28.75 21.7043 28.75H8.29101C6.312 28.75 4.71094 27.1489 4.71094 25.1699V4.83007C4.7109 2.85107 6.31197 1.25 8.29101 1.25Z" fill="#4F4F4F"/>
<path opacity="0.302" fill-rule="evenodd" clip-rule="evenodd" d="M17.4785 1.25V9.31035H25.2778L17.4785 1.25Z" fill="white"/>
<path d="M7 22.9532V18.0668H8.18104V20.028H10.1065V18.0668H11.2851V22.9532H10.1065V20.9896H8.18104V22.9532H7Z" fill="white"/>
<path d="M11.8692 22.9532V18.0668H15.2763V19.026H13.0502V20.028H15.1021V20.9896H13.0502V21.994H15.2763V22.9532H11.8692Z" fill="white"/>
<path d="M17.0402 18.0668V22.9532H15.8592V18.0668H17.0402Z" fill="white"/>
<path d="M22.0603 19.8372H20.8673C20.8514 19.7147 20.8188 19.6041 20.7695 19.5055C20.7202 19.4069 20.655 19.3226 20.5739 19.2526C20.4928 19.1826 20.3965 19.1293 20.2852 19.0928C20.1754 19.0546 20.0537 19.0355 19.9201 19.0355C19.6831 19.0355 19.4787 19.0936 19.3069 19.2097C19.1367 19.3258 19.0055 19.4936 18.9133 19.7131C18.8226 19.9326 18.7773 20.1982 18.7773 20.51C18.7773 20.8345 18.8234 21.1065 18.9157 21.326C19.0095 21.5439 19.1407 21.7085 19.3093 21.8199C19.4795 21.9296 19.6807 21.9845 19.913 21.9845C20.0434 21.9845 20.1619 21.9678 20.2685 21.9344C20.3766 21.901 20.4713 21.8525 20.5524 21.7889C20.6351 21.7236 20.7027 21.6449 20.7552 21.5527C20.8093 21.4588 20.8467 21.353 20.8673 21.2353L22.0603 21.2425C22.0396 21.4588 21.9768 21.6719 21.8718 21.8819C21.7684 22.0919 21.6261 22.2835 21.4447 22.4569C21.2634 22.6287 21.0423 22.7655 20.7814 22.8673C20.5222 22.9691 20.2247 23.02 19.8891 23.02C19.4469 23.02 19.0509 22.923 18.7009 22.7289C18.3526 22.5333 18.0774 22.2485 17.8754 21.8748C17.6734 21.501 17.5724 21.046 17.5724 20.51C17.5724 19.9724 17.675 19.5167 17.8802 19.1429C18.0853 18.7691 18.3629 18.4851 18.7128 18.2911C19.0628 18.097 19.4549 18 19.8891 18C20.185 18 20.4586 18.0414 20.7099 18.1241C20.9612 18.2052 21.1823 18.3245 21.3732 18.482C21.564 18.6378 21.7191 18.8295 21.8384 19.057C21.9577 19.2844 22.0317 19.5445 22.0603 19.8372Z" fill="white"/>
</g>
</g>
<defs>
<clipPath id="clip0_9454_20645">
<rect width="30" height="30" fill="white"/>
</clipPath>
<clipPath id="clip1_9454_20645">
<rect width="30" height="30" fill="white"/>
</clipPath>
</defs>
</svg>
