<svg width="30" height="30" viewBox="0 0 30 30" fill="none" xmlns="http://www.w3.org/2000/svg">
<g clip-path="url(#clip0_9528_20619)">
<g clip-path="url(#clip1_9528_20619)">
<path fill-rule="evenodd" clip-rule="evenodd" d="M8.29101 1.25H17.4852L25.2775 9.3722V25.1699C25.2775 27.1489 23.6764 28.75 21.7043 28.75H8.29101C6.312 28.75 4.71094 27.1489 4.71094 25.1699V4.83007C4.7109 2.85107 6.31197 1.25 8.29101 1.25Z" fill="#745F4E"/>
<path opacity="0.302" fill-rule="evenodd" clip-rule="evenodd" d="M17.4785 1.25V9.31035H25.2778L17.4785 1.25Z" fill="white"/>
<path d="M10.0861 18.0665V22.9335H9V18.0665H10.0861Z" fill="white"/>
<path d="M10.9796 18.0665H12.319L13.7336 21.3365H13.7938L15.2084 18.0665H16.5478V22.9335H15.4944V19.7657H15.4517L14.1224 22.9097H13.405L12.0757 19.7538H12.033V22.9335H10.9796V18.0665Z" fill="white"/>
<path d="M20.8487 19.6397C20.8136 19.5241 20.7643 19.4219 20.7008 19.3332C20.6372 19.2429 20.5595 19.1668 20.4675 19.105C20.3772 19.0417 20.2735 18.9933 20.1565 18.9601C20.0411 18.9268 19.9132 18.9102 19.7727 18.9102C19.5102 18.9102 19.2794 18.972 19.0805 19.0955C18.8831 19.2191 18.7293 19.3989 18.6189 19.635C18.5086 19.8695 18.4534 20.1562 18.4534 20.4952C18.4534 20.8343 18.5077 21.1226 18.6164 21.3603C18.7251 21.5979 18.879 21.7793 19.0779 21.9045C19.2769 22.028 19.5119 22.0898 19.7828 22.0898C20.0286 22.0898 20.2384 22.0486 20.4123 21.9663C20.5879 21.8823 20.7217 21.7643 20.8136 21.6122C20.9073 21.4601 20.9541 21.2803 20.9541 21.0727L21.1748 21.1036H19.8505V20.3289H22V20.942C22 21.3698 21.9047 21.7373 21.7141 22.0447C21.5234 22.3504 21.2609 22.5865 20.9265 22.7529C20.5921 22.9176 20.2091 23 19.7777 23C19.2962 23 18.8731 22.8994 18.5086 22.6982C18.1441 22.4954 17.8598 22.2079 17.6558 21.8356C17.4535 21.4617 17.3523 21.0181 17.3523 20.5048C17.3523 20.1103 17.4125 19.7586 17.5329 19.4496C17.655 19.1391 17.8255 18.8761 18.0446 18.6606C18.2636 18.4452 18.5186 18.2812 18.8096 18.1687C19.1005 18.0562 19.4157 18 19.7552 18C20.0461 18 20.317 18.0404 20.5678 18.1212C20.8186 18.2004 21.041 18.3129 21.235 18.4587C21.4306 18.6044 21.5903 18.7779 21.7141 18.9791C21.8378 19.1787 21.9172 19.3989 21.9523 19.6397H20.8487Z" fill="white"/>
</g>
</g>
<defs>
<clipPath id="clip0_9528_20619">
<rect width="30" height="30" fill="white"/>
</clipPath>
<clipPath id="clip1_9528_20619">
<rect width="30" height="30" fill="white"/>
</clipPath>
</defs>
</svg>
