<svg width="30" height="30" viewBox="0 0 30 30" fill="none" xmlns="http://www.w3.org/2000/svg">
<g clip-path="url(#clip0_9454_20611)">
<g clip-path="url(#clip1_9454_20611)">
<path fill-rule="evenodd" clip-rule="evenodd" d="M8.29101 1.25H17.4852L25.2775 9.3722V25.1699C25.2775 27.1489 23.6764 28.75 21.7043 28.75H8.29101C6.312 28.75 4.71094 27.1489 4.71094 25.1699V4.83007C4.7109 2.85107 6.31197 1.25 8.29101 1.25Z" fill="#E5252A"/>
<path opacity="0.302" fill-rule="evenodd" clip-rule="evenodd" d="M17.4785 1.25V9.31035H25.2778L17.4785 1.25Z" fill="white"/>
<path d="M8.68945 21.7692V16.7461H10.8265C11.3556 16.7461 11.7748 16.8903 12.0909 17.1858C12.407 17.4745 12.5651 17.8662 12.5651 18.3541C12.5651 18.842 12.407 19.2336 12.0909 19.5222C11.7748 19.8177 11.3556 19.962 10.8265 19.962H9.97444V21.7692H8.68945ZM9.97444 18.8695H10.6822C10.8746 18.8695 11.0258 18.8282 11.1289 18.732C11.2319 18.6427 11.2869 18.519 11.2869 18.3541C11.2869 18.1892 11.232 18.0655 11.1289 17.9761C11.0258 17.88 10.8746 17.8387 10.6822 17.8387H9.97444V18.8695ZM13.0941 21.7692V16.7461H14.8738C15.2243 16.7461 15.5542 16.7942 15.8633 16.8972C16.1726 17.0003 16.4543 17.1447 16.7017 17.344C16.9491 17.5363 17.1483 17.7975 17.2927 18.1273C17.4301 18.4571 17.5057 18.8351 17.5057 19.2611C17.5057 19.6802 17.4301 20.0582 17.2927 20.388C17.1483 20.7178 16.9491 20.979 16.7017 21.1713C16.4543 21.3706 16.1726 21.515 15.8633 21.618C15.5542 21.7211 15.2243 21.7692 14.8738 21.7692H13.0941ZM14.3516 20.6766H14.7227C14.922 20.6766 15.1075 20.6561 15.2793 20.608C15.4442 20.5598 15.6022 20.4842 15.7535 20.3812C15.8977 20.2781 16.0146 20.1337 16.097 19.9413C16.1795 19.749 16.2207 19.5222 16.2207 19.2611C16.2207 18.9931 16.1795 18.7663 16.097 18.574C16.0146 18.3816 15.8977 18.2372 15.7535 18.1342C15.6022 18.0311 15.4442 17.9555 15.2793 17.9075C15.1075 17.8593 14.922 17.8387 14.7227 17.8387H14.3516V20.6766ZM18.1516 21.7692V16.7461H21.7248V17.8387H19.4366V18.6426H21.2645V19.7283H19.4366V21.7692H18.1516Z" fill="white"/>
</g>
</g>
<defs>
<clipPath id="clip0_9454_20611">
<rect width="30" height="30" fill="white"/>
</clipPath>
<clipPath id="clip1_9454_20611">
<rect width="30" height="30" fill="white"/>
</clipPath>
</defs>
</svg>
