<svg width="30" height="30" viewBox="0 0 30 30" fill="none" xmlns="http://www.w3.org/2000/svg">
<g clip-path="url(#clip0_9528_20633)">
<g clip-path="url(#clip1_9528_20633)">
<path fill-rule="evenodd" clip-rule="evenodd" d="M8.29101 1.25H17.4852L25.2775 9.3722V25.1699C25.2775 27.1489 23.6764 28.75 21.7043 28.75H8.29101C6.312 28.75 4.71094 27.1489 4.71094 25.1699V4.83007C4.7109 2.85107 6.31197 1.25 8.29101 1.25Z" fill="#E6972E"/>
<path opacity="0.302" fill-rule="evenodd" clip-rule="evenodd" d="M17.4785 1.25V9.31035H25.2778L17.4785 1.25Z" fill="white"/>
<path d="M11.0865 19.618C11.0656 19.4065 10.9755 19.2421 10.8164 19.125C10.6573 19.0079 10.4414 18.9493 10.1687 18.9493C9.98339 18.9493 9.82692 18.9755 9.6993 19.028C9.57168 19.0787 9.47378 19.1495 9.40559 19.2404C9.33916 19.3313 9.30594 19.4344 9.30594 19.5498C9.30245 19.646 9.32255 19.7299 9.36626 19.8016C9.41171 19.8733 9.47378 19.9353 9.55245 19.9878C9.63112 20.0385 9.72203 20.083 9.82517 20.1215C9.92832 20.1582 10.0385 20.1897 10.1556 20.2159L10.6381 20.3313C10.8724 20.3837 11.0874 20.4537 11.2832 20.5411C11.479 20.6285 11.6486 20.736 11.792 20.8636C11.9353 20.9913 12.0463 21.1416 12.125 21.3147C12.2054 21.4878 12.2465 21.6862 12.2483 21.91C12.2465 22.2386 12.1626 22.5236 11.9965 22.7649C11.8322 23.0044 11.5944 23.1906 11.2832 23.3234C10.9738 23.4545 10.6005 23.5201 10.1635 23.5201C9.7299 23.5201 9.35227 23.4537 9.03059 23.3208C8.71066 23.1879 8.46066 22.9913 8.28059 22.7308C8.10227 22.4685 8.00874 22.1442 8 21.7579H9.09878C9.11101 21.9379 9.16259 22.0883 9.2535 22.2089C9.34615 22.3278 9.46941 22.4178 9.62325 22.479C9.77885 22.5385 9.95455 22.5682 10.1503 22.5682C10.3427 22.5682 10.5096 22.5402 10.6512 22.4843C10.7946 22.4283 10.9056 22.3505 10.9843 22.2509C11.0629 22.1512 11.1023 22.0367 11.1023 21.9073C11.1023 21.7867 11.0664 21.6853 10.9948 21.6031C10.9248 21.521 10.8217 21.451 10.6853 21.3934C10.5507 21.3357 10.3855 21.2832 10.1897 21.236L9.6049 21.0892C9.1521 20.979 8.79458 20.8068 8.53234 20.5726C8.2701 20.3383 8.13986 20.0227 8.14161 19.6259C8.13986 19.3007 8.2264 19.0166 8.40122 18.7736C8.5778 18.5306 8.81993 18.3409 9.12762 18.2045C9.43531 18.0682 9.78497 18 10.1766 18C10.5752 18 10.9231 18.0682 11.2203 18.2045C11.5192 18.3409 11.7517 18.5306 11.9178 18.7736C12.0839 19.0166 12.1696 19.2981 12.1748 19.618H11.0865Z" fill="white"/>
<path d="M13.9823 18.0734L15.2804 22.1538H15.3302L16.6309 18.0734H17.8896L16.0382 23.4441H14.575L12.7209 18.0734H13.9823Z" fill="white"/>
<path d="M21.7944 19.8094C21.7576 19.6818 21.7061 19.5691 21.6396 19.4712C21.5732 19.3715 21.4919 19.2876 21.3958 19.2194C21.3014 19.1495 21.193 19.0962 21.0706 19.0594C20.95 19.0227 20.8162 19.0044 20.6694 19.0044C20.3949 19.0044 20.1536 19.0726 19.9456 19.2089C19.7393 19.3453 19.5785 19.5437 19.4631 19.8042C19.3477 20.0629 19.29 20.3794 19.29 20.7535C19.29 21.1276 19.3468 21.4458 19.4604 21.708C19.5741 21.9703 19.7349 22.1705 19.943 22.3086C20.151 22.4449 20.3966 22.5131 20.6799 22.5131C20.9368 22.5131 21.1563 22.4677 21.3381 22.3767C21.5216 22.2841 21.6615 22.1538 21.7576 21.986C21.8556 21.8182 21.9045 21.6198 21.9045 21.3907L22.1353 21.4248H20.7507V20.5699H22.998V21.2465C22.998 21.7185 22.8984 22.1241 22.6991 22.4633C22.4998 22.8007 22.2253 23.0612 21.8757 23.2448C21.526 23.4266 21.1257 23.5175 20.6746 23.5175C20.1711 23.5175 19.7288 23.4065 19.3477 23.1844C18.9666 22.9607 18.6694 22.6434 18.4561 22.2325C18.2445 21.8199 18.1388 21.3304 18.1388 20.764C18.1388 20.3287 18.2017 19.9406 18.3276 19.5997C18.4552 19.257 18.6335 18.9668 18.8625 18.729C19.0916 18.4913 19.3582 18.3103 19.6624 18.1862C19.9666 18.0621 20.2961 18 20.651 18C20.9552 18 21.2384 18.0446 21.5007 18.1337C21.7629 18.2212 21.9954 18.3453 22.1982 18.5061C22.4028 18.667 22.5697 18.8584 22.6991 19.0804C22.8285 19.3007 22.9115 19.5437 22.9482 19.8094H21.7944Z" fill="white"/>
</g>
</g>
<defs>
<clipPath id="clip0_9528_20633">
<rect width="30" height="30" fill="white"/>
</clipPath>
<clipPath id="clip1_9528_20633">
<rect width="30" height="30" fill="white"/>
</clipPath>
</defs>
</svg>
