<svg width="30" height="31" viewBox="0 0 30 31" fill="none" xmlns="http://www.w3.org/2000/svg">
<g clip-path="url(#clip0_9454_20617)">
<g clip-path="url(#clip1_9454_20617)">
<path d="M8.28935 1.75H17.4906L25.2795 9.87619V25.6726C25.2795 27.6485 23.6779 29.25 21.702 29.25H8.28935C6.3134 29.25 4.71191 27.6485 4.71191 25.6726V5.32744C4.71191 3.35152 6.3134 1.75 8.28935 1.75Z" fill="#207245"/>
<path opacity="0.302" fill-rule="evenodd" clip-rule="evenodd" d="M17.4805 1.75V9.80945H25.2805L17.4805 1.75Z" fill="white"/>
<path d="M9.62275 16.601L10.7286 18.2655H10.7715L11.8827 16.601H13.1921L11.5185 19.043L13.2296 21.485H11.8961L10.7715 19.818H10.7286L9.60401 21.485H8.27588L9.99227 19.043L8.30801 16.601H9.62275Z" fill="white"/>
<path d="M15.045 16.601V21.485H13.9044V16.601H15.045Z" fill="white"/>
<path d="M18.9551 18.0056C18.9337 17.8132 18.8418 17.6638 18.6793 17.5573C18.5169 17.4507 18.2964 17.3975 18.0179 17.3975C17.8287 17.3975 17.6689 17.4213 17.5386 17.469C17.4083 17.5151 17.3084 17.5795 17.2387 17.6622C17.1709 17.7449 17.137 17.8387 17.137 17.9436C17.1334 18.031 17.1539 18.1074 17.1986 18.1725C17.245 18.2377 17.3084 18.2942 17.3887 18.3419C17.469 18.388 17.5618 18.4285 17.6672 18.4635C17.7725 18.4969 17.8849 18.5255 18.0045 18.5493L18.4972 18.6543C18.7364 18.702 18.956 18.7656 19.1559 18.845C19.3559 18.9245 19.529 19.0223 19.6754 19.1384C19.8218 19.2544 19.9352 19.3912 20.0155 19.5486C20.0976 19.706 20.1395 19.8864 20.1413 20.0899C20.1395 20.3888 20.0539 20.648 19.8843 20.8674C19.7165 21.0852 19.4737 21.2545 19.1559 21.3753C18.84 21.4946 18.4589 21.5542 18.0126 21.5542C17.5699 21.5542 17.1843 21.4938 16.8558 21.3729C16.5291 21.2521 16.2739 21.0732 16.09 20.8364C15.9079 20.5979 15.8124 20.303 15.8035 19.9516H16.9254C16.9379 20.1154 16.9906 20.2521 17.0834 20.3618C17.178 20.4699 17.3039 20.5518 17.461 20.6074C17.6199 20.6615 17.7993 20.6885 17.9992 20.6885C18.1956 20.6885 18.366 20.6631 18.5106 20.6122C18.657 20.5613 18.7704 20.4906 18.8507 20.3999C18.931 20.3093 18.9712 20.2052 18.9712 20.0875C18.9712 19.9778 18.9346 19.8856 18.8614 19.8109C18.79 19.7362 18.6847 19.6726 18.5454 19.6201C18.408 19.5676 18.2393 19.5199 18.0394 19.477L17.4422 19.3435C16.9799 19.2433 16.6148 19.0867 16.3471 18.8737C16.0793 18.6606 15.9463 18.3737 15.9481 18.0128C15.9463 17.717 16.0347 17.4587 16.2132 17.2377C16.3935 17.0167 16.6407 16.8442 16.9549 16.7202C17.2691 16.5962 17.6261 16.5342 18.026 16.5342C18.433 16.5342 18.7882 16.5962 19.0917 16.7202C19.3969 16.8442 19.6344 17.0167 19.8039 17.2377C19.9735 17.4587 20.061 17.7147 20.0664 18.0056H18.9551Z" fill="white"/>
</g>
</g>
<defs>
<clipPath id="clip0_9454_20617">
<rect width="30" height="30" fill="white" transform="translate(0 0.5)"/>
</clipPath>
<clipPath id="clip1_9454_20617">
<rect width="30" height="30" fill="white" transform="translate(0 0.5)"/>
</clipPath>
</defs>
</svg>
