<svg width="275" height="151" viewBox="0 0 275 151" fill="none" xmlns="http://www.w3.org/2000/svg">
<rect width="274.606" height="150.02" fill="#F9F9F9"/>
<path d="M183.953 94.7229H158.631L159.749 71.0974C159.942 67.1663 163.179 64.083 167.149 64.083H175.551C179.482 64.083 182.758 67.1663 182.912 71.0974L183.953 94.7229Z" fill="#F9F9F9" stroke="#979FB5" stroke-width="0.723461" stroke-miterlimit="10" stroke-linecap="round" stroke-linejoin="round"/>
<path d="M154.353 60.8066C149.15 75.9917 143.793 93.1424 150.153 97.4975L148.842 99.463C147.725 101.159 146.722 102.893 145.797 104.705L145.104 106.092" stroke="#979FB5" stroke-width="0.723461" stroke-miterlimit="10" stroke-linecap="round" stroke-linejoin="round"/>
<path d="M193.088 104.705L192.51 102.431L191.469 98.2684C192.548 97.9601 193.319 97.2664 193.859 96.1872C195.67 92.68 194.707 85.3958 192.51 76.1846" stroke="#979FB5" stroke-width="0.723461" stroke-miterlimit="10" stroke-linecap="round" stroke-linejoin="round"/>
<path d="M191.24 71.1752C190.662 68.9013 190.007 66.5503 189.313 64.1222C189.236 63.7753 189.12 63.4285 189.043 63.0816C188.928 62.7348 188.85 62.3879 188.735 62.041" stroke="#979FB5" stroke-width="0.723461" stroke-miterlimit="10" stroke-linecap="round" stroke-linejoin="round"/>
<path d="M150.153 97.4976C151.887 92.757 190.081 91.8321 191.43 98.2298L150.153 97.4976Z" fill="#F9F9F9"/>
<path d="M150.153 97.4976C151.887 92.757 190.081 91.8321 191.43 98.2298" stroke="#979FB5" stroke-width="0.723461" stroke-miterlimit="10" stroke-linecap="round" stroke-linejoin="round"/>
<path d="M90.8384 87.1689L90.4916 94.4917V94.7229H115.813V94.6458L114.849 73.2557L114.734 71.3672V71.136C114.579 67.2048 111.304 64.083 107.372 64.083H98.9706C95.0009 64.083 91.7634 67.2048 91.5707 71.136L91.5321 71.8682L91.4551 73.3328L91.0697 82.467" fill="#F9F9F9"/>
<path d="M90.8384 87.1689L90.4916 94.4917V94.7229H115.813V94.6458L114.849 73.2557L114.734 71.3672V71.136C114.579 67.2048 111.304 64.083 107.372 64.083H98.9706C95.0009 64.083 91.7634 67.2048 91.5707 71.136L91.5321 71.8682L91.4551 73.3328L91.0697 82.467" stroke="#979FB5" stroke-width="0.723461" stroke-miterlimit="10" stroke-linecap="round" stroke-linejoin="round"/>
<path d="M86.2154 60.8066C81.0124 75.9917 75.6551 93.1424 82.0143 97.4975L79.0082 102.007" stroke="#979FB5" stroke-width="0.723461" stroke-miterlimit="10" stroke-linecap="round" stroke-linejoin="round"/>
<path d="M120.556 62.041C125.874 80.7718 129.651 96.4194 123.292 98.2693L124.949 104.706" stroke="#979FB5" stroke-width="0.723461" stroke-miterlimit="10" stroke-linecap="round" stroke-linejoin="round"/>
<path d="M82.0134 97.4976C83.7478 92.757 121.942 91.8321 123.29 98.2298L82.0134 97.4976Z" fill="#F9F9F9"/>
<path d="M82.0134 97.4976C83.7478 92.757 121.942 91.8321 123.29 98.2298" stroke="#979FB5" stroke-width="0.723461" stroke-miterlimit="10" stroke-linecap="round" stroke-linejoin="round"/>
<path d="M176.824 79.4609C167.381 79.4609 159.789 86.8608 159.789 95.9564C159.789 105.052 167.42 112.452 176.824 112.452C186.266 112.452 193.859 105.052 193.859 95.9564C193.859 86.8608 186.227 79.4609 176.824 79.4609ZM170.118 93.4512C174.241 93.7981 178.596 93.7596 183.144 93.3356L170.118 93.4512Z" fill="#979FB5"/>
<path d="M170.118 93.4512C174.241 93.7981 178.596 93.7596 183.144 93.3356M176.824 79.4609C167.381 79.4609 159.789 86.8608 159.789 95.9564C159.789 105.052 167.42 112.452 176.824 112.452C186.266 112.452 193.859 105.052 193.859 95.9564C193.859 86.8608 186.227 79.4609 176.824 79.4609Z" stroke="#979FB5" stroke-width="0.723461" stroke-miterlimit="10" stroke-linecap="round" stroke-linejoin="round"/>
<path d="M176.823 83.3535C170.695 83.3535 165.531 87.2847 163.873 92.6418C163.45 93.8751 163.257 95.147 163.257 96.4959C163.257 103.742 169.346 109.6 176.862 109.6C184.377 109.6 190.428 103.703 190.428 96.4959C190.351 89.2503 184.3 83.3535 176.823 83.3535ZM170.117 93.4512C174.241 93.7981 178.596 93.7595 183.144 93.3356L170.117 93.4512Z" fill="#F9F9F9"/>
<path d="M170.117 93.4512C174.241 93.7981 178.596 93.7595 183.144 93.3356M176.823 83.3535C170.695 83.3535 165.531 87.2847 163.873 92.6418C163.45 93.8751 163.257 95.147 163.257 96.4959C163.257 103.742 169.346 109.6 176.862 109.6C184.377 109.6 190.428 103.703 190.428 96.4959C190.351 89.2503 184.3 83.3535 176.823 83.3535Z" stroke="#979FB5" stroke-width="0.723461" stroke-miterlimit="10" stroke-linecap="round" stroke-linejoin="round"/>
<path d="M189.388 94.1836C187.307 94.4919 185.264 94.7232 183.26 94.8773C178.712 95.3013 174.357 95.3398 170.233 94.9929C168.075 94.8388 165.994 94.569 163.951 94.1836" stroke="#979FB5" stroke-width="0.723461" stroke-miterlimit="10" stroke-linecap="round" stroke-linejoin="round"/>
<path d="M185.805 94.2215C179.407 94.8381 173.279 94.8767 167.498 94.3756C167.614 92.6028 169.04 91.1768 170.851 91.1768H182.452C184.224 91.1768 185.651 92.5642 185.805 94.2215Z" fill="#979FB5" stroke="#979FB5" stroke-width="0.723461" stroke-miterlimit="10" stroke-linecap="round" stroke-linejoin="round"/>
<path d="M75.7322 107.441C75.7322 104.088 78.5455 101.467 81.8986 101.698L144.103 106.092C144.45 106.131 144.797 106.092 145.105 106.092L192.703 101.082C196.21 100.696 199.216 103.548 199.062 107.094L198.946 109.792C198.869 111.334 197.597 112.567 196.017 112.567L78.8924 112.837C77.1581 112.837 75.7322 111.449 75.7322 109.676V107.441Z" fill="#979FB5" stroke="#979FB5" stroke-width="0.723461" stroke-miterlimit="10" stroke-linecap="round" stroke-linejoin="round"/>
<path d="M91.6496 73.4866C87.7185 70.0565 85.4061 66.9732 84.2499 64.1212C83.2478 61.6546 84.0572 58.6099 86.0613 57.261C93.6538 52.0965 114.003 51.5184 120.401 57.7234C121.943 59.2265 122.289 61.7702 121.519 63.89C120.478 66.742 118.127 69.9409 114.851 73.2168C113.733 74.3345 112.269 74.9126 110.804 74.9126H95.388C94.0391 74.8741 92.7287 74.4116 91.6496 73.4866Z" fill="#979FB5" stroke="#979FB5" stroke-width="0.723461" stroke-miterlimit="10" stroke-linecap="round" stroke-linejoin="round"/>
<path d="M159.521 73.4866C155.59 70.0565 153.277 66.9732 152.121 64.1212C151.119 61.6546 151.928 58.6099 153.932 57.261C161.525 52.0965 181.874 51.5184 188.272 57.7234C189.814 59.2265 190.16 61.7702 189.39 63.89C188.349 66.742 185.998 69.9409 182.722 73.2168C181.604 74.3345 180.14 74.9126 178.675 74.9126H163.259C161.949 74.9126 160.6 74.4501 159.521 73.4866Z" fill="#979FB5" stroke="#979FB5" stroke-width="0.723461" stroke-miterlimit="10" stroke-linecap="round" stroke-linejoin="round"/>
<path d="M91.3809 71.7532C87.4498 68.3231 85.1373 65.2398 83.9811 62.3878C82.979 59.9212 83.7884 56.8765 85.7925 55.5276C93.385 50.3631 113.734 49.785 120.132 55.99C121.674 57.4931 122.021 60.0368 121.25 62.1566C120.209 65.0086 117.858 68.2075 114.582 71.4834C113.465 72.6011 112 73.1792 110.536 73.1792H95.1194C93.7704 73.1407 92.4601 72.6782 91.3809 71.7532Z" fill="#F9F9F9" stroke="#979FB5" stroke-width="0.723461" stroke-miterlimit="10" stroke-linecap="round" stroke-linejoin="round"/>
<path d="M94.6169 55.1416L95.6189 60.0363C95.8887 61.4237 97.045 62.4258 98.3168 62.4258H107.22C108.414 62.4258 109.532 61.5008 109.84 60.1904L111.151 55.1416H94.6169Z" stroke="#979FB5" stroke-width="0.723461" stroke-miterlimit="10" stroke-linecap="round" stroke-linejoin="round"/>
<path d="M109.453 56.8765C104.905 57.339 100.473 57.3776 96.2337 56.9151C94.8848 56.7609 93.9598 55.5276 94.0754 54.1787L94.7691 47.2799C94.8847 46.1237 95.8097 45.1601 96.966 45.0445C100.897 44.6206 104.867 44.6206 108.798 45.0445C109.954 45.1601 110.879 46.1237 110.995 47.2799L111.688 54.1401C111.804 55.4891 110.841 56.7224 109.453 56.8765Z" fill="#979FB5" stroke="#979FB5" stroke-width="0.723461" stroke-miterlimit="10" stroke-linecap="round" stroke-linejoin="round"/>
<path d="M159.521 71.7532C155.59 68.3231 153.277 65.2398 152.121 62.3878C151.119 59.9212 151.928 56.8765 153.932 55.5276C161.525 50.3631 181.874 49.785 188.272 55.99C189.814 57.4931 190.16 60.0368 189.39 62.1566C188.349 65.0086 185.998 68.2075 182.722 71.4834C181.604 72.6011 180.14 73.1792 178.675 73.1792H163.259C161.949 73.1407 160.6 72.6782 159.521 71.7532Z" fill="#F9F9F9" stroke="#979FB5" stroke-width="0.723461" stroke-miterlimit="10" stroke-linecap="round" stroke-linejoin="round"/>
<path d="M162.757 55.1416L163.759 60.0363C164.028 61.4237 165.185 62.4258 166.456 62.4258H175.359C176.554 62.4258 177.672 61.5008 177.98 60.1904L179.291 55.1416H162.757Z" stroke="#979FB5" stroke-width="0.723461" stroke-miterlimit="10" stroke-linecap="round" stroke-linejoin="round"/>
<path d="M177.595 56.8765C173.047 57.339 168.615 57.3776 164.376 56.9151C163.027 56.7609 162.102 55.5276 162.217 54.1787L162.911 47.2799C163.027 46.1237 163.951 45.1601 165.108 45.0445C169.039 44.6206 173.009 44.6206 176.94 45.0445C178.096 45.1601 179.021 46.1237 179.137 47.2799L179.83 54.1401C179.946 55.4891 178.982 56.7224 177.595 56.8765Z" fill="#979FB5" stroke="#979FB5" stroke-width="0.723461" stroke-miterlimit="10" stroke-linecap="round" stroke-linejoin="round"/>
<path d="M139.362 108.751H132.386C129.958 108.751 128.147 106.824 128.301 104.512L128.879 96.6109C129.033 94.7224 130.806 93.2578 132.887 93.2578H138.861C140.942 93.2578 142.754 94.7224 142.869 96.6109L143.448 104.512C143.64 106.824 141.79 108.751 139.362 108.751Z" fill="#979FB5" stroke="#979FB5" stroke-width="0.723461" stroke-miterlimit="10" stroke-linecap="round" stroke-linejoin="round"/>
<path d="M132.81 96.2637H138.938" stroke="#F9F9F9" stroke-width="0.723461" stroke-miterlimit="10" stroke-linecap="round" stroke-linejoin="round"/>
<path d="M132.657 100.658H139.093" stroke="#F9F9F9" stroke-width="0.723461" stroke-miterlimit="10" stroke-linecap="round" stroke-linejoin="round"/>
<path d="M132.502 105.437H139.246" stroke="#F9F9F9" stroke-width="0.723461" stroke-miterlimit="10" stroke-linecap="round" stroke-linejoin="round"/>
<path d="M80.8588 104.705C80.2807 106.555 80.2421 108.174 80.8588 109.6" stroke="#F9F9F9" stroke-width="0.723461" stroke-miterlimit="10" stroke-linecap="round" stroke-linejoin="round"/>
<path d="M192.895 107.981H187.075" stroke="#F9F9F9" stroke-width="0.723461" stroke-miterlimit="10" stroke-linecap="round" stroke-linejoin="round"/>
<path d="M176.631 41.7289V38.7998" stroke="#979FB5" stroke-width="0.723461" stroke-miterlimit="10" stroke-linecap="round" stroke-linejoin="round"/>
<path d="M179.291 42.192L180.833 37.8369" stroke="#979FB5" stroke-width="0.723461" stroke-miterlimit="10" stroke-linecap="round" stroke-linejoin="round"/>
<path d="M181.218 43.2325L183.569 41.0742" stroke="#979FB5" stroke-width="0.723461" stroke-miterlimit="10" stroke-linecap="round" stroke-linejoin="round"/>
<path d="M99.4338 47.7422V53.0994" stroke="#F9F9F9" stroke-width="0.723461" stroke-miterlimit="10" stroke-linecap="round" stroke-linejoin="round"/>
<path d="M106.178 47.7422V53.0994" stroke="#F9F9F9" stroke-width="0.723461" stroke-miterlimit="10" stroke-linecap="round" stroke-linejoin="round"/>
<path d="M167.921 47.7422V53.0994" stroke="#F9F9F9" stroke-width="0.723461" stroke-miterlimit="10" stroke-linecap="round" stroke-linejoin="round"/>
<path d="M174.666 47.7422V53.0994" stroke="#F9F9F9" stroke-width="0.723461" stroke-miterlimit="10" stroke-linecap="round" stroke-linejoin="round"/>
</svg>
