<svg width="275" height="151" viewBox="0 0 275 151" fill="none" xmlns="http://www.w3.org/2000/svg">
<rect width="274.606" height="150.02" fill="#F9F9F9"/>
<path d="M163.734 116.141L158.052 116.658C156.502 116.916 154.952 115.625 154.694 114.075L153.919 110.717L166.317 109.684V113.042C166.317 114.591 165.284 116.141 163.734 116.141Z" fill="#F9F9F9" stroke="#979FB5" stroke-width="0.645756" stroke-miterlimit="10" stroke-linecap="round" stroke-linejoin="round"/>
<path d="M110.007 116.141L115.69 116.658C117.24 116.916 118.79 115.625 119.048 114.075L119.565 110.717L107.166 109.684V113.042C107.166 114.591 108.458 116.141 110.007 116.141Z" fill="#F9F9F9" stroke="#979FB5" stroke-width="0.645756" stroke-miterlimit="10" stroke-linecap="round" stroke-linejoin="round"/>
<path d="M162.443 44.5899L165.026 43.5566L165.542 45.3648L162.959 46.9146" fill="#979FB5"/>
<path d="M162.443 44.5899L165.026 43.5566L165.542 45.3648L162.959 46.9146" stroke="#979FB5" stroke-width="0.645756" stroke-miterlimit="10" stroke-linecap="round" stroke-linejoin="round"/>
<path d="M172 44.5913V45.1079C172 45.3662 171.742 45.6245 171.225 45.6245H165.801C165.284 45.6245 165.026 45.3662 165.026 45.1079V42.5249C165.026 42.0083 165.542 41.75 165.801 41.75L169.417 42.2666C170.708 42.5249 171.742 43.2998 171.742 44.333C172 44.333 172 44.5913 172 44.5913Z" fill="#F9F9F9" stroke="#979FB5" stroke-width="0.645756" stroke-miterlimit="10" stroke-linecap="round" stroke-linejoin="round"/>
<path d="M111.557 44.3301L108.974 43.2969L108.458 45.105L111.041 46.6548" fill="#979FB5"/>
<path d="M111.557 44.3301L108.974 43.2969L108.458 45.105L111.041 46.6548" stroke="#979FB5" stroke-width="0.645756" stroke-miterlimit="10" stroke-linecap="round" stroke-linejoin="round"/>
<path d="M102 44.3316V44.8482C102 45.1065 102.258 45.3648 102.775 45.3648H108.199C108.716 45.3648 108.974 45.1065 108.974 44.8482V42.2651C108.974 41.7485 108.458 41.4902 108.199 41.4902L104.583 42.0068C103.292 42.2651 102.258 43.04 102.258 44.0733C102 44.0733 102 44.3316 102 44.3316Z" fill="#F9F9F9" stroke="#979FB5" stroke-width="0.645756" stroke-miterlimit="10" stroke-linecap="round" stroke-linejoin="round"/>
<path d="M170.192 101.417V109.683C170.192 110.974 169.159 112.007 168.125 112.266C167.35 112.266 166.576 112.524 166.059 112.524L158.826 113.299H158.568C143.328 114.59 128.863 114.849 114.915 113.557C112.332 113.299 110.007 113.041 107.683 112.524C107.166 112.524 106.908 112.524 106.391 112.266C105.1 112.007 104.325 110.974 104.325 109.683V90.0516C104.325 89.7933 104.325 89.2767 104.583 89.0184L106.391 85.1439C106.391 84.8856 106.649 84.6273 106.649 84.369L111.557 46.6568C111.557 46.3985 111.815 45.8819 111.815 45.6236L115.173 36.8413C115.948 35.0332 117.498 34 119.306 34H154.952C156.76 34 158.31 35.0332 159.085 36.8413L163.218 46.6568C163.476 47.1734 163.476 47.4317 163.476 47.9483L167.609 84.6273C167.609 84.8856 167.867 85.1439 167.867 85.6605L170.192 89.535C170.45 89.7933 170.45 90.3099 170.45 90.8265V98.5756" fill="#F9F9F9"/>
<path d="M170.192 101.417V109.683C170.192 110.974 169.159 112.007 168.125 112.266C167.35 112.266 166.576 112.524 166.059 112.524L158.826 113.299H158.568C143.328 114.59 128.863 114.849 114.915 113.557C112.332 113.299 110.007 113.041 107.683 112.524C107.166 112.524 106.908 112.524 106.391 112.266C105.1 112.007 104.325 110.974 104.325 109.683V90.0516C104.325 89.7933 104.325 89.2767 104.583 89.0184L106.391 85.1439C106.391 84.8856 106.649 84.6273 106.649 84.369L111.557 46.6568C111.557 46.3985 111.815 45.8819 111.815 45.6236L115.173 36.8413C115.948 35.0332 117.498 34 119.306 34H154.952C156.76 34 158.31 35.0332 159.085 36.8413L163.218 46.6568C163.476 47.1734 163.476 47.4317 163.476 47.9483L167.609 84.6273C167.609 84.8856 167.867 85.1439 167.867 85.6605L170.192 89.535C170.45 89.7933 170.45 90.3099 170.45 90.8265V98.5756" stroke="#979FB5" stroke-width="0.645756" stroke-miterlimit="10" stroke-linecap="round" stroke-linejoin="round"/>
<path d="M166.059 112.266L158.826 113.041H158.568L156.243 109.683C155.985 109.424 155.727 109.166 155.469 109.166H149.528L139.97 108.908L124.472 109.166H118.531C118.273 109.166 118.015 109.424 117.756 109.683L115.173 113.041C112.59 112.782 110.266 112.524 107.941 112.007C107.941 111.749 107.941 111.749 107.941 111.491L109.749 106.841C110.007 106.325 110.524 106.066 111.041 105.808L120.339 105.033C120.598 105.033 120.598 105.033 120.856 105.033L122.664 105.808C122.922 105.808 123.181 106.066 123.439 105.808L139.712 105.55C143.07 105.55 146.428 105.55 149.786 105.808C150.302 105.808 150.561 105.808 151.077 105.808L152.886 105.033C153.144 105.033 153.402 105.033 153.402 105.033L162.701 105.808C163.218 105.808 163.734 106.325 163.993 106.841L165.801 111.491C166.059 112.007 166.059 112.007 166.059 112.266Z" fill="#979FB5"/>
<path d="M150.561 92.1172C150.819 92.1172 150.819 92.1172 150.561 92.1172C151.336 92.8921 152.369 93.4087 153.144 93.9253C153.402 94.1836 153.661 94.1836 153.919 94.1836L156.244 93.9253C156.502 93.9253 156.76 93.9253 156.76 93.9253L159.86 94.9585C160.118 94.9585 160.118 94.9585 160.377 94.9585L163.993 94.7002C164.509 94.7002 164.768 94.4419 165.026 94.1836L166.834 91.084C166.834 90.8257 166.834 90.5674 166.576 90.5674L166.059 90.0508H165.801C164.768 90.0508 163.735 90.3091 162.701 90.3091C160.377 90.5674 158.31 90.8257 155.986 90.8257C154.436 90.8257 152.886 91.084 151.336 91.3423C151.078 91.3423 150.561 91.3423 150.561 91.6006C150.561 91.8589 150.561 91.8589 150.561 92.1172Z" fill="#979FB5"/>
<path d="M123.697 92.3789C122.922 93.1538 121.889 93.6704 121.114 94.187C120.856 94.4453 120.598 94.4453 120.339 94.4453L118.015 94.187C117.756 94.187 117.498 94.187 117.498 94.187L114.398 95.2202C114.14 95.2202 114.14 95.2202 113.882 95.2202L110.266 94.9619C109.749 94.9619 109.491 94.7036 109.232 94.4453L107.424 91.3457C107.424 91.0874 107.424 90.8291 107.683 90.8291L108.458 90.3125H108.716C109.749 90.3125 110.782 90.5708 111.815 90.5708C114.14 90.8291 116.207 91.0874 118.531 91.0874C120.081 91.0874 121.631 91.3457 123.181 91.604C123.439 91.604 123.956 91.604 123.956 91.8623C123.956 92.1206 123.697 92.1206 123.697 92.3789Z" fill="#979FB5"/>
<path d="M114.398 84.1104V98.317C114.398 99.0919 115.173 99.8668 115.948 99.8668C129.897 100.642 143.845 100.642 158.31 99.8668C159.085 99.8668 159.86 99.0919 159.86 98.317V83.5938" stroke="#979FB5" stroke-width="0.645756" stroke-miterlimit="10" stroke-linecap="round" stroke-linejoin="round"/>
<path d="M115.69 64.7383H158.568C159.343 64.7383 160.118 65.2549 160.118 66.0298L162.959 82.0445C163.218 83.0777 162.443 83.8527 161.409 83.8527H112.332C111.299 83.8527 110.524 82.8194 110.782 81.7862L114.14 65.7715C114.14 65.5132 114.915 64.7383 115.69 64.7383Z" fill="#979FB5" stroke="#979FB5" stroke-width="0.645756" stroke-miterlimit="10" stroke-linecap="round" stroke-linejoin="round"/>
<path d="M111.298 48.2051L114.656 42.0059L113.881 58.0206C113.881 58.2789 113.881 58.5372 113.623 58.5372L107.94 73.2604L111.298 48.2051Z" fill="#979FB5" stroke="#979FB5" stroke-width="0.645756" stroke-miterlimit="10" stroke-linecap="round" stroke-linejoin="round"/>
<path d="M163.218 49.2398L159.86 43.2988L160.376 59.0553C160.376 59.3136 160.376 59.5719 160.376 59.5719L165.801 74.0368L163.218 49.2398Z" fill="#979FB5" stroke="#979FB5" stroke-width="0.645756" stroke-miterlimit="10" stroke-linecap="round" stroke-linejoin="round"/>
<path d="M162.701 83.335C164.509 83.0767 166.059 82.5601 167.092 81.7852" stroke="#979FB5" stroke-width="0.645756" stroke-miterlimit="10" stroke-linecap="round" stroke-linejoin="round"/>
<path d="M110.524 83.0762C108.974 82.5596 107.683 82.043 106.649 81.0098" stroke="#979FB5" stroke-width="0.645756" stroke-miterlimit="10" stroke-linecap="round" stroke-linejoin="round"/>
<path d="M136.613 90.8262C137.754 90.8262 138.679 89.901 138.679 88.7598C138.679 87.6185 137.754 86.6934 136.613 86.6934C135.471 86.6934 134.546 87.6185 134.546 88.7598C134.546 89.901 135.471 90.8262 136.613 90.8262Z" fill="#F9F9F9" stroke="#979FB5" stroke-width="0.645756" stroke-miterlimit="10" stroke-linecap="round" stroke-linejoin="round"/>
<path d="M123.439 92.1191C131.963 93.4107 141.004 93.1523 150.561 92.1191" stroke="#979FB5" stroke-width="0.645756" stroke-miterlimit="10" stroke-linecap="round" stroke-linejoin="round"/>
<path d="M126.281 68.8711L116.465 78.17" stroke="#F9F9F9" stroke-width="0.645756" stroke-miterlimit="10" stroke-linecap="round" stroke-linejoin="round"/>
<path d="M121.373 68.8711L116.465 73.7788" stroke="#F9F9F9" stroke-width="0.645756" stroke-miterlimit="10" stroke-linecap="round" stroke-linejoin="round"/>
<path d="M114.915 66.2881C114.14 64.2217 113.882 61.6387 113.624 58.5391" stroke="#979FB5" stroke-width="0.645756" stroke-miterlimit="10" stroke-linecap="round" stroke-linejoin="round"/>
<path d="M159.085 66.2881C159.86 64.2217 160.118 61.6387 160.376 58.5391" stroke="#979FB5" stroke-width="0.645756" stroke-miterlimit="10" stroke-linecap="round" stroke-linejoin="round"/>
<path d="M151.852 47.434C141.778 46.6591 131.963 46.6591 122.664 47.434C122.406 47.434 122.406 47.1757 122.147 47.1757L121.114 39.4266C121.114 39.1683 121.373 38.91 121.631 38.91C131.446 37.8768 142.037 38.1351 152.885 38.91C153.144 38.91 153.402 39.1683 153.402 39.4266L152.369 47.1757C152.111 47.1757 152.111 47.434 151.852 47.434Z" fill="#979FB5" stroke="#979FB5" stroke-width="0.645756" stroke-miterlimit="10" stroke-linecap="round" stroke-linejoin="round"/>
<path d="M124.214 40.9727H129.122" stroke="#F9F9F9" stroke-width="0.645756" stroke-miterlimit="10" stroke-linecap="round" stroke-linejoin="round"/>
<path d="M134.804 40.9727H139.712" stroke="#F9F9F9" stroke-width="0.645756" stroke-miterlimit="10" stroke-linecap="round" stroke-linejoin="round"/>
<path d="M145.395 40.9727H150.303" stroke="#F9F9F9" stroke-width="0.645756" stroke-miterlimit="10" stroke-linecap="round" stroke-linejoin="round"/>
</svg>
