<svg width="275" height="151" viewBox="0 0 275 151" fill="none" xmlns="http://www.w3.org/2000/svg">
<rect width="274.606" height="150.02" fill="#F9F9F9"/>
<path d="M72.9117 101.472C73.8586 102.372 75.0422 102.987 76.2731 103.508C79.5397 104.786 83.1377 105.165 86.5463 104.55C90.4757 103.84 94.4525 101.472 95.494 97.6377C95.5414 97.543 95.5414 97.4483 95.494 97.3536C95.4467 97.1642 95.2099 97.1169 95.0206 97.0695C87.1144 95.4125 79.2557 93.8029 71.3495 92.1932C71.1602 92.1459 70.9707 92.1459 70.8287 92.2405C70.3553 92.5719 70.592 96.4067 70.6867 97.0222C70.9234 98.6792 71.6809 100.336 72.9117 101.472Z" fill="#979FB5" stroke="#979FB5" stroke-width="0.888683" stroke-miterlimit="10" stroke-linecap="round" stroke-linejoin="round"/>
<path d="M119.591 98.0642C119.402 98.0642 119.165 98.0641 119.023 98.2062C118.881 98.3482 118.881 98.5376 118.881 98.6796C118.692 101.615 119.639 104.597 121.39 106.965C122.243 108.148 123.284 109.237 124.61 109.9C125.746 110.468 126.977 110.752 128.208 110.941C130.054 111.273 131.9 111.462 133.794 111.604C134.031 110.989 133.699 110.326 133.368 109.758C131.664 106.775 129.959 103.793 128.255 100.81C127.545 99.5318 126.929 98.3482 125.462 98.0168C123.663 97.6854 121.39 98.0642 119.591 98.0642Z" fill="#979FB5" stroke="#979FB5" stroke-width="0.888683" stroke-miterlimit="10" stroke-linecap="round" stroke-linejoin="round"/>
<path d="M192.072 87.0809C191.93 87.0809 191.74 87.0809 191.646 87.2229C191.551 87.3176 191.551 87.507 191.504 87.6964C191.362 90.3949 192.072 93.0935 193.397 95.3186C194.06 96.4075 194.865 97.4017 195.812 98.0171C196.664 98.5379 197.611 98.7746 198.558 98.964C199.978 99.248 201.398 99.4374 202.818 99.5794C203.008 99.0113 202.724 98.3959 202.487 97.8751C201.209 95.1292 199.883 92.4307 198.605 89.6848C198.037 88.5012 197.611 87.4123 196.475 87.1283C195.149 86.7022 193.445 87.0809 192.072 87.0809Z" fill="#979FB5" stroke="#979FB5" stroke-width="0.888683" stroke-miterlimit="10" stroke-linecap="round" stroke-linejoin="round"/>
<path d="M62.071 83.4352C61.9763 85.2342 61.9763 87.0332 62.071 88.6902C62.071 89.6371 62.1656 90.6313 62.3077 91.5308C62.3077 91.6255 62.355 91.7675 62.4023 91.9095C62.4023 91.9569 62.4023 91.9569 62.4023 92.0042C62.497 92.4303 62.5917 92.8091 62.7811 93.1878C63.5859 94.9868 65.385 96.2178 67.4207 96.4545L70.7346 96.8806L94.453 99.9105L98.2877 100.384L104.347 101.331C105.768 101.568 107.188 101.615 108.608 101.378C112.206 100.857 118.834 99.8158 118.834 99.8158L120.302 99.6738L125.225 98.8216L126.456 98.5849L133.463 97.354L142.647 95.7443L148.754 94.6554L159.264 92.8091L167.17 91.4361L177.444 89.5898L196.759 86.2284L202.156 85.2816L206.748 84.4294L208.453 84.1453C209.258 84.0033 209.92 83.7666 210.488 83.3405C215.791 80.1212 212.714 68.0961 211.009 63.7879C209.873 60.9 204.287 52.1415 200.31 45.6555C198.464 42.6729 194.487 40.1638 191.031 39.5956C180.426 37.9386 170.058 37.6546 158.507 38.3647C158.507 38.3647 133.605 39.785 128.918 41.158C125.462 42.1522 122.432 43.4778 119.97 45.2768L105.531 55.9289L103.874 57.1599L70.1191 65.0661L68.9355 65.3502C67.61 65.6342 66.4737 66.5338 65.8109 67.7173C64.2486 70.6999 63.0177 75.1975 62.4023 79.9792C62.3076 80.6893 62.213 81.4468 62.1656 82.1569C62.1183 82.583 62.1184 83.0091 62.071 83.4352Z" fill="#F9F9F9" stroke="#979FB5" stroke-width="0.888683" stroke-miterlimit="10" stroke-linecap="round" stroke-linejoin="round"/>
<path d="M105.957 101.521C105.957 101.426 105.957 101.331 105.862 101.284V92.0996" stroke="#979FB5" stroke-width="0.888683" stroke-miterlimit="10" stroke-linecap="round" stroke-linejoin="round"/>
<path d="M199.979 57.0176C201.683 62.0359 201.73 66.4862 201.02 70.8417" stroke="#979FB5" stroke-width="0.888683" stroke-miterlimit="10" stroke-linecap="round" stroke-linejoin="round"/>
<path d="M199.836 57.6797C183.361 59.6207 170.816 60.8516 156.85 62.1772C156.234 62.2246 155.856 61.6565 156.14 61.2304L161.3 46.7435C163.194 43.8555 166.981 42.1986 170.816 42.672L190.179 43.9029C192.072 44.1396 193.777 45.0391 194.866 46.4121L200.452 56.6855C200.736 57.1116 200.404 57.6797 199.836 57.6797Z" fill="#979FB5" stroke="#979FB5" stroke-width="0.888683" stroke-miterlimit="10" stroke-linecap="round" stroke-linejoin="round"/>
<path d="M71.065 64.8281L94.8781 65.7276L97.1032 69.231L95.825 75.2909C95.6356 76.2851 95.0674 77.1373 94.2626 77.6581L90.1913 80.4986C89.5285 80.9721 88.771 81.1614 87.9662 81.1614L62.4961 78.889" stroke="#979FB5" stroke-width="0.888683" stroke-miterlimit="10" stroke-linecap="round" stroke-linejoin="round"/>
<path d="M103.212 67.7647V76.0024L121.012 75.7657C121.77 75.7657 122.48 75.2922 122.906 74.4874L125.604 69.5164L122.196 65.6816L103.212 67.7647Z" fill="#979FB5" stroke="#979FB5" stroke-width="0.888683" stroke-miterlimit="10" stroke-linecap="round" stroke-linejoin="round"/>
<path d="M177.396 59.7168C179.29 70.1322 179.906 80.2163 177.396 89.5902" stroke="#979FB5" stroke-width="0.888683" stroke-miterlimit="10" stroke-linecap="round" stroke-linejoin="round"/>
<path d="M196.713 63.4082L192.499 63.8343" stroke="#979FB5" stroke-width="0.888683" stroke-miterlimit="10" stroke-linecap="round" stroke-linejoin="round"/>
<path d="M174.225 65.6328L170.816 65.9642" stroke="#979FB5" stroke-width="0.888683" stroke-miterlimit="10" stroke-linecap="round" stroke-linejoin="round"/>
<path d="M148.813 94.1132C149.576 83.6827 144.867 74.8378 138.296 74.3574C131.725 73.8771 125.78 81.9433 125.017 92.3737C124.255 102.804 128.964 111.649 135.535 112.129C142.106 112.61 148.051 104.544 148.813 94.1132Z" fill="#979FB5" stroke="#979FB5" stroke-width="0.888683" stroke-miterlimit="10" stroke-linecap="round" stroke-linejoin="round"/>
<path d="M203.766 99.5799C207.662 99.5799 210.82 93.9206 210.82 86.9394C210.82 79.9582 207.662 74.2988 203.766 74.2988C199.871 74.2988 196.712 79.9582 196.712 86.9394C196.712 93.9206 199.871 99.5799 203.766 99.5799Z" fill="#979FB5" stroke="#979FB5" stroke-width="0.888683" stroke-miterlimit="10" stroke-linecap="round" stroke-linejoin="round"/>
<path d="M137.913 103.508C140.606 103.508 142.789 98.9082 142.789 93.2344C142.789 87.5605 140.606 82.9609 137.913 82.9609C135.22 82.9609 133.037 87.5605 133.037 93.2344C133.037 98.9082 135.22 103.508 137.913 103.508Z" fill="#F9F9F9"/>
<path d="M204.523 94.3245C205.961 94.3245 207.127 91.4419 207.127 87.8859C207.127 84.3299 205.961 81.4473 204.523 81.4473C203.085 81.4473 201.919 84.3299 201.919 87.8859C201.919 91.4419 203.085 94.3245 204.523 94.3245Z" fill="#F9F9F9"/>
<path d="M86.3101 70.748L83.6116 70.5586" stroke="#979FB5" stroke-width="0.888683" stroke-miterlimit="10" stroke-linecap="round" stroke-linejoin="round"/>
<path d="M76.9844 75.7187L74.5227 75.5293" stroke="#979FB5" stroke-width="0.888683" stroke-miterlimit="10" stroke-linecap="round" stroke-linejoin="round"/>
<path d="M73.2912 70.3691L70.8767 70.1797" stroke="#979FB5" stroke-width="0.888683" stroke-miterlimit="10" stroke-linecap="round" stroke-linejoin="round"/>
<path d="M177.396 57.8693C178.201 53.3244 176.686 47.9746 175.881 43.4297" stroke="#F9F9F9" stroke-width="0.888683" stroke-miterlimit="10" stroke-linecap="round" stroke-linejoin="round"/>
<path d="M193.634 51.8567C193.587 51.8094 193.587 51.762 193.54 51.7147L186.675 46.791" stroke="#F9F9F9" stroke-width="0.888683" stroke-miterlimit="10" stroke-linecap="round" stroke-linejoin="round"/>
<path d="M173.704 51.6671L169.727 48.4004" stroke="#F9F9F9" stroke-width="0.888683" stroke-miterlimit="10" stroke-linecap="round" stroke-linejoin="round"/>
<path d="M103.543 57.7757L142.269 57.8704C143.595 57.9178 144.826 57.3023 145.63 56.2608L158.46 38.3652C150.554 38.1284 142.127 39.5014 133.747 39.8328C129.25 40.0222 124.942 41.5845 121.344 44.2357L103.543 57.7757Z" fill="#979FB5"/>
<path d="M176.545 59.6686C176.119 59.6212 175.74 59.7159 175.361 59.8579L123.143 67.3381" stroke="#979FB5" stroke-width="0.888683" stroke-miterlimit="10" stroke-linecap="round" stroke-linejoin="round"/>
<path d="M156.045 62.4609C157.702 68.2841 157.513 73.3498 156.471 78.2735" stroke="#979FB5" stroke-width="0.888683" stroke-miterlimit="10" stroke-linecap="round" stroke-linejoin="round"/>
<path d="M130.859 44.1875L123.048 47.6435" stroke="#F9F9F9" stroke-width="0.888683" stroke-miterlimit="10" stroke-linecap="round" stroke-linejoin="round"/>
<path d="M130.859 49.1113L128.208 50.4843" stroke="#F9F9F9" stroke-width="0.888683" stroke-miterlimit="10" stroke-linecap="round" stroke-linejoin="round"/>
<path d="M92.6545 88.2639C92.6545 88.2639 66.0008 85.3286 65.9534 85.2812C65.9534 85.2812 65.8115 89.3527 65.7168 89.3527L95.8264 93.1402C95.6371 92.6667 95.2583 92.0986 94.9269 91.7199C94.3588 91.1044 93.98 90.2996 93.7906 89.4948C93.7433 89.2581 93.696 88.974 93.554 88.7846C93.3646 88.4532 92.6545 88.7373 92.6545 88.2639Z" fill="#979FB5"/>
<path d="M81.4817 81.1621V87.08" stroke="#979FB5" stroke-width="0.888683" stroke-miterlimit="10" stroke-linecap="round" stroke-linejoin="round"/>
<path d="M73.5757 80.6406V86.5585" stroke="#979FB5" stroke-width="0.888683" stroke-miterlimit="10" stroke-linecap="round" stroke-linejoin="round"/>
<path d="M164.85 45.0401C164.093 42.0575 161.773 39.7851 157.56 38.4121" stroke="#979FB5" stroke-width="0.888683" stroke-miterlimit="10" stroke-linecap="round" stroke-linejoin="round"/>
<path d="M195.67 41.252C194.155 42.7196 193.397 44.5186 193.303 46.6491" stroke="#979FB5" stroke-width="0.888683" stroke-miterlimit="10" stroke-linecap="round" stroke-linejoin="round"/>
<path d="M103.968 69.2324C103.353 69.2324 102.69 69.2324 102.075 69.2324H97.1514" stroke="#979FB5" stroke-width="0.888683" stroke-miterlimit="10" stroke-linecap="round" stroke-linejoin="round"/>
<path d="M93.0795 87.5547L95.0679 95.2243C95.1626 95.6977 95.636 96.0291 96.2515 96.0291L106.951 96.8813C108.04 96.9286 109.128 95.9344 109.034 94.9402L108.466 86.8919C108.371 86.3712 107.898 85.9924 107.282 85.9451L95.3046 85.377C94.0263 85.377 92.8428 86.5605 93.0795 87.5547Z" fill="#F9F9F9" stroke="#979FB5" stroke-width="0.888683" stroke-miterlimit="10" stroke-linecap="round" stroke-linejoin="round"/>
<path d="M62.071 83.4355C61.9763 85.2346 61.9763 87.0336 62.071 88.6906C62.071 89.6375 62.1656 90.6317 62.3077 91.5312C62.3077 91.6259 62.355 91.7679 62.4023 91.9099C62.4023 91.9573 62.4023 91.9573 62.4023 92.0046C62.497 92.4307 62.5917 92.8094 62.7811 93.1882C64.2014 93.2829 66.0478 92.478 66.3792 91.6259L69.1249 84.9032C69.3143 84.4771 68.9356 84.0983 68.1308 84.0037L62.071 83.4355Z" fill="#F9F9F9" stroke="#979FB5" stroke-width="0.888683" stroke-miterlimit="10" stroke-linecap="round" stroke-linejoin="round"/>
</svg>
