<svg width="275" height="151" viewBox="0 0 275 151" fill="none" xmlns="http://www.w3.org/2000/svg">
<rect width="274.606" height="150.02" fill="#F9F9F9"/>
<path d="M73.695 65.5039C70.9323 75.8231 71.2166 85.6954 77.0262 94.8365C89.783 97.1522 104.734 98.371 124.438 97.6803C125.616 97.6397 126.713 98.371 127.241 99.5085L128.622 102.515C129.069 103.531 129.963 104.262 130.978 104.384C136.747 105.156 142.72 105.115 148.854 104.384C150.032 104.262 151.048 103.327 151.414 102.068L152.551 98.4116C152.957 97.1522 153.973 96.2178 155.192 96.1365C162.83 95.4459 170.508 94.9583 178.105 94.0239C184.159 93.252 191.106 92.602 196.509 89.23C200.694 86.6298 202.522 80.0889 201.872 75.0512C201.059 68.5509 196.956 62.9038 191.918 59.8161C188.059 57.4598 183.874 57.0942 179.608 56.5254C179.527 56.5254 179.405 56.4848 179.324 56.4848C169.818 55.3066 160.23 54.5753 150.642 54.2909C147.31 54.169 143.938 54.1284 140.607 54.0878C138.901 54.0878 137.235 54.0878 135.529 54.0878C134.675 54.0878 133.822 54.0878 132.969 54.1284C132.279 54.1284 131.222 54.4128 130.572 54.169C123.788 51.8533 116.353 50.1063 108.268 49.05C104.165 48.5219 99.9397 48.8469 95.9989 50.2282C90.3112 52.2189 84.5828 55.7128 80.7233 60.8724C78.8138 63.4319 74.7106 61.6444 73.695 65.5039Z" fill="#979FB5" stroke="#979FB5" stroke-width="0.762619" stroke-miterlimit="10" stroke-linecap="round" stroke-linejoin="round"/>
<path d="M73.695 63.2685C70.9323 73.5877 71.2166 83.46 77.0262 92.6011C89.783 94.9168 104.734 96.1356 124.438 95.4449C125.616 95.4043 126.713 96.1356 127.241 97.2731L128.622 100.28C129.069 101.295 129.963 102.026 130.978 102.148C136.747 102.92 142.72 102.88 148.854 102.148C150.032 102.026 151.048 101.092 151.414 99.8326L152.551 96.1762C152.957 94.9168 153.973 93.9824 155.192 93.9011C162.83 93.2105 170.508 92.7229 178.105 91.7885C184.159 91.0166 191.106 90.3666 196.509 86.9946C200.694 84.3944 202.522 77.8535 201.872 72.8158C201.059 66.3155 196.956 60.6684 191.918 57.5808C188.059 55.2244 183.874 54.8588 179.608 54.29C179.527 54.29 179.405 54.2494 179.324 54.2494C169.818 53.0712 160.23 52.3399 150.642 52.0555C147.31 51.9336 143.938 51.893 140.607 51.8524C138.901 51.8524 137.235 51.8524 135.529 51.8524C134.675 51.8524 133.822 51.8524 132.969 51.893C132.279 51.893 131.182 52.218 130.572 51.9336C123.3 48.3991 115.784 46.449 107.496 46.0427C102.215 45.7584 95.6739 46.8959 90.9206 49.3741C89.0111 50.3898 87.2236 51.6899 85.5985 53.1524C83.8109 54.8181 82.1858 56.6463 80.7233 58.6371C78.8138 61.1965 74.7106 59.409 73.695 63.2685Z" fill="#F9F9F9" stroke="#979FB5" stroke-width="0.762619" stroke-miterlimit="10" stroke-linecap="round" stroke-linejoin="round"/>
<path d="M120.741 74.9688C136.017 75.6188 151.211 75.9032 166.283 75.8625" stroke="#979FB5" stroke-width="0.762619" stroke-miterlimit="10" stroke-linecap="round" stroke-linejoin="round"/>
<path d="M170.061 75.8219C180.705 75.7407 191.268 75.4563 201.831 74.9688C201.872 74.9688 201.953 74.9688 201.993 74.9688" stroke="#979FB5" stroke-width="0.762619" stroke-miterlimit="10" stroke-linecap="round" stroke-linejoin="round"/>
<path d="M194.925 78.5439L195.372 82.6066L185.296 83.1348L179.283 79.1533L194.925 78.5439Z" fill="#979FB5" stroke="#979FB5" stroke-width="0.762619" stroke-miterlimit="10" stroke-linecap="round" stroke-linejoin="round"/>
<path d="M124.193 78.9512L123.827 84.5983L150.072 84.8827L156.369 79.4387L124.193 78.9512Z" fill="#979FB5" stroke="#979FB5" stroke-width="0.762619" stroke-miterlimit="10" stroke-linecap="round" stroke-linejoin="round"/>
<path d="M130.492 54.5342C126.916 59.8157 125.901 66.641 127.526 74.9695" stroke="#979FB5" stroke-width="0.762619" stroke-miterlimit="10" stroke-linecap="round" stroke-linejoin="round"/>
<path d="M151.82 54.5342C156.005 60.9126 156.98 67.8598 154.786 75.4164" stroke="#979FB5" stroke-width="0.762619" stroke-miterlimit="10" stroke-linecap="round" stroke-linejoin="round"/>
<path d="M133.619 57.7031H149.951C150.317 57.7031 150.642 57.9875 150.682 58.3125C151.495 62.944 151.576 67.4129 150.682 71.6787C150.601 72.0444 150.276 72.2881 149.951 72.2881H132.116C131.75 72.2881 131.425 72.0038 131.385 71.5975C130.938 66.8035 131.303 62.2533 132.929 58.15C133.01 57.8656 133.294 57.7031 133.619 57.7031Z" fill="#F9F9F9" stroke="#979FB5" stroke-width="0.762619" stroke-miterlimit="10" stroke-linecap="round" stroke-linejoin="round"/>
<path d="M159.824 60.0582V71.1493C159.824 71.5962 160.189 71.9619 160.636 71.9619H194.519C195.088 71.9619 195.535 71.3525 195.291 70.8243C194.275 68.6711 192.894 66.8022 191.147 65.2178C189.278 63.5115 187.003 62.4146 184.606 61.7239C177.821 59.7738 169.534 59.2457 160.677 59.2863C160.189 59.2457 159.824 59.6113 159.824 60.0582Z" fill="#979FB5"/>
<path d="M116.232 84.4342C118.548 81.8341 120.173 78.5839 120.741 74.9682C120.904 73.9931 120.985 72.9774 120.985 71.9618C120.985 71.6774 120.985 71.393 120.945 71.1492C120.945 71.0274 120.945 70.9461 120.945 70.8648C120.863 69.4835 120.66 68.1835 120.295 66.9241L120.254 66.7209H120.213C117.979 58.8393 110.707 53.0703 102.094 53.0703C93.5215 53.0703 86.2088 58.8393 83.9743 66.7209H83.9336L83.893 66.9241C83.5273 68.1835 83.3242 69.4835 83.2429 70.8648C83.2429 70.9461 83.2429 71.0274 83.2429 71.1492C83.2023 71.393 83.2024 71.6774 83.2024 71.9618C83.2024 80.859 89.3777 88.3344 97.7061 90.3251C99.0874 90.6907 100.591 90.8532 102.094 90.8532C106.644 90.8532 110.829 89.2688 114.079 86.5062" stroke="#979FB5" stroke-width="0.762619" stroke-miterlimit="10" stroke-linecap="round" stroke-linejoin="round"/>
<path d="M110.421 76.554C104.855 78.2197 99.3302 78.2197 93.7644 76.554C93.0737 76.3508 92.5862 75.6602 92.5862 74.9289V67.6973C92.5862 66.8035 93.3174 66.0723 94.2112 66.0723H109.974C110.868 66.0723 111.599 66.8035 111.599 67.6973V74.9289C111.599 75.7008 111.112 76.3508 110.421 76.554Z" stroke="#979FB5" stroke-width="0.762619" stroke-miterlimit="10" stroke-linecap="round" stroke-linejoin="round"/>
<path d="M107.538 70.1348V73.1411C105.75 73.5474 103.922 73.7505 102.094 73.7505C100.306 73.7505 98.4779 73.5474 96.6497 73.1411V70.1348H107.538Z" fill="#979FB5"/>
<path d="M111.599 67.6967V74.9689L120.944 71.15L120.253 66.7217L111.599 67.6967Z" fill="#979FB5"/>
<path d="M92.5465 67.6967V74.9689L83.2024 71.15L83.9336 66.7217L92.5465 67.6967Z" fill="#979FB5"/>
<path d="M94.4148 76.7568C98.8837 78.1381 103.84 78.1788 109.284 76.8787L104.897 90.6106C102.215 90.6918 99.737 90.6512 97.665 90.2856L94.4148 76.7568Z" stroke="#979FB5" stroke-width="0.762619" stroke-miterlimit="10" stroke-linecap="round" stroke-linejoin="round"/>
<path d="M93.6018 64.1229C95.2397 64.1229 96.5676 62.7951 96.5676 61.1572C96.5676 59.5192 95.2397 58.1914 93.6018 58.1914C91.9638 58.1914 90.636 59.5192 90.636 61.1572C90.636 62.7951 91.9638 64.1229 93.6018 64.1229Z" fill="#979FB5"/>
<path d="M110.381 64.1229C112.019 64.1229 113.347 62.7951 113.347 61.1572C113.347 59.5192 112.019 58.1914 110.381 58.1914C108.743 58.1914 107.416 59.5192 107.416 61.1572C107.416 62.7951 108.743 64.1229 110.381 64.1229Z" fill="#979FB5"/>
<path d="M100.509 59.2461H103.678" stroke="#979FB5" stroke-width="0.762619" stroke-miterlimit="10" stroke-linecap="round" stroke-linejoin="round"/>
<path d="M101.2 62.1309H102.947" stroke="#979FB5" stroke-width="0.762619" stroke-miterlimit="10" stroke-linecap="round" stroke-linejoin="round"/>
<path d="M136.748 62.9834H146.336" stroke="#979FB5" stroke-width="0.762619" stroke-miterlimit="10" stroke-linecap="round" stroke-linejoin="round"/>
<path d="M138.129 66.9648H145.117" stroke="#979FB5" stroke-width="0.762619" stroke-miterlimit="10" stroke-linecap="round" stroke-linejoin="round"/>
<path d="M164.984 62.9834V68.1024" stroke="#F9F9F9" stroke-width="0.762619" stroke-miterlimit="10" stroke-linecap="round" stroke-linejoin="round"/>
<path d="M173.474 64.1211V67.3712" stroke="#F9F9F9" stroke-width="0.762619" stroke-miterlimit="10" stroke-linecap="round" stroke-linejoin="round"/>
<path d="M182.006 65.5439V67.3722" stroke="#F9F9F9" stroke-width="0.762619" stroke-miterlimit="10" stroke-linecap="round" stroke-linejoin="round"/>
<path d="M125.25 89.0264H136.179" stroke="#979FB5" stroke-width="0.762619" stroke-miterlimit="10" stroke-linecap="round" stroke-linejoin="round"/>
</svg>
