<svg width="275" height="151" viewBox="0 0 275 151" fill="none" xmlns="http://www.w3.org/2000/svg">
<rect width="274.606" height="150.02" fill="#F9F9F9"/>
<path d="M79.1526 88.7954C83.1839 88.3619 87.1285 87.0615 90.5963 84.9374C90.8564 84.764 91.1165 84.634 91.2899 84.3739C91.4633 84.1138 91.5066 83.767 91.55 83.4203C91.6367 81.6863 91.2466 79.9091 90.3796 78.4353C90.2062 78.1318 89.9895 77.8284 89.686 77.655C89.3826 77.4816 89.0358 77.4816 88.6891 77.4383C87.0419 77.3516 85.2646 77.2649 83.8341 78.0885C83.0539 78.522 82.447 79.2155 81.8835 79.9091C80.7998 81.2962 79.8895 82.8567 79.2393 84.5039C78.6324 85.9344 79.0659 87.2782 79.1526 88.7954Z" fill="#979FB5" stroke="#979FB5" stroke-width="0.813693" stroke-miterlimit="10" stroke-linecap="round" stroke-linejoin="round"/>
<path d="M139.189 110.947C143.871 110.383 148.422 108.953 152.41 106.785C152.714 106.612 153.017 106.438 153.191 106.222C153.407 105.962 153.451 105.615 153.451 105.268C153.537 103.534 152.974 101.8 151.934 100.283C151.717 99.9797 151.457 99.6763 151.11 99.5029C150.763 99.3295 150.373 99.3295 149.983 99.3295C148.076 99.2861 145.995 99.2428 144.348 100.11C143.437 100.587 142.744 101.28 142.137 101.974C140.88 103.404 139.883 104.965 139.146 106.655C138.539 108.086 139.103 109.429 139.189 110.947Z" fill="#979FB5" stroke="#979FB5" stroke-width="0.813693" stroke-miterlimit="10" stroke-linecap="round" stroke-linejoin="round"/>
<path d="M89.0371 52.2103C88.3002 52.8172 87.3899 53.1206 86.4362 53.1206C85.1792 53.164 83.8788 53.2506 82.6217 53.5107C77.7668 54.421 73.3886 57.282 70.7878 61.5301C68.1436 65.9082 68.187 70.8498 69.184 75.7481C69.314 76.4417 69.7908 79.3459 70.5277 79.6494L70.7445 79.7361L73.432 80.9498L78.3736 83.0738L79.6307 83.6374L82.4049 84.8511L82.7951 85.0245L87.5633 86.4983L96.883 89.4026L107.546 92.697L124.972 98.1155L126.186 98.4189L131.994 99.9794L139.754 102.017L141.748 102.537L146.863 103.881L148.163 104.227H163.118L204.688 93.6507C207.159 89.446 207.636 86.0648 206.986 83.1605V83.0738C206.769 82.0335 206.379 81.0365 205.945 80.0395C205.165 78.4356 204.125 76.9618 203.041 75.488L202.911 74.7944L202.564 72.3236L202.521 72.1502L202.044 68.9858C201.957 68.379 201.784 67.8155 201.567 67.2519L201.524 67.1219H201.48C201.047 65.9082 200.31 64.8245 199.4 63.9142L195.802 60.3597L188.476 51.2567C187.219 49.6961 185.789 48.3524 184.228 47.2687C181.714 45.4047 178.766 44.1043 175.645 43.4974C162.338 40.8532 136.243 36.9953 119.727 38.6858C108.977 39.6828 98.3568 44.7979 89.0371 52.2103Z" fill="#F9F9F9" stroke="#979FB5" stroke-width="0.813693" stroke-miterlimit="10" stroke-linecap="round" stroke-linejoin="round"/>
<path d="M137.543 52.5136L139.84 62.1801C140.057 63.0904 139.32 63.9573 138.366 63.8706L91.3345 59.6226L97.9233 54.5509C104.599 49.4359 112.835 47.2251 120.897 48.4389L135.636 50.1294C136.633 50.3028 137.326 51.5166 137.543 52.5136Z" fill="#979FB5" stroke="#979FB5" stroke-width="0.813693" stroke-miterlimit="10" stroke-linecap="round" stroke-linejoin="round"/>
<path d="M91.3767 59.7109C87.7356 64.2191 87.3455 70.938 88.0824 78.3938C88.1691 79.3474 88.906 80.171 89.9029 80.4311L120.593 88.1037C121.763 88.4071 122.977 87.9303 123.541 86.8899L134.464 63.3088" stroke="#979FB5" stroke-width="0.813693" stroke-miterlimit="10" stroke-linecap="round" stroke-linejoin="round"/>
<path d="M195.801 60.3605L159.129 65.8223C158.652 65.8657 158.176 65.6923 157.872 65.3022L148.466 53.7717C147.772 52.9481 148.292 51.6476 149.376 51.5609L184.227 47.2695C185.788 48.3532 187.218 49.697 188.475 51.2575L195.801 60.3605Z" fill="#979FB5" stroke="#979FB5" stroke-width="0.813693" stroke-miterlimit="10" stroke-linecap="round" stroke-linejoin="round"/>
<path d="M160.777 65.5605C162.381 67.1211 164.852 70.3721 165.415 74.1867C168.536 77.3945 170.66 80.6455 170.703 84.0266C171.18 84.8936 172.134 85.3271 173.088 85.1103L204.688 77.8713" stroke="#979FB5" stroke-width="0.813693" stroke-miterlimit="10" stroke-linecap="round" stroke-linejoin="round"/>
<path d="M201.479 67.123C200.092 67.5565 198.705 67.99 197.318 68.4235C196.711 68.5969 196.104 68.8136 195.497 68.987C195.021 69.117 194.284 69.2037 193.937 69.6372C193.764 69.8106 193.764 70.1574 193.98 70.2874C194.37 70.5475 194.804 70.6342 195.237 70.7209C195.974 70.9376 196.711 71.2411 197.491 71.4145C198.922 71.8046 200.352 72.0647 201.826 72.1947C201.913 72.1947 202.563 72.2381 202.563 72.2814C202.52 72.3248 201.479 67.123 201.479 67.123Z" fill="#979FB5"/>
<path d="M140.169 110.744C145.964 109.349 149.077 101.633 147.121 93.5097C145.165 85.3868 138.881 79.9332 133.086 81.3287C127.29 82.7242 124.178 90.4404 126.134 98.5632C128.09 106.686 134.373 112.14 140.169 110.744Z" fill="#979FB5" stroke="#979FB5" stroke-width="0.813693" stroke-miterlimit="10" stroke-linecap="round" stroke-linejoin="round"/>
<path d="M79.0821 88.8706C82.294 88.0972 83.7256 82.6023 82.2797 76.5974C80.8338 70.5925 77.0578 66.3516 73.846 67.125C70.6341 67.8984 69.2024 73.3933 70.6484 79.3982C72.0943 85.4031 75.8702 89.644 79.0821 88.8706Z" fill="#979FB5" stroke="#979FB5" stroke-width="0.813693" stroke-miterlimit="10" stroke-linecap="round" stroke-linejoin="round"/>
<path d="M99.6135 65.8223L103.038 66.3858" stroke="#979FB5" stroke-width="0.813693" stroke-miterlimit="10" stroke-linecap="round" stroke-linejoin="round"/>
<path d="M122.804 68.9434L127.009 69.5502" stroke="#979FB5" stroke-width="0.813693" stroke-miterlimit="10" stroke-linecap="round" stroke-linejoin="round"/>
<path d="M109.366 61.6172L102.647 83.8545" stroke="#979FB5" stroke-width="0.813693" stroke-miterlimit="10" stroke-linecap="round" stroke-linejoin="round"/>
<path d="M136.985 102.302C139.496 101.938 141.094 98.6269 140.555 94.9074C140.015 91.1878 137.541 88.468 135.03 88.8324C132.519 89.1968 130.921 92.5075 131.46 96.227C132 99.9465 134.473 102.666 136.985 102.302Z" fill="#F9F9F9"/>
<path d="M77.2165 83.79C78.9155 83.3809 79.7386 80.7474 79.0549 77.9079C78.3711 75.0684 76.4395 73.0981 74.7405 73.5073C73.0414 73.9164 72.2183 76.5499 72.9021 79.3894C73.5858 82.2289 75.5175 84.1992 77.2165 83.79Z" fill="#F9F9F9"/>
<path d="M206.986 83.0754V85.3728C206.986 85.8063 206.726 86.153 206.293 86.2397L175.429 94.2591C175.343 94.3024 175.256 94.3024 175.169 94.3024L167.367 94.2591C166.977 94.2591 166.586 94.4324 166.326 94.7792L162.468 100.068C162.035 100.718 161.168 101.021 160.431 100.848L154.709 99.6775C153.756 99.4608 153.235 98.4638 153.582 97.5535L156.053 91.4848C156.356 90.7912 157.007 90.3144 157.787 90.2711L169.924 89.144C170.184 89.144 170.444 89.1874 170.704 89.2741L173.045 90.2711C173.392 90.4011 173.695 90.4445 174.042 90.3578L202.955 83.5088C203.128 83.4655 203.345 83.3355 203.475 83.2054L205.946 80.041C206.379 81.038 206.77 82.035 206.986 83.0754Z" fill="#979FB5"/>
<path d="M175.428 73.2338C182.45 73.1471 189.646 71.89 196.885 69.7227" stroke="#979FB5" stroke-width="0.813693" stroke-miterlimit="10" stroke-linecap="round" stroke-linejoin="round"/>
<path d="M177.248 73.8843C177.205 73.971 177.118 74.1011 177.031 74.1878C176.078 75.2281 174.864 76.0951 173.737 77.0487C173.39 77.3521 172.913 77.5255 172.437 77.5255L168.882 77.5689C168.579 77.5689 168.232 77.6122 167.972 77.7856L163.724 80.0831C163.464 80.2131 163.204 80.2998 162.9 80.2998L157.438 80.7333C156.788 80.82 156.181 80.5599 155.835 80.0397L152.453 75.6616C152.28 75.4015 152.323 75.0547 152.54 74.838L153.624 73.8843C153.754 73.7976 153.884 73.7109 154.014 73.7109C155.574 73.6676 157.178 73.5809 158.695 73.4942C162.077 73.3642 165.501 73.2341 168.839 73.0607L175.384 72.8006C175.948 72.7573 176.901 72.4972 177.248 73.1474C177.422 73.4075 177.378 73.7109 177.248 73.8843Z" fill="#979FB5"/>
<path d="M110.189 60.7485L118.339 47.9609" stroke="#F9F9F9" stroke-width="0.813693" stroke-miterlimit="10" stroke-linecap="round" stroke-linejoin="round"/>
<path d="M149.376 51.5594C144.261 52.0796 140.62 51.5594 135.375 50.1289" stroke="#979FB5" stroke-width="0.813693" stroke-miterlimit="10" stroke-linecap="round" stroke-linejoin="round"/>
<path d="M131.258 63.1328C140.837 65.3869 151.024 66.6006 159.433 65.777" stroke="#979FB5" stroke-width="0.813693" stroke-miterlimit="10" stroke-linecap="round" stroke-linejoin="round"/>
<path d="M87.8227 53.0762C87.606 54.1165 87.8227 55.0702 88.3429 56.0238" stroke="#979FB5" stroke-width="0.813693" stroke-miterlimit="10" stroke-linecap="round" stroke-linejoin="round"/>
<path d="M107.2 53.207L102.691 55.8946" stroke="#F9F9F9" stroke-width="0.813693" stroke-miterlimit="10" stroke-linecap="round" stroke-linejoin="round"/>
<path d="M124.582 53.3379L120.074 56.0254" stroke="#F9F9F9" stroke-width="0.813693" stroke-miterlimit="10" stroke-linecap="round" stroke-linejoin="round"/>
<path d="M175.385 53.4238L185.008 55.938" stroke="#F9F9F9" stroke-width="0.813693" stroke-miterlimit="10" stroke-linecap="round" stroke-linejoin="round"/>
<path d="M176.035 56.6328L177.769 57.0229" stroke="#F9F9F9" stroke-width="0.813693" stroke-miterlimit="10" stroke-linecap="round" stroke-linejoin="round"/>
<path d="M97.49 54.6817L96.493 61.3139C96.4496 61.7474 95.9728 62.0075 95.5393 61.8341L92.4183 60.6203L90.5977 59.9268C90.3376 59.7967 90.1209 59.5366 90.1642 59.1899L90.4243 56.8924C90.4243 56.6323 90.6411 56.3723 90.9011 56.2856L92.9385 55.6787L97.0998 54.3783C97.3166 54.2916 97.5333 54.465 97.49 54.6817Z" fill="#F9F9F9" stroke="#979FB5" stroke-width="0.813693" stroke-miterlimit="10" stroke-linecap="round" stroke-linejoin="round"/>
<path d="M92.9387 55.6777L92.4186 60.6194L90.598 59.9258C90.3379 59.7958 90.1211 59.5357 90.1645 59.1889L90.4246 56.8915C90.4246 56.6314 90.6413 56.3713 90.9014 56.2846L92.9387 55.6777Z" fill="#979FB5"/>
</svg>
