<svg width="275" height="151" viewBox="0 0 275 151" fill="none" xmlns="http://www.w3.org/2000/svg">
<path d="M0 0H274.606V150.02H0V0Z" fill="#F9F9F9"/>
<path d="M99.9685 111.202H96.3702C93.4422 111.202 91.008 108.979 90.7611 106.051L90.2319 99.7363H106.107L105.578 106.051C105.331 108.979 102.897 111.202 99.9685 111.202Z" fill="#979FB5" stroke="#979FB5" stroke-width="0.662208" stroke-miterlimit="10" stroke-linecap="round" stroke-linejoin="round"/>
<path d="M180.014 113H176.416C173.488 113 171.053 110.778 170.807 107.85L170.277 101.535H186.152L185.623 107.85C185.376 110.743 182.942 113 180.014 113Z" fill="#979FB5" stroke="#979FB5" stroke-width="0.662208" stroke-miterlimit="10" stroke-linecap="round" stroke-linejoin="round"/>
<path d="M94.4707 53.5611L92.7854 54.4492L95.828 60.2231L97.5133 59.335L94.4707 53.5611Z" fill="#979FB5" stroke="#979FB5" stroke-width="0.662208" stroke-miterlimit="10" stroke-linecap="round" stroke-linejoin="round"/>
<path d="M178.517 59.2974L180.203 60.1855L183.245 54.4117L181.56 53.5235L178.517 59.2974Z" fill="#979FB5" stroke="#979FB5" stroke-width="0.662208" stroke-miterlimit="10" stroke-linecap="round" stroke-linejoin="round"/>
<path d="M140.679 38H159.129C161.881 38 164.456 39.4464 165.867 41.81L174.087 55.7094C174.439 56.3091 174.969 56.803 175.533 57.2264L178.567 59.2372L179.59 59.8722L183.153 62.2358C185.834 63.9997 188.621 66.9983 188.762 70.1733V99.736C188.762 101.923 187.633 103.828 185.905 104.851C184.987 105.451 183.894 105.769 182.765 105.769H170.665H105.578H92.7017C92.0315 105.769 91.3259 105.627 90.6909 105.416C88.3274 104.604 86.634 102.347 86.634 99.736V85.5897" fill="#F8F8F8"/>
<path d="M140.679 38H159.129C161.881 38 164.456 39.4464 165.867 41.81L174.087 55.7094C174.44 56.3091 174.969 56.803 175.533 57.2264L178.567 59.2372L179.59 59.8722L183.153 62.2358C185.834 63.9997 188.621 66.9983 188.762 70.1733V99.736C188.762 101.923 187.633 103.828 185.905 104.851C184.987 105.451 183.894 105.769 182.765 105.769H170.665H105.578H92.7017C92.0315 105.769 91.3259 105.627 90.6909 105.416C88.3274 104.604 86.634 102.347 86.634 99.736V85.5897" stroke="#979FB5" stroke-width="0.662208" stroke-miterlimit="10" stroke-linecap="round" stroke-linejoin="round"/>
<path d="M86.6687 78.1813V70.5966C86.6687 66.8572 88.7501 63.4353 92.0661 61.7066L95.6292 59.8016L97.2872 58.955L100.709 57.1911C101.379 56.803 101.979 56.2739 102.367 55.6389L112.068 41.4572C113.515 39.3053 115.914 38 118.524 38H134.54" fill="#F8F8F8"/>
<path d="M86.6687 78.1813V70.5966C86.6687 66.8572 88.7501 63.4353 92.0661 61.7066L95.6292 59.8016L97.2872 58.955L100.709 57.1911C101.379 56.803 101.979 56.2739 102.367 55.6389L112.068 41.4572C113.515 39.3053 115.914 38 118.524 38H134.54" stroke="#979FB5" stroke-width="0.662208" stroke-miterlimit="10" stroke-linecap="round" stroke-linejoin="round"/>
<path d="M108.718 67.6334L102.721 72.1137C102.544 72.2548 102.297 72.3254 102.086 72.2901L93.1251 71.4434C92.6312 71.4082 92.2432 70.9496 92.3137 70.4204L92.7371 66.3282C92.8076 65.799 93.2662 65.4462 93.7954 65.5168L108.718 67.6334Z" fill="#979FB5" stroke="#979FB5" stroke-width="0.662208" stroke-miterlimit="10" stroke-linecap="round" stroke-linejoin="round"/>
<path d="M107.589 105.309H169.148L161.458 100.229C160.505 99.5939 159.412 99.2764 158.283 99.2764L118.384 98.9941C117.149 98.9941 115.915 99.3822 114.927 100.088L107.589 105.309Z" fill="#979FB5" stroke="#979FB5" stroke-width="0.662208" stroke-miterlimit="10" stroke-linecap="round" stroke-linejoin="round"/>
<path d="M158.635 55.7096H166.784C167.877 55.7096 168.512 54.5454 167.983 53.6282L161.386 42.5863C161.139 42.163 160.681 41.916 160.187 41.916H118.066C117.642 41.916 117.184 42.1277 116.937 42.4805L108.788 53.5224C108.117 54.4749 108.788 55.7096 109.917 55.7096H153.696H158.635Z" fill="#979FB5" stroke="#979FB5" stroke-width="0.662208" stroke-miterlimit="10" stroke-linecap="round" stroke-linejoin="round"/>
<path d="M107.447 67.8459L169.394 67.7754" stroke="#979FB5" stroke-width="0.662208" stroke-miterlimit="10" stroke-linecap="round" stroke-linejoin="round"/>
<path d="M166.855 67.6334L172.852 72.1137C173.029 72.2548 173.275 72.3254 173.487 72.2901L182.448 71.4434C182.941 71.4082 183.33 70.9496 183.259 70.4204L182.836 66.3282C182.765 65.799 182.306 65.4462 181.777 65.5168L166.855 67.6334Z" fill="#979FB5" stroke="#979FB5" stroke-width="0.662208" stroke-miterlimit="10" stroke-linecap="round" stroke-linejoin="round"/>
<path d="M183.364 83.0851V95.397C183.364 95.8909 182.976 96.3142 182.482 96.3495L175.709 96.8434C175.533 96.8434 175.356 96.8434 175.215 96.7728L169.359 94.3739C168.724 94.127 168.442 93.3509 168.759 92.7512L173.204 83.6142C173.451 83.1203 173.91 82.8028 174.439 82.7323L182.271 82.1678C182.87 82.0973 183.364 82.5206 183.364 83.0851Z" fill="#F8F8F8" stroke="#979FB5" stroke-width="0.662208" stroke-miterlimit="10" stroke-linecap="round" stroke-linejoin="round"/>
<path d="M174.475 94.4786L178.603 84.248" stroke="#979FB5" stroke-width="0.662208" stroke-miterlimit="10" stroke-linecap="round" stroke-linejoin="round"/>
<path d="M174.792 93.6335L181.106 93.4219" stroke="#979FB5" stroke-width="0.662208" stroke-miterlimit="10" stroke-linecap="round" stroke-linejoin="round"/>
<path d="M176.38 90.1742L180.684 90.0684" stroke="#979FB5" stroke-width="0.662208" stroke-miterlimit="10" stroke-linecap="round" stroke-linejoin="round"/>
<path d="M177.615 87.0355L181.848 86.9297" stroke="#979FB5" stroke-width="0.662208" stroke-miterlimit="10" stroke-linecap="round" stroke-linejoin="round"/>
<path d="M92.1372 83.0851V95.397C92.1372 95.8909 92.5253 96.3142 93.0191 96.3495L99.7924 96.8434C99.9688 96.8434 100.145 96.8434 100.286 96.7728L106.142 94.3739C106.777 94.127 107.06 93.3509 106.742 92.7512L102.297 83.6142C102.05 83.1203 101.592 82.8028 101.062 82.7323L93.2308 82.1678C92.6664 82.0973 92.1372 82.5206 92.1372 83.0851Z" fill="#F8F8F8" stroke="#979FB5" stroke-width="0.662208" stroke-miterlimit="10" stroke-linecap="round" stroke-linejoin="round"/>
<path d="M101.063 94.4786L96.9358 84.248" stroke="#979FB5" stroke-width="0.662208" stroke-miterlimit="10" stroke-linecap="round" stroke-linejoin="round"/>
<path d="M100.71 93.6316L94.4307 93.4199" stroke="#979FB5" stroke-width="0.662208" stroke-miterlimit="10" stroke-linecap="round" stroke-linejoin="round"/>
<path d="M99.1583 90.1742L94.8545 90.0684" stroke="#979FB5" stroke-width="0.662208" stroke-miterlimit="10" stroke-linecap="round" stroke-linejoin="round"/>
<path d="M97.9237 87.0355L93.6904 86.9297" stroke="#979FB5" stroke-width="0.662208" stroke-miterlimit="10" stroke-linecap="round" stroke-linejoin="round"/>
<path d="M116.69 50.4528L126.815 44.3145" stroke="white" stroke-width="0.662208" stroke-miterlimit="10" stroke-linecap="round" stroke-linejoin="round"/>
<path d="M121.699 51.3013L128.508 47.1738" stroke="white" stroke-width="0.662208" stroke-miterlimit="10" stroke-linecap="round" stroke-linejoin="round"/>
<path d="M118.737 74.405L113.234 77.5095C112.352 78.0033 111.787 78.9558 111.787 79.9789V82.4836C111.787 82.9775 111.893 83.4361 112.14 83.8594L116.585 91.9381C117.079 92.8553 118.031 93.4197 119.09 93.4197H156.66C157.648 93.4197 158.6 92.8905 159.094 92.0439L163.363 84.9178C163.645 84.4592 163.786 83.9653 163.786 83.4361V80.1553C163.786 79.2028 163.292 78.3209 162.516 77.7917L157.577 74.5108C157.119 74.1933 156.554 74.0522 155.99 74.0522H120.148C119.654 74.017 119.196 74.1581 118.737 74.405Z" stroke="#979FB5" stroke-width="0.662208" stroke-miterlimit="10" stroke-linecap="round" stroke-linejoin="round"/>
<path d="M120.923 79.0625H126.885" stroke="#979FB5" stroke-width="0.662208" stroke-miterlimit="10" stroke-linecap="round" stroke-linejoin="round"/>
<path d="M126.886 84.0352H132.248" stroke="#979FB5" stroke-width="0.662208" stroke-miterlimit="10" stroke-linecap="round" stroke-linejoin="round"/>
<path d="M137.046 79.6621H143.29" stroke="#979FB5" stroke-width="0.662208" stroke-miterlimit="10" stroke-linecap="round" stroke-linejoin="round"/>
<path d="M141.067 86.5059H147.311" stroke="#979FB5" stroke-width="0.662208" stroke-miterlimit="10" stroke-linecap="round" stroke-linejoin="round"/>
<path d="M150.734 80.2969H155.814" stroke="#979FB5" stroke-width="0.662208" stroke-miterlimit="10" stroke-linecap="round" stroke-linejoin="round"/>
<path d="M118.985 88.7285H123.923" stroke="#979FB5" stroke-width="0.662208" stroke-miterlimit="10" stroke-linecap="round" stroke-linejoin="round"/>
<path d="M151.474 89.5039H157.154" stroke="#979FB5" stroke-width="0.662208" stroke-miterlimit="10" stroke-linecap="round" stroke-linejoin="round"/>
<path d="M192.113 54.403V55.4261C192.113 56.1669 191.513 56.8019 190.702 56.8019H180.789C180.048 56.8019 179.413 56.1669 179.413 55.4261V49.7463C179.413 48.8997 180.154 48.2294 181.036 48.3352L187.562 49.2172C189.855 49.5347 191.619 51.2986 192.007 53.4858C192.078 53.8033 192.113 54.0855 192.113 54.403Z" fill="#979FB5" stroke="#979FB5" stroke-width="0.662208" stroke-miterlimit="10" stroke-linecap="round" stroke-linejoin="round"/>
<path d="M192.113 54.4036V55.4266C192.113 56.1674 191.513 56.8024 190.702 56.8024H180.789C180.048 56.8024 179.413 56.1674 179.413 55.4266V53.4863H192.007C192.078 53.8038 192.113 54.0861 192.113 54.4036Z" fill="#F8F8F8" stroke="#979FB5" stroke-width="0.662208" stroke-miterlimit="10" stroke-linecap="round" stroke-linejoin="round"/>
<path d="M83 54.403V55.4261C83 56.1669 83.5997 56.8019 84.4111 56.8019H94.324C95.0649 56.8019 95.6999 56.1669 95.6999 55.4261V49.7463C95.6999 48.8997 94.959 48.2294 94.0771 48.3352L87.5508 49.2172C85.2578 49.5347 83.4939 51.2986 83.1058 53.4858C83.0353 53.8033 83 54.0855 83 54.403Z" fill="#979FB5" stroke="#979FB5" stroke-width="0.662208" stroke-miterlimit="10" stroke-linecap="round" stroke-linejoin="round"/>
<path d="M83 54.4036V55.4266C83 56.1674 83.5997 56.8024 84.4111 56.8024H94.324C95.0649 56.8024 95.6999 56.1674 95.6999 55.4266V53.4863H83.1058C83.0353 53.8038 83 54.0861 83 54.4036Z" fill="#F8F8F8" stroke="#979FB5" stroke-width="0.662208" stroke-miterlimit="10" stroke-linecap="round" stroke-linejoin="round"/>
</svg>
