<svg width="275" height="151" viewBox="0 0 275 151" fill="none" xmlns="http://www.w3.org/2000/svg">
<rect width="274.606" height="150.02" fill="#F9F9F9"/>
<path d="M196.061 88.5111C192.031 88.0777 188.087 86.7776 184.621 84.6542C184.361 84.4808 184.101 84.3508 183.927 84.0908C183.754 83.8308 183.711 83.4841 183.667 83.1374C183.581 81.404 183.971 79.6272 184.837 78.1537C185.011 77.8504 185.227 77.547 185.531 77.3737C185.834 77.2003 186.181 77.2003 186.527 77.157C188.174 77.0703 189.951 76.9837 191.381 77.8071C192.161 78.2404 192.768 78.9338 193.331 79.6272C194.415 81.0139 195.325 82.574 195.975 84.2208C196.581 85.6509 196.148 86.9943 196.061 88.5111Z" fill="#979FB5" stroke="#979FB5" stroke-width="0.813479" stroke-miterlimit="10" stroke-linecap="round" stroke-linejoin="round"/>
<path d="M135.998 110.654C131.318 110.091 126.767 108.661 122.781 106.494C122.477 106.321 122.174 106.148 122 105.931C121.784 105.671 121.74 105.324 121.74 104.977C121.654 103.244 122.217 101.511 123.257 99.9938C123.474 99.6904 123.734 99.3871 124.081 99.2137C124.427 99.0404 124.817 99.0404 125.207 99.0404C127.114 98.9971 129.194 98.9537 130.841 99.8204C131.751 100.297 132.444 100.991 133.051 101.684C134.308 103.114 135.305 104.674 136.041 106.364C136.691 107.794 136.128 109.138 135.998 110.654Z" fill="#979FB5" stroke="#979FB5" stroke-width="0.813479" stroke-miterlimit="10" stroke-linecap="round" stroke-linejoin="round"/>
<path d="M186.181 51.9351C186.918 52.5418 187.828 52.8452 188.781 52.8452C190.038 52.8885 191.338 52.9752 192.595 53.2352C197.448 54.1453 201.825 57.0055 204.426 61.2524C207.069 65.6293 207.026 70.5697 206.029 75.4667C205.899 76.16 205.422 79.0635 204.686 79.3669L204.469 79.4536L201.782 80.667L196.842 82.7905L195.585 83.3538L192.812 84.5672L192.421 84.7406L187.655 86.214L178.337 89.1175L167.677 92.4111L150.255 97.8281L149.042 98.1315L143.235 99.6916L135.478 101.728L133.484 102.248L128.371 103.592L127.07 103.939H112.12L70.5601 93.3645C68.09 89.1609 67.6133 85.7807 68.2633 82.8771V82.7905C68.48 81.7504 68.87 80.7537 69.3034 79.7569C70.0835 78.1535 71.1235 76.6801 72.2069 75.2066L72.3369 74.5133L72.6836 72.0431L72.7269 71.8698L73.2036 68.7062C73.2903 68.0995 73.4637 67.5361 73.6803 66.9728L73.7236 66.8428H73.767C74.2004 65.6293 74.9371 64.5459 75.8471 63.6359L79.4441 60.0823L86.7679 50.9817C88.0246 49.4216 89.4547 48.0782 91.0148 46.9948C93.5283 45.1314 96.4752 43.8313 99.5954 43.2246C112.9 40.5811 138.988 36.7241 155.499 38.4142C166.203 39.411 176.82 44.5246 186.181 51.9351Z" fill="#F9F9F9" stroke="#979FB5" stroke-width="0.813479" stroke-miterlimit="10" stroke-linecap="round" stroke-linejoin="round"/>
<path d="M137.688 52.237L135.391 61.901C135.175 62.811 135.911 63.6777 136.865 63.5911L183.884 59.3441L177.297 54.2738C170.624 49.1601 162.39 46.95 154.329 48.1634L139.595 49.8535C138.598 50.0269 137.905 51.2403 137.688 52.237Z" fill="#979FB5" stroke="#979FB5" stroke-width="0.813479" stroke-miterlimit="10" stroke-linecap="round" stroke-linejoin="round"/>
<path d="M183.841 59.4336C187.481 63.9406 187.871 70.6577 187.135 78.1115C187.048 79.0649 186.311 79.8883 185.315 80.1483L154.633 87.8188C153.463 88.1221 152.249 87.6454 151.686 86.6054L140.765 63.0305" stroke="#979FB5" stroke-width="0.813479" stroke-miterlimit="10" stroke-linecap="round" stroke-linejoin="round"/>
<path d="M79.4445 60.0817L116.107 65.542C116.584 65.5853 117.06 65.412 117.364 65.022L126.768 53.4946C127.461 52.6712 126.941 51.3711 125.857 51.2844L91.0152 46.9941C89.4551 48.0775 88.025 49.421 86.7683 50.9811L79.4445 60.0817Z" fill="#979FB5" stroke="#979FB5" stroke-width="0.813479" stroke-miterlimit="10" stroke-linecap="round" stroke-linejoin="round"/>
<path d="M114.459 65.2832C112.856 66.8433 110.386 70.0935 109.822 73.9071C106.702 77.114 104.579 80.3642 104.535 83.7444C104.059 84.6111 103.105 85.0445 102.152 84.8278L70.5598 77.5907" stroke="#979FB5" stroke-width="0.813479" stroke-miterlimit="10" stroke-linecap="round" stroke-linejoin="round"/>
<path d="M73.7232 66.8438C75.1099 67.2771 76.4967 67.7105 77.8835 68.1438C78.4902 68.3172 79.0969 68.5339 79.7036 68.7072C80.1803 68.8372 80.917 68.9239 81.2637 69.3572C81.437 69.5306 81.4371 69.8773 81.2204 70.0073C80.8304 70.2673 80.397 70.354 79.9636 70.4407C79.2269 70.6573 78.4901 70.9607 77.7101 71.134C76.28 71.5241 74.8499 71.7841 73.3765 71.9141C73.2898 71.9141 72.6398 71.9574 72.6398 72.0007C72.7264 72.0441 73.7232 66.8438 73.7232 66.8438Z" fill="#979FB5"/>
<path d="M149.055 98.2956C151.01 90.1749 147.899 82.4608 142.105 81.0657C136.311 79.6705 130.029 85.1227 128.074 93.2434C126.118 101.364 129.23 109.078 135.024 110.473C140.818 111.868 147.1 106.416 149.055 98.2956Z" fill="#979FB5" stroke="#979FB5" stroke-width="0.813479" stroke-miterlimit="10" stroke-linecap="round" stroke-linejoin="round"/>
<path d="M204.569 79.1137C206.015 73.1104 204.583 67.617 201.372 66.8438C198.161 66.0706 194.386 70.3104 192.941 76.3137C191.495 82.317 192.926 87.8104 196.138 88.5836C199.349 89.3568 203.123 85.117 204.569 79.1137Z" fill="#979FB5" stroke="#979FB5" stroke-width="0.813479" stroke-miterlimit="10" stroke-linecap="round" stroke-linejoin="round"/>
<path d="M175.607 65.543L172.183 66.1063" stroke="#979FB5" stroke-width="0.813479" stroke-miterlimit="10" stroke-linecap="round" stroke-linejoin="round"/>
<path d="M152.379 68.6621L148.219 69.2688" stroke="#979FB5" stroke-width="0.813479" stroke-miterlimit="10" stroke-linecap="round" stroke-linejoin="round"/>
<path d="M165.813 61.3379L172.574 83.5693" stroke="#979FB5" stroke-width="0.813479" stroke-miterlimit="10" stroke-linecap="round" stroke-linejoin="round"/>
<path d="M143.692 95.9671C144.231 92.2486 142.633 88.9388 140.123 88.5745C137.612 88.2102 135.139 90.9293 134.6 94.6478C134.06 98.3664 135.658 101.676 138.169 102.041C140.679 102.405 143.152 99.6856 143.692 95.9671Z" fill="#F9F9F9"/>
<path d="M202.278 79.1361C202.962 76.2973 202.139 73.6644 200.44 73.2554C198.742 72.8464 196.81 74.8161 196.127 77.6549C195.443 80.4936 196.266 83.1265 197.965 83.5355C199.663 83.9445 201.594 81.9748 202.278 79.1361Z" fill="#F9F9F9"/>
<path d="M68.2639 82.7913V85.0882C68.2639 85.5215 68.5239 85.8682 68.9573 85.9549L99.8127 93.9721C99.8993 94.0154 99.986 94.0154 100.073 94.0154L107.873 93.9721C108.263 93.9721 108.653 94.1454 108.913 94.4921L112.77 99.7791C113.204 100.429 114.07 100.733 114.807 100.559L120.527 99.3891C121.481 99.1724 122.001 98.1757 121.654 97.2656L119.184 91.1986C118.881 90.5052 118.23 90.0285 117.45 89.9851L105.316 88.8584C105.056 88.8584 104.796 88.9017 104.536 88.9884L102.196 89.9851C101.849 90.1152 101.546 90.1585 101.199 90.0718L72.2941 83.2247C72.1208 83.1814 71.9041 83.0514 71.7741 82.9214L69.304 79.7578C68.8706 80.7545 68.4806 81.7513 68.2639 82.7913Z" fill="#979FB5"/>
<path d="M99.7687 72.9536C92.7483 72.8669 85.5544 71.6102 78.3173 69.4434" stroke="#979FB5" stroke-width="0.813479" stroke-miterlimit="10" stroke-linecap="round" stroke-linejoin="round"/>
<path d="M97.9917 73.6031C98.035 73.6898 98.1217 73.8198 98.2083 73.9065C99.1617 74.9466 100.375 75.8133 101.502 76.7667C101.849 77.07 102.325 77.2434 102.802 77.2434L106.356 77.2867C106.659 77.2867 107.006 77.33 107.266 77.5034L111.556 79.7569C111.816 79.8869 112.076 79.9736 112.379 79.9736L117.84 80.4069C118.49 80.4936 119.096 80.2336 119.443 79.7135L122.823 75.3366C122.997 75.0766 122.953 74.7299 122.737 74.5132L121.653 73.5598C121.523 73.4731 121.393 73.3865 121.263 73.3865C119.703 73.3431 118.1 73.2565 116.583 73.1698C113.203 73.0398 109.779 72.9098 106.442 72.7364L99.8985 72.4764C99.3351 72.4331 98.3817 72.173 98.035 72.8231C97.8183 73.1264 97.8616 73.4298 97.9917 73.6031Z" fill="#979FB5"/>
<path d="M164.989 60.4717L156.885 47.6875" stroke="#F9F9F9" stroke-width="0.813479" stroke-miterlimit="10" stroke-linecap="round" stroke-linejoin="round"/>
<path d="M125.857 51.2856C130.971 51.8056 134.611 51.2856 139.855 49.8555" stroke="#979FB5" stroke-width="0.813479" stroke-miterlimit="10" stroke-linecap="round" stroke-linejoin="round"/>
<path d="M143.972 62.8555C134.395 65.1089 124.211 66.3224 115.804 65.499" stroke="#979FB5" stroke-width="0.813479" stroke-miterlimit="10" stroke-linecap="round" stroke-linejoin="round"/>
<path d="M187.396 52.8008C187.612 53.8408 187.396 54.7942 186.876 55.7476" stroke="#979FB5" stroke-width="0.813479" stroke-miterlimit="10" stroke-linecap="round" stroke-linejoin="round"/>
<path d="M168.023 52.9316L172.487 55.6185" stroke="#F9F9F9" stroke-width="0.813479" stroke-miterlimit="10" stroke-linecap="round" stroke-linejoin="round"/>
<path d="M150.602 53.0625L155.109 55.7493" stroke="#F9F9F9" stroke-width="0.813479" stroke-miterlimit="10" stroke-linecap="round" stroke-linejoin="round"/>
<path d="M99.8555 53.1484L90.2349 55.6619" stroke="#F9F9F9" stroke-width="0.813479" stroke-miterlimit="10" stroke-linecap="round" stroke-linejoin="round"/>
<path d="M99.2053 56.3555L97.4719 56.7455" stroke="#F9F9F9" stroke-width="0.813479" stroke-miterlimit="10" stroke-linecap="round" stroke-linejoin="round"/>
<path d="M177.686 54.4043L178.683 61.0347C178.726 61.4681 179.203 61.7281 179.636 61.5547L182.757 60.3413L184.577 59.6479C184.837 59.5179 185.054 59.2579 185.01 58.9112L184.75 56.6144C184.75 56.3544 184.533 56.0944 184.273 56.0077L182.237 55.401L178.076 54.1009C177.86 54.0142 177.643 54.1876 177.686 54.4043Z" fill="#F9F9F9" stroke="#979FB5" stroke-width="0.813479" stroke-miterlimit="10" stroke-linecap="round" stroke-linejoin="round"/>
<path d="M182.236 55.4023L182.756 60.3427L184.576 59.6493C184.836 59.5193 185.053 59.2593 185.01 58.9126L184.75 56.6158C184.75 56.3557 184.533 56.0957 184.273 56.0091L182.236 55.4023Z" fill="#979FB5"/>
</svg>
