<svg width="275" height="151" viewBox="0 0 275 151" fill="none" xmlns="http://www.w3.org/2000/svg">
<rect width="274.606" height="150.02" transform="matrix(-1 0 0 1 275 0)" fill="#F9F9F9"/>
<path d="M131.333 73.6389V109.71C131.333 113.087 134.096 115.85 137.473 115.85H191.196C195.263 115.85 198.563 112.665 198.563 108.712C198.563 106.717 197.757 104.952 196.414 103.647C195.071 102.381 193.229 101.575 191.196 101.575H170.013V73.6389C170.013 69.4179 168.555 65.5422 166.099 62.4339C166.406 62.2421 166.598 62.1269 166.637 62.0502C166.867 61.6665 162.607 54.5674 162.607 54.5674L150.673 54.8744H149.868C149.868 54.8744 149.868 54.8744 149.829 54.9127C144.879 55.1046 140.351 57.2151 137.013 60.4001C133.521 63.777 131.333 68.4585 131.333 73.6389Z" fill="#979FB5" stroke="#979FB5" stroke-width="0.720319" stroke-miterlimit="10" stroke-linecap="round" stroke-linejoin="round"/>
<path d="M138.125 40.6002C138.125 44.2073 141.08 47.1621 144.687 47.1621H160.036C163.681 47.1621 166.636 44.2073 166.636 40.6002C166.636 36.9548 163.681 34 160.036 34H144.687C141.08 34 138.125 36.9548 138.125 40.6002Z" fill="#979FB5" stroke="#979FB5" stroke-width="0.720319" stroke-miterlimit="10" stroke-linecap="round" stroke-linejoin="round"/>
<path d="M145.761 40.6002C145.761 44.2073 148.716 47.1621 152.323 47.1621H167.672C171.318 47.1621 174.272 44.2073 174.272 40.6002C174.272 36.9548 171.318 34 167.672 34H152.323C148.716 34 145.761 36.9548 145.761 40.6002Z" fill="#F9F9F9" stroke="#979FB5" stroke-width="0.720319" stroke-miterlimit="10" stroke-linecap="round" stroke-linejoin="round"/>
<path d="M163.797 47.1621V55.7961" stroke="#979FB5" stroke-width="0.720319" stroke-miterlimit="10" stroke-linecap="round" stroke-linejoin="round"/>
<path d="M150.597 46.8936V54.5682" stroke="#979FB5" stroke-width="0.720319" stroke-miterlimit="10" stroke-linecap="round" stroke-linejoin="round"/>
<path d="M163.452 101.115C168.018 105.26 168.249 112.128 163.452 115.851H191.196C195.263 115.851 198.563 112.551 198.563 108.483C198.563 106.449 197.719 104.646 196.415 103.303C195.072 101.959 193.191 101.154 191.196 101.154H163.452V101.115Z" fill="#F9F9F9" stroke="#979FB5" stroke-width="0.720319" stroke-miterlimit="10" stroke-linecap="round" stroke-linejoin="round"/>
<path d="M141.503 73.9089V97.4318C141.503 99.4656 143.153 101.116 145.187 101.116H180.183V74.7148C180.183 65.2365 173.736 56.6409 164.412 54.9141C157.735 53.6861 151.48 55.9885 147.182 60.248C143.69 63.74 141.503 68.575 141.503 73.9089Z" fill="#F9F9F9" stroke="#979FB5" stroke-width="0.720319" stroke-miterlimit="10" stroke-linecap="round" stroke-linejoin="round"/>
<path d="M146.03 75.6738C153.935 87.6847 171.433 87.8382 176.153 76.7483" stroke="#979FB5" stroke-width="0.720319" stroke-miterlimit="10" stroke-linecap="round" stroke-linejoin="round"/>
<path d="M166.829 38.2979V43.9771" stroke="#979FB5" stroke-width="0.720319" stroke-miterlimit="10" stroke-linecap="round" stroke-linejoin="round"/>
<path d="M160.459 38.2979V43.9771" stroke="#979FB5" stroke-width="0.720319" stroke-miterlimit="10" stroke-linecap="round" stroke-linejoin="round"/>
<path d="M154.127 38.2979V43.9771" stroke="#979FB5" stroke-width="0.720319" stroke-miterlimit="10" stroke-linecap="round" stroke-linejoin="round"/>
<path d="M197.181 108.866C197.066 108.866 196.989 108.866 196.874 108.866H176.076" stroke="#979FB5" stroke-width="0.720319" stroke-miterlimit="10" stroke-linecap="round" stroke-linejoin="round"/>
<path d="M159.577 104.185V111.936" stroke="#F9F9F9" stroke-width="0.720319" stroke-miterlimit="10" stroke-linecap="round" stroke-linejoin="round"/>
<path d="M150.828 104.185V111.936" stroke="#F9F9F9" stroke-width="0.720319" stroke-miterlimit="10" stroke-linecap="round" stroke-linejoin="round"/>
<path d="M142.041 104.185V111.936" stroke="#F9F9F9" stroke-width="0.720319" stroke-miterlimit="10" stroke-linecap="round" stroke-linejoin="round"/>
<path d="M136.974 74.9443V86.6866" stroke="#F9F9F9" stroke-width="0.720319" stroke-miterlimit="10" stroke-linecap="round" stroke-linejoin="round"/>
<path d="M76 73.6389V109.71C76 113.087 78.7628 115.85 82.1396 115.85H135.862C139.93 115.85 143.23 112.665 143.23 108.712C143.23 106.717 142.424 104.952 141.081 103.647C139.738 102.381 137.896 101.575 135.862 101.575H114.68V73.6389C114.68 69.4179 113.222 65.5422 110.766 62.4339C111.073 62.2421 111.265 62.1269 111.303 62.0502C111.534 61.6665 107.274 54.5674 107.274 54.5674L95.34 54.8744H94.5343C94.5343 54.8744 94.5343 54.8744 94.4959 54.9127C89.5458 55.1046 85.0176 57.2151 81.6792 60.4001C78.1872 63.777 76 68.4585 76 73.6389Z" fill="#979FB5" stroke="#979FB5" stroke-width="0.720319" stroke-miterlimit="10" stroke-linecap="round" stroke-linejoin="round"/>
<path d="M82.8308 40.6002C82.8308 44.2073 85.7856 47.1621 89.3927 47.1621H104.742C108.387 47.1621 111.342 44.2073 111.342 40.6002C111.342 36.9548 108.387 34 104.742 34H89.3927C85.7856 34 82.8308 36.9548 82.8308 40.6002Z" fill="#979FB5" stroke="#979FB5" stroke-width="0.720319" stroke-miterlimit="10" stroke-linecap="round" stroke-linejoin="round"/>
<path d="M90.4673 40.6002C90.4673 44.2073 93.4219 47.1621 97.029 47.1621H112.378C116.024 47.1621 118.979 44.2073 118.979 40.6002C118.979 36.9548 116.024 34 112.378 34H97.029C93.4219 34 90.4673 36.9548 90.4673 40.6002Z" fill="#F9F9F9" stroke="#979FB5" stroke-width="0.720319" stroke-miterlimit="10" stroke-linecap="round" stroke-linejoin="round"/>
<path d="M108.463 47.1621V55.7961" stroke="#979FB5" stroke-width="0.720319" stroke-miterlimit="10" stroke-linecap="round" stroke-linejoin="round"/>
<path d="M95.3018 46.8936V54.5682" stroke="#979FB5" stroke-width="0.720319" stroke-miterlimit="10" stroke-linecap="round" stroke-linejoin="round"/>
<path d="M108.119 101.115C112.685 105.26 112.915 112.128 108.119 115.851H135.862C139.93 115.851 143.23 112.551 143.23 108.483C143.23 106.449 142.386 104.646 141.081 103.303C139.777 101.959 137.858 101.154 135.862 101.154H108.119V101.115Z" fill="#F9F9F9" stroke="#979FB5" stroke-width="0.720319" stroke-miterlimit="10" stroke-linecap="round" stroke-linejoin="round"/>
<path d="M86.2075 73.9089V97.4318C86.2075 99.4656 87.8577 101.116 89.8914 101.116H124.888V74.7148C124.888 65.2365 118.441 56.6409 109.116 54.9141C102.44 53.6861 96.1847 55.9885 91.8869 60.248C88.395 63.74 86.2075 68.575 86.2075 73.9089Z" fill="#F9F9F9" stroke="#979FB5" stroke-width="0.720319" stroke-miterlimit="10" stroke-linecap="round" stroke-linejoin="round"/>
<path d="M90.6965 75.6738C98.6014 87.6847 116.099 87.8382 120.819 76.7483" stroke="#979FB5" stroke-width="0.720319" stroke-miterlimit="10" stroke-linecap="round" stroke-linejoin="round"/>
<path d="M111.534 38.2979V43.9771" stroke="#979FB5" stroke-width="0.720319" stroke-miterlimit="10" stroke-linecap="round" stroke-linejoin="round"/>
<path d="M105.164 38.2979V43.9771" stroke="#979FB5" stroke-width="0.720319" stroke-miterlimit="10" stroke-linecap="round" stroke-linejoin="round"/>
<path d="M98.7942 38.2979V43.9771" stroke="#979FB5" stroke-width="0.720319" stroke-miterlimit="10" stroke-linecap="round" stroke-linejoin="round"/>
<path d="M141.886 108.866C141.771 108.866 141.695 108.866 141.579 108.866H120.781" stroke="#979FB5" stroke-width="0.720319" stroke-miterlimit="10" stroke-linecap="round" stroke-linejoin="round"/>
<path d="M104.281 104.186V111.937" stroke="#F9F9F9" stroke-width="0.720319" stroke-miterlimit="10" stroke-linecap="round" stroke-linejoin="round"/>
<path d="M95.4939 104.186V111.937" stroke="#F9F9F9" stroke-width="0.720319" stroke-miterlimit="10" stroke-linecap="round" stroke-linejoin="round"/>
<path d="M86.7444 104.186V111.937" stroke="#F9F9F9" stroke-width="0.720319" stroke-miterlimit="10" stroke-linecap="round" stroke-linejoin="round"/>
<path d="M81.6399 74.9443V86.6866" stroke="#F9F9F9" stroke-width="0.720319" stroke-miterlimit="10" stroke-linecap="round" stroke-linejoin="round"/>
</svg>
