<svg width="275" height="151" viewBox="0 0 275 151" fill="none" xmlns="http://www.w3.org/2000/svg">
<rect width="274.606" height="150.02" fill="#F9F9F9"/>
<path d="M201.709 101.547C200.761 102.447 199.576 103.063 198.343 103.585C195.073 104.864 191.471 105.244 188.058 104.627C184.124 103.917 180.143 101.547 179.1 97.7074C179.053 97.6127 179.053 97.5179 179.1 97.4231C179.147 97.2335 179.384 97.1861 179.574 97.1387C187.489 95.4798 195.357 93.8682 203.273 92.2567C203.462 92.2093 203.652 92.2093 203.794 92.3041C204.221 92.6359 204.031 96.4751 203.936 97.0913C203.699 98.7502 202.941 100.409 201.709 101.547Z" fill="#979FB5" stroke="#979FB5" stroke-width="0.889715" stroke-miterlimit="10" stroke-linecap="round" stroke-linejoin="round"/>
<path d="M154.976 98.1337C155.166 98.1337 155.403 98.1337 155.545 98.2759C155.687 98.4181 155.687 98.6077 155.687 98.7499C155.877 101.689 154.929 104.675 153.175 107.044C152.322 108.229 151.279 109.32 149.952 109.983C148.814 110.552 147.582 110.836 146.35 111.026C144.501 111.358 142.653 111.547 140.757 111.689C140.52 111.073 140.852 110.41 141.183 109.841C142.89 106.855 144.596 103.869 146.302 100.883C147.013 99.603 147.629 98.4181 149.099 98.0863C150.852 97.7545 153.175 98.1337 154.976 98.1337Z" fill="#979FB5" stroke="#979FB5" stroke-width="0.889715" stroke-miterlimit="10" stroke-linecap="round" stroke-linejoin="round"/>
<path d="M82.3619 87.1377C82.5041 87.1377 82.6937 87.1377 82.7885 87.2799C82.8833 87.3747 82.8833 87.5643 82.9307 87.7539C83.0729 90.4556 82.3619 93.1572 81.0348 95.3849C80.3712 96.475 79.5654 97.4704 78.6175 98.0866C77.7643 98.6079 76.8164 98.8449 75.8684 99.0345C74.4465 99.3189 73.0246 99.5085 71.6027 99.6507C71.4131 99.0819 71.6975 98.4658 71.9345 97.9444C73.2143 95.1953 74.5413 92.4937 75.8211 89.7446C76.3898 88.5597 76.8164 87.4695 77.9539 87.1851C79.2811 86.7586 81.0348 87.1377 82.3619 87.1377Z" fill="#979FB5" stroke="#979FB5" stroke-width="0.889715" stroke-miterlimit="10" stroke-linecap="round" stroke-linejoin="round"/>
<path d="M212.563 83.4876C212.658 85.2887 212.658 87.0898 212.563 88.7488C212.563 89.6967 212.468 90.6921 212.326 91.5926C212.326 91.6874 212.279 91.8296 212.231 91.9718C212.231 92.0192 212.231 92.0192 212.231 92.0666C212.137 92.4932 212.042 92.8723 211.852 93.2515C211.046 95.0526 209.245 96.285 207.207 96.522L203.889 96.9485L180.143 99.982L176.304 100.456L170.237 101.404C168.815 101.641 167.394 101.688 165.972 101.451C162.369 100.93 155.734 99.8872 155.734 99.8872L154.264 99.745L149.335 98.8918L148.103 98.6548L141.088 97.4225L131.893 95.811L125.779 94.7209L115.256 92.8724L107.341 91.4978L97.0558 89.6493L77.7177 86.2841L72.3144 85.3361L67.7169 84.483L66.0106 84.1986C65.2049 84.0564 64.5413 83.8194 63.9725 83.3928C58.664 80.1698 61.7448 68.1308 63.4511 63.8176C64.5887 60.9264 70.1815 52.1578 74.1629 45.6644C76.0114 42.6783 79.9928 40.1663 83.4528 39.5975C94.0698 37.9386 104.45 37.6542 116.015 38.3652C116.015 38.3652 140.946 39.7871 145.638 41.1616C149.098 42.157 152.132 43.4841 154.596 45.2852L169.052 55.9496L170.711 57.182L204.506 65.0974L205.69 65.3818C207.018 65.6661 208.155 66.5667 208.819 67.7516C210.383 70.7377 211.615 75.2405 212.231 80.0276C212.326 80.7386 212.421 81.4969 212.468 82.2079C212.516 82.6345 212.516 83.0611 212.563 83.4876Z" fill="#F9F9F9" stroke="#979FB5" stroke-width="0.889715" stroke-miterlimit="10" stroke-linecap="round" stroke-linejoin="round"/>
<path d="M168.626 101.594C168.626 101.499 168.626 101.405 168.721 101.357V92.1621" stroke="#979FB5" stroke-width="0.889715" stroke-miterlimit="10" stroke-linecap="round" stroke-linejoin="round"/>
<path d="M74.4468 57.04C72.7405 62.0642 72.693 66.5196 73.404 70.8801" stroke="#979FB5" stroke-width="0.889715" stroke-miterlimit="10" stroke-linecap="round" stroke-linejoin="round"/>
<path d="M74.5888 57.703C91.083 59.6463 103.643 60.8786 117.626 62.2057C118.242 62.2531 118.621 61.6844 118.336 61.2578L113.17 46.7541C111.274 43.8629 107.482 42.204 103.643 42.6779L84.2578 43.9103C82.3619 44.1472 80.6556 45.0478 79.5654 46.4223L73.9726 56.7076C73.6882 57.1342 74.02 57.703 74.5888 57.703Z" fill="#979FB5" stroke="#979FB5" stroke-width="0.889715" stroke-miterlimit="10" stroke-linecap="round" stroke-linejoin="round"/>
<path d="M203.511 64.8604L179.67 65.7609L177.442 69.2683L178.722 75.3352C178.911 76.3306 179.48 77.1837 180.286 77.7051L184.362 80.5489C185.026 81.0229 185.784 81.2125 186.59 81.2125L212.09 78.9374" stroke="#979FB5" stroke-width="0.889715" stroke-miterlimit="10" stroke-linecap="round" stroke-linejoin="round"/>
<path d="M171.328 67.7984V76.0456L153.506 75.8086C152.748 75.8086 152.037 75.3346 151.611 74.5288L148.909 69.5521L152.322 65.7129L171.328 67.7984Z" fill="#979FB5" stroke="#979FB5" stroke-width="0.889715" stroke-miterlimit="10" stroke-linecap="round" stroke-linejoin="round"/>
<path d="M97.0548 59.7422C95.1589 70.1697 94.5427 80.2653 97.0548 89.6501" stroke="#979FB5" stroke-width="0.889715" stroke-miterlimit="10" stroke-linecap="round" stroke-linejoin="round"/>
<path d="M77.718 63.4375L81.9838 63.8641" stroke="#979FB5" stroke-width="0.889715" stroke-miterlimit="10" stroke-linecap="round" stroke-linejoin="round"/>
<path d="M100.232 65.666L103.692 65.9978" stroke="#979FB5" stroke-width="0.889715" stroke-miterlimit="10" stroke-linecap="round" stroke-linejoin="round"/>
<path d="M138.972 112.13C145.551 111.649 150.265 102.793 149.502 92.3509C148.738 81.9084 142.786 73.833 136.208 74.3138C129.629 74.7947 124.915 83.6499 125.678 94.0924C126.441 104.535 132.393 112.61 138.972 112.13Z" fill="#979FB5" stroke="#979FB5" stroke-width="0.889715" stroke-miterlimit="10" stroke-linecap="round" stroke-linejoin="round"/>
<path d="M70.6555 99.6501C74.5558 99.6501 77.7176 93.9842 77.7176 86.995C77.7176 80.0057 74.5558 74.3398 70.6555 74.3398C66.7551 74.3398 63.5933 80.0057 63.5933 86.995C63.5933 93.9842 66.7551 99.6501 70.6555 99.6501Z" fill="#979FB5" stroke="#979FB5" stroke-width="0.889715" stroke-miterlimit="10" stroke-linecap="round" stroke-linejoin="round"/>
<path d="M136.585 103.584C139.282 103.584 141.467 98.9794 141.467 93.299C141.467 87.6186 139.282 83.0137 136.585 83.0137C133.889 83.0137 131.703 87.6186 131.703 93.299C131.703 98.9794 133.889 103.584 136.585 103.584Z" fill="#F9F9F9"/>
<path d="M69.8972 94.3892C71.3369 94.3892 72.504 91.5032 72.504 87.9431C72.504 84.3831 71.3369 81.4971 69.8972 81.4971C68.4574 81.4971 67.2903 84.3831 67.2903 87.9431C67.2903 91.5032 68.4574 94.3892 69.8972 94.3892Z" fill="#F9F9F9"/>
<path d="M188.249 70.7853L190.95 70.5957" stroke="#979FB5" stroke-width="0.889715" stroke-miterlimit="10" stroke-linecap="round" stroke-linejoin="round"/>
<path d="M197.633 75.7619L200.05 75.5723" stroke="#979FB5" stroke-width="0.889715" stroke-miterlimit="10" stroke-linecap="round" stroke-linejoin="round"/>
<path d="M201.283 70.4064L203.748 70.2168" stroke="#979FB5" stroke-width="0.889715" stroke-miterlimit="10" stroke-linecap="round" stroke-linejoin="round"/>
<path d="M97.0559 57.8928C96.2502 53.3426 97.7669 47.9867 98.5727 43.4365" stroke="#F9F9F9" stroke-width="0.889715" stroke-miterlimit="10" stroke-linecap="round" stroke-linejoin="round"/>
<path d="M80.8457 51.8733C80.8931 51.8259 80.8931 51.7785 80.9405 51.7311L87.8131 46.8018" stroke="#F9F9F9" stroke-width="0.889715" stroke-miterlimit="10" stroke-linecap="round" stroke-linejoin="round"/>
<path d="M100.752 51.6835L104.733 48.4131" stroke="#F9F9F9" stroke-width="0.889715" stroke-miterlimit="10" stroke-linecap="round" stroke-linejoin="round"/>
<path d="M170.995 57.7982L132.224 57.893C130.897 57.9404 129.665 57.3242 128.859 56.2815L116.014 38.3652C123.93 38.1282 132.366 39.5027 140.756 39.8345C145.258 40.0241 149.572 41.5882 153.174 44.2425L170.995 57.7982Z" fill="#979FB5"/>
<path d="M97.9089 59.694C98.3355 59.6466 98.7147 59.7414 99.0939 59.8836L151.373 67.3724" stroke="#979FB5" stroke-width="0.889715" stroke-miterlimit="10" stroke-linecap="round" stroke-linejoin="round"/>
<path d="M118.479 62.4902C116.82 68.3201 117.01 73.3917 118.052 78.321" stroke="#979FB5" stroke-width="0.889715" stroke-miterlimit="10" stroke-linecap="round" stroke-linejoin="round"/>
<path d="M143.695 44.1953L151.515 47.6553" stroke="#F9F9F9" stroke-width="0.889715" stroke-miterlimit="10" stroke-linecap="round" stroke-linejoin="round"/>
<path d="M143.647 49.125L146.302 50.4995" stroke="#F9F9F9" stroke-width="0.889715" stroke-miterlimit="10" stroke-linecap="round" stroke-linejoin="round"/>
<path d="M181.944 88.323C181.944 88.323 208.629 85.3843 208.677 85.3369C208.677 85.3369 208.819 89.4131 208.914 89.4131L178.769 93.2049C178.958 92.7309 179.338 92.1622 179.669 91.783C180.238 91.1668 180.617 90.3611 180.807 89.5553C180.854 89.3183 180.902 89.0339 181.044 88.8443C181.186 88.5125 181.944 88.7969 181.944 88.323Z" fill="#979FB5"/>
<path d="M193.082 81.2129V87.1376" stroke="#979FB5" stroke-width="0.889715" stroke-miterlimit="10" stroke-linecap="round" stroke-linejoin="round"/>
<path d="M200.998 80.6904V86.6151" stroke="#979FB5" stroke-width="0.889715" stroke-miterlimit="10" stroke-linecap="round" stroke-linejoin="round"/>
<path d="M109.616 45.0478C110.375 42.0617 112.697 39.7866 116.915 38.4121" stroke="#979FB5" stroke-width="0.889715" stroke-miterlimit="10" stroke-linecap="round" stroke-linejoin="round"/>
<path d="M78.76 41.2568C80.2767 42.7262 81.0351 44.5273 81.1299 46.6602" stroke="#979FB5" stroke-width="0.889715" stroke-miterlimit="10" stroke-linecap="round" stroke-linejoin="round"/>
<path d="M170.616 69.2686C171.233 69.2686 171.896 69.2686 172.512 69.2686H177.442" stroke="#979FB5" stroke-width="0.889715" stroke-miterlimit="10" stroke-linecap="round" stroke-linejoin="round"/>
<path d="M181.518 87.6109L179.527 95.2893C179.432 95.7633 178.958 96.0951 178.342 96.0951L167.63 96.9483C166.54 96.9957 165.45 96.0003 165.545 95.005L166.114 86.9474C166.208 86.426 166.682 86.0468 167.299 85.9994L179.29 85.4307C180.522 85.4307 181.707 86.6156 181.518 87.6109Z" fill="#F9F9F9" stroke="#979FB5" stroke-width="0.889715" stroke-miterlimit="10" stroke-linecap="round" stroke-linejoin="round"/>
<path d="M212.563 83.4873C212.658 85.2884 212.658 87.0895 212.563 88.7484C212.563 89.6964 212.468 90.6917 212.326 91.5923C212.326 91.6871 212.279 91.8293 212.231 91.9715C212.231 92.0189 212.231 92.0189 212.231 92.0663C212.137 92.4928 212.042 92.872 211.852 93.2512C210.43 93.346 208.582 92.5402 208.25 91.6871L205.501 84.9566C205.311 84.53 205.691 84.1509 206.496 84.0561L212.563 83.4873Z" fill="#F9F9F9" stroke="#979FB5" stroke-width="0.889715" stroke-miterlimit="10" stroke-linecap="round" stroke-linejoin="round"/>
</svg>
