<svg width="275" height="151" viewBox="0 0 275 151" fill="none" xmlns="http://www.w3.org/2000/svg">
<rect width="274.606" height="150.02" fill="#F9F9F9"/>
<path d="M188.971 106.177C188.971 106.21 188.971 106.21 188.971 106.21C188.616 107.918 187.681 109.53 186.424 110.562C182.588 113.624 177.463 112.947 172.885 112.915C166.277 112.915 159.701 112.85 153.061 112.85C144.712 112.818 136.363 112.753 128.014 112.721C120.471 112.689 112.96 112.689 105.417 112.625C102.742 112.625 100.099 112.592 97.4231 112.592C94.8765 112.592 92.4911 112.625 90.4281 111.722C90.3636 111.658 90.267 111.593 90.2025 111.593C90.138 111.593 90.1058 111.561 90.0735 111.561C89.0742 111.045 88.1716 110.304 87.3335 109.208C86.721 108.369 86.3342 107.435 86.1408 106.435C86.0119 105.855 85.9796 105.243 86.0119 104.63C86.2053 100.053 89.2999 97.2805 92.3944 94.3471C94.1351 92.7353 95.908 91.1881 97.7132 89.7375C98.8092 88.8671 99.8407 88.0612 100.937 87.1909C101.195 87.0297 101.872 86.256 102.258 86.1271C102.323 86.0626 102.323 86.0626 102.355 86.0626C102.613 86.0626 174.239 85.5791 174.239 85.5791L187.875 101.052C189.1 102.438 189.357 104.372 188.971 106.177Z" fill="#F9F9F9" stroke="#979FB5" stroke-width="0.605099" stroke-miterlimit="10" stroke-linecap="round" stroke-linejoin="round"/>
<path d="M188.97 106.178C188.97 106.211 188.97 106.211 188.97 106.211C188.841 106.855 188.616 107.468 188.326 108.048C188.326 108.113 188.293 108.145 188.293 108.209C188.229 108.306 188.164 108.435 188.1 108.532C188.003 108.661 187.907 108.822 187.81 108.951C187.552 109.402 187.197 109.853 186.811 110.176C186.617 110.337 186.456 110.53 186.295 110.659C185.586 111.304 184.844 111.755 184.071 112.077C184.071 112.077 176.528 112.948 172.885 112.916C166.277 112.916 159.701 112.851 153.06 112.851C144.712 112.819 136.363 112.754 128.014 112.722C120.471 112.69 112.96 112.69 105.417 112.625C102.742 112.625 100.098 112.593 97.4227 112.593C94.8761 112.593 92.4907 112.626 90.4276 111.723C90.3632 111.658 90.2665 111.594 90.2021 111.594C90.1376 111.594 90.1053 111.562 90.0731 111.562C89.783 111.401 89.4607 111.239 89.2028 111.014C89.0094 110.885 88.8159 110.756 88.6547 110.595C88.558 110.53 88.4613 110.466 88.3646 110.369C88.0423 110.079 87.7521 109.757 87.4942 109.402C87.4298 109.337 87.3976 109.273 87.3331 109.176C86.7206 108.338 86.3338 107.436 86.1404 106.436C86.1404 106.404 86.1404 106.34 86.1727 106.307V106.275C85.9793 105.373 85.9792 104.405 86.1081 103.471C86.7528 99.5702 89.5573 97.0236 92.394 94.348C94.1347 92.7363 95.9076 91.189 97.7128 89.7384C98.8088 88.868 99.8403 88.0622 100.936 87.1918C101.194 87.0306 101.871 86.257 102.258 86.128C102.741 87.0629 102.838 88.2878 102.774 89.3516C96.1333 95.2506 91.0401 102.02 90.9757 106.372C90.9434 108.177 92.5552 109.563 94.3603 109.692C95.3596 109.757 96.3912 109.757 97.4227 109.757C100.098 109.757 102.742 109.789 105.417 109.789C112.96 109.821 120.471 109.821 128.014 109.885C136.363 109.918 144.712 109.95 153.06 110.014C159.701 110.014 166.277 110.047 172.885 110.047C174.529 110.079 177.076 109.918 179.042 109.789C181.782 109.595 183.78 107.049 183.2 104.341C182.298 100.086 178.429 94.2836 173.272 88.9003C173.336 87.8043 173.53 86.6116 174.078 85.709C174.464 85.8702 175.077 86.7083 175.335 86.9017C176.334 87.8365 177.301 88.7713 178.3 89.7062C179.977 91.2857 181.621 92.9942 183.2 94.7349C186.037 97.8939 188.841 100.892 188.68 105.437C188.809 105.663 188.906 105.921 188.97 106.178Z" fill="#979FB5" stroke="#979FB5" stroke-width="0.605099" stroke-miterlimit="10" stroke-linecap="round" stroke-linejoin="round"/>
<path d="M147.419 51.6358C148.418 64.2076 148.064 77.1662 146.065 87.965C145.904 88.7709 145.195 89.3511 144.357 89.3511H131.011C130.173 89.3511 129.432 88.7387 129.303 87.8683C127.755 76.7793 127.433 63.853 127.885 51.5391" fill="#979FB5"/>
<path d="M147.419 51.6358C148.418 64.2076 148.064 77.1662 146.065 87.965C145.904 88.7709 145.195 89.3511 144.357 89.3511H131.011C130.173 89.3511 129.432 88.7387 129.303 87.8683C127.755 76.7793 127.433 63.853 127.885 51.5391" stroke="#979FB5" stroke-width="0.605099" stroke-miterlimit="10" stroke-linecap="round" stroke-linejoin="round"/>
<path d="M130.334 49.4754C135.621 48.4761 140.618 48.3149 145.388 49.3465L130.334 49.4754Z" fill="#F9F9F9"/>
<path d="M130.334 49.4754C135.621 48.4761 140.617 48.3149 145.388 49.3465" stroke="#979FB5" stroke-width="0.605099" stroke-miterlimit="10" stroke-linecap="round" stroke-linejoin="round"/>
<path d="M172.273 89.8024H153.609C151.803 89.8024 150.353 88.3518 150.353 86.5466C151.771 76.3602 151.674 65.8193 150.353 54.956C150.353 53.1508 151.803 51.7002 153.609 51.7002H172.273C174.078 51.7002 175.528 53.1508 175.528 54.956C173.981 65.4969 173.981 76.0379 175.528 86.5466C175.528 88.3518 174.078 89.8024 172.273 89.8024Z" fill="#F9F9F9" stroke="#979FB5" stroke-width="0.605099" stroke-miterlimit="10" stroke-linecap="round" stroke-linejoin="round"/>
<path d="M122.147 89.8024H103.483C101.677 89.8024 100.227 88.3518 100.227 86.5466C101.645 76.3602 101.548 65.8193 100.227 54.956C100.227 53.1508 101.677 51.7002 103.483 51.7002H122.147C123.952 51.7002 125.402 53.1508 125.402 54.956C123.855 65.4969 123.855 76.0379 125.402 86.5466C125.402 88.3518 123.92 89.8024 122.147 89.8024Z" fill="#F9F9F9" stroke="#979FB5" stroke-width="0.605099" stroke-miterlimit="10" stroke-linecap="round" stroke-linejoin="round"/>
<path d="M109.511 47.4453V51.0557" stroke="#979FB5" stroke-width="0.605099" stroke-miterlimit="10" stroke-linecap="round" stroke-linejoin="round"/>
<path d="M116.828 47.4453V51.0557" stroke="#979FB5" stroke-width="0.605099" stroke-miterlimit="10" stroke-linecap="round" stroke-linejoin="round"/>
<path d="M158.637 51.6682V47.4131" stroke="#979FB5" stroke-width="0.605099" stroke-miterlimit="10" stroke-linecap="round" stroke-linejoin="round"/>
<path d="M165.439 51.6682V47.4131" stroke="#979FB5" stroke-width="0.605099" stroke-miterlimit="10" stroke-linecap="round" stroke-linejoin="round"/>
<path d="M101.194 70.4287H124.049" stroke="#979FB5" stroke-width="0.605099" stroke-miterlimit="10" stroke-linecap="round" stroke-linejoin="round"/>
<path d="M174.239 68.3652H165.439" stroke="#979FB5" stroke-width="0.605099" stroke-miterlimit="10" stroke-linecap="round" stroke-linejoin="round"/>
<path d="M160.475 68.3652H151.933" stroke="#979FB5" stroke-width="0.605099" stroke-miterlimit="10" stroke-linecap="round" stroke-linejoin="round"/>
<path d="M124.403 52.635C132.527 49.5727 141.391 49.5405 151.03 52.635" stroke="#979FB5" stroke-width="0.605099" stroke-miterlimit="10" stroke-linecap="round" stroke-linejoin="round"/>
<path d="M127.433 85.9014L120.696 112.689" stroke="#979FB5" stroke-width="0.605099" stroke-miterlimit="10" stroke-linecap="round" stroke-linejoin="round"/>
<path d="M148.064 85.7725L151.932 112.173" stroke="#979FB5" stroke-width="0.605099" stroke-miterlimit="10" stroke-linecap="round" stroke-linejoin="round"/>
<path d="M127.82 51.5385L133.042 49.959H141.359L147.516 51.6352" fill="#979FB5"/>
<path d="M127.82 51.5385L133.042 49.959H141.359L147.516 51.6352" stroke="#979FB5" stroke-width="0.605099" stroke-miterlimit="10" stroke-linecap="round" stroke-linejoin="round"/>
<path d="M145.679 43.5765V48.7664C145.679 49.4111 145.292 49.9269 144.712 50.0881C140.134 51.3452 135.557 51.3452 130.98 50.0881C130.432 49.9269 130.045 49.3789 130.045 48.7664V43.5765C130.045 42.8351 130.561 42.2871 131.27 42.2871H144.422C145.099 42.2871 145.679 42.8351 145.679 43.5765Z" fill="#F9F9F9" stroke="#979FB5" stroke-width="0.605099" stroke-miterlimit="10" stroke-linecap="round" stroke-linejoin="round"/>
<path d="M131.785 88.1582C129.883 97.8933 128.594 107.886 122.018 107.886" stroke="#979FB5" stroke-width="0.605099" stroke-miterlimit="10" stroke-linecap="round" stroke-linejoin="round"/>
<path d="M143.648 87.6748C144.454 97.5711 144.68 107.628 151.191 108.338" stroke="#979FB5" stroke-width="0.605099" stroke-miterlimit="10" stroke-linecap="round" stroke-linejoin="round"/>
<path d="M169.21 89.8027L177.043 100.602C177.849 101.698 177.043 103.245 175.689 103.245H150.642" stroke="#979FB5" stroke-width="0.605099" stroke-miterlimit="10" stroke-linecap="round" stroke-linejoin="round"/>
<path d="M106.643 90.2207L96.1985 100.633C95.3926 101.729 96.1985 103.276 97.5524 103.276H122.599" stroke="#979FB5" stroke-width="0.605099" stroke-miterlimit="10" stroke-linecap="round" stroke-linejoin="round"/>
<path d="M107.48 38.8069L105.062 46.4789C104.836 47.188 105.352 47.9295 106.126 47.9295H121.437C122.147 47.9295 122.662 47.2847 122.501 46.5756L120.825 38.9036C120.728 38.3878 120.277 38.0332 119.761 38.0332H108.543C108.06 38.0332 107.641 38.3556 107.48 38.8069Z" fill="#979FB5" stroke="#979FB5" stroke-width="0.605099" stroke-miterlimit="10" stroke-linecap="round" stroke-linejoin="round"/>
<path d="M108.737 45.2861H112.605" stroke="#F9F9F9" stroke-width="0.605099" stroke-miterlimit="10" stroke-linecap="round" stroke-linejoin="round"/>
<path d="M155.963 38.7736L153.545 46.4457C153.32 47.1548 153.835 47.8963 154.609 47.8963H169.921C170.63 47.8963 171.146 47.2515 170.984 46.5424L169.308 38.8703C169.211 38.3546 168.76 38 168.244 38H157.027C156.511 38 156.092 38.2901 155.963 38.7736Z" fill="#979FB5" stroke="#979FB5" stroke-width="0.605099" stroke-miterlimit="10" stroke-linecap="round" stroke-linejoin="round"/>
<path d="M157.188 45.2207H161.056" stroke="#F9F9F9" stroke-width="0.605099" stroke-miterlimit="10" stroke-linecap="round" stroke-linejoin="round"/>
<path d="M129.787 58.7598H145.259" stroke="#F9F9F9" stroke-width="0.605099" stroke-miterlimit="10" stroke-linecap="round" stroke-linejoin="round"/>
<path d="M129.787 69.3975H145.259" stroke="#F9F9F9" stroke-width="0.605099" stroke-miterlimit="10" stroke-linecap="round" stroke-linejoin="round"/>
<path d="M129.787 80.0352H145.259" stroke="#F9F9F9" stroke-width="0.605099" stroke-miterlimit="10" stroke-linecap="round" stroke-linejoin="round"/>
<path d="M103.74 59.2426L108.221 54.2783" stroke="#979FB5" stroke-width="0.605099" stroke-miterlimit="10" stroke-linecap="round" stroke-linejoin="round"/>
<path d="M107.029 59.4684L108.963 57.1475" stroke="#979FB5" stroke-width="0.605099" stroke-miterlimit="10" stroke-linecap="round" stroke-linejoin="round"/>
<path d="M153.576 59.2426L158.056 54.2783" stroke="#979FB5" stroke-width="0.605099" stroke-miterlimit="10" stroke-linecap="round" stroke-linejoin="round"/>
<path d="M156.864 59.4684L158.798 57.1475" stroke="#979FB5" stroke-width="0.605099" stroke-miterlimit="10" stroke-linecap="round" stroke-linejoin="round"/>
</svg>
