<svg width="18" height="18" viewBox="0 0 18 18" fill="none" xmlns="http://www.w3.org/2000/svg">
<path d="M13.446 14.7254H15.0495C15.1906 14.7276 15.33 14.6956 15.456 14.6322C15.5821 14.5688 15.6908 14.4758 15.7731 14.3612C15.8553 14.2466 15.9086 14.1138 15.9284 13.9741C15.9481 13.8344 15.9338 13.6921 15.8865 13.5591C15.4777 12.684 14.8303 11.9418 14.0189 11.4178C13.2074 10.8938 12.2646 10.6092 11.2988 10.5966M11.2988 8.52739C11.6597 8.52749 12.0171 8.45648 12.3506 8.31843C12.6841 8.18037 12.9871 7.97797 13.2424 7.72278C13.4976 7.4676 13.7001 7.16463 13.8383 6.83118C13.9764 6.49772 14.0475 6.14032 14.0475 5.77939C14.0485 5.41782 13.9781 5.05962 13.8404 4.7253C13.7027 4.39098 13.5004 4.08712 13.245 3.83114C12.9897 3.57516 12.6863 3.37209 12.3523 3.23357C12.0184 3.09504 11.6603 3.02379 11.2988 3.02389M10.5188 15.6201C10.7829 15.6198 11.0419 15.5463 11.2669 15.4078C11.4918 15.2694 11.6741 15.0713 11.7935 14.8357C11.9128 14.6 11.9646 14.3359 11.9431 14.0726C11.9215 13.8093 11.8276 13.5571 11.6715 13.3439C11.1249 12.6182 10.4211 12.0257 9.61298 11.6106C8.80485 11.1955 7.91327 10.9686 7.00502 10.9469C6.0967 10.9687 5.20509 11.1957 4.39695 11.6109C3.58881 12.0262 2.8851 12.6189 2.33852 13.3446C2.18301 13.5578 2.08944 13.8098 2.06815 14.0729C2.04685 14.3359 2.09866 14.5997 2.21785 14.8351C2.33703 15.0705 2.51897 15.2684 2.74355 15.407C2.96814 15.5455 3.22664 15.6193 3.49052 15.6201H10.5188ZM7.00502 8.61364C7.83132 8.61165 8.62309 8.28196 9.20661 7.6969C9.79012 7.11184 10.1177 6.3192 10.1175 5.49289C10.1175 4.6672 9.78951 3.87534 9.20567 3.29149C8.62182 2.70764 7.82995 2.37964 7.00427 2.37964C6.17858 2.37964 5.38671 2.70764 4.80287 3.29149C4.21902 3.87534 3.89102 4.6672 3.89102 5.49289C3.89101 6.3192 4.2188 7.11176 4.80246 7.69668C5.38611 8.2816 6.17796 8.6111 7.00427 8.61289" fill="#E9EAED"/>
<path d="M13.446 14.7254H15.0495C15.1906 14.7276 15.33 14.6956 15.456 14.6322C15.5821 14.5688 15.6908 14.4758 15.7731 14.3612C15.8553 14.2466 15.9086 14.1138 15.9284 13.9741C15.9481 13.8344 15.9338 13.6921 15.8865 13.5591C15.4777 12.684 14.8303 11.9418 14.0189 11.4178C13.2074 10.8938 12.2646 10.6092 11.2988 10.5966M11.2988 8.52739C11.6597 8.52749 12.0171 8.45648 12.3506 8.31843C12.6841 8.18037 12.9871 7.97797 13.2424 7.72278C13.4976 7.4676 13.7001 7.16463 13.8383 6.83118C13.9764 6.49772 14.0475 6.14032 14.0475 5.77939C14.0485 5.41782 13.9781 5.05962 13.8404 4.7253C13.7027 4.39098 13.5004 4.08712 13.245 3.83114C12.9897 3.57516 12.6863 3.37209 12.3523 3.23357C12.0184 3.09504 11.6603 3.02379 11.2988 3.02389M7.00502 8.61364C7.83132 8.61165 8.62309 8.28196 9.20661 7.6969C9.79012 7.11184 10.1177 6.3192 10.1175 5.49289C10.1175 4.6672 9.78951 3.87534 9.20567 3.29149C8.62182 2.70764 7.82995 2.37964 7.00427 2.37964C6.17858 2.37964 5.38671 2.70764 4.80287 3.29149C4.21902 3.87534 3.89102 4.6672 3.89102 5.49289C3.89101 6.3192 4.2188 7.11176 4.80246 7.69668C5.38611 8.2816 6.17796 8.6111 7.00427 8.61289M10.5188 15.6201C10.7829 15.6198 11.0419 15.5463 11.2669 15.4078C11.4918 15.2694 11.6741 15.0713 11.7935 14.8357C11.9128 14.6 11.9646 14.3359 11.9431 14.0726C11.9215 13.8093 11.8276 13.5571 11.6715 13.3439C11.1249 12.6182 10.4211 12.0257 9.61298 11.6106C8.80485 11.1955 7.91327 10.9686 7.00502 10.9469C6.0967 10.9687 5.20509 11.1957 4.39695 11.6109C3.58881 12.0262 2.8851 12.6189 2.33852 13.3446C2.18301 13.5578 2.08944 13.8098 2.06815 14.0729C2.04685 14.3359 2.09866 14.5997 2.21785 14.8351C2.33703 15.0705 2.51897 15.2684 2.74355 15.407C2.96814 15.5455 3.22664 15.6193 3.49052 15.6201H10.5188Z" stroke="#6D7793" stroke-width="1.13" stroke-linecap="round" stroke-linejoin="round"/>
</svg>
