<svg width="18" height="18" viewBox="0 0 18 18" fill="none" xmlns="http://www.w3.org/2000/svg">
<path d="M6 1.5V3.75" stroke="#6D7794" stroke-width="1.125" stroke-miterlimit="10" stroke-linecap="round" stroke-linejoin="round"/>
<path d="M12 1.5V3.75" stroke="#6D7794" stroke-width="1.125" stroke-miterlimit="10" stroke-linecap="round" stroke-linejoin="round"/>
<path d="M2.625 6.81641H15.375" stroke="#6D7794" stroke-width="1.125" stroke-miterlimit="10" stroke-linecap="round" stroke-linejoin="round"/>
<path d="M14.4073 11.8282L11.7523 14.4832C11.6473 14.5882 11.5498 14.7832 11.5273 14.9257L11.3848 15.9382C11.3323 16.3057 11.5873 16.5607 11.9548 16.5082L12.9673 16.3657C13.1098 16.3432 13.3123 16.2457 13.4098 16.1407L16.0648 13.4857C16.5223 13.0282 16.7398 12.4957 16.0648 11.8207C15.3973 11.1532 14.8648 11.3707 14.4073 11.8282Z" fill="#6D7794" fill-opacity="0.1" stroke="#6D7794" stroke-width="1.125" stroke-miterlimit="10" stroke-linecap="round" stroke-linejoin="round"/>
<path d="M14.0254 12.2109C14.2504 13.0209 14.8804 13.6509 15.6904 13.8759" stroke="#6D7794" stroke-width="1.125" stroke-miterlimit="10" stroke-linecap="round" stroke-linejoin="round"/>
<path d="M9 16.5H6C3.375 16.5 2.25 15 2.25 12.75V6.375C2.25 4.125 3.375 2.625 6 2.625H12C14.625 2.625 15.75 4.125 15.75 6.375V9" fill="#6D7794" fill-opacity="0.1"/>
<path d="M9 16.5H6C3.375 16.5 2.25 15 2.25 12.75V6.375C2.25 4.125 3.375 2.625 6 2.625H12C14.625 2.625 15.75 4.125 15.75 6.375V9" stroke="#6D7794" stroke-width="1.125" stroke-miterlimit="10" stroke-linecap="round" stroke-linejoin="round"/>
<path d="M8.99686 10.2734H9.00359" stroke="#6D7794" stroke-width="1.5" stroke-linecap="round" stroke-linejoin="round"/>
<path d="M6.22049 10.2734H6.22723" stroke="#6D7794" stroke-width="1.5" stroke-linecap="round" stroke-linejoin="round"/>
<path d="M6.22049 12.5234H6.22723" stroke="#6D7794" stroke-width="1.5" stroke-linecap="round" stroke-linejoin="round"/>
</svg>
