<svg width="18" height="18" viewBox="0 0 18 18" fill="none" xmlns="http://www.w3.org/2000/svg">
<rect x="7" y="10" width="4" height="6" rx="1" fill="#6D7794" fill-opacity="0.1"/>
<rect x="2" y="12" width="3" height="4" rx="1" fill="#6D7794" fill-opacity="0.1"/>
<rect x="13" y="2" width="2" height="3" rx="1" fill="#6D7794" fill-opacity="0.1"/>
<rect x="13" y="7" width="3" height="9" rx="1" fill="#6D7794" fill-opacity="0.1"/>
<path d="M2.66663 9.6661C4.61996 7.34643 6.39463 6.01076 7.20429 5.4621C7.46896 5.28243 7.81796 5.3411 8.01896 5.58976C8.40071 6.06537 8.76864 6.55191 9.12229 7.04876C9.39163 7.4261 9.95996 7.4381 10.2583 7.08343C11.637 5.4461 13.5003 3.83276 13.5003 3.83276" stroke="#6D7794" stroke-width="1.13" stroke-linecap="round" stroke-linejoin="round"/>
<path d="M15.1253 4.77395C15.3467 3.69562 15.3443 2.74495 15.3257 2.29729C15.3232 2.22122 15.2919 2.14895 15.2381 2.0951C15.1843 2.04126 15.1121 2.00987 15.036 2.00729C14.2054 1.97643 13.3741 2.04367 12.5593 2.20762C12.3083 2.25895 12.2253 2.56595 12.406 2.74695L14.586 4.92695C14.7673 5.10795 15.074 5.02462 15.1253 4.77395ZM2.75567 15.9863C2.37967 15.974 2.09167 15.7466 2.05367 15.3726C2.02333 15.0793 2 14.6436 2 13.9996C2 13.3556 2.024 12.9196 2.05333 12.6266C2.09167 12.2526 2.37967 12.0253 2.75567 12.0126C2.978 12.0053 3.27567 11.9996 3.66667 11.9996C4.05767 11.9996 4.35533 12.0053 4.57767 12.013C4.95367 12.0253 5.24167 12.2526 5.27967 12.6266C5.30967 12.92 5.33333 13.3556 5.33333 13.9996C5.33333 14.6436 5.30933 15.0796 5.28 15.3726C5.24167 15.7466 4.95367 15.974 4.57767 15.9866C4.355 15.994 4.05767 15.9996 3.66667 15.9996C3.27567 15.9996 2.978 15.994 2.75567 15.9863ZM13.519 15.9776C13.0857 15.951 12.7847 15.6383 12.7533 15.2053C12.7107 14.6183 12.6667 13.5553 12.6667 11.6663C12.6667 9.77729 12.7107 8.71429 12.7533 8.12729C12.7847 7.69429 13.0857 7.38129 13.519 7.35495C13.729 7.34195 13.9967 7.33295 14.3333 7.33295C14.67 7.33295 14.9377 7.34195 15.1477 7.35495C15.581 7.38162 15.882 7.69429 15.9133 8.12729C15.956 8.71429 16 9.77729 16 11.6663C16 13.5553 15.956 14.6183 15.9133 15.2053C15.882 15.6383 15.581 15.9513 15.1477 15.9776C14.9377 15.9906 14.6703 15.9996 14.3333 15.9996C13.9967 15.9996 13.729 15.9906 13.519 15.9776ZM8.16667 15.9836C7.74533 15.9653 7.43767 15.6836 7.40233 15.2636C7.366 14.831 7.33333 14.1283 7.33333 12.9996C7.33333 11.871 7.366 11.1683 7.40233 10.7356C7.43767 10.3156 7.74533 10.034 8.16633 10.0156C8.44407 10.0042 8.72203 9.99885 9 9.99962C9.34733 9.99962 9.62067 10.0063 9.83333 10.0156C10.2547 10.034 10.5623 10.3156 10.5977 10.7356C10.634 11.1683 10.6667 11.871 10.6667 12.9996C10.6667 14.1283 10.634 14.831 10.5977 15.2636C10.5623 15.6836 10.2547 15.9653 9.83367 15.9836C9.62067 15.993 9.34733 15.9996 9 15.9996C8.72214 16.0003 8.4443 15.9949 8.16667 15.9836Z" stroke="#6D7794" stroke-width="1.13" stroke-linecap="round" stroke-linejoin="round"/>
</svg>
