<svg width="18" height="18" viewBox="0 0 18 18" fill="none" xmlns="http://www.w3.org/2000/svg">
<path d="M14.1825 11.0195C14.1825 11.987 14.9775 12.7745 15.945 12.7745C15.945 15.587 15.24 16.292 12.4275 16.292H5.3925C2.58 16.292 1.875 15.587 1.875 12.7745V12.4295C2.8425 12.4295 3.6375 11.6345 3.6375 10.667C3.6375 9.69949 2.8425 8.90449 1.875 8.90449V8.55949C1.8825 5.74699 2.58 5.04199 5.3925 5.04199H12.42C15.2325 5.04199 15.9375 5.74699 15.9375 8.55949V9.26449C14.97 9.26449 14.1825 10.0445 14.1825 11.0195Z" fill="#6D7792" fill-opacity="0.1" stroke="#6D7793" stroke-width="1.125" stroke-linecap="round" stroke-linejoin="round"/>
<path d="M12.1583 5.04187H5.34082L7.53832 2.84438C9.33082 1.05187 10.2308 1.05187 12.0233 2.84438L12.4733 3.29437C12.0008 3.76688 11.8883 4.46438 12.1583 5.04187Z" fill="#6D7792" fill-opacity="0.1" stroke="#6D7793" stroke-width="1.125" stroke-linecap="round" stroke-linejoin="round"/>
<path d="M7.40918 5.04199L7.40918 16.292" stroke="#6D7793" stroke-width="1.125" stroke-linecap="round" stroke-linejoin="round" stroke-dasharray="3.75 3.75"/>
</svg>
