<svg width="15" height="16" viewBox="0 0 15 16" fill="none" xmlns="http://www.w3.org/2000/svg">
<path d="M7.50004 1.4502C3.88879 1.4502 0.950195 4.38832 0.950195 8.00004C0.950195 11.6118 3.88879 14.5499 7.50004 14.5499C11.1113 14.5499 14.0499 11.6118 14.0499 8.00004C14.0499 4.38832 11.1113 1.4502 7.50004 1.4502ZM7.50004 13.6119C4.40535 13.6119 1.8877 11.0943 1.8877 7.99957C1.8877 4.90488 4.40535 2.3877 7.50004 2.3877C10.5947 2.3877 13.1124 4.90535 13.1124 8.00004C13.1124 11.0947 10.5947 13.6119 7.50004 13.6119Z" fill="#141414"/>
<path d="M13.2307 3.33126C13.3231 3.4311 13.4487 3.48126 13.5743 3.48126C13.6882 3.48126 13.8026 3.44001 13.8931 3.3561C14.0829 3.18032 14.0946 2.8836 13.9184 2.69376L12.9054 1.60017C12.7292 1.40985 12.4329 1.3986 12.2431 1.57485C12.0532 1.75063 12.0415 2.04735 12.2178 2.2372L13.2307 3.33126Z" fill="#141414"/>
<path d="M1.763 3.33128L2.77597 2.23769C2.95222 2.04784 2.94097 1.75112 2.75065 1.57534C2.56034 1.39909 2.26409 1.41034 2.08831 1.60065L1.07534 2.69425C0.899092 2.88409 0.910342 3.18081 1.10065 3.35659C1.19065 3.44003 1.3055 3.48175 1.4194 3.48175C1.5455 3.48175 1.67065 3.43065 1.763 3.33128Z" fill="#141414"/>
<path d="M10.4621 7.53135H7.96836V5.0376C7.96836 4.77885 7.75883 4.56885 7.49961 4.56885C7.24039 4.56885 7.03086 4.77885 7.03086 5.0376V7.53135H4.53711C4.27789 7.53135 4.06836 7.74135 4.06836 8.0001C4.06836 8.25885 4.27789 8.46885 4.53711 8.46885H7.03086V10.9626C7.03086 11.2213 7.24039 11.4313 7.49961 11.4313C7.75883 11.4313 7.96836 11.2213 7.96836 10.9626V8.46885H10.4621C10.7213 8.46885 10.9309 8.25885 10.9309 8.0001C10.9309 7.74135 10.7213 7.53135 10.4621 7.53135Z" fill="#141414"/>
</svg>
