<svg width="13" height="14" viewBox="0 0 13 14" fill="none" xmlns="http://www.w3.org/2000/svg">
<path d="M11.7827 2.06311C10.1625 0.442831 7.5261 0.442831 5.90562 2.06311L0.867913 7.10079C-0.289368 8.2582 -0.289292 10.1414 0.868065 11.2987C1.44679 11.8775 2.20674 12.1668 2.96698 12.1667C3.72703 12.1667 4.48738 11.8774 5.066 11.2987L9.68375 6.68086C10.0202 6.34448 10.2055 5.89723 10.2055 5.42151C10.2055 4.94576 10.0203 4.49853 9.68383 4.16205C8.98934 3.46764 7.85936 3.46767 7.16502 4.16218L4.14519 7.18194C3.91334 7.41376 3.91334 7.78967 4.14514 8.02153C4.37695 8.25343 4.75286 8.25335 4.98473 8.02153L8.00459 5.00175C8.23608 4.77026 8.61267 4.77021 8.84418 5.0017C8.95631 5.11382 9.01809 5.26292 9.01809 5.42148C9.01809 5.58005 8.95634 5.72909 8.84418 5.84127L4.22641 10.4591C3.53195 11.1535 2.40207 11.1536 1.70766 10.4592C1.01325 9.76471 1.0132 8.63477 1.70753 7.94031L6.74521 2.9027C7.90267 1.7453 9.78587 1.7453 10.9432 2.9027C11.5039 3.46333 11.8127 4.20877 11.8127 5.00165C11.8127 5.79452 11.5038 6.53996 10.9432 7.10064L5.90555 12.1384C5.67373 12.3702 5.67373 12.7461 5.9056 12.978C6.02153 13.094 6.17347 13.1519 6.32538 13.1519C6.47732 13.1519 6.62926 13.0939 6.74519 12.978L11.7827 7.94026C12.5677 7.15536 13 6.11175 13 5.00167C13 3.89162 12.5677 2.84801 11.7827 2.06311Z" fill="#15191E"/>
</svg>
