<svg width="17" height="17" viewBox="0 0 17 17" fill="none" xmlns="http://www.w3.org/2000/svg">
<path d="M7.49967 13.7668V3.2335C7.49967 2.2335 7.07301 1.8335 6.01301 1.8335H3.31967C2.25967 1.8335 1.83301 2.2335 1.83301 3.2335V13.7668C1.83301 14.7668 2.25967 15.1668 3.31967 15.1668H6.01301C7.07301 15.1668 7.49967 14.7668 7.49967 13.7668Z" stroke="#141414" stroke-linecap="round" stroke-linejoin="round"/>
<path d="M15.1667 13.7668V3.2335C15.1667 2.2335 14.74 1.8335 13.68 1.8335H10.9867C9.92667 1.8335 9.5 2.2335 9.5 3.2335V13.7668C9.5 14.7668 9.92667 15.1668 10.9867 15.1668H13.68C14.74 15.1668 15.1667 14.7668 15.1667 13.7668Z" stroke="#141414" stroke-linecap="round" stroke-linejoin="round"/>
</svg>
