<svg width="16" height="16" viewBox="0 0 16 16" fill="none" xmlns="http://www.w3.org/2000/svg">
<path d="M14.6667 7.26659V2.73325C14.6667 1.73325 14.24 1.33325 13.18 1.33325H10.4867C9.42667 1.33325 9 1.73325 9 2.73325V7.26659C9 8.26659 9.42667 8.66659 10.4867 8.66659H13.18C14.24 8.66659 14.6667 8.26659 14.6667 7.26659Z" stroke="#141414" stroke-linecap="round" stroke-linejoin="round"/>
<path d="M14.6667 13.2667V12.0667C14.6667 11.0667 14.24 10.6667 13.18 10.6667H10.4867C9.42667 10.6667 9 11.0667 9 12.0667V13.2667C9 14.2667 9.42667 14.6667 10.4867 14.6667H13.18C14.24 14.6667 14.6667 14.2667 14.6667 13.2667Z" stroke="#141414" stroke-linecap="round" stroke-linejoin="round"/>
<path d="M6.99992 8.73325V13.2666C6.99992 14.2666 6.57325 14.6666 5.51325 14.6666H2.81992C1.75992 14.6666 1.33325 14.2666 1.33325 13.2666V8.73325C1.33325 7.73325 1.75992 7.33325 2.81992 7.33325H5.51325C6.57325 7.33325 6.99992 7.73325 6.99992 8.73325Z" stroke="#141414" stroke-linecap="round" stroke-linejoin="round"/>
<path d="M6.99992 2.73325V3.93325C6.99992 4.93325 6.57325 5.33325 5.51325 5.33325H2.81992C1.75992 5.33325 1.33325 4.93325 1.33325 3.93325V2.73325C1.33325 1.73325 1.75992 1.33325 2.81992 1.33325H5.51325C6.57325 1.33325 6.99992 1.73325 6.99992 2.73325Z" stroke="#141414" stroke-linecap="round" stroke-linejoin="round"/>
</svg>
