<svg width="15" height="12" viewBox="0 0 15 12" fill="none" xmlns="http://www.w3.org/2000/svg">
<path d="M14.3478 -0.0327148H0.652174C0.293478 -0.0327148 0 0.260763 0 0.619459V11.3803C0 11.739 0.293478 12.0325 0.652174 12.0325H14.3478C14.7065 12.0325 15 11.739 15 11.3803V0.619459C15 0.260763 14.7065 -0.0327148 14.3478 -0.0327148ZM13.6957 2.73902H9.13043V1.27163H13.6957V2.73902ZM3.91304 2.73902V1.27163H5.54348V2.73902H3.91304ZM6.52174 1.27163H8.15217V2.73902H6.52174V1.27163ZM2.93478 1.27163V2.73902H1.30435V1.27163H2.93478ZM1.30435 10.7282V3.88033H13.6957V10.7282H1.30435Z" fill="#15191E"/>
</svg>
