<svg width="18" height="17" viewBox="0 0 18 17" fill="none" xmlns="http://www.w3.org/2000/svg">
<path d="M13.0093 10.0464L15.0189 9.92403C15.7697 9.87722 16.3637 9.327 16.4334 8.57796C16.5015 7.84433 16.5649 6.76848 16.5649 5.30567C16.5649 3.84286 16.5015 2.76701 16.4334 2.03338C16.3637 1.28435 15.7697 0.734126 15.0189 0.687311C14.0633 0.628052 12.5335 0.564941 10.3427 0.564941C8.1519 0.564941 6.62212 0.627756 5.66656 0.687311C4.91575 0.734126 4.32167 1.28435 4.25204 2.03338V2.85295V3.41356" stroke="#6D7793" stroke-width="1.13" stroke-linejoin="round"/>
<path d="M7.97215 13.01L8.17303 14.015C8.19988 14.1494 8.27245 14.2703 8.37838 14.3571C8.48432 14.444 8.61708 14.4915 8.75407 14.4915H9.02103C9.22655 14.4915 9.42572 14.5627 9.58465 14.693C9.74359 14.8233 9.85246 15.0046 9.89274 15.2062L9.90459 15.2642C9.92178 15.3502 9.91967 15.4389 9.89841 15.524C9.87715 15.6091 9.83728 15.6884 9.78167 15.7562C9.72606 15.824 9.65609 15.8786 9.57682 15.9161C9.49755 15.9536 9.41094 15.973 9.32326 15.973H4.25066C4.16298 15.973 4.07637 15.9536 3.9971 15.9161C3.91783 15.8786 3.84786 15.824 3.79225 15.7562C3.73664 15.6884 3.69677 15.6091 3.67551 15.524C3.65425 15.4389 3.65214 15.3502 3.66933 15.2642L3.68118 15.2062C3.72145 15.0047 3.83028 14.8234 3.98915 14.6931C4.14802 14.5628 4.34712 14.4915 4.55259 14.4915H4.81955C4.95655 14.4915 5.08931 14.444 5.19524 14.3571C5.30117 14.2703 5.37374 14.1494 5.40059 14.015L5.60207 13.01" fill="#6D7793" fill-opacity="0.2"/>
<path d="M7.97215 13.01L8.17303 14.015C8.19988 14.1494 8.27245 14.2703 8.37838 14.3571C8.48432 14.444 8.61708 14.4915 8.75407 14.4915H9.02103C9.22655 14.4915 9.42572 14.5627 9.58465 14.693C9.74359 14.8233 9.85246 15.0046 9.89274 15.2062L9.90459 15.2642C9.92178 15.3502 9.91967 15.4389 9.89841 15.524C9.87715 15.6091 9.83728 15.6884 9.78167 15.7562C9.72606 15.824 9.65609 15.8786 9.57682 15.9161C9.49755 15.9536 9.41094 15.973 9.32326 15.973H4.25066C4.16298 15.973 4.07637 15.9536 3.9971 15.9161C3.91783 15.8786 3.84786 15.824 3.79225 15.7562C3.73664 15.6884 3.69677 15.6091 3.67551 15.524C3.65425 15.4389 3.65214 15.3502 3.66933 15.2642L3.68118 15.2062C3.72145 15.0047 3.83028 14.8234 3.98915 14.6931C4.14802 14.5628 4.34712 14.4915 4.55259 14.4915H4.81955C4.95655 14.4915 5.08931 14.444 5.19524 14.3571C5.30117 14.2703 5.37374 14.1494 5.40059 14.015L5.60207 13.01" stroke="#6D7793" stroke-width="1.13" stroke-linecap="round" stroke-linejoin="round"/>
<path d="M0.696558 11.541C0.766188 12.29 1.36026 12.8402 2.11108 12.887C3.06663 12.9463 4.59641 13.0094 6.78722 13.0094C8.97804 13.0094 10.5078 12.9463 11.4634 12.887C12.2142 12.8402 12.8083 12.29 12.8779 11.541C12.946 10.8073 13.0094 9.7315 13.0094 8.26868C13.0094 6.80587 12.946 5.73002 12.8779 4.9964C12.8083 4.24736 12.2142 3.69714 11.4634 3.65032C10.5078 3.59107 8.97804 3.52795 6.78722 3.52795C4.59641 3.52795 3.06663 3.59077 2.11108 3.65032C1.36026 3.69714 0.766188 4.24736 0.696558 4.9964C0.62841 5.72973 0.565002 6.80558 0.565002 8.26868C0.565002 9.73179 0.62841 10.8073 0.696558 11.541Z" fill="#6D7793" fill-opacity="0.2" stroke="#6D7793" stroke-width="1.13" stroke-linejoin="round"/>
</svg>
