<svg width="17" height="16" viewBox="0 0 17 16" fill="none" xmlns="http://www.w3.org/2000/svg">
<path d="M12.2316 9.45382L14.1155 9.3391C14.8194 9.29521 15.3763 8.77938 15.4416 8.07716C15.5055 7.38938 15.5649 6.38077 15.5649 5.00938C15.5649 3.63799 15.5055 2.62938 15.4416 1.94161C15.3763 1.23939 14.8194 0.723552 14.1155 0.679663C13.2197 0.624108 11.7855 0.564941 9.7316 0.564941C7.67771 0.564941 6.24355 0.62383 5.34772 0.679663C4.64383 0.723552 4.08688 1.23939 4.02161 1.94161V2.70995V3.23552" stroke="#6D7793" stroke-width="1.13" stroke-linejoin="round"/>
<path d="M7.5092 12.2322L7.69753 13.1744C7.7227 13.3003 7.79074 13.4137 7.89005 13.4951C7.98936 13.5765 8.11382 13.6211 8.24225 13.6211H8.49253C8.6852 13.6211 8.87193 13.6878 9.02093 13.81C9.16992 13.9321 9.27199 14.1021 9.30975 14.2911L9.32086 14.3455C9.33698 14.4261 9.335 14.5093 9.31507 14.5891C9.29514 14.6688 9.25776 14.7432 9.20563 14.8067C9.15349 14.8703 9.0879 14.9215 9.01358 14.9566C8.93926 14.9918 8.85807 15.01 8.77586 15.01H4.02031C3.93811 15.01 3.85691 14.9918 3.7826 14.9566C3.70828 14.9215 3.64269 14.8703 3.59055 14.8067C3.53841 14.7432 3.50103 14.6688 3.48111 14.5891C3.46118 14.5093 3.4592 14.4261 3.47531 14.3455L3.48643 14.2911C3.52418 14.1022 3.6262 13.9322 3.77515 13.81C3.92409 13.6879 4.11074 13.6211 4.30337 13.6211H4.55365C4.68208 13.6211 4.80654 13.5765 4.90585 13.4951C5.00517 13.4137 5.0732 13.3003 5.09837 13.1744L5.28726 12.2322" fill="#6D7793" fill-opacity="0.2"/>
<path d="M7.5092 12.2322L7.69753 13.1744C7.7227 13.3003 7.79074 13.4137 7.89005 13.4951C7.98936 13.5765 8.11382 13.6211 8.24225 13.6211H8.49253C8.6852 13.6211 8.87193 13.6878 9.02093 13.81C9.16992 13.9321 9.27199 14.1021 9.30975 14.2911L9.32086 14.3455C9.33698 14.4261 9.335 14.5093 9.31507 14.5891C9.29514 14.6688 9.25776 14.7432 9.20563 14.8067C9.15349 14.8703 9.0879 14.9215 9.01358 14.9566C8.93926 14.9918 8.85807 15.01 8.77586 15.01H4.02031C3.93811 15.01 3.85691 14.9918 3.7826 14.9566C3.70828 14.9215 3.64269 14.8703 3.59055 14.8067C3.53841 14.7432 3.50103 14.6688 3.48111 14.5891C3.46118 14.5093 3.4592 14.4261 3.47531 14.3455L3.48643 14.2911C3.52418 14.1022 3.6262 13.9322 3.77515 13.81C3.92409 13.6879 4.11074 13.6211 4.30337 13.6211H4.55365C4.68208 13.6211 4.80654 13.5765 4.90585 13.4951C5.00517 13.4137 5.0732 13.3003 5.09837 13.1744L5.28726 12.2322" stroke="#6D7793" stroke-width="1.13" stroke-linecap="round" stroke-linejoin="round"/>
<path d="M0.688336 10.855C0.753613 11.5572 1.31056 12.073 2.01445 12.1169C2.91028 12.1725 4.34444 12.2317 6.39833 12.2317C8.45222 12.2317 9.88638 12.1725 10.7822 12.1169C11.4861 12.073 12.043 11.5572 12.1083 10.855C12.1722 10.1672 12.2317 9.1586 12.2317 7.78721C12.2317 6.41583 12.1722 5.40722 12.1083 4.71944C12.043 4.01722 11.4861 3.50138 10.7822 3.4575C9.88638 3.40194 8.45222 3.34277 6.39833 3.34277C4.34444 3.34277 2.91028 3.40166 2.01445 3.4575C1.31056 3.50138 0.753613 4.01722 0.688336 4.71944C0.624447 5.40694 0.565002 6.41555 0.565002 7.78721C0.565002 9.15888 0.624447 10.1672 0.688336 10.855Z" fill="#6D7793" fill-opacity="0.2" stroke="#6D7793" stroke-width="1.13" stroke-linejoin="round"/>
</svg>
