<svg width="17" height="17" viewBox="0 0 17 17" fill="none" xmlns="http://www.w3.org/2000/svg">
<mask id="path-1-inside-1_581_7848" fill="white">
<path fill-rule="evenodd" clip-rule="evenodd" d="M12.4997 8.49984C13.9724 8.49984 15.1663 7.3059 15.1663 5.83317C15.1663 4.36041 13.9724 3.1665 12.4997 3.1665C11.2571 3.1665 10.2131 4.01635 9.91701 5.1665H2.49967C2.13149 5.1665 1.83301 5.46498 1.83301 5.83317C1.83301 6.20136 2.13149 6.49984 2.49967 6.49984H9.91701C10.2131 7.64997 11.2571 8.49984 12.4997 8.49984ZM11.1663 5.83317C11.1663 6.56955 11.7633 7.1665 12.4997 7.1665C13.2361 7.1665 13.833 6.56955 13.833 5.83317C13.833 5.09679 13.2361 4.49984 12.4997 4.49984C11.7633 4.49984 11.1663 5.09679 11.1663 5.83317ZM1.83301 11.1665C1.83301 9.69377 3.02691 8.49984 4.49967 8.49984C5.74223 8.49984 6.7863 9.3497 7.08233 10.4998H14.4997C14.8679 10.4998 15.1663 10.7983 15.1663 11.1665C15.1663 11.5347 14.8679 11.8332 14.4997 11.8332H7.08233C6.7863 12.9833 5.74223 13.8332 4.49967 13.8332C3.02691 13.8332 1.83301 12.6392 1.83301 11.1665ZM5.83301 11.1665C5.83301 10.4301 5.23605 9.83317 4.49967 9.83317C3.76329 9.83317 3.16634 10.4301 3.16634 11.1665C3.16634 11.9029 3.76329 12.4998 4.49967 12.4998C5.23605 12.4998 5.83301 11.9029 5.83301 11.1665Z"/>
</mask>
<path d="M9.91701 5.1665V7.63993H11.8344L12.3124 5.7831L9.91701 5.1665ZM9.91701 6.49984L12.3123 5.88323L11.8344 4.02641H9.91701V6.49984ZM7.08233 10.4998L4.68697 11.1164L5.16491 12.9733H7.08233V10.4998ZM7.08233 11.8332V9.35974H5.16491L4.68697 11.2166L7.08233 11.8332ZM12.4997 8.49984V10.9733C15.3384 10.9733 17.6398 8.67194 17.6398 5.83317H15.1663H12.6929C12.6929 5.93987 12.6064 6.02641 12.4997 6.02641V8.49984ZM15.1663 5.83317H17.6398C17.6398 2.99436 15.3384 0.693074 12.4997 0.693074V3.1665V5.63993C12.6064 5.63993 12.6929 5.72646 12.6929 5.83317H15.1663ZM12.4997 3.1665V0.693074C10.1012 0.693074 8.09218 2.33357 7.52167 4.54991L9.91701 5.1665L12.3124 5.7831C12.3217 5.74686 12.3447 5.70904 12.3816 5.68003C12.4148 5.65401 12.4521 5.63993 12.4997 5.63993V3.1665ZM9.91701 5.1665V2.69307H2.49967V5.1665V7.63993H9.91701V5.1665ZM2.49967 5.1665V2.69307C0.76545 2.69307 -0.640422 4.09895 -0.640422 5.83317H1.83301H4.30644C4.30644 6.83102 3.49753 7.63993 2.49967 7.63993V5.1665ZM1.83301 5.83317H-0.640422C-0.640422 7.56742 0.765466 8.97327 2.49967 8.97327V6.49984V4.02641C3.49751 4.02641 4.30644 4.83531 4.30644 5.83317H1.83301ZM2.49967 6.49984V8.97327H9.91701V6.49984V4.02641H2.49967V6.49984ZM9.91701 6.49984L7.52167 7.11644C8.09219 9.33274 10.1012 10.9733 12.4997 10.9733V8.49984V6.02641C12.4521 6.02641 12.4148 6.01234 12.3817 5.98631C12.3447 5.95729 12.3217 5.91947 12.3123 5.88323L9.91701 6.49984ZM11.1663 5.83317H8.69291C8.69291 7.93556 10.3972 9.63993 12.4997 9.63993V7.1665V4.69307C13.1293 4.69307 13.6398 5.20354 13.6398 5.83317H11.1663ZM12.4997 7.1665V9.63993C14.6021 9.63993 16.3064 7.93556 16.3064 5.83317H13.833H11.3596C11.3596 5.20354 11.87 4.69307 12.4997 4.69307V7.1665ZM13.833 5.83317H16.3064C16.3064 3.73078 14.6021 2.02641 12.4997 2.02641V4.49984V6.97327C11.87 6.97327 11.3596 6.4628 11.3596 5.83317H13.833ZM12.4997 4.49984V2.02641C10.3972 2.02641 8.69291 3.73078 8.69291 5.83317H11.1663H13.6398C13.6398 6.4628 13.1293 6.97327 12.4997 6.97327V4.49984ZM1.83301 11.1665H4.30644C4.30644 11.0598 4.39297 10.9733 4.49967 10.9733V8.49984V6.02641C1.66086 6.02641 -0.640422 8.32775 -0.640422 11.1665H1.83301ZM4.49967 8.49984V10.9733C4.54723 10.9733 4.58461 10.9873 4.61771 11.0134C4.65462 11.0424 4.67765 11.0802 4.68697 11.1164L7.08233 10.4998L9.47769 9.88331C8.90722 7.66692 6.89816 6.02641 4.49967 6.02641V8.49984ZM7.08233 10.4998V12.9733H14.4997V10.4998V8.02641H7.08233V10.4998ZM14.4997 10.4998V12.9733C13.5018 12.9733 12.6929 12.1643 12.6929 11.1665H15.1663H17.6398C17.6398 9.43227 16.2339 8.02641 14.4997 8.02641V10.4998ZM15.1663 11.1665H12.6929C12.6929 10.1687 13.5018 9.35974 14.4997 9.35974V11.8332V14.3066C16.2339 14.3066 17.6398 12.9007 17.6398 11.1665H15.1663ZM14.4997 11.8332V9.35974H7.08233V11.8332V14.3066H14.4997V11.8332ZM7.08233 11.8332L4.68697 11.2166C4.67765 11.2528 4.65462 11.2906 4.61771 11.3196C4.58461 11.3457 4.54723 11.3597 4.49967 11.3597V13.8332V16.3066C6.89816 16.3066 8.90722 14.6661 9.47769 12.4497L7.08233 11.8332ZM4.49967 13.8332V11.3597C4.39297 11.3597 4.30644 11.2732 4.30644 11.1665H1.83301H-0.640422C-0.640422 14.0053 1.66086 16.3066 4.49967 16.3066V13.8332ZM5.83301 11.1665H8.30644C8.30644 9.06404 6.60207 7.35974 4.49967 7.35974V9.83317V12.3066C3.87004 12.3066 3.35958 11.7962 3.35958 11.1665H5.83301ZM4.49967 9.83317V7.35974C2.39728 7.35974 0.692911 9.06404 0.692911 11.1665H3.16634H5.63977C5.63977 11.7962 5.12931 12.3066 4.49967 12.3066V9.83317ZM3.16634 11.1665H0.692911C0.692911 13.269 2.39728 14.9733 4.49967 14.9733V12.4998V10.0264C5.12931 10.0264 5.63977 10.5368 5.63977 11.1665H3.16634ZM4.49967 12.4998V14.9733C6.60207 14.9733 8.30644 13.269 8.30644 11.1665H5.83301H3.35958C3.35958 10.5368 3.87004 10.0264 4.49967 10.0264V12.4998Z" fill="#141414" mask="url(#path-1-inside-1_581_7848)"/>
</svg>
