<svg width="13" height="18" viewBox="0 0 13 18" fill="none" xmlns="http://www.w3.org/2000/svg">
<path d="M10.6666 0.875H2.33329C1.06663 0.875 0.041626 1.9 0.041626 3.16667V14.7333C0.041626 16.05 1.11663 17.125 2.43329 17.125C3.06663 17.125 3.68329 16.8667 4.12496 16.425L6.34996 14.2C6.45829 14.0917 6.54163 14.0917 6.64163 14.2L8.86663 16.425C9.30829 16.8667 9.92496 17.125 10.5583 17.125C11.875 17.125 12.95 16.05 12.95 14.7333V3.16667C12.95 1.9 11.925 0.875 10.6583 0.875H10.6666ZM11.7083 14.7333C11.7083 15.3667 11.1916 15.875 10.5666 15.875C10.2666 15.875 9.97496 15.75 9.75829 15.5417L7.53329 13.3167C7.25829 13.0417 6.89163 12.8917 6.49996 12.8917C6.10829 12.8917 5.74163 13.0417 5.46663 13.3167L3.24163 15.5417C3.03329 15.75 2.73329 15.875 2.43329 15.875C1.79996 15.875 1.29163 15.3583 1.29163 14.7333V3.16667C1.29163 2.59167 1.75829 2.125 2.33329 2.125H10.6666C11.2416 2.125 11.7083 2.59167 11.7083 3.16667V14.7333Z" fill="#BBBDC5"/>
</svg>
