<svg width="15" height="16" viewBox="0 0 15 16" fill="none" xmlns="http://www.w3.org/2000/svg">
<path d="M6.81751 2.63483C6.62625 2.45506 6.31618 2.45506 6.12495 2.63483C5.93371 2.8146 5.93371 3.10607 6.12495 3.28584L6.72095 3.84609H5.02633C2.80265 3.84609 1 5.64874 1 7.87242C1 10.0961 2.80265 11.8988 5.02633 11.8988H5.79946C6.06194 11.8988 6.27471 11.686 6.27471 11.4235C6.27471 11.1611 6.06194 10.9483 5.79946 10.9483H5.02633C3.32759 10.9483 1.9505 9.57116 1.9505 7.87242C1.9505 6.17368 3.32759 4.79659 5.02633 4.79659H6.72108L6.12498 5.35692C5.93374 5.53669 5.93374 5.82816 6.12498 6.00793C6.31622 6.1877 6.62628 6.1877 6.81752 6.00793L8.25501 4.65669C8.35346 4.56414 8.40122 4.44197 8.39831 4.3207C8.40084 4.19987 8.35306 4.07828 8.25497 3.98607L6.81751 2.63483Z" fill="#141414"/>
<path d="M13.3259 7.88229C13.3259 9.58103 11.9488 10.9581 10.25 10.9581H8.55528L9.15139 10.3978C9.34263 10.218 9.34263 9.92656 9.15139 9.74679C8.96015 9.56702 8.65008 9.56702 8.45884 9.74679L7.02136 11.098C6.9229 11.1906 6.87513 11.3127 6.87806 11.434C6.87552 11.5549 6.9233 11.6764 7.02139 11.7687L8.45886 13.1199C8.65011 13.2997 8.96018 13.2997 9.15142 13.1199C9.34266 12.9401 9.34266 12.6487 9.15142 12.4689L8.55541 11.9086H10.25C12.4737 11.9086 14.2764 10.106 14.2764 7.88229C14.2764 5.6586 12.4737 3.85596 10.25 3.85596H9.4769C9.21442 3.85596 9.00165 4.06873 9.00165 4.3312C9.00165 4.59367 9.21442 4.80645 9.4769 4.80645H10.25C11.9488 4.80645 13.3259 6.18355 13.3259 7.88229Z" fill="#141414"/>
</svg>
