<svg width="17" height="17" viewBox="0 0 17 17" fill="none" xmlns="http://www.w3.org/2000/svg">
<path d="M12.5 12.0312C12.9375 11.5104 13.276 10.9245 13.5156 10.2734C13.7552 9.6224 13.875 8.9375 13.875 8.21875C13.875 7.38542 13.7188 6.60417 13.4062 5.875C13.0938 5.14583 12.6667 4.51042 12.125 3.96875C11.5833 3.42708 10.9479 3 10.2188 2.6875C9.48958 2.375 8.70833 2.21875 7.875 2.21875C7.05208 2.21875 6.27604 2.375 5.54688 2.6875C4.81771 3 4.18229 3.42708 3.64062 3.96875C3.09896 4.51042 2.66667 5.14583 2.34375 5.875C2.03125 6.60417 1.875 7.38542 1.875 8.21875C1.875 9.04167 2.03125 9.81771 2.34375 10.5469C2.66667 11.276 3.09896 11.9115 3.64062 12.4531C4.18229 12.9948 4.81771 13.4219 5.54688 13.7344C6.27604 14.0573 7.05208 14.2188 7.875 14.2188C8.60417 14.2188 9.29427 14.0964 9.94531 13.8516C10.5964 13.6068 11.1823 13.2708 11.7031 12.8438L14.1406 15.2812C14.2552 15.3958 14.3906 15.4531 14.5469 15.4531C14.7031 15.4531 14.8385 15.3958 14.9531 15.2812C15.0573 15.1667 15.1094 15.0312 15.1094 14.875C15.1094 14.7188 15.0573 14.5885 14.9531 14.4844L12.5 12.0312ZM7.875 13.0938C7.20833 13.0938 6.57812 12.9688 5.98438 12.7188C5.39062 12.4583 4.8724 12.1068 4.42969 11.6641C3.98698 11.2214 3.63542 10.7031 3.375 10.1094C3.11458 9.51562 2.98438 8.88542 2.98438 8.21875C2.98438 7.54167 3.11458 6.90625 3.375 6.3125C3.63542 5.71875 3.98698 5.20052 4.42969 4.75781C4.8724 4.3151 5.39062 3.96354 5.98438 3.70312C6.57812 3.45312 7.20833 3.32812 7.875 3.32812C8.55208 3.32812 9.1875 3.45312 9.78125 3.70312C10.375 3.96354 10.8932 4.3151 11.3359 4.75781C11.7786 5.20052 12.1302 5.71875 12.3906 6.3125C12.6406 6.90625 12.7656 7.54167 12.7656 8.21875C12.7656 8.88542 12.6406 9.51562 12.3906 10.1094C12.1302 10.7031 11.7786 11.2214 11.3359 11.6641C10.8932 12.1068 10.375 12.4583 9.78125 12.7188C9.1875 12.9688 8.55208 13.0938 7.875 13.0938Z" fill="#141414"/>
</svg>
