<svg width="18" height="18" viewBox="0 0 18 18" fill="none" xmlns="http://www.w3.org/2000/svg">
<path d="M15.75 1.5H2.25C1.85218 1.5 1.47064 1.65804 1.18934 1.93934C0.908035 2.22064 0.75 2.60218 0.75 3V12C0.75 12.3978 0.908035 12.7794 1.18934 13.0607C1.47064 13.342 1.85218 13.5 2.25 13.5H7.5V15H6V16.5H12V15H10.5V13.5H15.75C16.1478 13.5 16.5294 13.342 16.8107 13.0607C17.092 12.7794 17.25 12.3978 17.25 12V3C17.25 2.60218 17.092 2.22064 16.8107 1.93934C16.5294 1.65804 16.1478 1.5 15.75 1.5ZM15.75 12H2.25V3H15.75V12Z" fill="black"/>
</svg>
