<svg width="14" height="14" viewBox="0 0 14 14" fill="none" xmlns="http://www.w3.org/2000/svg">
<path d="M6.99984 7.58341C7.322 7.58341 7.58317 7.32225 7.58317 7.00008C7.58317 6.67792 7.322 6.41675 6.99984 6.41675C6.67767 6.41675 6.4165 6.67792 6.4165 7.00008C6.4165 7.32225 6.67767 7.58341 6.99984 7.58341Z" stroke="#15191E" stroke-width="1.16667" stroke-linecap="round" stroke-linejoin="round"/>
<path d="M6.99984 3.49992C7.322 3.49992 7.58317 3.23875 7.58317 2.91659C7.58317 2.59442 7.322 2.33325 6.99984 2.33325C6.67767 2.33325 6.4165 2.59442 6.4165 2.91659C6.4165 3.23875 6.67767 3.49992 6.99984 3.49992Z" stroke="#15191E" stroke-width="1.16667" stroke-linecap="round" stroke-linejoin="round"/>
<path d="M6.99984 11.6667C7.322 11.6667 7.58317 11.4055 7.58317 11.0833C7.58317 10.7612 7.322 10.5 6.99984 10.5C6.67767 10.5 6.4165 10.7612 6.4165 11.0833C6.4165 11.4055 6.67767 11.6667 6.99984 11.6667Z" stroke="#15191E" stroke-width="1.16667" stroke-linecap="round" stroke-linejoin="round"/>
</svg>
