<svg width="18" height="18" viewBox="0 0 18 18" fill="none" xmlns="http://www.w3.org/2000/svg">
<path d="M9 3C8.30381 3 7.63613 3.27656 7.14384 3.76884C6.65156 4.26113 6.375 4.92881 6.375 5.625C6.375 6.32119 6.65156 6.98887 7.14384 7.48116C7.63613 7.97344 8.30381 8.25 9 8.25C9.69619 8.25 10.3639 7.97344 10.8562 7.48116C11.3484 6.98887 11.625 6.32119 11.625 5.625C11.625 4.92881 11.3484 4.26113 10.8562 3.76884C10.3639 3.27656 9.69619 3 9 3ZM4.875 5.625C4.875 4.53098 5.3096 3.48177 6.08318 2.70818C6.85677 1.9346 7.90598 1.5 9 1.5C10.094 1.5 11.1432 1.9346 11.9168 2.70818C12.6904 3.48177 13.125 4.53098 13.125 5.625C13.125 6.71902 12.6904 7.76823 11.9168 8.54182C11.1432 9.3154 10.094 9.75 9 9.75C7.90598 9.75 6.85677 9.3154 6.08318 8.54182C5.3096 7.76823 4.875 6.71902 4.875 5.625ZM2.25 14.25C2.25 13.2554 2.64509 12.3016 3.34835 11.5983C4.05161 10.8951 5.00544 10.5 6 10.5H12C12.9946 10.5 13.9484 10.8951 14.6517 11.5983C15.3549 12.3016 15.75 13.2554 15.75 14.25V16.5H2.25V14.25ZM6 12C5.40326 12 4.83097 12.2371 4.40901 12.659C3.98705 13.081 3.75 13.6533 3.75 14.25V15H14.25V14.25C14.25 13.6533 14.0129 13.081 13.591 12.659C13.169 12.2371 12.5967 12 12 12H6Z" fill="black"/>
</svg>
