<svg width="16" height="16" viewBox="0 0 16 16" fill="none" xmlns="http://www.w3.org/2000/svg">
<path d="M13.0001 8.33363C13.0001 7.41363 13.7468 6.66697 14.6668 6.66697V6.00031C14.6668 3.33366 14.0001 2.66699 11.3334 2.66699H4.66681C2.00016 2.66699 1.3335 3.33366 1.3335 6.00031V6.33364C2.25349 6.33364 3.00015 7.0803 3.00015 8.0003C3.00015 8.92029 2.25349 9.66696 1.3335 9.66696V10.0003C1.3335 12.6669 2.00016 13.3336 4.66681 13.3336H11.3334C14.0001 13.3336 14.6668 12.6669 14.6668 10.0003C13.7468 10.0003 13.0001 9.25363 13.0001 8.33363Z" stroke="#8E97AE" stroke-linecap="round" stroke-linejoin="round"/>
<path d="M6.6665 2.66699L6.6665 13.3336" stroke="#8E97AE" stroke-linecap="round" stroke-linejoin="round" stroke-dasharray="3.33 3.33"/>
</svg>
