<svg width="16" height="16" viewBox="0 0 16 16" fill="none" xmlns="http://www.w3.org/2000/svg">
<path d="M14.5116 6.88372C14.7786 6.88372 15 6.66233 15 6.39535V5.74419C15 2.87256 14.1274 2 11.2558 2H7.18605V3.46512C7.18605 3.73209 6.96465 3.95349 6.69767 3.95349C6.4307 3.95349 6.2093 3.73209 6.2093 3.46512V2H4.74419C1.87256 2 1 2.87256 1 5.74419V6.06977C1 6.33674 1.2214 6.55814 1.48837 6.55814C2.11349 6.55814 2.62791 7.07256 2.62791 7.69767C2.62791 8.32279 2.11349 8.83721 1.48837 8.83721C1.2214 8.83721 1 9.0586 1 9.32558V9.65116C1 12.5228 1.87256 13.3953 4.74419 13.3953H6.2093V11.9302C6.2093 11.6633 6.4307 11.4419 6.69767 11.4419C6.96465 11.4419 7.18605 11.6633 7.18605 11.9302V13.3953H11.2558C14.1274 13.3953 15 12.5228 15 9.65116C15 9.38419 14.7786 9.16279 14.5116 9.16279C13.8865 9.16279 13.3721 8.64837 13.3721 8.02326C13.3721 7.39814 13.8865 6.88372 14.5116 6.88372ZM7.18605 9.1107C7.18605 9.37767 6.96465 9.59907 6.69767 9.59907C6.4307 9.59907 6.2093 9.37767 6.2093 9.1107V6.28465C6.2093 6.01767 6.4307 5.79628 6.69767 5.79628C6.96465 5.79628 7.18605 6.01767 7.18605 6.28465V9.1107Z" fill="white"/>
</svg>
