<svg width="275" height="151" viewBox="0 0 275 151" fill="none" xmlns="http://www.w3.org/2000/svg">
<rect width="274.606" height="150.02" fill="#F9F9F9"/>
<path d="M182.422 99.5705V99.6013C182.299 100.309 181.653 100.862 180.946 100.862H92.9367C92.2602 100.862 91.6144 100.37 91.4914 99.6935C91.4607 99.6628 91.4299 99.6012 91.4299 99.5397C89.5234 84.1019 89.5234 68.664 91.4299 53.2262C91.5222 52.4574 92.1987 51.873 92.9367 51.873H180.884C181.315 51.873 181.684 52.0576 181.93 52.3651C182.145 52.5804 182.33 52.8879 182.36 53.2262C184.298 69.8941 184.759 85.6088 182.422 99.5705Z" fill="#979FB5" stroke="#979FB5" stroke-width="0.768795" stroke-miterlimit="10" stroke-linecap="round" stroke-linejoin="round"/>
<path d="M147.581 50.0308H92.937C92.1682 50.0308 91.5224 50.6151 91.4302 51.3839C90.4462 59.4103 89.9541 67.4368 90.0156 75.4632C90.0464 82.8746 90.5077 90.286 91.4302 97.6975V97.7282C91.4302 97.7897 91.461 97.8204 91.4917 97.8512C91.6147 98.5278 92.2605 99.0198 92.937 99.0198H180.946C181.653 99.0198 182.299 98.497 182.422 97.7589V97.7282C183.468 91.4239 183.96 84.7813 183.99 77.8312C184.021 69.405 183.406 60.5174 182.361 51.3531C182.33 51.0148 182.176 50.7381 181.93 50.4921C181.653 50.1845 181.315 50 180.885 50H155.238" fill="#F9F9F9"/>
<path d="M147.581 50.0308H92.937C92.1682 50.0308 91.5224 50.6151 91.4302 51.3839C90.4462 59.4103 89.9541 67.4368 90.0156 75.4632C90.0464 82.8746 90.5077 90.286 91.4302 97.6975V97.7282C91.4302 97.7897 91.461 97.8204 91.4917 97.8512C91.6147 98.5278 92.2605 99.0198 92.937 99.0198H180.946C181.653 99.0198 182.299 98.497 182.422 97.7589V97.7282C183.468 91.4239 183.96 84.7813 183.99 77.8312C184.021 69.405 183.406 60.5174 182.361 51.3531C182.33 51.0148 182.176 50.7381 181.93 50.4921C181.653 50.1845 181.315 50 180.885 50H155.238" stroke="#979FB5" stroke-width="0.768795" stroke-miterlimit="10" stroke-linecap="round" stroke-linejoin="round"/>
<path d="M182.422 97.7892L176.179 95.6365C174.088 94.96 171.966 94.2527 169.937 93.5146C169.506 93.3916 169.076 93.3301 168.615 93.3301L117.168 93.6991" stroke="#979FB5" stroke-width="0.768795" stroke-miterlimit="10" stroke-linecap="round" stroke-linejoin="round"/>
<path d="M111.511 93.7266L101.332 93.7881C101.117 93.7881 100.902 93.8188 100.717 93.8496C100.41 93.9111 100.133 93.9726 99.8253 94.1263L91.4303 97.7244" stroke="#979FB5" stroke-width="0.768795" stroke-miterlimit="10" stroke-linecap="round" stroke-linejoin="round"/>
<path d="M92.0143 69.8926C91.5837 72.4451 91.6452 74.8438 92.0143 76.9964" stroke="#F9F9F9" stroke-width="0.768795" stroke-miterlimit="10" stroke-linecap="round" stroke-linejoin="round"/>
<path d="M167.447 87.0864H106.99C106.068 87.0864 105.299 86.3483 105.299 85.395V58.7324C105.299 57.8098 106.037 57.041 106.99 57.041H167.447C168.369 57.041 169.138 57.7791 169.138 58.7324V85.395C169.138 86.3176 168.369 87.0864 167.447 87.0864Z" stroke="#979FB5" stroke-width="0.768795" stroke-miterlimit="10" stroke-linecap="round" stroke-linejoin="round"/>
<path d="M153.516 83.3971H142.415C142.138 83.3971 141.892 83.1511 141.892 82.8744V81.1829C141.892 80.9062 142.138 80.6602 142.415 80.6602H153.516C153.793 80.6602 154.039 80.9062 154.039 81.1829V82.8744C154.039 83.1511 153.824 83.3971 153.516 83.3971Z" fill="#979FB5"/>
<path d="M164.002 83.3971H156.468C156.192 83.3971 155.946 83.1511 155.946 82.8744V81.1829C155.946 80.9062 156.192 80.6602 156.468 80.6602H164.002C164.279 80.6602 164.525 80.9062 164.525 81.1829V82.8744C164.525 83.1511 164.279 83.3971 164.002 83.3971Z" fill="#979FB5"/>
<path d="M111.067 67.5059C110.917 67.5059 110.801 67.467 110.718 67.3894C110.64 67.3061 110.601 67.1896 110.601 67.0398V62.105C110.601 61.9553 110.64 61.8415 110.718 61.7639C110.801 61.6806 110.917 61.639 111.067 61.639H114.105C114.221 61.639 114.31 61.6695 114.371 61.7306C114.432 61.786 114.462 61.8693 114.462 61.9802C114.462 62.0967 114.432 62.1855 114.371 62.2465C114.31 62.3075 114.221 62.3381 114.105 62.3381H111.433V64.1772H113.921C114.044 64.1772 114.132 64.2077 114.188 64.2687C114.249 64.3297 114.279 64.4157 114.279 64.5267C114.279 64.6432 114.249 64.7319 114.188 64.793C114.132 64.8484 114.044 64.8762 113.921 64.8762H111.433V66.8068H114.105C114.221 66.8068 114.31 66.8373 114.371 66.8984C114.432 66.9594 114.462 67.0454 114.462 67.1563C114.462 67.2729 114.432 67.3616 114.371 67.4226C114.31 67.4781 114.221 67.5059 114.105 67.5059H111.067ZM115.685 65.6251C115.585 65.6251 115.502 65.5919 115.435 65.5253C115.369 65.4587 115.335 65.3783 115.335 65.284C115.335 65.1841 115.369 65.1036 115.435 65.0426C115.502 64.976 115.585 64.9428 115.685 64.9428H117.516C117.61 64.9428 117.69 64.976 117.757 65.0426C117.823 65.1036 117.857 65.1841 117.857 65.284C117.857 65.3783 117.823 65.4587 117.757 65.5253C117.69 65.5919 117.61 65.6251 117.516 65.6251H115.685ZM119.169 67.5059C119.058 67.5059 118.967 67.4837 118.895 67.4393C118.828 67.3949 118.781 67.3339 118.753 67.2562C118.731 67.173 118.731 67.0842 118.753 66.9899C118.781 66.8901 118.834 66.7874 118.911 66.682L122.24 62.0718V62.363H119.103C118.975 62.363 118.878 62.3325 118.811 62.2715C118.745 62.2049 118.711 62.1134 118.711 61.9969C118.711 61.8804 118.745 61.7916 118.811 61.7306C118.878 61.6695 118.975 61.639 119.103 61.639H122.639C122.75 61.639 122.842 61.6612 122.914 61.7056C122.986 61.75 123.033 61.811 123.055 61.8887C123.083 61.9664 123.083 62.0551 123.055 62.155C123.033 62.2548 122.983 62.3575 122.906 62.4629L119.569 67.0731V66.7819H122.831C122.958 66.7819 123.055 66.8124 123.122 66.8734C123.189 66.9344 123.222 67.0232 123.222 67.1397C123.222 67.2562 123.189 67.3477 123.122 67.4143C123.055 67.4753 122.958 67.5059 122.831 67.5059H119.169ZM126.645 67.5641C126.507 67.5641 126.398 67.5253 126.321 67.4476C126.249 67.3699 126.212 67.2618 126.212 67.1231V62.0801C126.212 61.9358 126.251 61.8277 126.329 61.7555C126.407 61.6779 126.515 61.639 126.654 61.639H128.642C129.275 61.639 129.763 61.7971 130.107 62.1134C130.451 62.424 130.623 62.8623 130.623 63.4282C130.623 63.9996 130.451 64.4435 130.107 64.7597C129.763 65.0704 129.275 65.2257 128.642 65.2257H127.078V67.1231C127.078 67.2618 127.042 67.3699 126.97 67.4476C126.898 67.5253 126.789 67.5641 126.645 67.5641ZM127.078 64.535H128.518C128.934 64.535 129.247 64.4435 129.458 64.2604C129.674 64.0718 129.783 63.7944 129.783 63.4282C129.783 63.0676 129.674 62.7958 129.458 62.6127C129.247 62.424 128.934 62.3297 128.518 62.3297H127.078V64.535ZM132.555 67.5808C132.272 67.5808 132.017 67.5253 131.79 67.4143C131.568 67.3034 131.393 67.1536 131.265 66.9649C131.138 66.7763 131.074 66.5627 131.074 66.3242C131.074 66.0246 131.149 65.7888 131.299 65.6168C131.454 65.4393 131.706 65.3145 132.056 65.2423C132.411 65.1647 132.888 65.1258 133.487 65.1258H133.878V65.6418H133.496C133.096 65.6418 132.78 65.6612 132.547 65.7C132.314 65.7389 132.147 65.8054 132.048 65.8998C131.953 65.9885 131.906 66.1134 131.906 66.2742C131.906 66.4851 131.978 66.657 132.122 66.7902C132.267 66.9178 132.466 66.9816 132.722 66.9816C132.927 66.9816 133.107 66.9344 133.263 66.8401C133.418 66.7403 133.54 66.6071 133.629 66.4407C133.723 66.2742 133.77 66.0828 133.77 65.8665V64.9095C133.77 64.5932 133.704 64.3658 133.57 64.2271C133.437 64.0884 133.218 64.019 132.913 64.019C132.736 64.019 132.55 64.0412 132.355 64.0856C132.167 64.13 131.97 64.2049 131.765 64.3103C131.67 64.3547 131.59 64.3686 131.523 64.3519C131.457 64.3353 131.404 64.2992 131.365 64.2437C131.326 64.1827 131.304 64.1189 131.299 64.0523C131.299 63.9802 131.315 63.9109 131.349 63.8443C131.387 63.7777 131.451 63.7278 131.54 63.6945C131.784 63.578 132.025 63.4948 132.264 63.4448C132.503 63.3949 132.727 63.37 132.938 63.37C133.31 63.37 133.615 63.4282 133.853 63.5447C134.098 63.6612 134.278 63.8387 134.394 64.0773C134.511 64.3159 134.569 64.6238 134.569 65.001V67.1397C134.569 67.2729 134.536 67.3783 134.469 67.4559C134.403 67.5281 134.306 67.5641 134.178 67.5641C134.056 67.5641 133.959 67.5281 133.887 67.4559C133.815 67.3783 133.779 67.2729 133.779 67.1397V66.5988H133.853C133.809 66.8041 133.726 66.9816 133.604 67.1314C133.487 67.2756 133.34 67.3866 133.163 67.4643C132.985 67.5419 132.783 67.5808 132.555 67.5808ZM137.15 67.5808C136.906 67.5808 136.653 67.553 136.392 67.4975C136.137 67.4421 135.901 67.3477 135.685 67.2146C135.613 67.1647 135.563 67.1092 135.535 67.0482C135.508 66.9871 135.496 66.9261 135.502 66.8651C135.513 66.7985 135.538 66.743 135.577 66.6987C135.621 66.6487 135.674 66.6182 135.735 66.6071C135.802 66.596 135.871 66.6099 135.943 66.6487C136.159 66.7708 136.367 66.8568 136.567 66.9067C136.767 66.9511 136.964 66.9733 137.158 66.9733C137.452 66.9733 137.674 66.9206 137.824 66.8152C137.974 66.7097 138.048 66.5683 138.048 66.3907C138.048 66.2465 137.999 66.1355 137.899 66.0579C137.799 65.9747 137.649 65.9109 137.449 65.8665L136.659 65.7084C136.315 65.6362 136.054 65.5086 135.876 65.3256C135.699 65.1425 135.61 64.9095 135.61 64.6265C135.61 64.3713 135.68 64.1494 135.818 63.9608C135.957 63.7722 136.151 63.6279 136.401 63.5281C136.65 63.4227 136.939 63.37 137.266 63.37C137.51 63.37 137.741 63.4005 137.957 63.4615C138.173 63.5225 138.373 63.6141 138.556 63.7361C138.628 63.7749 138.675 63.8276 138.698 63.8942C138.72 63.9552 138.723 64.0163 138.706 64.0773C138.695 64.1383 138.667 64.1938 138.623 64.2437C138.578 64.2881 138.523 64.3159 138.456 64.327C138.395 64.3325 138.326 64.3159 138.248 64.277C138.082 64.1716 137.915 64.0967 137.749 64.0523C137.588 64.008 137.427 63.9858 137.266 63.9858C136.972 63.9858 136.75 64.0412 136.6 64.1522C136.456 64.2576 136.384 64.4018 136.384 64.5849C136.384 64.7236 136.429 64.8374 136.517 64.9261C136.606 65.0149 136.745 65.0787 136.933 65.1175L137.724 65.2756C138.085 65.3478 138.356 65.4698 138.539 65.6418C138.728 65.8138 138.822 66.0468 138.822 66.3408C138.822 66.7236 138.67 67.026 138.365 67.2479C138.06 67.4698 137.655 67.5808 137.15 67.5808ZM141.181 67.5808C140.936 67.5808 140.684 67.553 140.423 67.4975C140.168 67.4421 139.932 67.3477 139.716 67.2146C139.644 67.1647 139.594 67.1092 139.566 67.0482C139.538 66.9871 139.527 66.9261 139.533 66.8651C139.544 66.7985 139.569 66.743 139.608 66.6987C139.652 66.6487 139.705 66.6182 139.766 66.6071C139.832 66.596 139.902 66.6099 139.974 66.6487C140.19 66.7708 140.398 66.8568 140.598 66.9067C140.798 66.9511 140.995 66.9733 141.189 66.9733C141.483 66.9733 141.705 66.9206 141.855 66.8152C142.004 66.7097 142.079 66.5683 142.079 66.3907C142.079 66.2465 142.029 66.1355 141.93 66.0579C141.83 65.9747 141.68 65.9109 141.48 65.8665L140.69 65.7084C140.346 65.6362 140.085 65.5086 139.907 65.3256C139.73 65.1425 139.641 64.9095 139.641 64.6265C139.641 64.3713 139.71 64.1494 139.849 63.9608C139.988 63.7722 140.182 63.6279 140.432 63.5281C140.681 63.4227 140.97 63.37 141.297 63.37C141.541 63.37 141.771 63.4005 141.988 63.4615C142.204 63.5225 142.404 63.6141 142.587 63.7361C142.659 63.7749 142.706 63.8276 142.728 63.8942C142.751 63.9552 142.753 64.0163 142.737 64.0773C142.726 64.1383 142.698 64.1938 142.654 64.2437C142.609 64.2881 142.554 64.3159 142.487 64.327C142.426 64.3325 142.357 64.3159 142.279 64.277C142.113 64.1716 141.946 64.0967 141.78 64.0523C141.619 64.008 141.458 63.9858 141.297 63.9858C141.003 63.9858 140.781 64.0412 140.631 64.1522C140.487 64.2576 140.415 64.4018 140.415 64.5849C140.415 64.7236 140.459 64.8374 140.548 64.9261C140.637 65.0149 140.776 65.0787 140.964 65.1175L141.755 65.2756C142.115 65.3478 142.387 65.4698 142.57 65.6418C142.759 65.8138 142.853 66.0468 142.853 66.3408C142.853 66.7236 142.701 67.026 142.396 67.2479C142.09 67.4698 141.685 67.5808 141.181 67.5808Z" fill="#979FB5"/>
<path d="M109.911 73.1895H133.713" stroke="#979FB5" stroke-width="0.768795" stroke-miterlimit="10" stroke-linecap="round" stroke-linejoin="round"/>
<path d="M109.911 78.0781H125.902" stroke="#979FB5" stroke-width="0.768795" stroke-miterlimit="10" stroke-linecap="round" stroke-linejoin="round"/>
<path d="M109.911 82.6016H119.537" stroke="#979FB5" stroke-width="0.768795" stroke-miterlimit="10" stroke-linecap="round" stroke-linejoin="round"/>
<path d="M182.422 97.7596C178.363 96.2527 174.027 94.9918 169.937 93.485C172.09 79.2157 176.333 64.8849 181.93 50.5234C182.145 50.7387 182.33 51.0463 182.36 51.3845C184.298 68.0833 184.759 83.8286 182.422 97.7596Z" fill="#979FB5" stroke="#979FB5" stroke-width="0.768795" stroke-miterlimit="10" stroke-linecap="round" stroke-linejoin="round"/>
<path d="M173.781 89.7324L179.593 91.9159" stroke="#F9F9F9" stroke-width="0.768795" stroke-miterlimit="10" stroke-linecap="round" stroke-linejoin="round"/>
<path d="M92.0144 97.7596C96.0735 96.2527 100.409 94.9918 104.499 93.485C102.347 79.2157 98.1031 64.8849 92.5064 50.5234C92.2912 50.7387 92.1066 51.0463 92.0759 51.3845C90.1386 68.0833 89.6773 83.8286 92.0144 97.7596Z" fill="#979FB5" stroke="#979FB5" stroke-width="0.768795" stroke-miterlimit="10" stroke-linecap="round" stroke-linejoin="round"/>
<path d="M100.655 89.7324L94.8741 91.9159" stroke="#F9F9F9" stroke-width="0.768795" stroke-miterlimit="10" stroke-linecap="round" stroke-linejoin="round"/>
</svg>
