<svg width="275" height="151" viewBox="0 0 275 151" fill="none" xmlns="http://www.w3.org/2000/svg">
<rect width="274.606" height="150.02" fill="#F9F9F9"/>
<path d="M92 94.359V58.672C92 54.4471 95.4161 51.0312 99.6412 51.0312H175.873C180.098 51.0312 183.515 54.4471 183.515 58.672V94.359C183.515 98.5839 180.098 102 175.873 102H99.6412C95.4161 102 92 98.5839 92 94.359Z" fill="#979FB5" stroke="#979FB5" stroke-width="0.749116" stroke-miterlimit="10" stroke-linecap="round" stroke-linejoin="round"/>
<path d="M114.145 48H99.6413C95.4461 48 92.03 51.4159 92.03 55.6408V58.6671V91.3277C92.03 95.5526 95.4461 98.9685 99.6413 98.9685H175.903C180.099 98.9685 183.515 95.5526 183.515 91.3277V58.6671V55.6408C183.515 51.4159 180.099 48 175.903 48H119.628" fill="#F9F9F9"/>
<path d="M114.145 48H99.6413C95.4461 48 92.03 51.4159 92.03 55.6408V58.6671V91.3277C92.03 95.5526 95.4461 98.9685 99.6413 98.9685H175.903C180.099 98.9685 183.515 95.5526 183.515 91.3277V58.6671V55.6408C183.515 51.4159 180.099 48 175.903 48H119.628" stroke="#979FB5" stroke-width="0.749116" stroke-miterlimit="10" stroke-linecap="round" stroke-linejoin="round"/>
<path d="M157.175 91.5074H172.607C174.495 91.5074 176.053 89.9493 176.053 88.0316V58.9367C176.053 57.019 174.495 55.4609 172.607 55.4609H143.81H102.937C101.02 55.4609 99.4915 57.019 99.4915 58.9367V88.0316C99.4915 89.9493 101.02 91.5074 102.937 91.5074H143.81H152.081" stroke="#979FB5" stroke-width="0.749116" stroke-miterlimit="10" stroke-linecap="round" stroke-linejoin="round"/>
<path d="M105.854 68.0137C105.711 68.0137 105.6 67.9748 105.522 67.8971C105.445 67.8194 105.406 67.7088 105.406 67.5654V62.1413C105.406 61.9979 105.445 61.8873 105.522 61.8096C105.6 61.7319 105.711 61.693 105.854 61.693H109.153C109.267 61.693 109.354 61.7229 109.413 61.7827C109.479 61.8365 109.512 61.9172 109.512 62.0248C109.512 62.1383 109.479 62.225 109.413 62.2848C109.354 62.3445 109.267 62.3744 109.153 62.3744H106.213V64.4634H108.965C109.079 64.4634 109.165 64.4932 109.225 64.553C109.285 64.6128 109.315 64.6965 109.315 64.8041C109.315 64.9176 109.285 65.0043 109.225 65.064C109.165 65.1178 109.079 65.1447 108.965 65.1447H106.213V67.3323H109.153C109.267 67.3323 109.354 67.3622 109.413 67.422C109.479 67.4757 109.512 67.5594 109.512 67.673C109.512 67.7865 109.479 67.8732 109.413 67.933C109.354 67.9868 109.267 68.0137 109.153 68.0137H105.854ZM110.803 65.9606C110.707 65.9606 110.626 65.9277 110.561 65.862C110.495 65.7962 110.462 65.7155 110.462 65.6199C110.462 65.5243 110.495 65.4466 110.561 65.3868C110.626 65.3211 110.707 65.2882 110.803 65.2882H112.802C112.892 65.2882 112.969 65.3211 113.035 65.3868C113.107 65.4466 113.143 65.5243 113.143 65.6199C113.143 65.7155 113.107 65.7962 113.035 65.862C112.969 65.9277 112.892 65.9606 112.802 65.9606H110.803ZM114.53 68.0137C114.423 68.0137 114.333 67.9928 114.261 67.9509C114.195 67.9031 114.148 67.8433 114.118 67.7716C114.094 67.6939 114.094 67.6072 114.118 67.5116C114.148 67.416 114.198 67.3174 114.27 67.2157L117.937 62.1055V62.4013H114.467C114.342 62.4013 114.246 62.3714 114.18 62.3117C114.115 62.2459 114.082 62.1563 114.082 62.0427C114.082 61.9291 114.115 61.8425 114.18 61.7827C114.246 61.7229 114.342 61.693 114.467 61.693H118.314C118.421 61.693 118.508 61.717 118.574 61.7648C118.645 61.8066 118.693 61.8664 118.717 61.9441C118.747 62.0158 118.75 62.0995 118.726 62.1951C118.702 62.2907 118.651 62.3894 118.574 62.491L114.907 67.6013V67.3054H118.511C118.636 67.3054 118.732 67.3353 118.798 67.3951C118.863 67.4548 118.896 67.5415 118.896 67.6551C118.896 67.7686 118.863 67.8583 118.798 67.924C118.732 67.9838 118.636 68.0137 118.511 68.0137H114.53ZM122.541 68.0764C122.409 68.0764 122.308 68.0406 122.236 67.9688C122.164 67.8911 122.128 67.7836 122.128 67.6461V62.1144C122.128 61.977 122.164 61.8724 122.236 61.8006C122.314 61.7289 122.418 61.693 122.55 61.693H124.684C125.365 61.693 125.888 61.8604 126.253 62.1951C126.623 62.5298 126.808 62.999 126.808 63.6027C126.808 64.2123 126.623 64.6845 126.253 65.0192C125.888 65.3539 125.365 65.5213 124.684 65.5213H122.962V67.6461C122.962 67.7836 122.926 67.8911 122.855 67.9688C122.789 68.0406 122.684 68.0764 122.541 68.0764ZM122.962 64.8489H124.576C125.042 64.8489 125.392 64.7443 125.625 64.5351C125.864 64.3199 125.984 64.0091 125.984 63.6027C125.984 63.1963 125.864 62.8914 125.625 62.6882C125.392 62.479 125.042 62.3744 124.576 62.3744H122.962V64.8489ZM128.9 68.0944C128.601 68.0944 128.329 68.0346 128.084 67.9151C127.845 67.7955 127.657 67.6341 127.519 67.4309C127.388 67.2277 127.322 67.0006 127.322 66.7495C127.322 66.4268 127.403 66.1728 127.564 65.9875C127.726 65.8022 127.998 65.6707 128.38 65.593C128.763 65.5093 129.277 65.4675 129.922 65.4675H130.344V65.9875H129.94C129.48 65.9875 129.115 66.0084 128.846 66.0502C128.583 66.0921 128.398 66.1668 128.29 66.2744C128.183 66.376 128.129 66.5194 128.129 66.7047C128.129 66.9378 128.21 67.1291 128.371 67.2785C128.538 67.4279 128.766 67.5026 129.053 67.5026C129.28 67.5026 129.48 67.4489 129.653 67.3413C129.827 67.2277 129.964 67.0783 130.066 66.893C130.167 66.7017 130.218 66.4836 130.218 66.2385V65.2075C130.218 64.8549 130.146 64.6008 130.003 64.4454C129.859 64.2841 129.617 64.2034 129.277 64.2034C129.079 64.2034 128.876 64.2303 128.667 64.2841C128.458 64.3378 128.24 64.4215 128.013 64.5351C127.923 64.5769 127.845 64.5919 127.779 64.5799C127.714 64.562 127.66 64.5261 127.618 64.4723C127.582 64.4126 127.561 64.3498 127.555 64.2841C127.555 64.2123 127.57 64.1436 127.6 64.0779C127.636 64.0121 127.696 63.9643 127.779 63.9344C128.042 63.8029 128.302 63.7103 128.559 63.6565C128.822 63.5967 129.067 63.5668 129.295 63.5668C129.683 63.5668 130.003 63.6296 130.254 63.7551C130.505 63.8746 130.693 64.0629 130.819 64.3199C130.944 64.5709 131.007 64.8937 131.007 65.2882V67.6551C131.007 67.7925 130.974 67.8971 130.908 67.9688C130.843 68.0406 130.747 68.0764 130.621 68.0764C130.502 68.0764 130.406 68.0406 130.335 67.9688C130.269 67.8971 130.236 67.7925 130.236 67.6551V67.0185H130.317C130.269 67.2397 130.179 67.4309 130.048 67.5923C129.916 67.7537 129.752 67.8792 129.555 67.9688C129.363 68.0525 129.145 68.0944 128.9 68.0944ZM133.797 68.0944C133.528 68.0944 133.256 68.0645 132.981 68.0047C132.712 67.939 132.458 67.8284 132.219 67.673C132.153 67.6311 132.106 67.5803 132.076 67.5206C132.052 67.4548 132.043 67.3921 132.049 67.3323C132.061 67.2666 132.088 67.2098 132.129 67.162C132.171 67.1141 132.222 67.0872 132.282 67.0813C132.348 67.0693 132.416 67.0843 132.488 67.1261C132.721 67.2576 132.945 67.3502 133.16 67.404C133.382 67.4578 133.6 67.4847 133.815 67.4847C134.144 67.4847 134.392 67.4249 134.559 67.3054C134.726 67.1859 134.81 67.0275 134.81 66.8302C134.81 66.6629 134.753 66.5344 134.64 66.4447C134.532 66.3491 134.362 66.2774 134.129 66.2296L133.295 66.0592C132.924 65.9755 132.643 65.8381 132.452 65.6468C132.267 65.4496 132.174 65.1985 132.174 64.8937C132.174 64.6247 132.246 64.3916 132.389 64.1944C132.539 63.9912 132.745 63.8358 133.008 63.7282C133.271 63.6206 133.573 63.5668 133.914 63.5668C134.177 63.5668 134.425 63.6027 134.658 63.6744C134.897 63.7402 135.112 63.8418 135.303 63.9792C135.375 64.0211 135.42 64.0749 135.438 64.1406C135.462 64.2004 135.465 64.2631 135.447 64.3289C135.435 64.3887 135.408 64.4395 135.366 64.4813C135.324 64.5231 135.27 64.55 135.205 64.562C135.139 64.568 135.067 64.55 134.989 64.5082C134.816 64.3887 134.637 64.305 134.452 64.2572C134.272 64.2034 134.093 64.1765 133.914 64.1765C133.591 64.1765 133.346 64.2392 133.178 64.3647C133.017 64.4903 132.936 64.6546 132.936 64.8578C132.936 65.0132 132.984 65.1417 133.08 65.2434C133.181 65.345 133.34 65.4197 133.555 65.4675L134.389 65.6378C134.777 65.7215 135.07 65.856 135.267 66.0413C135.465 66.2206 135.563 66.4656 135.563 66.7764C135.563 67.1829 135.402 67.5056 135.079 67.7447C134.762 67.9778 134.335 68.0944 133.797 68.0944ZM138.131 68.0944C137.862 68.0944 137.59 68.0645 137.315 68.0047C137.046 67.939 136.792 67.8284 136.553 67.673C136.487 67.6311 136.439 67.5803 136.41 67.5206C136.386 67.4548 136.377 67.3921 136.383 67.3323C136.395 67.2666 136.422 67.2098 136.463 67.162C136.505 67.1141 136.556 67.0872 136.616 67.0813C136.682 67.0693 136.75 67.0843 136.822 67.1261C137.055 67.2576 137.279 67.3502 137.494 67.404C137.716 67.4578 137.934 67.4847 138.149 67.4847C138.478 67.4847 138.726 67.4249 138.893 67.3054C139.06 67.1859 139.144 67.0275 139.144 66.8302C139.144 66.6629 139.087 66.5344 138.974 66.4447C138.866 66.3491 138.696 66.2774 138.463 66.2296L137.629 66.0592C137.258 65.9755 136.977 65.8381 136.786 65.6468C136.601 65.4496 136.508 65.1985 136.508 64.8937C136.508 64.6247 136.58 64.3916 136.723 64.1944C136.873 63.9912 137.079 63.8358 137.342 63.7282C137.605 63.6206 137.907 63.5668 138.247 63.5668C138.51 63.5668 138.758 63.6027 138.992 63.6744C139.231 63.7402 139.446 63.8418 139.637 63.9792C139.709 64.0211 139.754 64.0749 139.772 64.1406C139.795 64.2004 139.798 64.2631 139.781 64.3289C139.769 64.3887 139.742 64.4395 139.7 64.4813C139.658 64.5231 139.604 64.55 139.538 64.562C139.473 64.568 139.401 64.55 139.323 64.5082C139.15 64.3887 138.971 64.305 138.785 64.2572C138.606 64.2034 138.427 64.1765 138.247 64.1765C137.925 64.1765 137.68 64.2392 137.512 64.3647C137.351 64.4903 137.27 64.6546 137.27 64.8578C137.27 65.0132 137.318 65.1417 137.414 65.2434C137.515 65.345 137.674 65.4197 137.889 65.4675L138.723 65.6378C139.111 65.7215 139.404 65.856 139.601 66.0413C139.798 66.2206 139.897 66.4656 139.897 66.7764C139.897 67.1829 139.736 67.5056 139.413 67.7447C139.096 67.9778 138.669 68.0944 138.131 68.0944Z" fill="#979FB5"/>
<path d="M143.781 55.4609V91.5074" stroke="#979FB5" stroke-width="0.749116" stroke-miterlimit="10" stroke-linecap="round" stroke-linejoin="round"/>
<path d="M170.899 62.2975V67.8408C170.899 68.53 170.33 69.0993 169.641 69.0993H149.444C148.755 69.0993 148.185 68.53 148.185 67.8408V62.2975C148.185 61.6084 148.755 61.0391 149.444 61.0391H169.641C170.33 61.0391 170.899 61.6084 170.899 62.2975Z" fill="#979FB5"/>
<path d="M151.661 63.2852H167.453" stroke="#F9F9F9" stroke-width="0.749116" stroke-miterlimit="10" stroke-linecap="round" stroke-linejoin="round"/>
<path d="M151.661 66.8496H161.16" stroke="#F9F9F9" stroke-width="0.749116" stroke-miterlimit="10" stroke-linecap="round" stroke-linejoin="round"/>
<path d="M170.899 77.1276V82.6709C170.899 83.3601 170.33 83.9294 169.641 83.9294H149.444C148.755 83.9294 148.185 83.3601 148.185 82.6709V77.1276C148.185 76.4384 148.755 75.8691 149.444 75.8691H169.641C170.33 75.8691 170.899 76.4384 170.899 77.1276Z" fill="#979FB5"/>
<path d="M151.661 78.0859H167.453" stroke="#F9F9F9" stroke-width="0.749116" stroke-miterlimit="10" stroke-linecap="round" stroke-linejoin="round"/>
<path d="M151.661 81.6797H161.16" stroke="#F9F9F9" stroke-width="0.749116" stroke-miterlimit="10" stroke-linecap="round" stroke-linejoin="round"/>
<path d="M140.694 77.3075V84.409C140.694 85.3378 139.915 86.1169 138.986 86.1169H105.305C104.376 86.1169 103.597 85.3378 103.597 84.409V77.3075C103.597 76.3787 104.376 75.5996 105.305 75.5996H138.986C139.915 75.5996 140.694 76.3787 140.694 77.3075Z" fill="#F9F9F9" stroke="#979FB5" stroke-width="0.749116" stroke-miterlimit="10" stroke-linecap="round" stroke-linejoin="round"/>
<path d="M108.122 77.2754V84.4367" stroke="#979FB5" stroke-width="0.749116" stroke-miterlimit="10" stroke-linecap="round" stroke-linejoin="round"/>
<path d="M110.459 78.7168V83.4211" stroke="#979FB5" stroke-width="0.749116" stroke-miterlimit="10" stroke-linecap="round" stroke-linejoin="round"/>
<path d="M112.886 77.6973V84.4391" stroke="#979FB5" stroke-width="0.749116" stroke-miterlimit="10" stroke-linecap="round" stroke-linejoin="round"/>
<path d="M115.823 78.4453V83.2395" stroke="#979FB5" stroke-width="0.749116" stroke-miterlimit="10" stroke-linecap="round" stroke-linejoin="round"/>
<path d="M118.16 79.4355V82.5817" stroke="#979FB5" stroke-width="0.749116" stroke-miterlimit="10" stroke-linecap="round" stroke-linejoin="round"/>
<path d="M120.617 78.7441V83.2687" stroke="#979FB5" stroke-width="0.749116" stroke-miterlimit="10" stroke-linecap="round" stroke-linejoin="round"/>
<path d="M123.674 77.2754V84.4367" stroke="#979FB5" stroke-width="0.749116" stroke-miterlimit="10" stroke-linecap="round" stroke-linejoin="round"/>
<path d="M126.011 78.7168V83.4211" stroke="#979FB5" stroke-width="0.749116" stroke-miterlimit="10" stroke-linecap="round" stroke-linejoin="round"/>
<path d="M128.438 77.6973V84.4391" stroke="#979FB5" stroke-width="0.749116" stroke-miterlimit="10" stroke-linecap="round" stroke-linejoin="round"/>
<path d="M131.375 78.4453V83.2395" stroke="#979FB5" stroke-width="0.749116" stroke-miterlimit="10" stroke-linecap="round" stroke-linejoin="round"/>
<path d="M133.712 79.4355V82.5817" stroke="#979FB5" stroke-width="0.749116" stroke-miterlimit="10" stroke-linecap="round" stroke-linejoin="round"/>
<path d="M136.139 78.7441V83.2687" stroke="#979FB5" stroke-width="0.749116" stroke-miterlimit="10" stroke-linecap="round" stroke-linejoin="round"/>
</svg>
