<svg width="385" height="179" viewBox="0 0 385 179" fill="none" xmlns="http://www.w3.org/2000/svg">
<rect y="0.5" width="385" height="178.096" fill="#F9F9F9"/>
<path d="M246.302 119.499H137.746C136.699 119.499 136.001 118.908 136.001 118.022V64.2278C136.001 63.3411 136.699 62.75 137.746 62.75H246.302C247.349 62.75 248.047 63.3411 248.047 64.2278V118.022C247.698 118.908 247 119.499 246.302 119.499Z" fill="#979FB5" stroke="#979FB5" stroke-width="0.738915" stroke-miterlimit="10" stroke-linecap="round" stroke-linejoin="round"/>
<path d="M152.755 59.7956H137.745C136.698 59.7956 136 60.3867 136 61.2734V64.5247V114.772C136 115.658 136.698 116.249 137.745 116.249H246.301C247.348 116.249 248.046 115.658 248.046 114.772V64.2291V60.9778C248.046 60.0911 247.348 59.5 246.301 59.5H159.736" fill="#F9F9F9"/>
<path d="M152.755 59.7956H137.745C136.698 59.7956 136 60.3867 136 61.2734V64.5247V114.772C136 115.658 136.698 116.249 137.745 116.249H246.301C247.348 116.249 248.046 115.658 248.046 114.772V64.2291V60.9778C248.046 60.0911 247.348 59.5 246.301 59.5H159.736" stroke="#979FB5" stroke-width="0.738915" stroke-miterlimit="10" stroke-linecap="round" stroke-linejoin="round"/>
<path d="M214.887 110.336H238.972C240.019 110.336 240.717 109.745 240.717 108.858V67.1829C240.717 66.2962 240.019 65.7051 238.972 65.7051H144.727C143.68 65.7051 142.982 66.2962 142.982 67.1829V108.858C142.982 109.745 143.68 110.336 144.727 110.336H208.953" fill="#F9F9F9"/>
<path d="M214.887 110.336H238.972C240.019 110.336 240.717 109.745 240.717 108.858V67.1829C240.717 66.2962 240.019 65.7051 238.972 65.7051H144.727C143.68 65.7051 142.982 66.2962 142.982 67.1829V108.858C142.982 109.745 143.68 110.336 144.727 110.336H208.953" stroke="#979FB5" stroke-width="0.738915" stroke-miterlimit="10" stroke-linecap="round" stroke-linejoin="round"/>
<path d="M177.189 93.4862H161.482C160.435 93.4862 159.388 92.8951 159.388 91.7128V83.7324C159.388 82.8457 160.086 81.959 161.482 81.959H177.189C178.237 81.959 179.284 82.5501 179.284 83.7324V91.7128C178.935 92.5995 178.237 93.4862 177.189 93.4862Z" stroke="#979FB5" stroke-width="0.738915" stroke-miterlimit="10" stroke-linecap="round" stroke-linejoin="round"/>
<path d="M168.812 82.252C168.114 82.8431 167.067 83.4342 166.718 84.0254C166.02 84.9121 166.02 85.7988 166.369 86.6855C166.718 88.1633 167.067 89.3456 166.718 90.8235C166.369 92.0057 165.671 92.8925 164.274 93.188" stroke="#979FB5" stroke-width="0.738915" stroke-miterlimit="10" stroke-linecap="round" stroke-linejoin="round"/>
<path d="M175.443 82.252C174.745 82.8431 173.697 83.4342 173.348 84.0254C172.65 84.9121 172.65 85.7988 172.999 86.6855C173.348 88.1633 173.697 89.3456 173.348 90.8235C172.999 92.0057 172.301 92.8925 170.905 93.188" stroke="#979FB5" stroke-width="0.738915" stroke-miterlimit="10" stroke-linecap="round" stroke-linejoin="round"/>
<path d="M159.737 85.5078H166.02" stroke="#979FB5" stroke-width="0.738915" stroke-miterlimit="10" stroke-linecap="round" stroke-linejoin="round"/>
<path d="M173 91.1211H178.934" stroke="#979FB5" stroke-width="0.738915" stroke-miterlimit="10" stroke-linecap="round" stroke-linejoin="round"/>
<path d="M155.895 105.905H151.706C151.357 105.905 151.008 105.609 151.008 105.314V99.9935C151.008 99.6979 151.357 99.4023 151.706 99.4023H155.895C156.244 99.4023 156.593 99.6979 156.593 99.9935V105.314C156.942 105.609 156.593 105.905 155.895 105.905Z" stroke="#979FB5" stroke-width="0.738915" stroke-miterlimit="10" stroke-linecap="round" stroke-linejoin="round"/>
<path d="M166.717 105.905H162.528C162.179 105.905 161.83 105.609 161.83 105.314V99.9935C161.83 99.6979 162.179 99.4023 162.528 99.4023H166.717C167.066 99.4023 167.415 99.6979 167.415 99.9935V105.314C167.764 105.609 167.415 105.905 166.717 105.905Z" fill="#979FB5" stroke="#979FB5" stroke-width="0.738915" stroke-miterlimit="10" stroke-linecap="round" stroke-linejoin="round"/>
<path d="M177.887 105.905H173.698C173.349 105.905 173 105.609 173 105.314V99.9935C173 99.6979 173.349 99.4023 173.698 99.4023H177.887C178.236 99.4023 178.585 99.6979 178.585 99.9935V105.314C178.585 105.609 178.236 105.905 177.887 105.905Z" stroke="#979FB5" stroke-width="0.738915" stroke-miterlimit="10" stroke-linecap="round" stroke-linejoin="round"/>
<path d="M188.708 105.905H184.17C183.821 105.905 183.472 105.609 183.472 105.314V99.9935C183.472 99.6979 183.821 99.4023 184.17 99.4023H188.359C188.708 99.4023 189.057 99.6979 189.057 99.9935V105.314C189.406 105.609 189.057 105.905 188.708 105.905Z" fill="#979FB5" stroke="#979FB5" stroke-width="0.738915" stroke-miterlimit="10" stroke-linecap="round" stroke-linejoin="round"/>
<path d="M199.527 105.905H195.338C194.989 105.905 194.64 105.609 194.64 105.314V99.9935C194.64 99.6979 194.989 99.4023 195.338 99.4023H199.527C199.876 99.4023 200.225 99.6979 200.225 99.9935V105.314C200.225 105.609 199.876 105.905 199.527 105.905Z" stroke="#979FB5" stroke-width="0.738915" stroke-miterlimit="10" stroke-linecap="round" stroke-linejoin="round"/>
<path d="M153.449 76.9923C153.323 76.9923 153.224 76.9584 153.151 76.8905C153.084 76.8227 153.05 76.7234 153.05 76.5926V72.2255C153.05 72.0947 153.084 71.9954 153.151 71.9275C153.224 71.8549 153.326 71.8185 153.457 71.8185H156.044C156.15 71.8185 156.228 71.8452 156.276 71.8985C156.329 71.9469 156.356 72.0196 156.356 72.1165C156.356 72.2182 156.329 72.2957 156.276 72.349C156.228 72.4023 156.15 72.4289 156.044 72.4289H153.805V74.0639H155.898C155.995 74.0639 156.07 74.0905 156.123 74.1438C156.182 74.1923 156.211 74.2649 156.211 74.3618C156.211 74.4635 156.182 74.541 156.123 74.5943C156.07 74.6476 155.995 74.6743 155.898 74.6743H153.805V76.5926C153.805 76.8591 153.687 76.9923 153.449 76.9923ZM159.144 77.0068C158.8 77.0068 158.497 76.9632 158.236 76.876C157.974 76.784 157.754 76.6483 157.575 76.4691C157.4 76.2898 157.267 76.067 157.175 75.8006C157.083 75.5341 157.037 75.2265 157.037 74.8777V72.1455C157.037 72.0196 157.068 71.9251 157.131 71.8621C157.199 71.7992 157.294 71.7677 157.415 71.7677C157.536 71.7677 157.628 71.7992 157.691 71.8621C157.759 71.9251 157.793 72.0196 157.793 72.1455V74.8632C157.793 75.3622 157.906 75.7352 158.134 75.9822C158.367 76.2293 158.703 76.3528 159.144 76.3528C159.59 76.3528 159.927 76.2293 160.154 75.9822C160.382 75.7352 160.496 75.3622 160.496 74.8632V72.1455C160.496 72.0196 160.527 71.9251 160.59 71.8621C160.658 71.7992 160.75 71.7677 160.866 71.7677C160.987 71.7677 161.079 71.7992 161.142 71.8621C161.205 71.9251 161.237 72.0196 161.237 72.1455V74.8777C161.237 75.3428 161.157 75.7352 160.997 76.0549C160.842 76.3698 160.61 76.6071 160.3 76.767C159.99 76.9269 159.604 77.0068 159.144 77.0068ZM162.809 76.9414C162.679 76.9414 162.577 76.9075 162.504 76.8397C162.436 76.767 162.402 76.6653 162.402 76.5345V72.2255C162.402 72.0947 162.436 71.9954 162.504 71.9275C162.577 71.8549 162.679 71.8185 162.809 71.8185H165.462C165.563 71.8185 165.641 71.8452 165.694 71.8985C165.747 71.9469 165.774 72.0196 165.774 72.1165C165.774 72.2182 165.747 72.2957 165.694 72.349C165.641 72.4023 165.563 72.4289 165.462 72.4289H163.129V74.0348H165.302C165.408 74.0348 165.486 74.0615 165.534 74.1147C165.588 74.168 165.614 74.2431 165.614 74.34C165.614 74.4417 165.588 74.5192 165.534 74.5725C165.486 74.621 165.408 74.6452 165.302 74.6452H163.129V76.331H165.462C165.563 76.331 165.641 76.3577 165.694 76.411C165.747 76.4642 165.774 76.5393 165.774 76.6362C165.774 76.7379 165.747 76.8155 165.694 76.8687C165.641 76.9172 165.563 76.9414 165.462 76.9414H162.809ZM167.067 76.9414C166.945 76.9414 166.851 76.9075 166.783 76.8397C166.715 76.7719 166.681 76.6774 166.681 76.5563V72.1746C166.681 72.0486 166.713 71.9542 166.776 71.8912C166.844 71.8234 166.938 71.7895 167.059 71.7895C167.18 71.7895 167.272 71.8234 167.335 71.8912C167.403 71.9542 167.437 72.0486 167.437 72.1746V76.2947H169.69C169.796 76.2947 169.879 76.3238 169.937 76.3819C169.995 76.4352 170.024 76.5127 170.024 76.6144C170.024 76.7161 169.995 76.7961 169.937 76.8542C169.879 76.9123 169.796 76.9414 169.69 76.9414H167.067ZM174.903 77.0068C174.385 77.0068 173.941 76.9002 173.573 76.6871C173.205 76.4739 172.922 76.1712 172.723 75.7788C172.529 75.3815 172.432 74.9141 172.432 74.3763C172.432 73.9743 172.488 73.6134 172.6 73.2936C172.711 72.9691 172.871 72.6929 173.079 72.4653C173.292 72.2327 173.551 72.0559 173.857 71.9348C174.167 71.8137 174.515 71.7531 174.903 71.7531C175.189 71.7531 175.463 71.7919 175.724 71.8694C175.991 71.9469 176.221 72.0583 176.414 72.2037C176.497 72.2569 176.55 72.3223 176.574 72.3999C176.603 72.4725 176.608 72.5428 176.589 72.6106C176.574 72.6784 176.543 72.7365 176.494 72.785C176.446 72.8286 176.383 72.8528 176.305 72.8576C176.233 72.8625 176.153 72.8358 176.066 72.7777C175.906 72.6566 175.729 72.567 175.535 72.5089C175.341 72.4507 175.138 72.4217 174.925 72.4217C174.557 72.4217 174.247 72.4992 173.995 72.6542C173.743 72.8044 173.551 73.0248 173.421 73.3154C173.29 73.6061 173.224 73.9597 173.224 74.3763C173.224 74.7929 173.29 75.149 173.421 75.4445C173.551 75.7352 173.743 75.958 173.995 76.113C174.247 76.2632 174.557 76.3383 174.925 76.3383C175.138 76.3383 175.341 76.3092 175.535 76.2511C175.734 76.1881 175.92 76.0961 176.095 75.975C176.182 75.9217 176.259 75.8975 176.327 75.9023C176.4 75.9071 176.46 75.9314 176.509 75.975C176.557 76.0186 176.589 76.0743 176.603 76.1421C176.623 76.2051 176.62 76.2729 176.596 76.3456C176.577 76.4134 176.531 76.4715 176.458 76.52C176.259 76.6798 176.024 76.8009 175.753 76.8833C175.482 76.9656 175.198 77.0068 174.903 77.0068ZM177.375 76.9923C177.278 76.9923 177.2 76.9705 177.142 76.9269C177.084 76.8833 177.05 76.8251 177.04 76.7525C177.031 76.6798 177.045 76.5975 177.084 76.5054L179.053 72.0874C179.102 71.9711 179.162 71.8888 179.235 71.8403C179.312 71.7919 179.397 71.7677 179.489 71.7677C179.576 71.7677 179.656 71.7919 179.729 71.8403C179.807 71.8888 179.87 71.9711 179.918 72.0874L181.887 76.5054C181.931 76.5975 181.948 76.6822 181.938 76.7597C181.928 76.8324 181.897 76.8905 181.844 76.9341C181.79 76.9729 181.715 76.9923 181.618 76.9923C181.512 76.9923 181.427 76.9656 181.364 76.9123C181.301 76.8591 181.245 76.7767 181.197 76.6653L180.688 75.4881L181.03 75.6916H177.934L178.268 75.4881L177.767 76.6653C177.719 76.7815 177.665 76.8663 177.607 76.9196C177.549 76.9681 177.472 76.9923 177.375 76.9923ZM179.475 72.6542L178.377 75.2556L178.196 75.0812H180.761L180.594 75.2556L179.489 72.6542H179.475ZM183.132 76.9923C183.011 76.9923 182.917 76.9584 182.849 76.8905C182.786 76.8227 182.754 76.7283 182.754 76.6071V72.2037C182.754 72.0777 182.788 71.9832 182.856 71.9203C182.924 71.8524 183.018 71.8185 183.139 71.8185H184.876C185.428 71.8185 185.855 71.9493 186.155 72.2109C186.455 72.4725 186.606 72.8431 186.606 73.3227C186.606 73.6327 186.538 73.8992 186.402 74.122C186.266 74.3448 186.068 74.5144 185.806 74.6307C185.549 74.7469 185.239 74.8051 184.876 74.8051L184.942 74.7033H185.13C185.324 74.7033 185.491 74.7518 185.632 74.8487C185.777 74.9455 185.908 75.1006 186.024 75.3137L186.649 76.4764C186.698 76.5635 186.719 76.6483 186.715 76.7307C186.715 76.8082 186.685 76.8712 186.627 76.9196C186.574 76.9681 186.497 76.9923 186.395 76.9923C186.288 76.9923 186.201 76.9705 186.133 76.9269C186.07 76.8784 186.012 76.8082 185.959 76.7161L185.196 75.3064C185.094 75.1175 184.978 74.9916 184.847 74.9286C184.716 74.8608 184.544 74.8269 184.331 74.8269H183.51V76.6071C183.51 76.7283 183.479 76.8227 183.416 76.8905C183.353 76.9584 183.258 76.9923 183.132 76.9923ZM183.51 74.2601H184.753C185.121 74.2601 185.399 74.1826 185.588 74.0275C185.777 73.8725 185.872 73.6424 185.872 73.3372C185.872 73.0369 185.777 72.8092 185.588 72.6542C185.399 72.4992 185.121 72.4217 184.753 72.4217H183.51V74.2601ZM188.079 76.9414C187.948 76.9414 187.846 76.9075 187.774 76.8397C187.706 76.767 187.672 76.6653 187.672 76.5345V72.2255C187.672 72.0947 187.706 71.9954 187.774 71.9275C187.846 71.8549 187.948 71.8185 188.079 71.8185H189.481C190.324 71.8185 190.973 72.039 191.429 72.4798C191.889 72.9158 192.119 73.548 192.119 74.3763C192.119 74.7881 192.061 75.1539 191.945 75.4736C191.828 75.7933 191.656 76.0622 191.429 76.2802C191.206 76.4933 190.932 76.658 190.608 76.7743C190.283 76.8857 189.908 76.9414 189.481 76.9414H188.079ZM188.428 76.3092H189.438C189.757 76.3092 190.034 76.2705 190.266 76.193C190.503 76.1106 190.702 75.9895 190.862 75.8296C191.022 75.6698 191.14 75.4687 191.218 75.2265C191.296 74.9843 191.334 74.7009 191.334 74.3763C191.334 73.732 191.174 73.25 190.855 72.9303C190.54 72.6106 190.067 72.4507 189.438 72.4507H188.428V76.3092Z" fill="#979FB5"/>
<path d="M228.499 68.6621L237.924 76.3469" stroke="#979FB5" stroke-width="0.738915" stroke-miterlimit="10" stroke-linecap="round" stroke-linejoin="round"/>
<path d="M226.055 73.0957L231.64 77.8248" stroke="#979FB5" stroke-width="0.738915" stroke-miterlimit="10" stroke-linecap="round" stroke-linejoin="round"/>
<path d="M212.443 92.3046L211.047 92.6001C210 92.8957 209.65 93.7824 209.65 94.6691L210 97.6248C210 97.6248 210 97.6248 210 97.9204C210 98.8071 209.301 99.6938 207.905 99.6938C206.509 99.6938 205.462 99.1027 205.462 97.9204L205.113 91.4179V89.94C205.113 89.6445 205.113 89.0533 205.462 88.7577L207.905 84.9153L208.603 83.7331L209.301 82.5508" stroke="#979FB5" stroke-width="0.738915" stroke-miterlimit="10" stroke-linecap="round" stroke-linejoin="round"/>
<path d="M209.302 81.959C209.651 82.2546 209.651 82.5501 209.651 82.8457L208.254 84.6191C207.905 84.9147 207.905 85.2103 207.905 85.2103L208.254 87.2792C208.254 87.5748 208.254 87.8704 207.905 87.8704L205.113 91.4172L203.717 88.1659C203.717 87.8704 203.717 87.5748 204.066 87.2792L208.604 82.2546C208.604 81.959 208.953 81.959 209.302 81.959Z" fill="#979FB5" stroke="#979FB5" stroke-width="0.738915" stroke-miterlimit="10" stroke-linecap="round" stroke-linejoin="round"/>
<path d="M231.991 105.905H210.001C210.001 104.722 210.699 103.54 211.746 102.653C212.095 102.358 212.095 102.358 212.444 102.062V81.3724C212.444 81.0768 212.793 80.7812 213.142 80.7812H228.85C229.199 80.7812 229.548 81.0768 229.548 81.3724V102.062C230.944 102.949 231.991 104.131 231.991 105.905Z" stroke="#979FB5" stroke-width="0.738915" stroke-miterlimit="10" stroke-linecap="round" stroke-linejoin="round"/>
<path d="M226.057 93.1946H215.585C215.236 93.1946 214.887 92.899 214.887 92.6034V84.3275C214.887 84.0319 215.236 83.7363 215.585 83.7363H226.057C226.406 83.7363 226.755 84.0319 226.755 84.3275V92.6034C226.755 92.899 226.406 93.1946 226.057 93.1946Z" fill="#979FB5"/>
<path d="M212.443 102.061H214.537" stroke="#979FB5" stroke-width="0.738915" stroke-miterlimit="10" stroke-linecap="round" stroke-linejoin="round"/>
<path d="M229.546 102.061H226.405" stroke="#979FB5" stroke-width="0.738915" stroke-miterlimit="10" stroke-linecap="round" stroke-linejoin="round"/>
<path d="M219.073 103.838H223.261" stroke="#979FB5" stroke-width="0.738915" stroke-miterlimit="10" stroke-linecap="round" stroke-linejoin="round"/>
<path d="M218.029 87.873H223.962" stroke="#F9F9F9" stroke-width="0.738915" stroke-miterlimit="10" stroke-linecap="round" stroke-linejoin="round"/>
<path d="M219.772 90.2422H222.913" stroke="#F9F9F9" stroke-width="0.738915" stroke-miterlimit="10" stroke-linecap="round" stroke-linejoin="round"/>
</svg>
