<svg width="275" height="151" viewBox="0 0 275 151" fill="none" xmlns="http://www.w3.org/2000/svg">
<rect width="274.606" height="150.02" fill="#F9F9F9"/>
<path d="M154.363 70.6738H172.63C175.243 70.6738 177.551 71.7026 179.247 73.3152C180.443 74.4551 181.277 75.9287 181.694 77.5692C181.805 77.875 181.861 78.2087 181.916 78.5145C181.944 78.9037 181.972 79.293 181.972 79.7101V82.6017V105.818C181.972 110.6 178.107 114.576 173.13 114.854C148.719 116.105 124.946 116.105 101.814 114.854C96.8647 114.604 93 110.6 93 105.818V82.6017V79.7101C93 79.3208 93.0278 78.9316 93.0556 78.5145C93.1112 78.1809 93.1947 77.875 93.2503 77.597C93.2503 77.5692 93.2781 77.5692 93.2781 77.5692C93.6395 75.9843 94.5014 74.5664 95.6413 73.4264C97.3096 71.7582 99.7285 70.7016 102.342 70.7016H148.774" fill="#979FB5"/>
<path d="M154.363 70.6738H172.63C175.243 70.6738 177.551 71.7026 179.247 73.3152C180.443 74.4551 181.277 75.9287 181.694 77.5692C181.805 77.875 181.861 78.2087 181.916 78.5145C181.944 78.9037 181.972 79.293 181.972 79.7101V82.6017V105.818C181.972 110.6 178.107 114.576 173.13 114.854C148.719 116.105 124.946 116.105 101.814 114.854C96.8647 114.604 93 110.6 93 105.818V82.6017V79.7101C93 79.3208 93.0278 78.9316 93.0556 78.5145C93.1112 78.1809 93.1947 77.875 93.2503 77.597C93.2503 77.5692 93.2781 77.5692 93.2781 77.5692C93.6395 75.9843 94.5014 74.5664 95.6413 73.4264C97.3096 71.7582 99.7285 70.7016 102.342 70.7016H148.774" stroke="#979FB5" stroke-width="0.521914" stroke-miterlimit="10" stroke-linecap="round" stroke-linejoin="round"/>
<path d="M181.721 75.5941L179.275 71.3401C179.275 71.3401 173.241 64.3614 167.124 61.7756C165.901 61.2473 164.539 61.0527 163.204 61.0527H112.129C110.572 61.0527 109.015 61.3586 107.569 61.9702C100.368 65.0287 95.6968 71.4235 95.6968 71.4235L93.3335 75.5663C93.3335 75.5663 93.3057 75.5663 93.3057 75.5941" fill="#F9F9F9"/>
<path d="M181.721 75.5941L179.275 71.3401C179.275 71.3401 173.241 64.3614 167.124 61.7756C165.901 61.2473 164.539 61.0527 163.204 61.0527H112.129C110.572 61.0527 109.015 61.3586 107.569 61.9702C100.368 65.0287 95.6968 71.4235 95.6968 71.4235L93.3335 75.5663C93.3335 75.5663 93.3057 75.5663 93.3057 75.5941" stroke="#979FB5" stroke-width="0.521914" stroke-miterlimit="10" stroke-linecap="round" stroke-linejoin="round"/>
<path d="M154.391 68.6992H172.658C175.272 68.6992 177.579 69.728 179.275 71.3406C180.471 72.4805 181.305 73.9541 181.722 75.5945C181.833 75.9004 181.889 76.234 181.944 76.5399C181.972 76.9291 182 77.3184 182 77.7354V80.627V103.843C182 108.625 178.135 112.601 173.158 112.879C148.747 114.131 124.975 114.131 101.842 112.879C96.893 112.629 93.0283 108.625 93.0283 103.843V80.627V77.7354C93.0283 77.3462 93.0561 76.9569 93.0839 76.5399C93.1395 76.2062 93.2229 75.9004 93.2785 75.6224C93.2785 75.5946 93.3063 75.5945 93.3063 75.5945C93.6678 74.0097 94.5297 72.5917 95.6697 71.4518C97.3379 69.7836 99.7568 68.727 102.37 68.727H148.802" fill="#F9F9F9"/>
<path d="M154.391 68.6992H172.658C175.272 68.6992 177.579 69.728 179.275 71.3406C180.471 72.4805 181.305 73.9541 181.722 75.5945C181.833 75.9004 181.889 76.234 181.944 76.5399C181.972 76.9291 182 77.3184 182 77.7354V80.627V103.843C182 108.625 178.135 112.601 173.158 112.879C148.747 114.131 124.975 114.131 101.842 112.879C96.893 112.629 93.0283 108.625 93.0283 103.843V80.627V77.7354C93.0283 77.3462 93.0561 76.9569 93.0839 76.5399C93.1395 76.2062 93.2229 75.9004 93.2785 75.6224C93.2785 75.5946 93.3063 75.5945 93.3063 75.5945C93.6678 74.0097 94.5297 72.5917 95.6697 71.4518C97.3379 69.7836 99.7568 68.727 102.37 68.727H148.802" stroke="#979FB5" stroke-width="0.521914" stroke-miterlimit="10" stroke-linecap="round" stroke-linejoin="round"/>
<path d="M128.366 44.647C134.065 39.2253 143.157 39.5867 148.662 45.4255" stroke="#979FB5" stroke-width="0.521914" stroke-miterlimit="10" stroke-linecap="round" stroke-linejoin="round"/>
<path d="M132.23 50.1264C135.762 46.7621 141.35 46.9846 144.77 50.6269" stroke="#979FB5" stroke-width="0.521914" stroke-miterlimit="10" stroke-linecap="round" stroke-linejoin="round"/>
<path d="M122.11 41.2285C131.313 32.4425 145.993 33.0264 154.918 42.5074" stroke="#979FB5" stroke-width="0.521914" stroke-miterlimit="10" stroke-linecap="round" stroke-linejoin="round"/>
<path d="M138.514 58.6617C139.942 58.6617 141.1 57.5041 141.1 56.076C141.1 54.6479 139.942 53.4902 138.514 53.4902C137.086 53.4902 135.928 54.6479 135.928 56.076C135.928 57.5041 137.086 58.6617 138.514 58.6617Z" fill="#979FB5"/>
<path d="M99.6455 95.2235V103.898C99.6455 105.177 100.758 106.262 102.203 106.345C113.603 106.984 125.308 107.29 137.014 107.29C148.747 107.29 160.786 106.957 172.797 106.345C174.243 106.289 175.41 105.205 175.41 103.898V86.5487V83.6571V80.6821V77.7905C175.41 77.3734 175.271 76.9286 175.049 76.5949C174.91 76.3725 174.715 76.1779 174.521 76.0388C174.326 75.872 174.132 75.733 173.937 75.6496C173.548 75.455 173.103 75.3438 172.658 75.3438H102.426C101.925 75.3438 101.481 75.4828 101.064 75.6774C100.646 75.872 100.285 76.2057 100.007 76.5949C99.7845 76.9286 99.6455 77.3456 99.6455 77.7905V80.6821V83.6571V86.5487V90.052" fill="#F9F9F9"/>
<path d="M99.6455 95.2235V103.898C99.6455 105.177 100.758 106.262 102.203 106.345C113.603 106.984 125.308 107.29 137.014 107.29C148.747 107.29 160.786 106.957 172.797 106.345C174.243 106.289 175.41 105.205 175.41 103.898V86.5487V83.6571V80.6821V77.7905C175.41 77.3734 175.271 76.9286 175.049 76.5949C174.91 76.3725 174.715 76.1779 174.521 76.0388C174.326 75.872 174.132 75.733 173.937 75.6496C173.548 75.455 173.103 75.3438 172.658 75.3438H102.426C101.925 75.3438 101.481 75.4828 101.064 75.6774C100.646 75.872 100.285 76.2057 100.007 76.5949C99.7845 76.9286 99.6455 77.3456 99.6455 77.7905V80.6821V83.6571V86.5487V90.052" stroke="#979FB5" stroke-width="0.521914" stroke-miterlimit="10" stroke-linecap="round" stroke-linejoin="round"/>
<path d="M175.049 76.5129C175.271 76.8465 175.41 77.2636 175.41 77.7084V83.575H99.6455V77.7084C99.6455 77.2914 99.7845 76.8465 100.007 76.5129C100.257 76.1236 100.646 75.79 101.064 75.5954C101.453 75.4007 101.925 75.2617 102.426 75.2617H172.658C173.131 75.2617 173.548 75.3729 173.937 75.5676C174.354 75.7622 174.715 76.068 175.049 76.5129Z" fill="#979FB5" stroke="#979FB5" stroke-width="0.521914" stroke-miterlimit="10" stroke-linecap="round" stroke-linejoin="round"/>
<path d="M108.96 101.535C109.973 101.535 110.795 100.714 110.795 99.7003C110.795 98.6868 109.973 97.8652 108.96 97.8652C107.946 97.8652 107.125 98.6868 107.125 99.7003C107.125 100.714 107.946 101.535 108.96 101.535Z" fill="#979FB5" stroke="#979FB5" stroke-width="0.521914" stroke-miterlimit="10" stroke-linecap="round" stroke-linejoin="round"/>
<path d="M117.439 101.674C118.453 101.674 119.274 100.852 119.274 99.8389C119.274 98.8255 118.453 98.0039 117.439 98.0039C116.426 98.0039 115.604 98.8255 115.604 99.8389C115.604 100.852 116.426 101.674 117.439 101.674Z" fill="#979FB5" stroke="#979FB5" stroke-width="0.521914" stroke-miterlimit="10" stroke-linecap="round" stroke-linejoin="round"/>
<path d="M125.947 101.842C126.961 101.842 127.782 101.02 127.782 100.007C127.782 98.9934 126.961 98.1719 125.947 98.1719C124.934 98.1719 124.112 98.9934 124.112 100.007C124.112 101.02 124.934 101.842 125.947 101.842Z" fill="#979FB5" stroke="#979FB5" stroke-width="0.521914" stroke-miterlimit="10" stroke-linecap="round" stroke-linejoin="round"/>
<path d="M108.209 88.3848H126.17" stroke="#979FB5" stroke-width="0.521914" stroke-miterlimit="10" stroke-linecap="round" stroke-linejoin="round"/>
<path d="M111.878 92.3047H122.638" stroke="#979FB5" stroke-width="0.521914" stroke-miterlimit="10" stroke-linecap="round" stroke-linejoin="round"/>
<path d="M124.946 79.377H149.552" stroke="#F9F9F9" stroke-width="0.521914" stroke-miterlimit="10" stroke-linecap="round" stroke-linejoin="round"/>
<path d="M102.62 79.375H111.378" stroke="#F9F9F9" stroke-width="0.521914" stroke-miterlimit="10" stroke-linecap="round" stroke-linejoin="round"/>
<path d="M163.121 79.375H171.879" stroke="#F9F9F9" stroke-width="0.521914" stroke-miterlimit="10" stroke-linecap="round" stroke-linejoin="round"/>
</svg>
