<svg width="275" height="151" viewBox="0 0 275 151" fill="none" xmlns="http://www.w3.org/2000/svg">
<rect width="274.606" height="150.02" fill="#F9F9F9"/>
<path d="M187.011 106.999H87.3751C84.9751 106.999 83.0339 105.058 83.0339 102.658V52.2924C83.0339 49.8924 84.9751 47.9512 87.3751 47.9512H187.011C189.411 47.9512 191.353 49.8924 191.353 52.2924V102.658C191.353 105.058 189.411 106.999 187.011 106.999Z" fill="#979FB5" stroke="#979FB5" stroke-width="0.662526" stroke-miterlimit="10" stroke-linecap="round" stroke-linejoin="round"/>
<path d="M154.789 44.0353H87.6233C85.0821 44.0353 82.9998 46.1177 82.9998 48.6589V52.5766V98.4949C82.9998 101.036 85.0821 103.118 87.6233 103.118H186.73C189.271 103.118 191.354 101.036 191.354 98.4949V52.5413V48.6236C191.354 46.0824 189.271 44 186.73 44H161.212" fill="#F9F9F9"/>
<path d="M154.789 44.0353H87.6233C85.0821 44.0353 82.9998 46.1177 82.9998 48.6589V52.5766V98.4949C82.9998 101.036 85.0821 103.118 87.6233 103.118H186.73C189.271 103.118 191.354 101.036 191.354 98.4949V52.5413V48.6236C191.354 46.0824 189.271 44 186.73 44H161.212" stroke="#979FB5" stroke-width="0.662526" stroke-miterlimit="10" stroke-linecap="round" stroke-linejoin="round"/>
<path d="M129.623 95.5673H179.918C182.106 95.5673 183.87 93.8026 183.87 91.6143V84.0613V62.7787V55.4727C183.87 53.2491 182.106 51.4844 179.918 51.4844H94.505C92.3167 51.4844 90.552 53.2491 90.552 55.4727V62.7787V84.0613V91.6143C90.552 93.8026 92.3167 95.5673 94.505 95.5673H122.599" stroke="#979FB5" stroke-width="0.662526" stroke-miterlimit="10" stroke-linecap="round" stroke-linejoin="round"/>
<path d="M97.5756 60.4131C99.0181 60.4131 100.187 59.2437 100.187 57.8013C100.187 56.3588 99.0181 55.1895 97.5756 55.1895C96.1332 55.1895 94.9639 56.3588 94.9639 57.8013C94.9639 59.2437 96.1332 60.4131 97.5756 60.4131Z" fill="#979FB5" stroke="#979FB5" stroke-width="0.662526" stroke-miterlimit="10" stroke-linecap="round" stroke-linejoin="round"/>
<path d="M176.212 60.4131C177.655 60.4131 178.824 59.2437 178.824 57.8013C178.824 56.3588 177.655 55.1895 176.212 55.1895C174.77 55.1895 173.601 56.3588 173.601 57.8013C173.601 59.2437 174.77 60.4131 176.212 60.4131Z" fill="#979FB5" stroke="#979FB5" stroke-width="0.662526" stroke-miterlimit="10" stroke-linecap="round" stroke-linejoin="round"/>
<path d="M97.5756 92.3896C99.0181 92.3896 100.187 91.2203 100.187 89.7778C100.187 88.3354 99.0181 87.166 97.5756 87.166C96.1332 87.166 94.9639 88.3354 94.9639 89.7778C94.9639 91.2203 96.1332 92.3896 97.5756 92.3896Z" fill="#979FB5" stroke="#979FB5" stroke-width="0.662526" stroke-miterlimit="10" stroke-linecap="round" stroke-linejoin="round"/>
<path d="M176.212 92.3896C177.655 92.3896 178.824 91.2203 178.824 89.7778C178.824 88.3354 177.655 87.166 176.212 87.166C174.77 87.166 173.601 88.3354 173.601 89.7778C173.601 91.2203 174.77 92.3896 176.212 92.3896Z" fill="#979FB5" stroke="#979FB5" stroke-width="0.662526" stroke-miterlimit="10" stroke-linecap="round" stroke-linejoin="round"/>
<path d="M90.552 62.8125H183.835" stroke="#979FB5" stroke-width="0.662526" stroke-miterlimit="10" stroke-linecap="round" stroke-linejoin="round"/>
<path d="M90.552 84.0957H183.835" stroke="#979FB5" stroke-width="0.662526" stroke-miterlimit="10" stroke-linecap="round" stroke-linejoin="round"/>
<path d="M104.812 70.7532V76.365C104.812 76.7886 104.459 77.1768 104 77.1768H98.4235C97.9647 77.1768 97.6118 76.7886 97.6118 76.365V70.7532C97.6118 70.3296 97.9647 69.9414 98.4235 69.9414H104C104.459 69.9414 104.812 70.3296 104.812 70.7532Z" fill="#979FB5" stroke="#979FB5" stroke-width="0.662526" stroke-miterlimit="10" stroke-linecap="round" stroke-linejoin="round"/>
<path d="M118.258 70.7532V76.365C118.258 76.7886 117.905 77.1768 117.447 77.1768H111.87C111.411 77.1768 111.023 76.7886 111.023 76.365V70.7532C111.023 70.3296 111.411 69.9414 111.87 69.9414H117.447C117.905 69.9414 118.258 70.3296 118.258 70.7532Z" fill="#F9F9F9" stroke="#979FB5" stroke-width="0.662526" stroke-miterlimit="10" stroke-linecap="round" stroke-linejoin="round"/>
<path d="M131.706 70.7532V76.365C131.706 76.7886 131.318 77.1768 130.895 77.1768H125.318C124.859 77.1768 124.471 76.7886 124.471 76.365V70.7532C124.471 70.3296 124.859 69.9414 125.318 69.9414H130.895C131.318 69.9414 131.706 70.3296 131.706 70.7532Z" fill="#979FB5" stroke="#979FB5" stroke-width="0.662526" stroke-miterlimit="10" stroke-linecap="round" stroke-linejoin="round"/>
<path d="M137.777 73.7891H145.295" stroke="#979FB5" stroke-width="0.662526" stroke-miterlimit="10" stroke-linecap="round" stroke-linejoin="round"/>
<path d="M159.695 70.0474V77.071C159.695 77.424 159.412 77.7063 159.024 77.7063H156.836C156.483 77.7063 156.2 77.424 156.2 77.071V70.0474C156.2 69.6945 156.483 69.4121 156.836 69.4121H159.024C159.412 69.4121 159.695 69.6945 159.695 70.0474Z" fill="#F9F9F9" stroke="#979FB5" stroke-width="0.662526" stroke-miterlimit="10" stroke-linecap="round" stroke-linejoin="round"/>
<path d="M168.518 70.0474V77.071C168.518 77.424 168.235 77.7063 167.882 77.7063H165.694C165.341 77.7063 165.023 77.424 165.023 77.071V70.0474C165.023 69.6945 165.341 69.4121 165.694 69.4121H167.882C168.235 69.4121 168.518 69.6945 168.518 70.0474Z" fill="#979FB5" stroke="#979FB5" stroke-width="0.662526" stroke-miterlimit="10" stroke-linecap="round" stroke-linejoin="round"/>
<path d="M177.376 70.0474V77.071C177.376 77.424 177.094 77.7063 176.706 77.7063H174.518C174.165 77.7063 173.882 77.424 173.882 77.071V70.0474C173.882 69.6945 174.165 69.4121 174.518 69.4121H176.706C177.094 69.4121 177.376 69.6945 177.376 70.0474Z" fill="#F9F9F9" stroke="#979FB5" stroke-width="0.662526" stroke-miterlimit="10" stroke-linecap="round" stroke-linejoin="round"/>
</svg>
