<svg width="275" height="151" viewBox="0 0 275 151" fill="none" xmlns="http://www.w3.org/2000/svg">
<rect width="274.606" height="150.02" fill="#F9F9F9"/>
<path d="M88.1682 61.3074C98.7753 50.109 115.608 44.788 137.344 44.0228C138.839 43.9881 140.369 43.9881 141.83 44.0576C160.297 45.101 175.077 49.6916 185.476 58.4904C191.701 63.7766 194.483 72.0537 192.814 80.0526C189.127 97.7545 181.024 109.822 155.219 99.4933C144.682 95.0766 133.657 94.8679 122.007 99.4933C103.505 110.379 90.9852 101.371 84.2383 87.0081C80.2389 78.4528 81.63 68.1586 88.1682 61.3074Z" fill="#979FB5"/>
<path d="M193.232 82.8693C192.084 94.9024 183.042 106.866 170.139 106.866C165.688 106.866 156.228 102.553 155.255 102.171C144.752 97.7889 133.693 97.5455 122.042 102.171C119.26 103.284 116.791 104.953 113.869 105.857C110.878 106.762 107.714 107.214 104.549 106.901C96.411 106.101 89.386 100.293 85.63 93.1982C81.4219 85.2689 80.5872 75.0443 85.5952 67.2541C86.3603 66.0716 87.2298 64.9587 88.2035 63.9502C99.1932 52.4039 116.791 47.083 139.605 46.6309C159.185 47.4307 174.765 52.0562 185.581 61.2723C189.476 64.5762 192.084 69.2364 192.954 74.2792C193.406 76.957 193.51 79.9132 193.232 82.8693Z" fill="#F9F9F9" stroke="#979FB5" stroke-width="0.652824" stroke-miterlimit="10" stroke-linecap="round" stroke-linejoin="round"/>
<path d="M147.046 84.9219H128.51" stroke="#979FB5" stroke-width="0.652824" stroke-miterlimit="10" stroke-linecap="round" stroke-linejoin="round"/>
<path d="M154.628 71.8455C161.375 64.8204 173.338 62.9076 188.501 64.2987" stroke="#979FB5" stroke-width="0.652824" stroke-miterlimit="10" stroke-linecap="round" stroke-linejoin="round"/>
<path d="M122.007 73.0973C115.538 65.7244 104.096 62.8379 88.7595 63.4639" stroke="#979FB5" stroke-width="0.652824" stroke-miterlimit="10" stroke-linecap="round" stroke-linejoin="round"/>
<path d="M117.417 65.7246H127.572" stroke="#979FB5" stroke-width="0.652824" stroke-miterlimit="10" stroke-linecap="round" stroke-linejoin="round"/>
<path d="M120.094 67.8125H124.789" stroke="#979FB5" stroke-width="0.652824" stroke-miterlimit="10" stroke-linecap="round" stroke-linejoin="round"/>
<path d="M148.577 64.6816H158.732" stroke="#979FB5" stroke-width="0.652824" stroke-miterlimit="10" stroke-linecap="round" stroke-linejoin="round"/>
<path d="M151.255 66.7676H155.95" stroke="#979FB5" stroke-width="0.652824" stroke-miterlimit="10" stroke-linecap="round" stroke-linejoin="round"/>
<path d="M130.91 75.3594H145.204" stroke="#979FB5" stroke-width="0.652824" stroke-miterlimit="10" stroke-linecap="round" stroke-linejoin="round"/>
<path d="M130.145 56.2643C145.76 54.9775 162.905 57.4815 177.581 63.9501" stroke="#979FB5" stroke-width="0.652824" stroke-miterlimit="10" stroke-linecap="round" stroke-linejoin="round"/>
<path d="M127.085 56.5781C117.729 57.6562 109.105 60.1254 101.975 63.951" stroke="#979FB5" stroke-width="0.652824" stroke-miterlimit="10" stroke-linecap="round" stroke-linejoin="round"/>
<path d="M110.183 97.4769C118.499 97.4769 125.241 90.7349 125.241 82.4181C125.241 74.1014 118.499 67.3594 110.183 67.3594C101.866 67.3594 95.124 74.1014 95.124 82.4181C95.124 90.7349 101.866 97.4769 110.183 97.4769Z" fill="#979FB5" stroke="#979FB5" stroke-width="0.652824" stroke-miterlimit="10" stroke-linecap="round" stroke-linejoin="round"/>
<path d="M110.357 88.9553C113.968 88.9553 116.895 86.0281 116.895 82.4171C116.895 78.8062 113.968 75.8789 110.357 75.8789C106.746 75.8789 103.819 78.8062 103.819 82.4171C103.819 86.0281 106.746 88.9553 110.357 88.9553Z" stroke="#F9F9F9" stroke-width="0.652824" stroke-miterlimit="10" stroke-linecap="round" stroke-linejoin="round"/>
<path d="M110.183 85.4441C111.701 85.4441 112.931 84.214 112.931 82.6966C112.931 81.1793 111.701 79.9492 110.183 79.9492C108.666 79.9492 107.436 81.1793 107.436 82.6966C107.436 84.214 108.666 85.4441 110.183 85.4441Z" fill="#F9F9F9"/>
<path d="M110.497 77.2377C111.553 77.2377 112.41 76.3813 112.41 75.3249C112.41 74.2685 111.553 73.4121 110.497 73.4121C109.44 73.4121 108.584 74.2685 108.584 75.3249C108.584 76.3813 109.44 77.2377 110.497 77.2377Z" fill="#F9F9F9"/>
<path d="M110.357 69.4824V70.9779" stroke="#F9F9F9" stroke-width="0.652824" stroke-miterlimit="10" stroke-linecap="round" stroke-linejoin="round"/>
<path d="M110.357 92.748V94.2435" stroke="#F9F9F9" stroke-width="0.652824" stroke-miterlimit="10" stroke-linecap="round" stroke-linejoin="round"/>
<path d="M101.593 73.0996L102.671 74.1429" stroke="#F9F9F9" stroke-width="0.652824" stroke-miterlimit="10" stroke-linecap="round" stroke-linejoin="round"/>
<path d="M118.077 89.5469L119.12 90.625" stroke="#F9F9F9" stroke-width="0.652824" stroke-miterlimit="10" stroke-linecap="round" stroke-linejoin="round"/>
<path d="M97.9761 81.8613H99.4715" stroke="#F9F9F9" stroke-width="0.652824" stroke-miterlimit="10" stroke-linecap="round" stroke-linejoin="round"/>
<path d="M121.241 81.8613H122.737" stroke="#F9F9F9" stroke-width="0.652824" stroke-miterlimit="10" stroke-linecap="round" stroke-linejoin="round"/>
<path d="M101.593 90.627L102.671 89.5488" stroke="#F9F9F9" stroke-width="0.652824" stroke-miterlimit="10" stroke-linecap="round" stroke-linejoin="round"/>
<path d="M118.077 74.1429L119.12 73.0996" stroke="#F9F9F9" stroke-width="0.652824" stroke-miterlimit="10" stroke-linecap="round" stroke-linejoin="round"/>
<path d="M113.904 83.7757L113.522 84.7147L97.3154 77.3418L113.904 83.7757Z" fill="#F9F9F9" stroke="#F9F9F9" stroke-width="0.652824" stroke-miterlimit="10" stroke-linecap="round" stroke-linejoin="round"/>
<path d="M128.615 82.4182C128.65 82.4878 128.65 82.5921 128.65 82.6964C128.65 86.8698 127.259 90.7649 124.894 93.8253C121.521 98.2769 116.2 101.129 110.218 101.129C108.827 101.129 107.47 100.955 106.184 100.677C97.9414 98.8681 91.751 91.4952 91.751 82.6964C91.751 74.1063 97.6284 66.9074 105.558 64.8555" stroke="#979FB5" stroke-width="0.652824" stroke-miterlimit="10" stroke-linecap="round" stroke-linejoin="round"/>
<path d="M165.339 97.4769C173.656 97.4769 180.398 90.7349 180.398 82.4181C180.398 74.1014 173.656 67.3594 165.339 67.3594C157.022 67.3594 150.28 74.1014 150.28 82.4181C150.28 90.7349 157.022 97.4769 165.339 97.4769Z" fill="#979FB5" stroke="#979FB5" stroke-width="0.652824" stroke-miterlimit="10" stroke-linecap="round" stroke-linejoin="round"/>
<path d="M165.165 88.9573C168.776 88.9573 171.704 86.03 171.704 82.4191C171.704 78.8081 168.776 75.8809 165.165 75.8809C161.554 75.8809 158.627 78.8081 158.627 82.4191C158.627 86.03 161.554 88.9573 165.165 88.9573Z" stroke="#F9F9F9" stroke-width="0.652824" stroke-miterlimit="10" stroke-linecap="round" stroke-linejoin="round"/>
<path d="M165.34 85.4441C166.857 85.4441 168.087 84.214 168.087 82.6966C168.087 81.1793 166.857 79.9492 165.34 79.9492C163.822 79.9492 162.592 81.1793 162.592 82.6966C162.592 84.214 163.822 85.4441 165.34 85.4441Z" fill="#F9F9F9"/>
<path d="M165.026 77.2357C166.083 77.2357 166.939 76.3793 166.939 75.3229C166.939 74.2665 166.083 73.4102 165.026 73.4102C163.97 73.4102 163.114 74.2665 163.114 75.3229C163.114 76.3793 163.97 77.2357 165.026 77.2357Z" fill="#F9F9F9"/>
<path d="M165.166 69.4824V70.9779" stroke="#F9F9F9" stroke-width="0.652824" stroke-miterlimit="10" stroke-linecap="round" stroke-linejoin="round"/>
<path d="M165.166 92.748V94.2435" stroke="#F9F9F9" stroke-width="0.652824" stroke-miterlimit="10" stroke-linecap="round" stroke-linejoin="round"/>
<path d="M173.928 73.0996L172.85 74.1429" stroke="#F9F9F9" stroke-width="0.652824" stroke-miterlimit="10" stroke-linecap="round" stroke-linejoin="round"/>
<path d="M157.445 89.5488L156.402 90.627" stroke="#F9F9F9" stroke-width="0.652824" stroke-miterlimit="10" stroke-linecap="round" stroke-linejoin="round"/>
<path d="M177.546 81.8633H176.051" stroke="#F9F9F9" stroke-width="0.652824" stroke-miterlimit="10" stroke-linecap="round" stroke-linejoin="round"/>
<path d="M154.28 81.8613H152.785" stroke="#F9F9F9" stroke-width="0.652824" stroke-miterlimit="10" stroke-linecap="round" stroke-linejoin="round"/>
<path d="M173.928 90.627L172.85 89.5488" stroke="#F9F9F9" stroke-width="0.652824" stroke-miterlimit="10" stroke-linecap="round" stroke-linejoin="round"/>
<path d="M157.445 74.1429L156.402 73.0996" stroke="#F9F9F9" stroke-width="0.652824" stroke-miterlimit="10" stroke-linecap="round" stroke-linejoin="round"/>
<path d="M161.618 83.7757L162 84.7147L178.207 77.3418L161.618 83.7757Z" fill="#F9F9F9" stroke="#F9F9F9" stroke-width="0.652824" stroke-miterlimit="10" stroke-linecap="round" stroke-linejoin="round"/>
<path d="M170.626 64.5078C178.137 66.8379 183.771 74.4195 183.771 82.6966C183.771 91.4953 177.616 98.8682 169.339 100.677C168.052 100.955 166.73 101.129 165.339 101.129C159.358 101.129 154.037 98.277 150.663 93.8254C148.298 90.765 146.907 86.8699 146.907 82.6966C146.907 82.5922 146.907 82.4879 146.942 82.4184" stroke="#979FB5" stroke-width="0.652824" stroke-miterlimit="10" stroke-linecap="round" stroke-linejoin="round"/>
<path d="M114.564 50.2832C115.364 52.9959 115.503 55.7433 114.564 58.4908" stroke="#979FB5" stroke-width="0.652824" stroke-miterlimit="10" stroke-linecap="round" stroke-linejoin="round"/>
<path d="M132.093 47.502C132.893 50.2146 133.032 52.9621 132.093 55.7095" stroke="#979FB5" stroke-width="0.652824" stroke-miterlimit="10" stroke-linecap="round" stroke-linejoin="round"/>
<path d="M149.134 47.502C149.933 50.319 150.073 53.1359 149.134 55.9529" stroke="#979FB5" stroke-width="0.652824" stroke-miterlimit="10" stroke-linecap="round" stroke-linejoin="round"/>
<path d="M166.627 51.1875C167.427 54.0045 167.566 56.8215 166.627 59.6385" stroke="#979FB5" stroke-width="0.652824" stroke-miterlimit="10" stroke-linecap="round" stroke-linejoin="round"/>
<path d="M146.908 76.5052V83.4608C146.908 84.2954 146.247 84.9562 145.412 84.9562H129.971C129.136 84.9562 128.476 84.2954 128.476 83.4608V76.5052C128.476 75.6705 129.136 75.0098 129.971 75.0098H145.412C146.247 75.0098 146.908 75.6705 146.908 76.5052Z" fill="#979FB5" stroke="#979FB5" stroke-width="0.652824" stroke-miterlimit="10" stroke-linecap="round" stroke-linejoin="round"/>
<path d="M133.344 79.8086C133.379 79.8086 133.414 79.8086 133.449 79.8086H141.517" stroke="#F9F9F9" stroke-width="0.652824" stroke-miterlimit="10" stroke-linecap="round" stroke-linejoin="round"/>
</svg>
