<svg width="275" height="151" viewBox="0 0 275 151" fill="none" xmlns="http://www.w3.org/2000/svg">
<rect width="274.606" height="150.02" fill="#F9F9F9"/>
<path d="M199.661 94.9995H74.1378C72.3805 94.9995 70.9998 93.5769 70.9998 91.8614V63.3256C70.9998 61.5683 72.4223 60.1875 74.1378 60.1875H199.661C201.418 60.1875 202.799 61.6101 202.799 63.3256V91.8614C202.799 93.5769 201.418 94.9995 199.661 94.9995Z" fill="#979FB5" stroke="#979FB5" stroke-width="0.785415" stroke-miterlimit="10" stroke-linecap="round" stroke-linejoin="round"/>
<path d="M202.799 58.0962V88.9333C202.799 90.607 201.46 92.0295 199.745 92.0295H74.1385C72.3811 92.0295 71.0422 90.607 71.0422 88.9333V58.0962C71.0422 56.3808 72.3811 55 74.1385 55H199.745C201.46 55 202.799 56.3808 202.799 58.0962Z" fill="#F9F9F9" stroke="#979FB5" stroke-width="0.785415" stroke-miterlimit="10" stroke-linecap="round" stroke-linejoin="round"/>
<path d="M183.3 74.6251H94.2211C93.2169 74.6251 92.3801 73.7882 92.3801 72.784V64.2902C92.3801 63.2861 93.2169 62.4492 94.2211 62.4492H183.3C184.305 62.4492 185.141 63.2861 185.141 64.2902V72.784C185.141 73.7882 184.305 74.6251 183.3 74.6251Z" fill="#979FB5" stroke="#979FB5" stroke-width="0.785415" stroke-miterlimit="10" stroke-linecap="round" stroke-linejoin="round"/>
<path d="M92.3386 80.7324H125.56" stroke="#979FB5" stroke-width="0.785415" stroke-miterlimit="10" stroke-linecap="round" stroke-linejoin="round"/>
<path d="M92.3386 86.3809H121.753" stroke="#979FB5" stroke-width="0.785415" stroke-miterlimit="10" stroke-linecap="round" stroke-linejoin="round"/>
<path d="M98.782 64.248V71.5703" stroke="#F9F9F9" stroke-width="0.785415" stroke-miterlimit="10" stroke-linecap="round" stroke-linejoin="round"/>
<path d="M104.681 66.7168V72.993" stroke="#F9F9F9" stroke-width="0.785415" stroke-miterlimit="10" stroke-linecap="round" stroke-linejoin="round"/>
<path d="M117.61 63.3691V71.6119" stroke="#F9F9F9" stroke-width="0.785415" stroke-miterlimit="10" stroke-linecap="round" stroke-linejoin="round"/>
<path d="M124.179 62.4062V67.5109" stroke="#F9F9F9" stroke-width="0.785415" stroke-miterlimit="10" stroke-linecap="round" stroke-linejoin="round"/>
<path d="M138.74 64.959V72.9925" stroke="#F9F9F9" stroke-width="0.785415" stroke-miterlimit="10" stroke-linecap="round" stroke-linejoin="round"/>
<path d="M143.761 68.5156V73.8713" stroke="#F9F9F9" stroke-width="0.785415" stroke-miterlimit="10" stroke-linecap="round" stroke-linejoin="round"/>
<path d="M157.234 63.3691V72.9927" stroke="#F9F9F9" stroke-width="0.785415" stroke-miterlimit="10" stroke-linecap="round" stroke-linejoin="round"/>
<path d="M162.631 63.3691V67.9298" stroke="#F9F9F9" stroke-width="0.785415" stroke-miterlimit="10" stroke-linecap="round" stroke-linejoin="round"/>
<path d="M173.76 65.2949V72.9937" stroke="#F9F9F9" stroke-width="0.785415" stroke-miterlimit="10" stroke-linecap="round" stroke-linejoin="round"/>
<path d="M178.363 68.9766V73.872" stroke="#F9F9F9" stroke-width="0.785415" stroke-miterlimit="10" stroke-linecap="round" stroke-linejoin="round"/>
<path d="M197.86 73.4961C197.86 73.6635 197.86 73.789 197.819 73.9564V74.1237C197.526 75.5045 196.312 76.5087 194.89 76.5087C193.425 76.5087 192.212 75.5045 191.919 74.1237C191.877 74.0819 191.919 73.9982 191.919 73.9564C191.877 73.789 191.877 73.6635 191.877 73.4961C191.877 71.8643 193.216 70.5254 194.89 70.5254C196.522 70.5254 197.86 71.8643 197.86 73.4961Z" fill="#F9F9F9" stroke="#979FB5" stroke-width="0.785415" stroke-miterlimit="10" stroke-linecap="round" stroke-linejoin="round"/>
<path d="M197.819 73.9564V74.1237C197.526 75.5045 196.313 76.5087 194.89 76.5087C193.426 76.5087 192.212 75.5045 191.919 74.1237C191.877 74.0819 191.919 73.9982 191.919 73.9564C191.961 73.789 191.961 73.6635 192.045 73.4961C192.463 74.6677 193.551 75.5045 194.89 75.5045C196.187 75.5045 197.275 74.6677 197.693 73.4961C197.735 73.6635 197.819 73.789 197.819 73.9564Z" fill="#979FB5" stroke="#979FB5" stroke-width="0.785415" stroke-miterlimit="10" stroke-linecap="round" stroke-linejoin="round"/>
<path d="M197.86 84.7911C197.86 84.9584 197.86 85.084 197.819 85.2513V85.4187C197.526 86.7994 196.312 87.8036 194.89 87.8036C193.425 87.8036 192.212 86.7994 191.919 85.4187C191.877 85.3768 191.919 85.2932 191.919 85.2513C191.877 85.084 191.877 84.9584 191.877 84.7911C191.877 83.1593 193.216 81.8203 194.89 81.8203C196.522 81.8203 197.86 83.1593 197.86 84.7911Z" fill="#F9F9F9" stroke="#979FB5" stroke-width="0.785415" stroke-miterlimit="10" stroke-linecap="round" stroke-linejoin="round"/>
<path d="M197.819 85.2513V85.4186C197.526 86.7994 196.313 87.8036 194.89 87.8036C193.426 87.8036 192.212 86.7994 191.919 85.4186C191.877 85.3768 191.919 85.2931 191.919 85.2513C191.961 85.0839 191.961 84.9584 192.045 84.791C192.463 85.9626 193.551 86.7994 194.89 86.7994C196.187 86.7994 197.275 85.9626 197.693 84.791C197.735 84.9584 197.819 85.0839 197.819 85.2513Z" fill="#979FB5" stroke="#979FB5" stroke-width="0.785415" stroke-miterlimit="10" stroke-linecap="round" stroke-linejoin="round"/>
<path d="M197.86 62.1973C197.86 62.3647 197.86 62.4902 197.819 62.6575V62.8249C197.526 64.2057 196.312 65.2099 194.89 65.2099C193.425 65.2099 192.212 64.2057 191.919 62.8249C191.877 62.7831 191.919 62.6994 191.919 62.6575C191.877 62.4902 191.877 62.3647 191.877 62.1973C191.877 60.5655 193.216 59.2266 194.89 59.2266C196.522 59.2266 197.86 60.5655 197.86 62.1973Z" fill="#F9F9F9" stroke="#979FB5" stroke-width="0.785415" stroke-miterlimit="10" stroke-linecap="round" stroke-linejoin="round"/>
<path d="M197.819 62.6575V62.8249C197.526 64.2057 196.313 65.2098 194.89 65.2098C193.426 65.2098 192.212 64.2057 191.919 62.8249C191.877 62.7831 191.919 62.6994 191.919 62.6575C191.961 62.4902 191.961 62.3646 192.045 62.1973C192.463 63.3688 193.551 64.2056 194.89 64.2056C196.187 64.2056 197.275 63.3688 197.693 62.1973C197.735 62.3646 197.819 62.4902 197.819 62.6575Z" fill="#979FB5" stroke="#979FB5" stroke-width="0.785415" stroke-miterlimit="10" stroke-linecap="round" stroke-linejoin="round"/>
</svg>
