<svg width="20" height="20" viewBox="0 0 20 20" fill="none" xmlns="http://www.w3.org/2000/svg">
<g clip-path="url(#clip0_10479_31722)">
<mask id="mask0_10479_31722" style="mask-type:luminance" maskUnits="userSpaceOnUse" x="0" y="0" width="20" height="20">
<path d="M20 0H0V20H20V0Z" fill="white"/>
</mask>
<g mask="url(#mask0_10479_31722)">
<path d="M5.52265 0.833252H11.6568L16.8494 6.25071V16.7817C16.8494 18.0989 15.7817 19.1666 14.4644 19.1666H5.52265C4.20535 19.1666 3.1377 18.0989 3.1377 16.7817V3.21821C3.1377 1.90094 4.20535 0.833252 5.52265 0.833252Z" fill="#0263D1"/>
<path opacity="0.302" fill-rule="evenodd" clip-rule="evenodd" d="M11.6533 0.833252V6.20622H16.8533L11.6533 0.833252Z" fill="white"/>
<path d="M5.3584 13.9143V10.8793H6.43349C6.6485 10.8793 6.84871 10.9115 7.03406 10.9708C7.21942 11.0326 7.38748 11.1216 7.53826 11.2401C7.68901 11.3588 7.80766 11.517 7.89415 11.7147C7.98065 11.9124 8.02514 12.1398 8.02514 12.3968C8.02514 12.6538 7.98065 12.8812 7.89415 13.0789C7.80766 13.2766 7.68901 13.4348 7.53826 13.5534C7.38751 13.6721 7.21942 13.7611 7.03406 13.8228C6.84871 13.8821 6.64852 13.9143 6.43349 13.9143H5.3584ZM6.11714 13.2544H6.34204C6.46314 13.2544 6.57683 13.2396 6.67815 13.2124C6.78195 13.1827 6.87586 13.1358 6.96483 13.074C7.0538 13.0121 7.12299 12.9232 7.17242 12.8071C7.22434 12.6934 7.24903 12.555 7.24903 12.3968C7.24903 12.2386 7.22431 12.1002 7.17242 11.9841C7.12299 11.8704 7.0538 11.7814 6.96483 11.7196C6.87586 11.6554 6.78195 11.6109 6.67815 11.5812C6.57683 11.5541 6.46314 11.5392 6.34204 11.5392H6.11714V13.2544ZM9.86632 13.9489C9.40916 13.9489 9.03099 13.8006 8.73199 13.5065C8.43291 13.2124 8.28462 12.8416 8.28462 12.3968C8.28462 11.952 8.43291 11.5812 8.73199 11.2871C9.03099 10.9931 9.40916 10.8447 9.86632 10.8447C10.3162 10.8447 10.6893 10.9931 10.9884 11.2871C11.285 11.5812 11.4332 11.952 11.4332 12.3968C11.4332 12.8416 11.285 13.2124 10.9884 13.5065C10.6893 13.8006 10.3162 13.9489 9.86632 13.9489ZM9.28307 13.0369C9.43382 13.205 9.62657 13.289 9.86141 13.289C10.0962 13.289 10.2865 13.205 10.4372 13.0369C10.588 12.8664 10.6622 12.6538 10.6622 12.3968C10.6622 12.1398 10.588 11.9272 10.4372 11.7566C10.2865 11.5886 10.0962 11.5046 9.86141 11.5046C9.62657 11.5046 9.43382 11.5886 9.28307 11.7566C9.13232 11.9272 9.05566 12.1398 9.05566 12.3968C9.05566 12.6538 9.13232 12.8664 9.28307 13.0369ZM13.2374 13.9489C12.7951 13.9489 12.4267 13.8105 12.1352 13.5386C11.8411 13.2643 11.6952 12.8837 11.6952 12.3968C11.6952 11.9124 11.8436 11.5318 12.1402 11.2575C12.4392 10.9831 12.8025 10.8447 13.2374 10.8447C13.6304 10.8447 13.9517 10.9411 14.2062 11.1363C14.4583 11.3291 14.6042 11.5861 14.6412 11.9075L13.8751 12.0631C13.843 11.8951 13.7663 11.7591 13.6477 11.6578C13.5291 11.5565 13.3907 11.5046 13.2325 11.5046C13.015 11.5046 12.8346 11.5812 12.6887 11.7369C12.5429 11.8951 12.4688 12.1126 12.4688 12.3968C12.4688 12.681 12.5429 12.8985 12.6862 13.0542C12.8321 13.2124 13.0125 13.289 13.2325 13.289C13.3907 13.289 13.5266 13.2445 13.6378 13.1556C13.749 13.0666 13.8182 12.948 13.8479 12.7996L14.6313 12.9776C14.5597 13.2841 14.4015 13.5213 14.1543 13.6918C13.9097 13.8624 13.6032 13.9489 13.2374 13.9489Z" fill="white"/>
</g>
</g>
<defs>
<clipPath id="clip0_10479_31722">
<rect width="20" height="20" fill="white"/>
</clipPath>
</defs>
</svg>
