<svg width="20" height="20" viewBox="0 0 20 20" fill="none" xmlns="http://www.w3.org/2000/svg">
<g clip-path="url(#clip0_10479_31700)">
<g clip-path="url(#clip1_10479_31700)">
<path d="M5.52656 0.833008H11.6608L16.8533 6.25047V16.7814C16.8533 18.0987 15.7856 19.1663 14.4683 19.1663H5.52656C4.20926 19.1663 3.1416 18.0987 3.1416 16.7814V3.21797C3.1416 1.90069 4.20926 0.833008 5.52656 0.833008Z" fill="#207245"/>
<path opacity="0.302" fill-rule="evenodd" clip-rule="evenodd" d="M11.6533 0.833008V6.20597H16.8533L11.6533 0.833008Z" fill="white"/>
<path d="M4 15.3021V12.0445H6.02006V12.6124H4.63383V13.3886H5.91613V13.9565H4.63383V14.7343H6.02592V15.3021H4Z" fill="white"/>
<path d="M6.91219 12.0445L7.51674 13.1548H7.54016L8.14765 12.0445H8.86345L7.94857 13.6733L8.88394 15.3021H8.15496L7.54016 14.1903H7.51674L6.90194 15.3021H6.17589L7.11419 13.6733L6.19345 12.0445H6.91219Z" fill="white"/>
<path d="M11.5627 13.185H10.9215C10.9098 13.0949 10.8859 13.0148 10.8498 12.9448C10.8137 12.8738 10.7673 12.8133 10.7107 12.7635C10.6541 12.7137 10.5887 12.6755 10.5146 12.649C10.4414 12.6225 10.3618 12.6092 10.276 12.6092C10.1208 12.6092 9.98564 12.6511 9.87048 12.7349C9.75533 12.8176 9.66604 12.9385 9.6026 13.0975C9.53917 13.2555 9.50746 13.4475 9.50746 13.6733C9.50746 13.9056 9.53917 14.1007 9.6026 14.2587C9.66701 14.4167 9.75679 14.536 9.87195 14.6166C9.9871 14.6972 10.1203 14.7375 10.2716 14.7375C10.3565 14.7375 10.435 14.7253 10.5072 14.7009C10.5804 14.6765 10.6453 14.641 10.7019 14.5943C10.7585 14.5466 10.8054 14.4888 10.8425 14.4209C10.8805 14.3531 10.9069 14.2756 10.9215 14.1887L11.5627 14.1919C11.5461 14.3414 11.5046 14.4856 11.4382 14.6245C11.3728 14.7624 11.2845 14.8859 11.1733 14.9951C11.063 15.1033 10.9313 15.1892 10.778 15.2528C10.6258 15.3154 10.4536 15.3467 10.2613 15.3467C9.99393 15.3467 9.75484 15.2809 9.54405 15.1494C9.33424 15.0179 9.16834 14.8276 9.04635 14.5784C8.92535 14.3292 8.86484 14.0275 8.86484 13.6733C8.86484 13.3181 8.92632 13.0159 9.04928 12.7667C9.17224 12.5175 9.33912 12.3277 9.54991 12.1972C9.7607 12.0657 9.99783 12 10.2613 12C10.435 12 10.596 12.0265 10.7444 12.0795C10.8937 12.1326 11.0259 12.21 11.1411 12.3118C11.2562 12.4125 11.3499 12.536 11.4221 12.6824C11.4953 12.8287 11.5422 12.9963 11.5627 13.185Z" fill="white"/>
<path d="M11.8111 15.3021V12.0445H13.8311V12.6124H12.4449V13.3886H13.7272V13.9565H12.4449V14.7343H13.837V15.3021H11.8111Z" fill="white"/>
<path d="M14.1289 15.3021V12.0445H14.7628V14.7343H16.048V15.3021H14.1289Z" fill="white"/>
</g>
</g>
<defs>
<clipPath id="clip0_10479_31700">
<rect width="20" height="20" fill="white"/>
</clipPath>
<clipPath id="clip1_10479_31700">
<rect width="20" height="20" fill="white"/>
</clipPath>
</defs>
</svg>
