<svg width="20" height="20" viewBox="0 0 20 20" fill="none" xmlns="http://www.w3.org/2000/svg">
<g clip-path="url(#clip0_6658_44315)">
<g clip-path="url(#clip1_6658_44315)">
<path fill-rule="evenodd" clip-rule="evenodd" d="M5.52734 0.833008H11.6568L16.8517 6.24781V16.7796C16.8517 18.0989 15.7843 19.1663 14.4695 19.1663H5.52734C4.208 19.1663 3.14063 18.0989 3.14063 16.7796V3.21972C3.1406 1.90039 4.20798 0.833008 5.52734 0.833008Z" fill="#4F4F4F"/>
<path opacity="0.302" fill-rule="evenodd" clip-rule="evenodd" d="M11.6523 0.833008V6.20657H16.8518L11.6523 0.833008Z" fill="white"/>
<path d="M6 15.0907V12.1816H6.70312V13.3492H7.84943V12.1816H8.55114V15.0907H7.84943V13.9217H6.70312V15.0907H6Z" fill="white"/>
<path d="M8.89885 15.0907V12.1816H10.9273V12.7526H9.60198V13.3492H10.8236V13.9217H9.60198V14.5197H10.9273V15.0907H8.89885Z" fill="white"/>
<path d="M11.9774 12.1816V15.0907H11.2743V12.1816H11.9774Z" fill="white"/>
<path d="M14.9661 13.2356H14.2559C14.2464 13.1627 14.227 13.0969 14.1976 13.0382C14.1683 12.9794 14.1294 12.9293 14.0812 12.8876C14.0329 12.8459 13.9756 12.8142 13.9093 12.7924C13.8439 12.7697 13.7715 12.7583 13.6919 12.7583C13.5508 12.7583 13.4292 12.7929 13.3269 12.862C13.2256 12.9311 13.1474 13.0311 13.0925 13.1617C13.0385 13.2924 13.0115 13.4506 13.0115 13.6362C13.0115 13.8293 13.039 13.9913 13.0939 14.122C13.1498 14.2517 13.2279 14.3497 13.3283 14.416C13.4296 14.4813 13.5494 14.514 13.6877 14.514C13.7653 14.514 13.8359 14.5041 13.8993 14.4842C13.9637 14.4643 14.0201 14.4354 14.0684 14.3975C14.1176 14.3587 14.1579 14.3118 14.1891 14.2569C14.2213 14.201 14.2436 14.1381 14.2559 14.068L14.9661 14.0722C14.9538 14.201 14.9164 14.3279 14.8539 14.4529C14.7923 14.5779 14.7076 14.692 14.5996 14.7953C14.4917 14.8975 14.36 14.979 14.2047 15.0396C14.0504 15.1002 13.8733 15.1305 13.6735 15.1305C13.4102 15.1305 13.1744 15.0727 12.9661 14.9572C12.7587 14.8407 12.5949 14.6712 12.4746 14.4487C12.3544 14.2261 12.2942 13.9553 12.2942 13.6362C12.2942 13.3161 12.3553 13.0448 12.4775 12.8222C12.5996 12.5997 12.7649 12.4307 12.9732 12.3151C13.1815 12.1996 13.415 12.1418 13.6735 12.1418C13.8496 12.1418 14.0125 12.1665 14.1621 12.2157C14.3117 12.264 14.4434 12.335 14.557 12.4288C14.6706 12.5216 14.763 12.6357 14.834 12.7711C14.905 12.9065 14.949 13.0614 14.9661 13.2356Z" fill="white"/>
</g>
</g>
<defs>
<clipPath id="clip0_6658_44315">
<rect width="20" height="20" fill="white"/>
</clipPath>
<clipPath id="clip1_6658_44315">
<rect width="20" height="20" fill="white"/>
</clipPath>
</defs>
</svg>
