<svg width="20" height="20" viewBox="0 0 20 20" fill="none" xmlns="http://www.w3.org/2000/svg">
<g clip-path="url(#clip0_6658_44292)">
<g clip-path="url(#clip1_6658_44292)">
<path fill-rule="evenodd" clip-rule="evenodd" d="M5.52734 0.833008H11.6568L16.8517 6.24781V16.7796C16.8517 18.0989 15.7843 19.1663 14.4695 19.1663H5.52734C4.208 19.1663 3.14063 18.0989 3.14063 16.7796V3.21972C3.1406 1.90039 4.20798 0.833008 5.52734 0.833008Z" fill="#ED7A82"/>
<path opacity="0.302" fill-rule="evenodd" clip-rule="evenodd" d="M11.6523 0.833008V6.20657H16.8518L11.6523 0.833008Z" fill="#AB6465"/>
<path d="M6.3324 12.0908H7.02558V14.1022C7.02464 14.2906 6.97966 14.4554 6.89064 14.5965C6.80163 14.7366 6.67852 14.8455 6.52132 14.9232C6.36507 15.0008 6.1842 15.0397 5.97871 15.0397C5.79689 15.0397 5.63164 15.0079 5.48297 14.9445C5.33524 14.881 5.21734 14.7826 5.12928 14.649C5.04216 14.5155 4.99907 14.3446 5.00002 14.1363H5.7003C5.70314 14.2111 5.71734 14.275 5.74291 14.328C5.76943 14.3801 5.80589 14.4194 5.85229 14.4459C5.89869 14.4724 5.95409 14.4857 6.01848 14.4857C6.08572 14.4857 6.14253 14.4715 6.18894 14.4431C6.23534 14.4137 6.27038 14.3706 6.29405 14.3138C6.31867 14.257 6.33145 14.1864 6.3324 14.1022V12.0908Z" fill="white"/>
<path d="M7.37366 14.9999V12.0908H8.57536C8.79316 12.0908 8.98114 12.1334 9.13928 12.2186C9.29837 12.3029 9.42101 12.4208 9.50718 12.5723C9.59335 12.7229 9.63644 12.8981 9.63644 13.0979C9.63644 13.2987 9.59241 13.4743 9.50434 13.6249C9.41722 13.7745 9.29269 13.8905 9.13076 13.9729C8.96883 14.0553 8.77659 14.0965 8.55405 14.0965H7.81258V13.5425H8.42337C8.52943 13.5425 8.61797 13.524 8.689 13.4871C8.76097 13.4502 8.81542 13.3986 8.85235 13.3323C8.88928 13.265 8.90775 13.1869 8.90775 13.0979C8.90775 13.0079 8.88928 12.9303 8.85235 12.8649C8.81542 12.7987 8.76097 12.7475 8.689 12.7115C8.61703 12.6756 8.52849 12.6576 8.42337 12.6576H8.07678V14.9999H7.37366Z" fill="white"/>
<path d="M9.8897 14.9999V12.0908H11.9181V12.6618H10.5928V13.2584H11.8144V13.8309H10.5928V14.4289H11.9181V14.9999H9.8897Z" fill="white"/>
<path d="M14.1742 13.0411C14.1581 12.9814 14.1344 12.9289 14.1032 12.8834C14.0719 12.837 14.0336 12.7977 13.9881 12.7655C13.9427 12.7333 13.8906 12.7092 13.8319 12.6931C13.7732 12.676 13.7088 12.6675 13.6387 12.6675C13.4976 12.6675 13.3754 12.7016 13.2722 12.7698C13.1699 12.838 13.0909 12.9374 13.035 13.0681C12.9791 13.1978 12.9512 13.3555 12.9512 13.5411C12.9512 13.7276 12.9782 13.8867 13.0322 14.0184C13.0861 14.15 13.1643 14.2504 13.2665 14.3195C13.3688 14.3886 13.4929 14.4232 13.6387 14.4232C13.7675 14.4232 13.8764 14.4024 13.9654 14.3607C14.0554 14.3181 14.1235 14.2579 14.1699 14.1803C14.2163 14.1026 14.2395 14.0113 14.2395 13.9061L14.3702 13.9218H13.6628V13.409H14.9171V13.7939C14.9171 14.0543 14.8617 14.2774 14.7509 14.463C14.6411 14.6486 14.4895 14.7911 14.2964 14.8905C14.1041 14.9899 13.883 15.0397 13.633 15.0397C13.3555 15.0397 13.1117 14.9795 12.9015 14.8593C12.6913 14.739 12.5274 14.5676 12.41 14.3451C12.2926 14.1216 12.2339 13.8564 12.2339 13.5496C12.2339 13.311 12.2694 13.0993 12.3404 12.9147C12.4114 12.7291 12.5104 12.5719 12.6373 12.4431C12.7651 12.3143 12.9128 12.2167 13.0805 12.1505C13.249 12.0842 13.4304 12.051 13.6245 12.051C13.7931 12.051 13.9498 12.0752 14.0947 12.1235C14.2405 12.1718 14.3693 12.2399 14.481 12.328C14.5937 12.4161 14.6851 12.5207 14.7552 12.6419C14.8252 12.7631 14.8688 12.8962 14.8859 13.0411H14.1742Z" fill="white"/>
</g>
</g>
<defs>
<clipPath id="clip0_6658_44292">
<rect width="20" height="20" fill="white"/>
</clipPath>
<clipPath id="clip1_6658_44292">
<rect width="20" height="20" fill="white"/>
</clipPath>
</defs>
</svg>
