<svg width="20" height="20" viewBox="0 0 20 20" fill="none" xmlns="http://www.w3.org/2000/svg">
<path fill-rule="evenodd" clip-rule="evenodd" d="M5.52734 0.833008H11.6568L16.8517 6.24781V16.7796C16.8517 18.0989 15.7843 19.1663 14.4695 19.1663H5.52734C4.208 19.1663 3.14063 18.0989 3.14063 16.7796V3.21972C3.1406 1.90039 4.20798 0.833008 5.52734 0.833008Z" fill="#E5252A"/>
<path opacity="0.302" fill-rule="evenodd" clip-rule="evenodd" d="M11.6523 0.833008V6.20657H16.8518L11.6523 0.833008Z" fill="white"/>
<path d="M5.79297 14.5128V11.1641H7.21768C7.57043 11.1641 7.84988 11.2602 8.0606 11.4572C8.27133 11.6496 8.37672 11.9108 8.37672 12.2361C8.37672 12.5613 8.27133 12.8224 8.0606 13.0148C7.84988 13.2118 7.57043 13.308 7.21768 13.308H6.64963V14.5128H5.79297ZM6.64963 12.5796H7.12148C7.24974 12.5796 7.35053 12.5521 7.41925 12.488C7.48796 12.4285 7.52463 12.346 7.52463 12.2361C7.52463 12.1261 7.48799 12.0436 7.41925 11.9841C7.35055 11.92 7.24976 11.8925 7.12148 11.8925H6.64963V12.5796ZM8.72939 14.5128V11.1641H9.91589C10.1496 11.1641 10.3695 11.1961 10.5756 11.2648C10.7817 11.3336 10.9696 11.4298 11.1345 11.5626C11.2994 11.6909 11.4322 11.865 11.5285 12.0849C11.6201 12.3047 11.6705 12.5567 11.6705 12.8407C11.6705 13.1201 11.6201 13.3721 11.5285 13.592C11.4322 13.8119 11.2994 13.986 11.1345 14.1142C10.9696 14.2471 10.7817 14.3433 10.5756 14.412C10.3695 14.4807 10.1496 14.5128 9.91589 14.5128H8.72939ZM9.56772 13.7844H9.81514C9.94797 13.7844 10.0716 13.7707 10.1862 13.7386C10.2961 13.7066 10.4015 13.6561 10.5023 13.5875C10.5985 13.5187 10.6764 13.4225 10.7313 13.2942C10.7863 13.166 10.8138 13.0148 10.8138 12.8407C10.8138 12.6621 10.7863 12.5109 10.7313 12.3826C10.6764 12.2544 10.5985 12.1581 10.5023 12.0895C10.4015 12.0207 10.2961 11.9703 10.1862 11.9383C10.0716 11.9062 9.94797 11.8925 9.81514 11.8925H9.56772V13.7844ZM12.1011 14.5128V11.1641H14.4832V11.8925H12.9577V12.4284H14.1763V13.1522H12.9577V14.5128H12.1011Z" fill="white"/>
</svg>
