<svg width="20" height="20" viewBox="0 0 20 20" fill="none" xmlns="http://www.w3.org/2000/svg">
<g clip-path="url(#clip0_6658_44305)">
<g clip-path="url(#clip1_6658_44305)">
<path fill-rule="evenodd" clip-rule="evenodd" d="M5.52734 0.833008H11.6568L16.8517 6.24781V16.7796C16.8517 18.0989 15.7843 19.1663 14.4695 19.1663H5.52734C4.208 19.1663 3.14063 18.0989 3.14063 16.7796V3.21972C3.1406 1.90039 4.20798 0.833008 5.52734 0.833008Z" fill="#F1C40E"/>
<path opacity="0.302" fill-rule="evenodd" clip-rule="evenodd" d="M11.6523 0.833008V6.20657H16.8518L11.6523 0.833008Z" fill="white"/>
<path d="M6 14.5453V11.6362H7.2017C7.41951 11.6362 7.60748 11.6788 7.76562 11.764C7.92472 11.8483 8.04735 11.9662 8.13352 12.1177C8.2197 12.2683 8.26278 12.4435 8.26278 12.6433C8.26278 12.8441 8.21875 13.0197 8.13068 13.1703C8.04356 13.3199 7.91903 13.4359 7.7571 13.5183C7.59517 13.6007 7.40294 13.6419 7.1804 13.6419H6.43892V13.0879H7.04972C7.15578 13.0879 7.24432 13.0694 7.31534 13.0325C7.38731 12.9956 7.44176 12.944 7.47869 12.8777C7.51562 12.8105 7.53409 12.7323 7.53409 12.6433C7.53409 12.5533 7.51562 12.4757 7.47869 12.4104C7.44176 12.3441 7.38731 12.2929 7.31534 12.2569C7.24337 12.221 7.15483 12.203 7.04972 12.203H6.70312V14.5453H6Z" fill="white"/>
<path d="M10.9919 11.6362V14.5453H10.3953L9.23763 12.8663H9.21917V14.5453H8.51604V11.6362H9.12116L10.266 13.3123H10.2902V11.6362H10.9919Z" fill="white"/>
<path d="M13.2498 12.5865C13.2337 12.5268 13.21 12.4743 13.1787 12.4288C13.1475 12.3824 13.1091 12.3431 13.0637 12.3109C13.0182 12.2787 12.9662 12.2546 12.9074 12.2385C12.8487 12.2214 12.7843 12.2129 12.7143 12.2129C12.5732 12.2129 12.451 12.247 12.3478 12.3152C12.2455 12.3834 12.1664 12.4828 12.1106 12.6135C12.0547 12.7432 12.0268 12.9009 12.0268 13.0865C12.0268 13.273 12.0537 13.4321 12.1077 13.5638C12.1617 13.6954 12.2398 13.7958 12.3421 13.8649C12.4444 13.934 12.5684 13.9686 12.7143 13.9686C12.843 13.9686 12.9519 13.9478 13.041 13.9061C13.1309 13.8635 13.1991 13.8033 13.2455 13.7257C13.2919 13.648 13.3151 13.5567 13.3151 13.4515L13.4458 13.4672H12.7384V12.9544H13.9927V13.3393C13.9927 13.5998 13.9373 13.8228 13.8265 14.0084C13.7166 14.194 13.5651 14.3365 13.3719 14.4359C13.1797 14.5354 12.9586 14.5851 12.7086 14.5851C12.4311 14.5851 12.1873 14.5249 11.977 14.4047C11.7668 14.2844 11.603 14.113 11.4856 13.8905C11.3681 13.667 11.3094 13.4018 11.3094 13.095C11.3094 12.8564 11.3449 12.6447 11.416 12.4601C11.487 12.2745 11.5859 12.1173 11.7128 11.9885C11.8407 11.8597 11.9884 11.7622 12.156 11.6959C12.3246 11.6296 12.5059 11.5964 12.7001 11.5964C12.8686 11.5964 13.0253 11.6206 13.1702 11.6689C13.3161 11.7172 13.4448 11.7854 13.5566 11.8734C13.6693 11.9615 13.7607 12.0661 13.8307 12.1873C13.9008 12.3086 13.9444 12.4416 13.9614 12.5865H13.2498Z" fill="white"/>
</g>
</g>
<defs>
<clipPath id="clip0_6658_44305">
<rect width="20" height="20" fill="white"/>
</clipPath>
<clipPath id="clip1_6658_44305">
<rect width="20" height="20" fill="white"/>
</clipPath>
</defs>
</svg>
