<svg width="30" height="30" viewBox="0 0 30 30" fill="none" xmlns="http://www.w3.org/2000/svg">
<g clip-path="url(#clip0_9465_20652)">
<g clip-path="url(#clip1_9465_20652)">
<path d="M8.28911 1.25H17.4904L25.2793 9.37619V25.1726C25.2793 27.1485 23.6776 28.75 21.7018 28.75H8.28911C6.31316 28.75 4.71167 27.1485 4.71167 25.1726V4.82744C4.71167 2.85152 6.31316 1.25 8.28911 1.25Z" fill="#3366E8"/>
<path opacity="0.302" fill-rule="evenodd" clip-rule="evenodd" d="M17.4807 1.25V9.30945H25.2807L17.4807 1.25Z" fill="white"/>
<path d="M10.0051 23.02V22.39L12.6015 18.8751H10V18H13.9836V18.63L11.3846 22.1449H13.9887V23.02H10.0051Z" fill="white"/>
<path d="M15.5751 18V23.02H14.4751V18H15.5751Z" fill="white"/>
<path d="M16.1225 23.02V18H18.1752C18.5699 18 18.9061 18.0727 19.1838 18.2182C19.4616 18.362 19.6733 18.5621 19.819 18.8187C19.9663 19.0736 20.04 19.3678 20.04 19.7011C20.04 20.0345 19.9655 20.3286 19.8164 20.5835C19.6674 20.8385 19.4514 21.037 19.1686 21.1792C18.8874 21.3213 18.547 21.3924 18.1473 21.3924H16.8389V20.5419H17.9695C18.1812 20.5419 18.3556 20.5067 18.4928 20.4365C18.6317 20.3646 18.735 20.2657 18.8028 20.1399C18.8722 20.0124 18.9069 19.8662 18.9069 19.7011C18.9069 19.5344 18.8722 19.389 18.8028 19.2648C18.735 19.139 18.6317 19.0417 18.4928 18.9731C18.3539 18.9028 18.1778 18.8677 17.9644 18.8677H17.2225V23.02H16.1225Z" fill="white"/>
</g>
</g>
<defs>
<clipPath id="clip0_9465_20652">
<rect width="30" height="30" fill="white"/>
</clipPath>
<clipPath id="clip1_9465_20652">
<rect width="30" height="30" fill="white"/>
</clipPath>
</defs>
</svg>
