<svg width="14" height="14" viewBox="0 0 14 14" fill="none" xmlns="http://www.w3.org/2000/svg">
<path d="M12.25 3.48796C10.3075 3.29546 8.35333 3.19629 6.405 3.19629C5.25 3.19629 4.095 3.25462 2.94 3.37129L1.75 3.48796" stroke="black" stroke-linecap="round" stroke-linejoin="round"/>
<path d="M4.95898 2.89949L5.08732 2.13533C5.18065 1.58116 5.25065 1.16699 6.23648 1.16699H7.76482C8.75065 1.16699 8.82648 1.60449 8.91398 2.14116L9.04232 2.89949" stroke="black" stroke-linecap="round" stroke-linejoin="round"/>
<path d="M10.9956 5.33203L10.6164 11.2062C10.5522 12.122 10.4997 12.8337 8.87224 12.8337H5.12724C3.49974 12.8337 3.44724 12.122 3.38307 11.2062L3.00391 5.33203" stroke="black" stroke-linecap="round" stroke-linejoin="round"/>
<path d="M6.02539 9.625H7.96789" stroke="black" stroke-linecap="round" stroke-linejoin="round"/>
<path d="M5.54102 7.29199H8.45768" stroke="black" stroke-linecap="round" stroke-linejoin="round"/>
</svg>
