<svg width="10" height="10" viewBox="0 0 10 10" fill="none" xmlns="http://www.w3.org/2000/svg">
<g clip-path="url(#clip0_62_59)">
<path d="M8.66667 5.33333H0.666667C0.266667 5.33333 0 5.06667 0 4.66667C0 4.26667 0.266667 4 0.666667 4H8.66667C9.06667 4 9.33333 4.26667 9.33333 4.66667C9.33333 5.06667 9.06667 5.33333 8.66667 5.33333Z" fill="black"/>
<path d="M4.66667 9.33333C4.26667 9.33333 4 9.06667 4 8.66667V0.666667C4 0.266667 4.26667 0 4.66667 0C5.06667 0 5.33333 0.266667 5.33333 0.666667V8.66667C5.33333 9.06667 5.06667 9.33333 4.66667 9.33333Z" fill="black"/>
</g>
<defs>
<clipPath id="clip0_62_59">
<rect width="10" height="10" fill="white"/>
</clipPath>
</defs>
</svg>
