<svg width="14" height="12" viewBox="0 0 14 12" fill="none" xmlns="http://www.w3.org/2000/svg">
<g opacity="0.8">
<path d="M11.666 2.64585H11.2227C11.0868 2.64749 10.9533 2.61053 10.8377 2.53928C10.722 2.46803 10.629 2.36541 10.5693 2.24335L10.0443 1.19918C9.91217 0.931853 9.70759 0.707007 9.45389 0.550249C9.20019 0.393491 8.90757 0.311121 8.60935 0.312517H5.38935C5.09113 0.311121 4.79851 0.393491 4.54481 0.550249C4.29111 0.707007 4.08652 0.931853 3.95435 1.19918L3.42935 2.24335C3.36972 2.36541 3.27667 2.46803 3.16101 2.53928C3.04535 2.61053 2.91185 2.64749 2.77601 2.64585H2.33268C1.90723 2.64585 1.4992 2.81486 1.19836 3.1157C0.897526 3.41654 0.728516 3.82457 0.728516 4.25002V10.0834C0.728516 10.5088 0.897526 10.9168 1.19836 11.2177C1.4992 11.5185 1.90723 11.6875 2.33268 11.6875H11.666C12.0915 11.6875 12.4995 11.5185 12.8003 11.2177C13.1012 10.9168 13.2702 10.5088 13.2702 10.0834V4.25002C13.2702 3.82457 13.1012 3.41654 12.8003 3.1157C12.4995 2.81486 12.0915 2.64585 11.666 2.64585ZM6.99935 9.64585C6.39364 9.64585 5.80154 9.46624 5.29791 9.12973C4.79429 8.79321 4.40176 8.31492 4.16997 7.75532C3.93817 7.19572 3.87753 6.57995 3.99569 5.98589C4.11386 5.39182 4.40553 4.84613 4.83383 4.41784C5.26213 3.98954 5.80782 3.69786 6.40188 3.5797C6.99595 3.46153 7.61172 3.52218 8.17131 3.75397C8.73091 3.98576 9.20921 4.37829 9.54572 4.88192C9.88223 5.38554 10.0618 5.97765 10.0618 6.58335C10.0603 7.3951 9.73716 8.17317 9.16316 8.74716C8.58916 9.32116 7.8111 9.64431 6.99935 9.64585Z" fill="white"/>
<path d="M7 8.77087C8.20812 8.77087 9.1875 7.7915 9.1875 6.58337C9.1875 5.37525 8.20812 4.39587 7 4.39587C5.79188 4.39587 4.8125 5.37525 4.8125 6.58337C4.8125 7.7915 5.79188 8.77087 7 8.77087Z" fill="white"/>
</g>
</svg>
