<svg width="24" height="24" viewBox="0 0 24 24" fill="none" xmlns="http://www.w3.org/2000/svg">
<g clip-path="url(#clip0_1090_21463)">
<g clip-path="url(#clip1_1090_21463)">
<mask id="mask0_1090_21463" style="mask-type:luminance" maskUnits="userSpaceOnUse" x="1" y="1" width="22" height="22">
<path d="M22.583 1H1.41016V23H22.583V1Z" fill="white"/>
</mask>
<g mask="url(#mask0_1090_21463)">
<path d="M8.36655 5.85788L8.09073 6.0409C5.81738 7.5278 4.61954 9.64359 4.59217 12.3526C4.55694 15.8172 6.99809 18.8307 10.375 19.606C14.734 20.6069 19.048 17.4469 19.3986 12.9963C19.6759 9.47611 17.2957 6.31367 13.9373 5.22046C13.4309 4.65582 12.971 2.75813 13.7714 1.89376C17.0719 2.6272 19.5464 4.31251 21.1418 7.02684C24.6302 12.9618 21.4942 20.698 14.8681 22.5458C8.71293 24.2623 2.48506 20.2047 1.56454 13.8784C0.543039 7.97962 4.70804 2.73207 10.5844 1.8501C9.21346 3.08995 8.48003 4.79262 8.36655 5.85788Z" fill="#494949"/>
<path d="M16.2621 10.88C16.7367 9.99571 16.7152 9.07081 16.4457 8.13507C16.3795 7.90481 16.2416 7.50998 16.1486 7.25185C17.7351 8.42429 19.09 11.2434 18.4013 14.045C17.7633 16.6407 15.2755 18.7314 12.7092 18.9732C9.40421 19.2844 6.83452 17.304 5.86736 14.8964C4.83601 12.3296 5.66191 9.17278 7.43448 7.60112C6.56713 9.34738 6.8356 10.7336 7.19 11.2509C7.58393 11.8259 8.21109 12.124 8.8232 11.9537C9.46665 11.7748 9.96032 11.199 9.94916 10.465C9.94172 9.97495 9.85429 9.42223 9.66101 8.98066C8.51412 6.36077 9.47012 3.99802 11.32 2.37086C11.857 1.8986 12.4812 1.44537 13.2759 1C12.4027 2.23985 12.2544 3.75048 12.9178 5.15624C13.3069 5.92226 13.8053 6.72228 14.2451 7.46134C15.0355 8.78969 15.5203 10.1554 15.3104 11.7399C15.308 11.7574 15.9391 11.4954 16.2621 10.88Z" fill="#FB3239"/>
</g>
</g>
</g>
<defs>
<clipPath id="clip0_1090_21463">
<rect width="24" height="24" fill="white"/>
</clipPath>
<clipPath id="clip1_1090_21463">
<rect width="24" height="24" fill="white"/>
</clipPath>
</defs>
</svg>
