<svg width="24" height="24" viewBox="0 0 24 24" fill="none" xmlns="http://www.w3.org/2000/svg">
<mask id="mask0_1090_21443" style="mask-type:luminance" maskUnits="userSpaceOnUse" x="1" y="1" width="22" height="22">
<path d="M22.3862 1H1.60938V23H22.3862V1Z" fill="white"/>
</mask>
<g mask="url(#mask0_1090_21443)">
<path d="M22.1309 11.3916L12.7766 2.03727L11.8702 1.13086L4.82855 8.17256L1.60854 11.3916C1.4477 11.5533 1.35742 11.7721 1.35742 12.0001C1.35742 12.2282 1.4477 12.4469 1.60854 12.6086L8.04176 19.0418L11.8702 22.8693L18.9109 15.8276L19.0206 15.7189L22.1309 12.6134C22.2116 12.5334 22.2755 12.4383 22.3192 12.3334C22.3628 12.2286 22.3853 12.1161 22.3853 12.0025C22.3853 11.889 22.3628 11.7765 22.3192 11.6717C22.2755 11.5668 22.2116 11.4716 22.1309 11.3916ZM11.8702 15.2143L8.65606 12.0001L11.8702 8.78589L15.0834 12.0001L11.8702 15.2143Z" fill="#2684FF"/>
<path d="M11.8707 8.78606C10.8598 7.77544 10.29 6.40585 10.2856 4.97645C10.2813 3.54705 10.8427 2.17401 11.8474 1.15723L4.81445 8.18729L8.64197 12.0148L11.8707 8.78606Z" fill="url(#paint0_linear_1090_21443)"/>
<path d="M15.093 11.9912L11.8711 15.2141C12.8858 16.229 13.4558 17.6055 13.4558 19.0406C13.4558 20.4758 12.8858 21.8522 11.8711 22.8672L18.9235 15.8187L15.093 11.9912Z" fill="url(#paint1_linear_1090_21443)"/>
</g>
<defs>
<linearGradient id="paint0_linear_1090_21443" x1="11.2952" y1="5.53403" x2="6.80682" y2="10.0214" gradientUnits="userSpaceOnUse">
<stop offset="0.18" stop-color="#0052CC"/>
<stop offset="1" stop-color="#2684FF"/>
</linearGradient>
<linearGradient id="paint1_linear_1090_21443" x1="12.4844" y1="18.4273" x2="16.9641" y2="13.9486" gradientUnits="userSpaceOnUse">
<stop offset="0.18" stop-color="#0052CC"/>
<stop offset="1" stop-color="#2684FF"/>
</linearGradient>
</defs>
</svg>
