<svg width="16" height="16" viewBox="0 0 16 16" fill="none" xmlns="http://www.w3.org/2000/svg">
<path d="M7.775 1.25H2.75C2.35218 1.25 1.97064 1.40804 1.68934 1.68934C1.40804 1.97064 1.25 2.35218 1.25 2.75V14.75L4.25 11.75H13.25C13.6478 11.75 14.0294 11.592 14.3107 11.3107C14.592 11.0294 14.75 10.6478 14.75 10.25V8.225" stroke="#6D7792" stroke-width="1.5" stroke-linecap="round" stroke-linejoin="round"/>
<path d="M12.5 5.75C13.7426 5.75 14.75 4.74264 14.75 3.5C14.75 2.25736 13.7426 1.25 12.5 1.25C11.2574 1.25 10.25 2.25736 10.25 3.5C10.25 4.74264 11.2574 5.75 12.5 5.75Z" stroke="#6D7792" stroke-width="1.5" stroke-linecap="round" stroke-linejoin="round"/>
</svg>
