<svg width="16" height="16" viewBox="0 0 16 16" fill="none" xmlns="http://www.w3.org/2000/svg">
<path d="M7.06533 11.3335C6.9776 11.334 6.89062 11.3172 6.8094 11.284C6.72817 11.2508 6.65429 11.202 6.592 11.1402L3.532 8.05351C3.40647 7.92797 3.33594 7.75771 3.33594 7.58018C3.33594 7.40264 3.40647 7.23238 3.532 7.10684C3.65754 6.98131 3.8278 6.91078 4.00533 6.91078C4.18287 6.91078 4.35313 6.98131 4.47867 7.10684L7.06533 9.70018L11.512 5.24684C11.6376 5.12131 11.8078 5.05078 11.9854 5.05078C12.1629 5.05078 12.3332 5.12131 12.4587 5.24684C12.5842 5.37238 12.6548 5.54264 12.6548 5.72018C12.6548 5.89771 12.5842 6.06797 12.4587 6.19351L7.53867 11.1135C7.41515 11.2451 7.24558 11.3239 7.06533 11.3335Z" fill="#15191E"/>
</svg>
