<svg width="20" height="20" viewBox="0 0 20 20" fill="none" xmlns="http://www.w3.org/2000/svg">
<g clip-path="url(#clip0_1090_21586)">
<g clip-path="url(#clip1_1090_21586)">
<path fill-rule="evenodd" clip-rule="evenodd" d="M5.52929 0.833496H11.6587L16.8536 6.2483V16.7801C16.8536 18.0994 15.7862 19.1668 14.4715 19.1668H5.52929C4.20995 19.1668 3.14258 18.0994 3.14258 16.7801V3.22021C3.14255 1.90088 4.20994 0.833496 5.52929 0.833496Z" fill="#E5252A"/>
<path opacity="0.302" fill-rule="evenodd" clip-rule="evenodd" d="M11.6543 0.833496V6.20706H16.8538L11.6543 0.833496Z" fill="white"/>
<path d="M5.79492 14.5123V11.1636H7.21963C7.57238 11.1636 7.85183 11.2597 8.06256 11.4567C8.27328 11.6492 8.37867 11.9103 8.37867 12.2356C8.37867 12.5608 8.27328 12.8219 8.06256 13.0143C7.85183 13.2113 7.57238 13.3075 7.21963 13.3075H6.65158V14.5123H5.79492ZM6.65158 12.5792H7.12343C7.2517 12.5792 7.35248 12.5517 7.42121 12.4875C7.48991 12.428 7.52658 12.3455 7.52658 12.2356C7.52658 12.1257 7.48994 12.0432 7.42121 11.9836C7.35251 11.9195 7.25171 11.892 7.12343 11.892H6.65158V12.5792ZM8.73134 14.5123V11.1636H9.91784C10.1515 11.1636 10.3714 11.1957 10.5775 11.2643C10.7837 11.3331 10.9715 11.4293 11.1364 11.5622C11.3013 11.6904 11.4342 11.8645 11.5304 12.0844C11.622 12.3042 11.6724 12.5562 11.6724 12.8402C11.6724 13.1197 11.622 13.3717 11.5304 13.5915C11.4342 13.8114 11.3013 13.9855 11.1364 14.1137C10.9715 14.2466 10.7837 14.3428 10.5775 14.4115C10.3714 14.4802 10.1515 14.5123 9.91784 14.5123H8.73134ZM9.56967 13.7839H9.81709C9.94992 13.7839 10.0736 13.7702 10.1882 13.7382C10.2981 13.7061 10.4034 13.6557 10.5043 13.587C10.6004 13.5182 10.6783 13.422 10.7333 13.2937C10.7883 13.1655 10.8158 13.0143 10.8158 12.8402C10.8158 12.6616 10.7883 12.5104 10.7333 12.3822C10.6783 12.2539 10.6004 12.1577 10.5043 12.089C10.4034 12.0202 10.2981 11.9698 10.1882 11.9378C10.0736 11.9057 9.94992 11.892 9.81709 11.892H9.56967V13.7839ZM12.103 14.5123V11.1636H14.4852V11.892H12.9597V12.4279H14.1783V13.1517H12.9597V14.5123H12.103Z" fill="white"/>
</g>
</g>
<defs>
<clipPath id="clip0_1090_21586">
<rect width="20" height="20" fill="white"/>
</clipPath>
<clipPath id="clip1_1090_21586">
<rect width="20" height="20" fill="white"/>
</clipPath>
</defs>
</svg>
