<svg width="12" height="12" viewBox="0 0 12 12" fill="none" xmlns="http://www.w3.org/2000/svg">
<g clip-path="url(#clip0_256_95)">
<path d="M10.9997 10.9301C10.8123 11.1163 10.5589 11.2209 10.2947 11.2209C10.0305 11.2209 9.77707 11.1163 9.5897 10.9301L1.0497 2.49009C0.955976 2.39713 0.881582 2.28653 0.830813 2.16467C0.780044 2.04281 0.753906 1.9121 0.753906 1.78009C0.753906 1.64808 0.780044 1.51737 0.830813 1.39551C0.881582 1.27365 0.955976 1.16305 1.0497 1.07009C1.23707 0.883839 1.49052 0.779297 1.7547 0.779297C2.01889 0.779297 2.27234 0.883839 2.4597 1.07009L10.9997 9.51009C11.0934 9.60305 11.1678 9.71365 11.2186 9.83551C11.2694 9.95737 11.2955 10.0881 11.2955 10.2201C11.2955 10.3521 11.2694 10.4828 11.2186 10.6047C11.1678 10.7265 11.0934 10.8371 10.9997 10.9301Z" fill="white"/>
<path d="M2.45845 11.0007C2.2675 11.1943 2.00745 11.3041 1.73553 11.306C1.4636 11.3078 1.20206 11.2016 1.00845 11.0107C0.814846 10.8197 0.705025 10.5597 0.703149 10.2877C0.701274 10.0158 0.807498 9.75425 0.998454 9.56064L9.53845 1.00064C9.72941 0.807034 9.98945 0.697212 10.2614 0.695337C10.5333 0.693461 10.7948 0.799686 10.9885 0.990641C11.1821 1.1816 11.2919 1.44164 11.2938 1.71357C11.2956 1.9855 11.1894 2.24704 10.9985 2.44064L2.45845 11.0007Z" fill="white"/>
</g>
<defs>
<clipPath id="clip0_256_95">
<rect width="12" height="12" fill="white"/>
</clipPath>
</defs>
</svg>
