<svg width="12" height="12" viewBox="0 0 12 12" fill="none" xmlns="http://www.w3.org/2000/svg">
<path d="M10.9997 10.9301C10.8123 11.1163 10.5589 11.2209 10.2947 11.2209C10.0305 11.2209 9.77707 11.1163 9.5897 10.9301L1.0497 2.49009C0.955976 2.39713 0.881582 2.28653 0.830813 2.16467C0.780044 2.04281 0.753906 1.9121 0.753906 1.78009C0.753906 1.64808 0.780044 1.51737 0.830813 1.39551C0.881582 1.27365 0.955976 1.16305 1.0497 1.07009C1.23707 0.883839 1.49052 0.779297 1.7547 0.779297C2.01889 0.779297 2.27234 0.883839 2.4597 1.07009L10.9997 9.51009C11.0934 9.60305 11.1678 9.71365 11.2186 9.83551C11.2694 9.95737 11.2955 10.0881 11.2955 10.2201C11.2955 10.3521 11.2694 10.4828 11.2186 10.6047C11.1678 10.7265 11.0934 10.8371 10.9997 10.9301Z" fill="#A1A5B7"/>
<path d="M2.45845 11.0002C2.2675 11.1938 2.00745 11.3036 1.73553 11.3055C1.4636 11.3073 1.20206 11.2011 1.00845 11.0102C0.814846 10.8192 0.705025 10.5592 0.703149 10.2872C0.701274 10.0153 0.807498 9.75376 0.998454 9.56015L9.53845 1.00015C9.72941 0.806546 9.98945 0.696724 10.2614 0.694849C10.5333 0.692973 10.7948 0.799198 10.9885 0.990153C11.1821 1.18111 11.2919 1.44115 11.2938 1.71308C11.2956 1.98501 11.1894 2.24655 10.9985 2.44015L2.45845 11.0002Z" fill="#A1A5B7"/>
</svg>
