<svg width="17" height="17" viewBox="0 0 17 17" fill="none" xmlns="http://www.w3.org/2000/svg">
<path d="M6.53542 7.84693C6.46875 7.84026 6.38875 7.84026 6.31542 7.84693C4.72875 7.79359 3.46875 6.49359 3.46875 4.89359C3.46875 3.26026 4.78875 1.93359 6.42875 1.93359C8.06208 1.93359 9.38875 3.26026 9.38875 4.89359C9.38208 6.49359 8.12208 7.79359 6.53542 7.84693Z" stroke="#6B7080" stroke-linecap="round" stroke-linejoin="round"/>
<path d="M11.3686 3.26758C12.662 3.26758 13.702 4.31424 13.702 5.60091C13.702 6.86091 12.702 7.88758 11.4553 7.93424C11.402 7.92758 11.342 7.92758 11.282 7.93424" stroke="#6B7080" stroke-linecap="round" stroke-linejoin="round"/>
<path d="M3.20194 10.3076C1.58861 11.3876 1.58861 13.1476 3.20194 14.2209C5.03528 15.4476 8.04194 15.4476 9.87528 14.2209C11.4886 13.1409 11.4886 11.3809 9.87528 10.3076C8.04861 9.08758 5.04194 9.08758 3.20194 10.3076Z" stroke="#6B7080" stroke-linecap="round" stroke-linejoin="round"/>
<path d="M12.6555 13.9336C13.1355 13.8336 13.5889 13.6403 13.9622 13.3536C15.0022 12.5736 15.0022 11.2869 13.9622 10.5069C13.5955 10.2269 13.1489 10.0403 12.6755 9.93359" stroke="#6B7080" stroke-linecap="round" stroke-linejoin="round"/>
</svg>
