<svg width="16" height="16" viewBox="0 0 16 16" fill="none" xmlns="http://www.w3.org/2000/svg">
<g opacity="0.6">
<path d="M10.666 6.6665H11.9993" stroke="black" stroke-width="1.33333" stroke-linecap="round" stroke-linejoin="round"/>
<path d="M10.666 9.3335H11.9993" stroke="black" stroke-width="1.33333" stroke-linecap="round" stroke-linejoin="round"/>
<path d="M4.11328 9.99988C4.25071 9.60922 4.50602 9.27086 4.84396 9.03149C5.18191 8.79213 5.58582 8.66357 5.99995 8.66357C6.41408 8.66357 6.81799 8.79213 7.15594 9.03149C7.49388 9.27086 7.74919 9.60922 7.88661 9.99988" stroke="black" stroke-width="1.33333" stroke-linecap="round" stroke-linejoin="round"/>
<path d="M5.99935 8.66667C6.73573 8.66667 7.33268 8.06971 7.33268 7.33333C7.33268 6.59695 6.73573 6 5.99935 6C5.26297 6 4.66602 6.59695 4.66602 7.33333C4.66602 8.06971 5.26297 8.66667 5.99935 8.66667Z" stroke="black" stroke-width="1.33333" stroke-linecap="round" stroke-linejoin="round"/>
<path d="M13.334 3.3335H2.66732C1.93094 3.3335 1.33398 3.93045 1.33398 4.66683V11.3335C1.33398 12.0699 1.93094 12.6668 2.66732 12.6668H13.334C14.0704 12.6668 14.6673 12.0699 14.6673 11.3335V4.66683C14.6673 3.93045 14.0704 3.3335 13.334 3.3335Z" stroke="black" stroke-width="1.33333" stroke-linecap="round" stroke-linejoin="round"/>
</g>
</svg>
