<svg width="16" height="16" viewBox="0 0 16 16" fill="none" xmlns="http://www.w3.org/2000/svg">
<path d="M6.10668 7.24666C6.04001 7.24 5.96001 7.24 5.88668 7.24666C4.30001 7.19333 3.04001 5.89333 3.04001 4.29333C3.04001 2.65999 4.36001 1.33333 6.00001 1.33333C7.63334 1.33333 8.96001 2.65999 8.96001 4.29333C8.95334 5.89333 7.69334 7.19333 6.10668 7.24666Z" stroke="white" stroke-linecap="round" stroke-linejoin="round"/>
<path d="M10.94 2.66667C12.2333 2.66667 13.2733 3.71334 13.2733 5C13.2733 6.26 12.2733 7.28667 11.0267 7.33334C10.9733 7.32667 10.9133 7.32667 10.8533 7.33334" stroke="white" stroke-linecap="round" stroke-linejoin="round"/>
<path d="M2.77332 9.70667C1.15999 10.7867 1.15999 12.5467 2.77332 13.62C4.60666 14.8467 7.61332 14.8467 9.44666 13.62C11.06 12.54 11.06 10.78 9.44666 9.70667C7.61999 8.48667 4.61332 8.48667 2.77332 9.70667Z" stroke="white" stroke-linecap="round" stroke-linejoin="round"/>
<path d="M12.2267 13.3333C12.7067 13.2333 13.16 13.04 13.5333 12.7533C14.5733 11.9733 14.5733 10.6867 13.5333 9.90666C13.1667 9.62666 12.72 9.43999 12.2467 9.33333" stroke="white" stroke-linecap="round" stroke-linejoin="round"/>
</svg>
