<svg width="17" height="16" viewBox="0 0 17 16" fill="none" xmlns="http://www.w3.org/2000/svg">
<path d="M12.668 11.5312C13.1055 11.0104 13.444 10.4245 13.6836 9.77344C13.9232 9.1224 14.043 8.4375 14.043 7.71875C14.043 6.88542 13.8867 6.10417 13.5742 5.375C13.2617 4.64583 12.8346 4.01042 12.293 3.46875C11.7513 2.92708 11.1159 2.5 10.3867 2.1875C9.65755 1.875 8.8763 1.71875 8.04297 1.71875C7.22005 1.71875 6.44401 1.875 5.71484 2.1875C4.98568 2.5 4.35026 2.92708 3.80859 3.46875C3.26693 4.01042 2.83464 4.64583 2.51172 5.375C2.19922 6.10417 2.04297 6.88542 2.04297 7.71875C2.04297 8.54167 2.19922 9.31771 2.51172 10.0469C2.83464 10.776 3.26693 11.4115 3.80859 11.9531C4.35026 12.4948 4.98568 12.9219 5.71484 13.2344C6.44401 13.5573 7.22005 13.7188 8.04297 13.7188C8.77214 13.7188 9.46224 13.5964 10.1133 13.3516C10.7643 13.1068 11.3503 12.7708 11.8711 12.3438L14.3086 14.7812C14.4232 14.8958 14.5586 14.9531 14.7148 14.9531C14.8711 14.9531 15.0065 14.8958 15.1211 14.7812C15.2253 14.6667 15.2773 14.5312 15.2773 14.375C15.2773 14.2188 15.2253 14.0885 15.1211 13.9844L12.668 11.5312ZM8.04297 12.5938C7.3763 12.5938 6.74609 12.4688 6.15234 12.2188C5.55859 11.9583 5.04036 11.6068 4.59766 11.1641C4.15495 10.7214 3.80339 10.2031 3.54297 9.60938C3.28255 9.01562 3.15234 8.38542 3.15234 7.71875C3.15234 7.04167 3.28255 6.40625 3.54297 5.8125C3.80339 5.21875 4.15495 4.70052 4.59766 4.25781C5.04036 3.8151 5.55859 3.46354 6.15234 3.20312C6.74609 2.95312 7.3763 2.82812 8.04297 2.82812C8.72005 2.82812 9.35547 2.95312 9.94922 3.20312C10.543 3.46354 11.0612 3.8151 11.5039 4.25781C11.9466 4.70052 12.2982 5.21875 12.5586 5.8125C12.8086 6.40625 12.9336 7.04167 12.9336 7.71875C12.9336 8.38542 12.8086 9.01562 12.5586 9.60938C12.2982 10.2031 11.9466 10.7214 11.5039 11.1641C11.0612 11.6068 10.543 11.9583 9.94922 12.2188C9.35547 12.4688 8.72005 12.5938 8.04297 12.5938Z" fill="#BBBDC5"/>
</svg>
