<svg width="24" height="24" viewBox="0 0 24 24" fill="none" xmlns="http://www.w3.org/2000/svg">
<path opacity="0.3" d="M22 14.42V18.42C22 18.9505 21.7893 19.4592 21.4142 19.8343C21.0391 20.2093 20.5304 20.42 20 20.42C20 20.6853 19.8946 20.9396 19.7071 21.1272C19.5196 21.3147 19.2652 21.42 19 21.42C18.7348 21.42 18.4804 21.3147 18.2929 21.1272C18.1054 20.9396 18 20.6853 18 20.42H6C6 20.6853 5.89464 20.9396 5.70711 21.1272C5.51957 21.3147 5.26522 21.42 5 21.42C4.73478 21.42 4.48043 21.3147 4.29289 21.1272C4.10536 20.9396 4 20.6853 4 20.42C3.46957 20.42 2.96086 20.2093 2.58579 19.8343C2.21071 19.4592 2 18.9505 2 18.42V14.42C2 13.8896 2.21071 13.3809 2.58579 13.0058C2.96086 12.6308 3.46957 12.42 4 12.42H20C20.5304 12.42 21.0391 12.6308 21.4142 13.0058C21.7893 13.3809 22 13.8896 22 14.42ZM6 15.42C5.80222 15.42 5.60888 15.4787 5.44443 15.5886C5.27998 15.6985 5.15181 15.8546 5.07612 16.0374C5.00043 16.2201 4.98063 16.4212 5.01921 16.6151C5.0578 16.8091 5.15304 16.9873 5.29289 17.1272C5.43275 17.267 5.61093 17.3622 5.80491 17.4008C5.99889 17.4394 6.19996 17.4196 6.38268 17.3439C6.56541 17.2682 6.72159 17.1401 6.83147 16.9756C6.94135 16.8112 7 16.6178 7 16.42C7 16.1548 6.89464 15.9005 6.70711 15.7129C6.51957 15.5254 6.26522 15.42 6 15.42ZM10 15.42C9.80222 15.42 9.60888 15.4787 9.44443 15.5886C9.27998 15.6985 9.15181 15.8546 9.07612 16.0374C9.00043 16.2201 8.98063 16.4212 9.01921 16.6151C9.0578 16.8091 9.15304 16.9873 9.29289 17.1272C9.43275 17.267 9.61093 17.3622 9.80491 17.4008C9.99889 17.4394 10.2 17.4196 10.3827 17.3439C10.5654 17.2682 10.7216 17.1401 10.8315 16.9756C10.9414 16.8112 11 16.6178 11 16.42C11 16.1548 10.8946 15.9005 10.7071 15.7129C10.5196 15.5254 10.2652 15.42 10 15.42ZM14 15.42C13.8022 15.42 13.6089 15.4787 13.4444 15.5886C13.28 15.6985 13.1518 15.8546 13.0761 16.0374C13.0004 16.2201 12.9806 16.4212 13.0192 16.6151C13.0578 16.8091 13.153 16.9873 13.2929 17.1272C13.4327 17.267 13.6109 17.3622 13.8049 17.4008C13.9989 17.4394 14.2 17.4196 14.3827 17.3439C14.5654 17.2682 14.7216 17.1401 14.8315 16.9756C14.9414 16.8112 15 16.6178 15 16.42C15 16.1548 14.8946 15.9005 14.7071 15.7129C14.5196 15.5254 14.2652 15.42 14 15.42Z" fill="black"/>
<path d="M17.85 12.42V3.33002C17.85 3.1311 17.771 2.94034 17.6303 2.79969C17.4897 2.65903 17.2989 2.58002 17.1 2.58002C16.9011 2.58002 16.7103 2.65903 16.5696 2.79969C16.429 2.94034 16.35 3.1311 16.35 3.33002V12.42H17.85Z" fill="black"/>
</svg>
