<svg width="58" height="58" viewBox="0 0 58 58" fill="none" xmlns="http://www.w3.org/2000/svg">
<g clip-path="url(#clip0_524_3255)">
<mask id="mask0_524_3255" style="mask-type:luminance" maskUnits="userSpaceOnUse" x="0" y="0" width="58" height="58">
<path d="M58 0H0V58H58V0Z" fill="white"/>
</mask>
<g mask="url(#mask0_524_3255)">
<mask id="mask1_524_3255" style="mask-type:luminance" maskUnits="userSpaceOnUse" x="0" y="0" width="58" height="58">
<path d="M58 0H0V58H58V0Z" fill="white"/>
</mask>
<g mask="url(#mask1_524_3255)">
<path d="M16.0258 2.41797H33.8149L48.8734 18.1286V48.6684C48.8734 52.4884 45.7769 55.5846 41.9569 55.5846H16.0258C12.2056 55.5846 9.10938 52.4884 9.10938 48.6684V9.33435C9.10938 5.51425 12.2056 2.41797 16.0258 2.41797Z" fill="#0263D1"/>
<path opacity="0.302" fill-rule="evenodd" clip-rule="evenodd" d="M33.7969 2.41797V17.9996H48.8769L33.7969 2.41797Z" fill="white"/>
<path d="M17.6623 43H14.0529V32.8182H17.6921C18.7163 32.8182 19.5979 33.022 20.337 33.4297C21.0761 33.834 21.6445 34.4157 22.0423 35.1747C22.4433 35.9337 22.6438 36.8419 22.6438 37.8991C22.6438 38.9598 22.4433 39.8712 22.0423 40.6335C21.6445 41.3958 21.0728 41.9808 20.3271 42.3885C19.5846 42.7962 18.6964 43 17.6623 43ZM16.2056 41.1555H17.5728C18.2092 41.1555 18.7444 41.0429 19.1786 40.8175C19.6161 40.5888 19.9442 40.2358 20.163 39.7585C20.3851 39.2779 20.4961 38.6581 20.4961 37.8991C20.4961 37.1468 20.3851 36.532 20.163 36.0547C19.9442 35.5774 19.6178 35.2261 19.1836 35.0007C18.7494 34.7753 18.2141 34.6626 17.5778 34.6626H16.2056V41.1555ZM33.595 37.9091C33.595 39.0194 33.3845 39.964 32.9636 40.7429C32.546 41.5218 31.9759 42.1167 31.2534 42.5277C30.5342 42.9354 29.7254 43.1392 28.8272 43.1392C27.9224 43.1392 27.1104 42.9337 26.3912 42.5227C25.6719 42.1117 25.1035 41.5168 24.6859 40.7379C24.2683 39.959 24.0595 39.0161 24.0595 37.9091C24.0595 36.7988 24.2683 35.8542 24.6859 35.0753C25.1035 34.2964 25.6719 33.7031 26.3912 33.2955C27.1104 32.8845 27.9224 32.679 28.8272 32.679C29.7254 32.679 30.5342 32.8845 31.2534 33.2955C31.9759 33.7031 32.546 34.2964 32.9636 35.0753C33.3845 35.8542 33.595 36.7988 33.595 37.9091ZM31.4125 37.9091C31.4125 37.1899 31.3047 36.5833 31.0893 36.0895C30.8772 35.5956 30.5772 35.2211 30.1895 34.9659C29.8017 34.7107 29.3476 34.5831 28.8272 34.5831C28.3069 34.5831 27.8528 34.7107 27.465 34.9659C27.0772 35.2211 26.7756 35.5956 26.5602 36.0895C26.3481 36.5833 26.242 37.1899 26.242 37.9091C26.242 38.6283 26.3481 39.2348 26.5602 39.7287C26.7756 40.2225 27.0772 40.5971 27.465 40.8523C27.8528 41.1075 28.3069 41.2351 28.8272 41.2351C29.3476 41.2351 29.8017 41.1075 30.1895 40.8523C30.5772 40.5971 30.8772 40.2225 31.0893 39.7287C31.3047 39.2348 31.4125 38.6283 31.4125 37.9091ZM44.1733 36.3828H41.9957C41.956 36.1011 41.8748 35.8509 41.7521 35.6321C41.6295 35.41 41.4721 35.2211 41.2798 35.0653C41.0876 34.9096 40.8655 34.7902 40.6136 34.7074C40.3651 34.6245 40.0949 34.5831 39.8033 34.5831C39.2763 34.5831 38.8172 34.714 38.4261 34.9759C38.035 35.2344 37.7318 35.6122 37.5163 36.1094C37.3009 36.6032 37.1932 37.2031 37.1932 37.9091C37.1932 38.6349 37.3009 39.2448 37.5163 39.7386C37.7351 40.2325 38.04 40.6054 38.4311 40.8572C38.8222 41.1091 39.2746 41.2351 39.7884 41.2351C40.0767 41.2351 40.3435 41.197 40.5888 41.1207C40.8374 41.0445 41.0578 40.9335 41.25 40.7876C41.4422 40.6385 41.6013 40.4579 41.7273 40.2457C41.8565 40.0336 41.946 39.7917 41.9957 39.5199L44.1733 39.5298C44.117 39.9972 43.9761 40.4479 43.7507 40.8821C43.5286 41.313 43.2287 41.6991 42.8509 42.0405C42.4763 42.3786 42.0289 42.647 41.5085 42.8459C40.9915 43.0414 40.4065 43.1392 39.7536 43.1392C38.8454 43.1392 38.0334 42.9337 37.3175 42.5227C36.6049 42.1117 36.0414 41.5168 35.6271 40.7379C35.2161 39.959 35.0107 39.0161 35.0107 37.9091C35.0107 36.7988 35.2195 35.8542 35.6371 35.0753C36.0547 34.2964 36.6214 33.7031 37.3374 33.2955C38.0533 32.8845 38.8587 32.679 39.7536 32.679C40.3435 32.679 40.8904 32.7618 41.3942 32.9276C41.9013 33.0933 42.3504 33.3352 42.7415 33.6534C43.1326 33.9683 43.4508 34.3544 43.696 34.8118C43.9446 35.2692 44.1037 35.7929 44.1733 36.3828Z" fill="white"/>
</g>
</g>
</g>
<defs>
<clipPath id="clip0_524_3255">
<rect width="58" height="58" fill="white"/>
</clipPath>
</defs>
</svg>
