<svg width="58" height="58" viewBox="0 0 58 58" fill="none" xmlns="http://www.w3.org/2000/svg">
<g clip-path="url(#clip0_524_3283)">
<mask id="mask0_524_3283" style="mask-type:luminance" maskUnits="userSpaceOnUse" x="0" y="0" width="58" height="58">
<path d="M58 0H0V58H58V0Z" fill="white"/>
</mask>
<g mask="url(#mask0_524_3283)">
<mask id="mask1_524_3283" style="mask-type:luminance" maskUnits="userSpaceOnUse" x="0" y="0" width="58" height="58">
<path d="M58 0H0V58H58V0Z" fill="white"/>
</mask>
<g mask="url(#mask1_524_3283)">
<path fill-rule="evenodd" clip-rule="evenodd" d="M16.0308 2.41797H33.8063L48.8714 18.1209V48.6631C48.8714 52.4892 45.7759 55.5846 41.9632 55.5846H16.0308C12.2048 55.5846 9.10938 52.4892 9.10938 48.6631V9.33944C9.1093 5.51337 12.2047 2.41797 16.0308 2.41797Z" fill="#885CA7"/>
<path opacity="0.302" fill-rule="evenodd" clip-rule="evenodd" d="M33.7891 2.41797V18.0013H48.8677L33.7891 2.41797Z" fill="white"/>
<path d="M15.0705 43V32.8182H21.812V34.593H17.2232V37.0192H21.3645V38.794H17.2232V43H15.0705ZM25.4126 32.8182V43H23.2599V32.8182H25.4126ZM27.1838 43V32.8182H29.3365V41.2251H33.7015V43H27.1838ZM35.1271 43V32.8182H41.9879V34.593H37.2798V37.0192H41.6349V38.794H37.2798V41.2251H42.0078V43H35.1271Z" fill="white"/>
</g>
</g>
</g>
<defs>
<clipPath id="clip0_524_3283">
<rect width="58" height="58" fill="white"/>
</clipPath>
</defs>
</svg>
