<svg width="58" height="58" viewBox="0 0 58 58" fill="none" xmlns="http://www.w3.org/2000/svg">
<mask id="mask0_524_3312" style="mask-type:luminance" maskUnits="userSpaceOnUse" x="0" y="0" width="58" height="58">
<path d="M58 0H0V58H58V0Z" fill="white"/>
</mask>
<g mask="url(#mask0_524_3312)">
<mask id="mask1_524_3312" style="mask-type:luminance" maskUnits="userSpaceOnUse" x="0" y="0" width="58" height="58">
<path d="M58 0H0V58H58V0Z" fill="white"/>
</mask>
<g mask="url(#mask1_524_3312)">
<path fill-rule="evenodd" clip-rule="evenodd" d="M16.0308 2.41797H33.8063L48.8714 18.1209V48.6631C48.8714 52.4892 45.7759 55.5846 41.9632 55.5846H16.0308C12.2048 55.5846 9.10938 52.4892 9.10938 48.6631V9.33944C9.1093 5.51337 12.2047 2.41797 16.0308 2.41797Z" fill="#4F4F4F"/>
<path opacity="0.302" fill-rule="evenodd" clip-rule="evenodd" d="M33.7891 2.41797V18.0013H48.8677L33.7891 2.41797Z" fill="white"/>
<path d="M13.3849 43V32.8182H15.5376V37.0192H19.9077V32.8182H22.0554V43H19.9077V38.794H15.5376V43H13.3849ZM23.8303 43V32.8182H30.6911V34.593H25.983V37.0192H30.3381V38.794H25.983V41.2251H30.7109V43H23.8303ZM34.5552 32.8182V43H32.4025V32.8182H34.5552ZM45.31 36.3828H43.1325C43.0927 36.1011 43.0115 35.8509 42.8888 35.6321C42.7662 35.41 42.6088 35.2211 42.4165 35.0653C42.2243 34.9096 42.0022 34.7902 41.7504 34.7074C41.5018 34.6245 41.2317 34.5831 40.94 34.5831C40.413 34.5831 39.954 34.714 39.5629 34.9759C39.1718 35.2344 38.8685 35.6122 38.6531 36.1094C38.4376 36.6032 38.3299 37.2031 38.3299 37.9091C38.3299 38.6349 38.4376 39.2448 38.6531 39.7386C38.8718 40.2325 39.1767 40.6054 39.5678 40.8572C39.9589 41.1091 40.4113 41.2351 40.9251 41.2351C41.2134 41.2351 41.4802 41.197 41.7255 41.1207C41.9741 41.0445 42.1945 40.9335 42.3867 40.7876C42.579 40.6385 42.738 40.4579 42.864 40.2457C42.9933 40.0336 43.0827 39.7917 43.1325 39.5199L45.31 39.5298C45.2537 39.9972 45.1128 40.4479 44.8874 40.8821C44.6654 41.313 44.3654 41.6991 43.9876 42.0405C43.613 42.3786 43.1656 42.647 42.6452 42.8459C42.1282 43.0414 41.5432 43.1392 40.8903 43.1392C39.9821 43.1392 39.1701 42.9337 38.4542 42.5227C37.7416 42.1117 37.1781 41.5168 36.7638 40.7379C36.3529 39.959 36.1474 39.0161 36.1474 37.9091C36.1474 36.7988 36.3562 35.8542 36.7738 35.0753C37.1914 34.2964 37.7582 33.7031 38.4741 33.2955C39.19 32.8845 39.9954 32.679 40.8903 32.679C41.4802 32.679 42.0271 32.7618 42.5309 32.9276C43.038 33.0933 43.4871 33.3352 43.8782 33.6534C44.2693 33.9683 44.5875 34.3544 44.8327 34.8118C45.0813 35.2692 45.2404 35.7929 45.31 36.3828Z" fill="white"/>
</g>
</g>
</svg>
