<svg width="58" height="58" viewBox="0 0 58 58" fill="none" xmlns="http://www.w3.org/2000/svg">
<g clip-path="url(#clip0_524_3313)">
<mask id="mask0_524_3313" style="mask-type:luminance" maskUnits="userSpaceOnUse" x="0" y="0" width="58" height="58">
<path d="M58 0H0V58H58V0Z" fill="white"/>
</mask>
<g mask="url(#mask0_524_3313)">
<mask id="mask1_524_3313" style="mask-type:luminance" maskUnits="userSpaceOnUse" x="0" y="0" width="58" height="58">
<path d="M58 0H0V58H58V0Z" fill="white"/>
</mask>
<g mask="url(#mask1_524_3313)">
<path fill-rule="evenodd" clip-rule="evenodd" d="M16.0308 2.41797H33.8063L48.8714 18.1209V48.6631C48.8714 52.4892 45.7759 55.5846 41.9632 55.5846H16.0308C12.2048 55.5846 9.10938 52.4892 9.10938 48.6631V9.33944C9.1093 5.51337 12.2047 2.41797 16.0308 2.41797Z" fill="#745F4E"/>
<path opacity="0.302" fill-rule="evenodd" clip-rule="evenodd" d="M33.7891 2.41797V18.0013H48.8677L33.7891 2.41797Z" fill="white"/>
<path d="M18.3453 32.8182V43H16.1926V32.8182H18.3453ZM20.1164 32.8182H22.7712L25.5752 39.6591H25.6945L28.4985 32.8182H31.1533V43H29.0653V36.3729H28.9807L26.3458 42.9503H24.9239L22.289 36.348H22.2045V43H20.1164V32.8182ZM39.6784 36.1094C39.6088 35.8674 39.511 35.6536 39.385 35.468C39.2591 35.2791 39.105 35.12 38.9227 34.9908C38.7437 34.8582 38.5382 34.7571 38.3062 34.6875C38.0775 34.6179 37.824 34.5831 37.5455 34.5831C37.0252 34.5831 36.5678 34.7124 36.1734 34.9709C35.7823 35.2294 35.4774 35.6056 35.2586 36.0994C35.0399 36.59 34.9305 37.1899 34.9305 37.8991C34.9305 38.6084 35.0382 39.2116 35.2536 39.7088C35.4691 40.206 35.774 40.5855 36.1684 40.8473C36.5628 41.1058 37.0285 41.2351 37.5654 41.2351C38.0526 41.2351 38.4686 41.1489 38.8133 40.9766C39.1613 40.8009 39.4265 40.554 39.6088 40.2358C39.7944 39.9176 39.8872 39.5414 39.8872 39.1072L40.3247 39.1719H37.6997V37.5511H41.9603V38.8338C41.9603 39.7287 41.7714 40.4976 41.3936 41.1406C41.0157 41.7803 40.4954 42.2741 39.8325 42.6222C39.1696 42.9669 38.4106 43.1392 37.5555 43.1392C36.6009 43.1392 35.7624 42.9287 35.0399 42.5078C34.3173 42.0836 33.7539 41.482 33.3495 40.7031C32.9485 39.9209 32.748 38.9929 32.748 37.919C32.748 37.0937 32.8673 36.358 33.1059 35.7116C33.3479 35.062 33.6859 34.5118 34.1201 34.0611C34.5543 33.6103 35.0597 33.2673 35.6365 33.032C36.2132 32.7966 36.8379 32.679 37.5107 32.679C38.0874 32.679 38.6244 32.7635 39.1215 32.9325C39.6187 33.0982 40.0595 33.3336 40.444 33.6385C40.8318 33.9434 41.1483 34.3063 41.3936 34.7273C41.6388 35.1449 41.7963 35.6056 41.8659 36.1094H39.6784Z" fill="white"/>
</g>
</g>
</g>
<defs>
<clipPath id="clip0_524_3313">
<rect width="58" height="58" fill="white"/>
</clipPath>
</defs>
</svg>
