<svg width="58" height="58" viewBox="0 0 58 58" fill="none" xmlns="http://www.w3.org/2000/svg">
<g clip-path="url(#clip0_524_3355)">
<mask id="mask0_524_3355" style="mask-type:luminance" maskUnits="userSpaceOnUse" x="0" y="0" width="58" height="58">
<path d="M58 0H0V58H58V0Z" fill="white"/>
</mask>
<g mask="url(#mask0_524_3355)">
<path fill-rule="evenodd" clip-rule="evenodd" d="M16.0309 2.41797H33.8062L48.8715 18.1209V48.6631C48.8715 52.4891 45.776 55.5846 41.9632 55.5846H16.0309C12.2048 55.5846 9.10938 52.4891 9.10938 48.6631V9.33944C9.10931 5.51337 12.2047 2.41797 16.0309 2.41797Z" fill="#E5252A"/>
<path opacity="0.302" fill-rule="evenodd" clip-rule="evenodd" d="M33.7891 2.41797V18.0013H48.8676L33.7891 2.41797Z" fill="white"/>
<path d="M16.1652 43V32.8182H20.1823C20.9545 32.8182 21.6124 32.9657 22.156 33.2607C22.6995 33.5523 23.1138 33.9583 23.3989 34.4787C23.6872 34.9957 23.8314 35.5923 23.8314 36.2685C23.8314 36.9446 23.6856 37.5412 23.3939 38.0582C23.1022 38.5753 22.6797 38.978 22.1262 39.2663C21.576 39.5547 20.9098 39.6989 20.1276 39.6989H17.5672V37.9737H19.7796C20.1939 37.9737 20.5352 37.9025 20.8037 37.7599C21.0755 37.6141 21.2777 37.4136 21.4102 37.1584C21.5461 36.8999 21.6141 36.6032 21.6141 36.2685C21.6141 35.9304 21.5461 35.6354 21.4102 35.3835C21.2777 35.1283 21.0755 34.9311 20.8037 34.7919C20.5319 34.6494 20.1872 34.5781 19.7696 34.5781H18.3179V43H16.1652ZM28.839 43H25.2297V32.8182H28.8689C29.893 32.8182 30.7747 33.022 31.5138 33.4297C32.2529 33.834 32.8213 34.4157 33.219 35.1747C33.6201 35.9337 33.8206 36.8419 33.8206 37.8991C33.8206 38.9598 33.6201 39.8712 33.219 40.6335C32.8213 41.3958 32.2496 41.9808 31.5038 42.3885C30.7614 42.7962 29.8731 43 28.839 43ZM27.3824 41.1555H28.7496C29.3859 41.1555 29.9212 41.0429 30.3554 40.8175C30.7929 40.5888 31.121 40.2358 31.3398 39.7585C31.5618 39.2779 31.6729 38.6581 31.6729 37.8991C31.6729 37.1468 31.5618 36.532 31.3398 36.0547C31.121 35.5774 30.7945 35.2261 30.3604 35.0007C29.9262 34.7753 29.3909 34.6626 28.7545 34.6626H27.3824V41.1555ZM35.4152 43V32.8182H42.1567V34.593H37.5679V37.0192H41.7093V38.794H37.5679V43H35.4152Z" fill="white"/>
</g>
</g>
<defs>
<clipPath id="clip0_524_3355">
<rect width="58" height="58" fill="white"/>
</clipPath>
</defs>
</svg>
