<svg width="58" height="58" viewBox="0 0 58 58" fill="none" xmlns="http://www.w3.org/2000/svg">
<g clip-path="url(#clip0_528_3113)">
<mask id="mask0_528_3113" style="mask-type:luminance" maskUnits="userSpaceOnUse" x="0" y="0" width="58" height="58">
<path d="M58 0H0V58H58V0Z" fill="white"/>
</mask>
<g mask="url(#mask0_528_3113)">
<mask id="mask1_528_3113" style="mask-type:luminance" maskUnits="userSpaceOnUse" x="0" y="0" width="58" height="58">
<path d="M58 0H0V58H58V0Z" fill="white"/>
</mask>
<g mask="url(#mask1_528_3113)">
<path d="M16.0258 2.41797H33.8149L48.8735 18.1286V48.6683C48.8735 52.4884 45.7768 55.5846 41.957 55.5846H16.0258C12.2056 55.5846 9.10938 52.4884 9.10938 48.6683V9.33435C9.10938 5.51424 12.2056 2.41797 16.0258 2.41797Z" fill="#E34221"/>
<path opacity="0.302" fill-rule="evenodd" clip-rule="evenodd" d="M33.7891 2.41797V17.9996H48.8691L33.7891 2.41797Z" fill="white"/>
<path d="M16.1447 43V32.8182H20.1618C20.934 32.8182 21.5919 32.9657 22.1355 33.2607C22.679 33.5523 23.0933 33.9583 23.3784 34.4787C23.6667 34.9957 23.8109 35.5923 23.8109 36.2685C23.8109 36.9446 23.6651 37.5412 23.3734 38.0582C23.0817 38.5753 22.6592 38.978 22.1056 39.2663C21.5555 39.5547 20.8893 39.6989 20.1071 39.6989H17.5467V37.9737H19.7591C20.1734 37.9737 20.5147 37.9025 20.7832 37.7599C21.055 37.6141 21.2572 37.4136 21.3897 37.1584C21.5256 36.8999 21.5936 36.6032 21.5936 36.2685C21.5936 35.9304 21.5256 35.6354 21.3897 35.3835C21.2572 35.1283 21.055 34.9311 20.7832 34.7919C20.5114 34.6494 20.1667 34.5781 19.7491 34.5781H18.2974V43H16.1447ZM25.2092 43V32.8182H29.2262C29.9985 32.8182 30.6564 32.9657 31.1999 33.2607C31.7435 33.5523 32.1578 33.9583 32.4428 34.4787C32.7312 34.9957 32.8754 35.5923 32.8754 36.2685C32.8754 36.9446 32.7295 37.5412 32.4379 38.0582C32.1462 38.5753 31.7236 38.978 31.1701 39.2663C30.6199 39.5547 29.9537 39.6989 29.1715 39.6989H26.6112V37.9737H28.8235C29.2378 37.9737 29.5792 37.9025 29.8477 37.7599C30.1194 37.6141 30.3216 37.4136 30.4542 37.1584C30.5901 36.8999 30.658 36.6032 30.658 36.2685C30.658 35.9304 30.5901 35.6354 30.4542 35.3835C30.3216 35.1283 30.1194 34.9311 29.8477 34.7919C29.5759 34.6494 29.2312 34.5781 28.8136 34.5781H27.3619V43H25.2092ZM33.8858 34.593V32.8182H42.248V34.593H39.1309V43H37.003V34.593H33.8858Z" fill="white"/>
</g>
</g>
</g>
<defs>
<clipPath id="clip0_528_3113">
<rect width="58" height="58" fill="white"/>
</clipPath>
</defs>
</svg>
