<svg width="58" height="58" viewBox="0 0 58 58" fill="none" xmlns="http://www.w3.org/2000/svg">
<g clip-path="url(#clip0_524_3369)">
<mask id="mask0_524_3369" style="mask-type:luminance" maskUnits="userSpaceOnUse" x="0" y="0" width="58" height="58">
<path d="M58 0H0V58H58V0Z" fill="white"/>
</mask>
<g mask="url(#mask0_524_3369)">
<mask id="mask1_524_3369" style="mask-type:luminance" maskUnits="userSpaceOnUse" x="0" y="0" width="58" height="58">
<path d="M58 0H0V58H58V0Z" fill="white"/>
</mask>
<g mask="url(#mask1_524_3369)">
<path fill-rule="evenodd" clip-rule="evenodd" d="M16.0308 2.41797H33.8063L48.8714 18.1209V48.6631C48.8714 52.4892 45.7759 55.5846 41.9632 55.5846H16.0308C12.2048 55.5846 9.10938 52.4892 9.10938 48.6631V9.33944C9.1093 5.51337 12.2047 2.41797 16.0308 2.41797Z" fill="#E6972E"/>
<path opacity="0.302" fill-rule="evenodd" clip-rule="evenodd" d="M33.7891 2.41797V18.0013H48.8677L33.7891 2.41797Z" fill="white"/>
<path d="M20.5471 35.7464C20.5073 35.3454 20.3366 35.0339 20.035 34.8118C19.7334 34.5897 19.324 34.4787 18.807 34.4787C18.4557 34.4787 18.159 34.5284 17.9171 34.6278C17.6751 34.724 17.4895 34.8582 17.3603 35.0305C17.2343 35.2029 17.1713 35.3984 17.1713 35.6172C17.1647 35.7995 17.2028 35.9586 17.2857 36.0945C17.3719 36.2304 17.4895 36.348 17.6387 36.4474C17.7878 36.5436 17.9602 36.6281 18.1557 36.701C18.3513 36.7706 18.5601 36.8303 18.7821 36.88L19.6969 37.0987C20.141 37.1982 20.5487 37.3307 20.9199 37.4964C21.2911 37.6622 21.6126 37.866 21.8844 38.108C22.1562 38.3499 22.3667 38.6349 22.5158 38.9631C22.6683 39.2912 22.7462 39.6674 22.7495 40.0916C22.7462 40.7147 22.5871 41.255 22.2722 41.7124C21.9606 42.1664 21.5099 42.5194 20.9199 42.7713C20.3333 43.0199 19.6257 43.1442 18.7971 43.1442C17.9751 43.1442 17.2592 43.0182 16.6493 42.7663C16.0428 42.5144 15.5688 42.1416 15.2275 41.6477C14.8894 41.1506 14.7121 40.5357 14.6955 39.8033H16.7786C16.8018 40.1446 16.8996 40.4297 17.0719 40.6584C17.2476 40.8838 17.4812 41.0545 17.7729 41.1705C18.0679 41.2831 18.401 41.3395 18.7722 41.3395C19.1368 41.3395 19.4533 41.2865 19.7218 41.1804C19.9935 41.0743 20.204 40.9268 20.3532 40.7379C20.5023 40.549 20.5769 40.3319 20.5769 40.0866C20.5769 39.858 20.5089 39.6657 20.373 39.5099C20.2405 39.3542 20.0449 39.2216 19.7864 39.1122C19.5312 39.0028 19.218 38.9034 18.8468 38.8139L17.7381 38.5355C16.8797 38.3267 16.2019 38.0002 15.7047 37.5561C15.2076 37.112 14.9606 36.5137 14.964 35.7614C14.9606 35.1449 15.1247 34.6063 15.4561 34.1456C15.7909 33.6849 16.2499 33.3253 16.8333 33.0668C17.4166 32.8082 18.0795 32.679 18.8219 32.679C19.5776 32.679 20.2372 32.8082 20.8006 33.0668C21.3674 33.3253 21.8082 33.6849 22.123 34.1456C22.4379 34.6063 22.6003 35.1399 22.6103 35.7464H20.5471ZM26.0369 32.8182L28.4979 40.554H28.5923L31.0582 32.8182H33.4446L29.9347 43H27.1605L23.6456 32.8182H26.0369ZM40.8473 36.1094C40.7777 35.8674 40.6799 35.6536 40.554 35.468C40.428 35.2791 40.2739 35.12 40.0916 34.9908C39.9126 34.8582 39.7071 34.7571 39.4751 34.6875C39.2464 34.6179 38.9929 34.5831 38.7145 34.5831C38.1941 34.5831 37.7367 34.7124 37.3423 34.9709C36.9512 35.2294 36.6463 35.6056 36.4276 36.0994C36.2088 36.59 36.0994 37.1899 36.0994 37.8991C36.0994 38.6084 36.2071 39.2116 36.4226 39.7088C36.638 40.206 36.9429 40.5855 37.3374 40.8473C37.7318 41.1058 38.1974 41.2351 38.7344 41.2351C39.2216 41.2351 39.6375 41.1489 39.9822 40.9766C40.3303 40.8009 40.5954 40.554 40.7777 40.2358C40.9633 39.9176 41.0561 39.5414 41.0561 39.1072L41.4936 39.1719H38.8686V37.5511H43.1293V38.8338C43.1293 39.7287 42.9403 40.4976 42.5625 41.1406C42.1847 41.7803 41.6643 42.2741 41.0014 42.6222C40.3385 42.9669 39.5795 43.1392 38.7244 43.1392C37.7699 43.1392 36.9313 42.9287 36.2088 42.5078C35.4863 42.0836 34.9228 41.482 34.5185 40.7031C34.1174 39.9209 33.9169 38.9929 33.9169 37.919C33.9169 37.0937 34.0362 36.358 34.2749 35.7116C34.5168 35.062 34.8549 34.5118 35.2891 34.0611C35.7232 33.6103 36.2287 33.2673 36.8054 33.032C37.3821 32.7966 38.0069 32.679 38.6797 32.679C39.2564 32.679 39.7933 32.7635 40.2905 32.9325C40.7876 33.0982 41.2285 33.3336 41.6129 33.6385C42.0007 33.9434 42.3172 34.3063 42.5625 34.7273C42.8078 35.1449 42.9652 35.6056 43.0348 36.1094H40.8473Z" fill="white"/>
</g>
</g>
</g>
<defs>
<clipPath id="clip0_524_3369">
<rect width="58" height="58" fill="white"/>
</clipPath>
</defs>
</svg>
