<svg width="58" height="58" viewBox="0 0 58 58" fill="none" xmlns="http://www.w3.org/2000/svg">
<g clip-path="url(#clip0_526_3140)">
<mask id="mask0_526_3140" style="mask-type:luminance" maskUnits="userSpaceOnUse" x="0" y="0" width="58" height="58">
<path d="M58 0H0V58H58V0Z" fill="white"/>
</mask>
<g mask="url(#mask0_526_3140)">
<mask id="mask1_526_3140" style="mask-type:luminance" maskUnits="userSpaceOnUse" x="0" y="0" width="58" height="58">
<path d="M58 0H0V58H58V0Z" fill="white"/>
</mask>
<g mask="url(#mask1_526_3140)">
<path fill-rule="evenodd" clip-rule="evenodd" d="M16.0308 2.41797H33.8063L48.8714 18.1209V48.6631C48.8714 52.4892 45.7759 55.5846 41.9632 55.5846H16.0308C12.2048 55.5846 9.10938 52.4892 9.10938 48.6631V9.33944C9.1093 5.51337 12.2047 2.41797 16.0308 2.41797Z" fill="#146D77"/>
<path opacity="0.302" fill-rule="evenodd" clip-rule="evenodd" d="M33.7891 2.41797V18.0013H48.8677L33.7891 2.41797Z" fill="white"/>
<path d="M18.9334 32.8182L21.3944 40.554H21.4888L23.9547 32.8182H26.3411L22.8311 43H20.057L16.5421 32.8182H18.9334ZM29.7193 32.8182V43H27.5666V32.8182H29.7193ZM35.0998 43H31.4904V32.8182H35.1296C36.1538 32.8182 37.0354 33.022 37.7745 33.4297C38.5136 33.834 39.082 34.4157 39.4798 35.1747C39.8808 35.9337 40.0813 36.8419 40.0813 37.8991C40.0813 38.9598 39.8808 39.8712 39.4798 40.6335C39.082 41.3958 38.5103 41.9808 37.7646 42.3885C37.0221 42.7962 36.1339 43 35.0998 43ZM33.6431 41.1555H35.0103C35.6467 41.1555 36.1819 41.0429 36.6161 40.8175C37.0536 40.5888 37.3817 40.2358 37.6005 39.7585C37.8226 39.2779 37.9336 38.6581 37.9336 37.8991C37.9336 37.1468 37.8226 36.532 37.6005 36.0547C37.3817 35.5774 37.0553 35.2261 36.6211 35.0007C36.1869 34.7753 35.6516 34.6626 35.0153 34.6626H33.6431V41.1555Z" fill="white"/>
</g>
</g>
</g>
<defs>
<clipPath id="clip0_526_3140">
<rect width="58" height="58" fill="white"/>
</clipPath>
</defs>
</svg>
