<svg width="58" height="58" viewBox="0 0 58 58" fill="none" xmlns="http://www.w3.org/2000/svg">
<g clip-path="url(#clip0_524_3383)">
<mask id="mask0_524_3383" style="mask-type:luminance" maskUnits="userSpaceOnUse" x="0" y="0" width="58" height="58">
<path d="M58 0H0V58H58V0Z" fill="white"/>
</mask>
<g mask="url(#mask0_524_3383)">
<mask id="mask1_524_3383" style="mask-type:luminance" maskUnits="userSpaceOnUse" x="0" y="0" width="58" height="58">
<path d="M58 0H0V58H58V0Z" fill="white"/>
</mask>
<g mask="url(#mask1_524_3383)">
<path d="M16.0258 2.41797H33.8149L48.8734 18.1286V48.6684C48.8734 52.4884 45.7769 55.5846 41.9569 55.5846H16.0258C12.2056 55.5846 9.10938 52.4884 9.10938 48.6684V9.33435C9.10938 5.51425 12.2056 2.41797 16.0258 2.41797Z" fill="#207245"/>
<path opacity="0.302" fill-rule="evenodd" clip-rule="evenodd" d="M33.7969 2.41797V17.9996H48.8769L33.7969 2.41797Z" fill="white"/>
</g>
</g>
<path d="M19.9034 32.8182L21.9567 36.2884H22.0362L24.0994 32.8182H26.5305L23.4233 37.9091L26.6001 43H24.1243L22.0362 39.5249H21.9567L19.8686 43H17.4027L20.5895 37.9091L17.4624 32.8182H19.9034ZM30.0455 32.8182V43H27.8928V32.8182H30.0455ZM37.34 35.7464C37.3002 35.3454 37.1296 35.0339 36.8279 34.8118C36.5263 34.5897 36.117 34.4787 35.6 34.4787C35.2486 34.4787 34.952 34.5284 34.71 34.6278C34.4681 34.724 34.2825 34.8582 34.1532 35.0305C34.0273 35.2029 33.9643 35.3984 33.9643 35.6172C33.9577 35.7995 33.9958 35.9586 34.0787 36.0945C34.1648 36.2304 34.2825 36.348 34.4316 36.4474C34.5808 36.5436 34.7531 36.6281 34.9487 36.701C35.1442 36.7706 35.353 36.8303 35.5751 36.88L36.4899 37.0987C36.934 37.1982 37.3417 37.3307 37.7129 37.4964C38.0841 37.6622 38.4056 37.866 38.6774 38.108C38.9492 38.3499 39.1596 38.6349 39.3088 38.9631C39.4612 39.2912 39.5391 39.6674 39.5424 40.0916C39.5391 40.7147 39.38 41.255 39.0652 41.7124C38.7536 42.1664 38.3029 42.5194 37.7129 42.7713C37.1262 43.0199 36.4186 43.1442 35.59 43.1442C34.7681 43.1442 34.0521 43.0182 33.4423 42.7663C32.8358 42.5144 32.3618 42.1416 32.0204 41.6477C31.6824 41.1506 31.505 40.5357 31.4885 39.8033H33.5716C33.5948 40.1446 33.6925 40.4297 33.8649 40.6584C34.0405 40.8838 34.2742 41.0545 34.5659 41.1705C34.8609 41.2831 35.194 41.3395 35.5652 41.3395C35.9297 41.3395 36.2463 41.2865 36.5147 41.1804C36.7865 41.0743 36.997 40.9268 37.1461 40.7379C37.2953 40.549 37.3699 40.3319 37.3699 40.0866C37.3699 39.858 37.3019 39.6657 37.166 39.5099C37.0334 39.3542 36.8379 39.2216 36.5794 39.1122C36.3242 39.0028 36.0109 38.9034 35.6397 38.8139L34.5311 38.5355C33.6726 38.3267 32.9949 38.0002 32.4977 37.5561C32.0005 37.112 31.7536 36.5137 31.7569 35.7614C31.7536 35.1449 31.9177 34.6063 32.2491 34.1456C32.5839 33.6849 33.0429 33.3253 33.6262 33.0668C34.2096 32.8082 34.8725 32.679 35.6149 32.679C36.3706 32.679 37.0301 32.8082 37.5936 33.0668C38.1603 33.3253 38.6011 33.6849 38.916 34.1456C39.2309 34.6063 39.3933 35.1399 39.4032 35.7464H37.34Z" fill="white"/>
</g>
<defs>
<clipPath id="clip0_524_3383">
<rect width="58" height="58" fill="white"/>
</clipPath>
</defs>
</svg>
