<svg width="58" height="58" viewBox="0 0 58 58" fill="none" xmlns="http://www.w3.org/2000/svg">
<mask id="mask0_524_3410" style="mask-type:luminance" maskUnits="userSpaceOnUse" x="0" y="0" width="58" height="58">
<path d="M58 0H0V58H58V0Z" fill="white"/>
</mask>
<g mask="url(#mask0_524_3410)">
<mask id="mask1_524_3410" style="mask-type:luminance" maskUnits="userSpaceOnUse" x="0" y="0" width="58" height="58">
<path d="M58 0H0V58H58V0Z" fill="white"/>
</mask>
<g mask="url(#mask1_524_3410)">
<path d="M16.0258 2.41797H33.8149L48.8735 18.1286V48.6683C48.8735 52.4884 45.7768 55.5846 41.957 55.5846H16.0258C12.2056 55.5846 9.10938 52.4884 9.10938 48.6683V9.33435C9.10938 5.51424 12.2056 2.41797 16.0258 2.41797Z" fill="#3366E8"/>
<path opacity="0.302" fill-rule="evenodd" clip-rule="evenodd" d="M33.7891 2.41797V17.9996H48.8691L33.7891 2.41797Z" fill="white"/>
<path d="M19.1125 43V41.7223L24.1934 34.593H19.1025V32.8182H26.898V34.0959L21.8121 41.2251H26.9079V43H19.1125ZM30.7124 32.8182V43H28.5597V32.8182H30.7124ZM32.4836 43V32.8182H36.5006C37.2729 32.8182 37.9308 32.9657 38.4743 33.2607C39.0179 33.5523 39.4322 33.9583 39.7172 34.4787C40.0056 34.9957 40.1498 35.5923 40.1498 36.2685C40.1498 36.9446 40.0039 37.5412 39.7123 38.0582C39.4206 38.5753 38.998 38.978 38.4445 39.2663C37.8943 39.5547 37.2281 39.6989 36.4459 39.6989H33.8856V37.9737H36.0979C36.5122 37.9737 36.8536 37.9025 37.1221 37.7599C37.3939 37.6141 37.596 37.4136 37.7286 37.1584C37.8645 36.8999 37.9324 36.6032 37.9324 36.2685C37.9324 35.9304 37.8645 35.6354 37.7286 35.3835C37.596 35.1283 37.3939 34.9311 37.1221 34.7919C36.8503 34.6494 36.5056 34.5781 36.088 34.5781H34.6363V43H32.4836Z" fill="white"/>
</g>
</g>
</svg>
