<svg width="20" height="21" viewBox="0 0 20 21" fill="none" xmlns="http://www.w3.org/2000/svg">
<path d="M7.625 10.5C7.625 10.2088 7.625 10.0631 7.6725 9.94812C7.73607 9.79529 7.85767 9.67391 8.01062 9.61062C8.12562 9.5625 8.27125 9.5625 8.5625 9.5625H10.4375C10.7287 9.5625 10.8744 9.5625 10.9894 9.61C11.1422 9.67357 11.2636 9.79517 11.3269 9.94812C11.375 10.0631 11.375 10.2088 11.375 10.5C11.375 10.7912 11.375 10.9369 11.3275 11.0519C11.2639 11.2047 11.1423 11.3261 10.9894 11.3894C10.8744 11.4375 10.7287 11.4375 10.4375 11.4375H8.5625C8.27125 11.4375 8.12562 11.4375 8.01062 11.39C7.85779 11.3264 7.73641 11.2048 7.67312 11.0519C7.625 10.9369 7.625 10.7912 7.625 10.5Z" stroke="black"/>
<path d="M14.8125 7.375V11.125C14.8125 13.4819 14.8125 14.6606 14.08 15.3925C13.3475 16.1244 12.1694 16.125 9.8125 16.125H9.1875C6.83063 16.125 5.65187 16.125 4.92 15.3925C4.18812 14.66 4.1875 13.4819 4.1875 11.125V7.375" stroke="black" stroke-linecap="round"/>
<path d="M3.25 6.125C3.25 5.53562 3.25 5.24125 3.43312 5.05812C3.61625 4.875 3.91062 4.875 4.5 4.875H14.5C15.0894 4.875 15.3838 4.875 15.5669 5.05812C15.75 5.24125 15.75 5.53562 15.75 6.125C15.75 6.71438 15.75 7.00875 15.5669 7.19187C15.3838 7.375 15.0894 7.375 14.5 7.375H4.5C3.91062 7.375 3.61625 7.375 3.43312 7.19187C3.25 7.00875 3.25 6.71438 3.25 6.125Z" stroke="black"/>
</svg>
