<svg width="14" height="14" viewBox="0 0 14 14" fill="none" xmlns="http://www.w3.org/2000/svg">
<path d="M9.55189 6.94133C9.55232 6.86614 9.53791 6.7916 9.50948 6.72198C9.48104 6.65237 9.43915 6.58905 9.38619 6.53567L5.95797 3.10748C5.90485 3.05393 5.84166 3.01143 5.77203 2.98242C5.7024 2.95341 5.62772 2.93848 5.55229 2.93848C5.47686 2.93848 5.40218 2.95341 5.33256 2.98242C5.26293 3.01143 5.19974 3.05393 5.14662 3.10748C5.0402 3.21454 4.98047 3.35935 4.98047 3.5103C4.98047 3.66124 5.0402 3.80606 5.14662 3.91311L8.17488 6.94133L5.14662 9.96385C5.0402 10.0709 4.98047 10.2157 4.98047 10.3667C4.98047 10.5176 5.0402 10.6624 5.14662 10.7695C5.19974 10.823 5.26293 10.8655 5.33256 10.8945C5.40218 10.9235 5.47686 10.9385 5.55229 10.9385C5.62772 10.9385 5.7024 10.9235 5.77203 10.8945C5.84166 10.8655 5.90485 10.823 5.95797 10.7695L9.38619 7.34129C9.49175 7.23487 9.55126 7.09123 9.55189 6.94133Z" fill="#8E97AE"/>
</svg>
