<svg width="16" height="16" viewBox="0 0 16 16" fill="none" xmlns="http://www.w3.org/2000/svg">
<g clip-path="url(#clip0_8977_3456)">
<path d="M14.0955 2.30354C12.226 0.433978 9.18387 0.433978 7.31426 2.30354L1.50141 8.11629C0.166113 9.45177 0.166201 11.6247 1.50165 12.9601C2.16941 13.6279 3.04627 13.9617 3.92348 13.9617C4.80046 13.9616 5.67773 13.6278 6.34541 12.9601L11.6736 7.63181C12.475 6.83065 12.4751 5.52688 11.6737 4.72543C10.8724 3.92419 9.56857 3.92422 8.76742 4.72558L5.28298 8.2099C5.01547 8.47738 5.01547 8.91112 5.28292 9.17866C5.55049 9.44617 5.98414 9.44617 6.25171 9.17866L9.73621 5.69425C10.0033 5.42715 10.4379 5.42715 10.705 5.69416C10.972 5.96132 10.972 6.39586 10.7049 6.66296L5.3767 11.9913C4.57537 12.7926 3.27165 12.7927 2.47038 11.9914C1.66914 11.1901 1.66905 9.88633 2.4702 9.08503L8.28302 3.2723C9.61846 1.93697 11.7914 1.93691 13.1268 3.27236C13.7738 3.91924 14.1301 4.77937 14.13 5.69422C14.13 6.60911 13.7738 7.46921 13.1267 8.11615L7.31411 13.929C7.0466 14.1965 7.0466 14.6302 7.31417 14.8978C7.44794 15.0315 7.62325 15.0984 7.79854 15.0984C7.97382 15.0984 8.14916 15.0315 8.28293 14.8978L14.0955 9.08497C15.0012 8.17931 15.5 6.97515 15.5 5.69428C15.5001 4.41336 15.0013 3.20919 14.0955 2.30354Z" fill="black"/>
</g>
<defs>
<clipPath id="clip0_8977_3456">
<rect width="15" height="15" fill="white" transform="translate(0.5 0.5)"/>
</clipPath>
</defs>
</svg>
