<svg width="16" height="16" viewBox="0 0 16 16" fill="none" xmlns="http://www.w3.org/2000/svg">
<path d="M7.0668 11.3335C6.97906 11.334 6.89208 11.3172 6.81086 11.284C6.72963 11.2508 6.65576 11.202 6.59346 11.1402L3.53346 8.05351C3.40793 7.92797 3.3374 7.75771 3.3374 7.58018C3.3374 7.40264 3.40793 7.23238 3.53346 7.10684C3.659 6.98131 3.82926 6.91078 4.0068 6.91078C4.18433 6.91078 4.35459 6.98131 4.48013 7.10684L7.0668 9.70018L11.5135 5.24684C11.639 5.12131 11.8093 5.05078 11.9868 5.05078C12.1643 5.05078 12.3346 5.12131 12.4601 5.24684C12.5857 5.37238 12.6562 5.54264 12.6562 5.72018C12.6562 5.89771 12.5857 6.06797 12.4601 6.19351L7.54013 11.1135C7.41662 11.2451 7.24704 11.3239 7.0668 11.3335Z" fill="#3E97FF"/>
</svg>
