<svg width="8" height="8" viewBox="0 0 8 8" fill="none" xmlns="http://www.w3.org/2000/svg">
<path d="M6.58594 0.861328L7.13867 1.41406L7.27832 1.55273L7.13867 1.69141L4.82617 4L7.13867 6.30859L7.27832 6.44727L7.13867 6.58594L6.58594 7.13867L6.44727 7.27832L6.30859 7.13867L4 4.82617L1.69141 7.13867L1.55273 7.27832L1.41406 7.13867L0.861328 6.58594L0.72168 6.44727L0.861328 6.30859L3.17285 4L0.861328 1.69141L0.72168 1.55273L0.861328 1.41406L1.41406 0.861328L1.55273 0.72168L1.69141 0.861328L4 3.17285L6.30859 0.861328L6.44727 0.72168L6.58594 0.861328Z" fill="#15191E" stroke="#696969" stroke-width="0.392857"/>
</svg>
