<svg width="15" height="15" viewBox="0 0 15 15" fill="none" xmlns="http://www.w3.org/2000/svg">
<g clip-path="url(#clip0_504_3117)">
<path d="M10.0803 10.9008L4.42346 5.24396C4.14062 4.96112 4.12883 4.59578 4.394 4.33061C4.65916 4.06545 5.0245 4.07723 5.30734 4.36007L10.9642 10.0169C11.247 10.2998 11.2588 10.6651 10.9936 10.9303C10.7285 11.1954 10.3632 11.1837 10.0803 10.9008Z" fill="#F1416C"/>
<path d="M4.33449 10.9303C4.06932 10.6651 4.08109 10.2998 4.36393 10.0169L10.0208 4.36007C10.3036 4.07723 10.669 4.06545 10.9341 4.33061C11.1993 4.59578 11.1875 4.96112 10.9047 5.24396L5.24781 10.9008C4.96497 11.1837 4.59965 11.1954 4.33449 10.9303Z" fill="#F1416C"/>
</g>
<defs>
<clipPath id="clip0_504_3117">
<rect width="10" height="11" fill="white" transform="translate(7.78125) rotate(45)"/>
</clipPath>
</defs>
</svg>
