
<svg width="17" height="16" viewBox="0 0 17 16" fill="none" xmlns="http://www.w3.org/2000/svg">
<g clip-path="url(#clip0_349_4180)">
<path d="M5.04636 12.5455C6.09343 13.5973 7.4712 14.2518 8.94488 14.3975C10.4186 14.5433 11.897 14.1712 13.1281 13.3447C14.3593 12.5182 15.267 11.2884 15.6965 9.865C16.1262 8.44158 16.0511 6.91254 15.4842 5.53849C14.9172 4.16443 13.8935 3.03036 12.5873 2.32956C11.2812 1.62875 9.7735 1.40458 8.32125 1.69523C6.86901 1.98589 5.56203 2.77338 4.62306 3.92352C3.68409 5.07366 3.17122 6.51527 3.17188 8.00267V9.42839" stroke="#000000" stroke-linecap="round" stroke-linejoin="round"/>
<path d="M1.75 7.99971L3.17223 9.42829L4.59445 7.99971M8.86111 5.14258V8.714H12.4166" stroke="#000000" stroke-linecap="round" stroke-linejoin="round"/>
</g>
<defs>
<clipPath id="clip0_349_4180">
<rect width="16" height="15" fill="white" transform="translate(0.5 0.5)"/>
</clipPath>
</defs>
</svg>
