<svg width="22" height="20" viewBox="0 0 22 20" fill="none" xmlns="http://www.w3.org/2000/svg">
<path d="M7.26075 14.2426C8.24238 15.2243 9.53404 15.8351 10.9156 15.9711C12.2972 16.1072 13.6832 15.7599 14.8374 14.9885C15.9916 14.2171 16.8426 13.0693 17.2453 11.7408C17.6481 10.4123 17.5777 8.98517 17.0462 7.70272C16.5147 6.42026 15.5549 5.3618 14.3304 4.70772C13.1059 4.05363 11.6924 3.8444 10.331 4.11568C8.96948 4.38696 7.74419 5.12195 6.86391 6.19542C5.98362 7.26888 5.50281 8.61438 5.50342 10.0026V11.3333" stroke="#3C8BFD" stroke-linecap="round" stroke-linejoin="round"/>
<path d="M4.17007 9.99967L5.50341 11.333L6.83674 9.99967M10.8367 7.33301V10.6663H14.1701" stroke="#3C8BFD" stroke-linecap="round" stroke-linejoin="round"/>
</svg>
