<svg width="30" height="30" viewBox="0 0 30 30" fill="none" xmlns="http://www.w3.org/2000/svg">
<g clip-path="url(#clip0_8349_33432)">
<path fill-rule="evenodd" clip-rule="evenodd" d="M8.2937 1.25H17.4878L25.2802 9.3722V25.1699C25.2802 27.1489 23.6791 28.75 21.707 28.75H8.2937C6.31469 28.75 4.71362 27.1489 4.71362 25.1699V4.83007C4.71359 2.85107 6.31466 1.25 8.2937 1.25Z" fill="#E5252A"/>
<path opacity="0.302" fill-rule="evenodd" clip-rule="evenodd" d="M17.4805 1.25V9.31035H25.2797L17.4805 1.25Z" fill="white"/>
<path d="M8.69141 21.7678V16.7446H10.8285C11.3576 16.7446 11.7768 16.8889 12.0929 17.1844C12.4089 17.473 12.567 17.8648 12.567 18.3526C12.567 18.8405 12.4089 19.2321 12.0929 19.5208C11.7768 19.8163 11.3576 19.9605 10.8285 19.9605H9.97639V21.7678H8.69141ZM9.97639 18.868H10.6842C10.8766 18.868 11.0277 18.8268 11.1308 18.7305C11.2339 18.6413 11.2889 18.5175 11.2889 18.3526C11.2889 18.1878 11.2339 18.064 11.1308 17.9746C11.0278 17.8785 10.8766 17.8373 10.6842 17.8373H9.97639V18.868ZM13.096 21.7678V16.7446H14.8758C15.2263 16.7446 15.5562 16.7928 15.8653 16.8958C16.1745 16.9989 16.4563 17.1433 16.7037 17.3425C16.951 17.5349 17.1503 17.796 17.2947 18.1259C17.432 18.4556 17.5077 18.8336 17.5077 19.2596C17.5077 19.6788 17.432 20.0568 17.2947 20.3865C17.1503 20.7164 16.951 20.9775 16.7037 21.1699C16.4563 21.3691 16.1745 21.5135 15.8653 21.6165C15.5562 21.7196 15.2263 21.7678 14.8758 21.7678H13.096ZM14.3535 20.6751H14.7247C14.9239 20.6751 15.1094 20.6546 15.2813 20.6065C15.4462 20.5584 15.6042 20.4828 15.7554 20.3798C15.8997 20.2766 16.0165 20.1323 16.0989 19.9399C16.1814 19.7475 16.2227 19.5208 16.2227 19.2596C16.2227 18.9916 16.1814 18.7649 16.0989 18.5725C16.0165 18.3801 15.8997 18.2358 15.7554 18.1328C15.6042 18.0296 15.4462 17.954 15.2813 17.906C15.1094 17.8579 14.9239 17.8373 14.7247 17.8373H14.3535V20.6751ZM18.1535 21.7678V16.7446H21.7268V17.8373H19.4385V18.6411H21.2664V19.7269H19.4385V21.7678H18.1535Z" fill="white"/>
</g>
<defs>
<clipPath id="clip0_8349_33432">
<rect width="30" height="30" fill="white"/>
</clipPath>
</defs>
</svg>
