<svg width="20" height="20" viewBox="0 0 20 20" fill="none" xmlns="http://www.w3.org/2000/svg">
<path d="M15.9487 10.4485V10.4428C15.948 10.4374 15.947 10.4322 15.9457 10.4269C15.9383 10.3813 15.9297 10.337 15.9193 10.292C15.9157 10.2767 15.9112 10.2617 15.9057 10.247C15.8793 10.1278 15.8438 10.0109 15.7995 9.89735L14.5855 6.9732C14.2785 6.23266 13.9874 5.5333 12.4682 5.5333C12.3461 5.5333 12.2289 5.58335 12.1426 5.67245C12.0562 5.76155 12.0077 5.8824 12.0077 6.00841C12.0077 6.13442 12.0562 6.25526 12.1426 6.34436C12.2289 6.43346 12.3461 6.48352 12.4682 6.48352C13.3801 6.48352 13.463 6.6837 13.7387 7.34759L14.8274 9.96767H13.097C12.7058 9.97664 12.3239 10.0919 11.9897 10.3017C11.6555 10.5116 11.3808 10.8087 11.1934 11.1631C11.0715 11.3778 10.8972 11.5558 10.6879 11.6796C10.4786 11.8033 10.2415 11.8684 10.0003 11.8684C9.75906 11.8684 9.52202 11.8033 9.31272 11.6796C9.10341 11.5558 8.92913 11.3778 8.80717 11.1631C8.61966 10.8089 8.34496 10.5119 8.01076 10.3022C7.67656 10.0924 7.29467 9.97727 6.90357 9.9683H5.17069L6.25942 7.34759C6.53513 6.6837 6.61803 6.48352 7.52992 6.48352C7.65206 6.48352 7.7692 6.43346 7.85557 6.34436C7.94194 6.25526 7.99046 6.13442 7.99046 6.00841C7.99046 5.8824 7.94194 5.76155 7.85557 5.67245C7.7692 5.58335 7.65206 5.5333 7.52992 5.5333C6.01072 5.5333 5.72027 6.23013 5.41263 6.9732L4.19801 9.89672C4.15345 10.0108 4.11772 10.1284 4.09116 10.2483C4.08642 10.2614 4.08233 10.2747 4.07888 10.2882C4.06844 10.3345 4.05923 10.3813 4.05125 10.4282V10.4428V10.4478C4.02857 10.575 4.01604 10.7038 4.01379 10.833V13.6102C3.97778 13.931 4.01251 14.256 4.11538 14.561C4.21825 14.866 4.38661 15.143 4.60786 15.3715C4.82912 15.5999 5.09755 15.7738 5.39311 15.8802C5.68867 15.9866 6.00371 16.0226 6.31469 15.9857H13.6834C13.9946 16.0229 14.3098 15.9871 14.6056 15.8809C14.9014 15.7746 15.1701 15.6008 15.3916 15.3723C15.613 15.1438 15.7815 14.8667 15.8845 14.5615C15.9875 14.2564 16.0222 13.9312 15.9862 13.6102V10.833C15.9839 10.704 15.9714 10.5754 15.9487 10.4485ZM13.6834 15.0355H6.31469C5.34631 15.0355 4.93304 14.6092 4.93304 13.6102V10.9179H6.90112C7.13141 10.9278 7.35513 11 7.54987 11.1272C7.74461 11.2543 7.90354 11.4321 8.01073 11.6426C8.21398 12.0004 8.50443 12.2972 8.85323 12.5034C9.20203 12.7096 9.59705 12.818 9.99907 12.818C10.4011 12.818 10.7961 12.7096 11.1449 12.5034C11.4937 12.2972 11.7842 12.0004 11.9874 11.6426C12.0945 11.4319 12.2533 11.254 12.4481 11.1267C12.6429 10.9994 12.8667 10.9272 13.097 10.9173H15.062V13.6102C15.0651 14.6092 14.6518 15.0355 13.6834 15.0355ZM8.44549 5.07719C8.40271 5.03312 8.36877 4.98079 8.34562 4.92317C8.32246 4.86556 8.31054 4.80381 8.31054 4.74144C8.31054 4.67908 8.32246 4.61732 8.34562 4.55971C8.36877 4.5021 8.40271 4.44977 8.44549 4.4057L9.67361 3.13873C9.71674 3.09496 9.7676 3.06013 9.82344 3.03611C9.9363 2.98796 10.0631 2.98796 10.1759 3.03611C10.2318 3.06013 10.2826 3.09496 10.3257 3.13873L11.5539 4.4057C11.5991 4.44919 11.6354 4.50165 11.6606 4.55993C11.6858 4.61821 11.6993 4.68112 11.7004 4.74491C11.7015 4.80871 11.6901 4.87207 11.6669 4.93123C11.6438 4.99039 11.6093 5.04413 11.5656 5.08925C11.5218 5.13437 11.4697 5.16993 11.4124 5.19383C11.355 5.21772 11.2936 5.22946 11.2318 5.22833C11.1699 5.22721 11.109 5.21324 11.0525 5.18728C10.996 5.16131 10.9451 5.12387 10.903 5.07719L10.4608 4.62172V8.54234C10.4608 8.66834 10.4123 8.78919 10.326 8.87829C10.2396 8.96739 10.1224 9.01745 10.0003 9.01745C9.87815 9.01745 9.76101 8.96739 9.67464 8.87829C9.58827 8.78919 9.53975 8.66834 9.53975 8.54234V4.62172L9.09762 5.07719C9.05488 5.12151 9.00407 5.15668 8.94812 5.18068C8.89216 5.20468 8.83215 5.21704 8.77155 5.21704C8.71095 5.21704 8.65095 5.20468 8.59499 5.18068C8.53903 5.15668 8.48823 5.12151 8.44549 5.07719Z" fill="#15191E"/>
</svg>
