<svg width="64" height="64" viewBox="0 0 64 64" fill="none" xmlns="http://www.w3.org/2000/svg">
<path d="M44.25 8.375C41.55 8.9625 39.3125 10.1875 37.425 12.1125L36.6875 12.875H21.3875C10.025 12.875 5.9625 12.9125 5.6 13.025C4.9625 13.2125 4.025 14.05 3.7375 14.6875C3.5125 15.1625 3.5 16.0375 3.5 34.4125C3.5 50.4375 3.525 53.7 3.675 54.05C3.9125 54.625 4.575 55.35 5.175 55.6625L5.6875 55.9375H30.5625C54.5875 55.9375 55.45 55.925 55.875 55.7C56.4875 55.375 57.1 54.775 57.4125 54.1875L57.6875 53.6875L57.725 41.775L57.75 29.85L58.2375 29.15C59.775 26.875 60.5 24.4375 60.5 21.5625C60.5 17.725 59.1625 14.5375 56.4625 11.9125C54.4625 9.975 52.275 8.825 49.5875 8.3125C48.2 8.05 45.6 8.075 44.25 8.375ZM49.25 9.4C50.4375 9.6 52.2 10.2625 53.3875 10.95C54.8125 11.7875 56.8375 13.8 57.6625 15.225C58.825 17.2125 59.3875 19.2625 59.3875 21.5625C59.3875 27.25 55.6 32.1 50.025 33.5625C46 34.625 41.5625 33.4 38.4625 30.3875C33.45 25.5375 33.45 17.5875 38.45 12.7375C41.3875 9.9 45.1875 8.725 49.25 9.4ZM35.725 14.0875C35.7125 14.15 35.3875 14.775 35.0375 15.5C33.8625 17.8375 33.4375 20.0875 33.6375 22.8125C33.875 25.8125 35.35 28.9875 37.525 31.125C39.0875 32.675 41.2125 33.9125 43.4375 34.5875C44.5 34.9 44.7 34.925 47.0625 34.925C49.425 34.925 49.625 34.9 50.6875 34.5875C52.6875 33.975 54.5625 32.9625 55.8625 31.8C56.2 31.5 56.5125 31.25 56.55 31.25C56.65 31.25 56.65 52.7375 56.55 53.2375C56.5 53.45 56.4375 53.625 56.3875 53.6125C56.35 53.6125 53.3875 49.925 49.8125 45.4125C46.2375 40.9125 43.1875 37.0875 43.025 36.925C42.675 36.5875 42.0625 36.4375 41.4375 36.55C41.075 36.625 40.4125 37.2625 37.175 40.6375C34.8625 43.0375 33.2625 44.625 33.1375 44.6C33.0375 44.575 30.775 41.725 28.125 38.25C22.8375 31.3375 22.825 31.325 21.875 31.6125C21.575 31.7 21.225 31.95 20.975 32.2375C20.75 32.5125 17.025 37.4 12.6875 43.1125C8.3625 48.825 4.775 53.4875 4.7375 53.5C4.6875 53.5 4.625 53.2875 4.575 53.025C4.45 52.275 4.4875 16.2375 4.625 15.7C4.7625 15.1 5.075 14.65 5.625 14.275L6.0375 14H20.9C29.075 14 35.75 14.0375 35.725 14.0875ZM27.3125 39.1C29.9 42.4875 32.15 45.35 32.325 45.4625C32.725 45.7125 33.6625 45.7125 34.05 45.45C34.2125 45.35 36 43.5375 38.0125 41.4375C40.2 39.15 41.75 37.625 41.9 37.625C42.1625 37.625 41.85 37.2375 49.55 46.9375L55.6125 54.5625L55.275 54.7125C55.0125 54.825 49.3125 54.8625 30.65 54.875C9.425 54.875 6.3125 54.85 5.925 54.6875L5.475 54.5L5.8375 54.0375C6.05 53.775 9.6 49.0875 13.75 43.625C22.9625 31.4875 22.1 32.575 22.3875 32.775C22.5125 32.8625 24.725 35.7125 27.3125 39.1Z" fill="#8F96AE"/>
<path d="M45.5125 12.8758C44.6625 13.0508 43.7625 13.3758 42.975 13.7758C41.7375 14.3883 41.475 14.0383 48.0375 20.6008C54.525 27.0758 54.25 26.8633 54.8125 25.7508C55.4625 24.4633 55.775 23.2758 55.8375 21.7383C55.9625 19.0008 55.25 17.1008 53.3875 15.2508C52.2875 14.1508 51.4125 13.6008 50.0375 13.1008C49.2125 12.8133 46.475 12.6758 45.5125 12.8758ZM49.0625 14.0258C51.475 14.5633 53.6875 16.6383 54.4625 19.0883C54.75 20.0258 54.775 20.2758 54.7125 21.5383C54.675 22.5633 54.575 23.1633 54.35 23.7883C54.1875 24.2633 54.025 24.6508 53.975 24.6633C53.9375 24.6758 51.6125 22.4383 48.8125 19.7008C45.325 16.2633 43.7875 14.6758 43.9 14.6133C43.9875 14.5633 44.425 14.4008 44.875 14.2508C46.325 13.7633 47.575 13.7008 49.0625 14.0258Z" fill="#8F96AE"/>
<path d="M39.4375 17.1625C38.7375 18.25 38.25 20.1625 38.25 21.9375C38.25 23.4625 38.45 24.3375 39.15 25.75C39.5625 26.6 39.875 27.025 40.7375 27.875C42.4875 29.6125 44.3125 30.375 46.7375 30.375C48.725 30.375 51.475 29.5375 51.6875 28.875C51.8 28.5375 52.025 28.7875 45.3125 22.025C41.6125 18.3125 40.1125 16.875 39.9125 16.875C39.75 16.875 39.55 17 39.4375 17.1625ZM45.1875 23.525L50.1375 28.55L49.2875 28.85C48.2375 29.225 46.2 29.3625 45.1375 29.125C42.5375 28.5625 40.0625 26.1 39.5 23.4875C39.275 22.45 39.3875 20.5 39.75 19.4C39.9125 18.9125 40.0875 18.5 40.1375 18.5C40.1875 18.5 42.4625 20.7625 45.1875 23.525Z" fill="#8F96AE"/>
<path d="M12.6625 19.1129C8.59998 20.6129 7.89998 26.0629 11.4625 28.5129C13.15 29.6754 15.725 29.6754 17.4125 28.5129C20.2125 26.5879 20.525 22.5254 18.0375 20.2504C17.675 19.9129 17.05 19.4879 16.65 19.3004C16.0375 19.0004 15.75 18.9504 14.625 18.9129C13.575 18.8754 13.1875 18.9129 12.6625 19.1129ZM16.275 20.3879C17.05 20.7754 17.7875 21.5379 18.1875 22.3379C18.5 22.9629 18.55 23.2004 18.55 24.1254C18.55 24.9879 18.4875 25.3004 18.25 25.8129C16.7 29.0254 12.2875 29.0754 10.725 25.9004C10.375 25.1879 10.3125 24.9379 10.3125 24.1254C10.3125 23.0379 10.675 22.1129 11.4125 21.2879C12.5875 19.9879 14.725 19.6004 16.275 20.3879Z" fill="#8F96AE"/>
</svg>
