<svg width="16" height="16" viewBox="0 0 16 16" fill="none" xmlns="http://www.w3.org/2000/svg">
<g clip-path="url(#clip0_3797_46309)">
<path d="M14.545 5.45448V11.6363C14.545 13.8181 13.4541 15.2727 10.9086 15.2727H5.09047C2.54501 15.2727 1.4541 13.8181 1.4541 11.6363V5.45448C1.4541 3.27266 2.54501 1.81812 5.09047 1.81812H10.9086C13.4541 1.81812 14.545 3.27266 14.545 5.45448Z" stroke="#141414" stroke-width="1.2" stroke-miterlimit="10" stroke-linecap="round" stroke-linejoin="round"/>
<path d="M5.09082 0.727295V2.90911" stroke="#141414" stroke-width="1.2" stroke-miterlimit="10" stroke-linecap="round" stroke-linejoin="round"/>
<path d="M10.9092 0.727295V2.90911" stroke="#141414" stroke-width="1.2" stroke-miterlimit="10" stroke-linecap="round" stroke-linejoin="round"/>
<path d="M1.81836 5.88354H14.182" stroke="#141414" stroke-width="1.2" stroke-miterlimit="10" stroke-linecap="round" stroke-linejoin="round"/>
<path d="M10.6868 9.23619H10.6933" stroke="#141414" stroke-width="1.4" stroke-linecap="round" stroke-linejoin="round"/>
<path d="M10.6868 11.4181H10.6933" stroke="#141414" stroke-width="1.4" stroke-linecap="round" stroke-linejoin="round"/>
<path d="M7.99636 9.23619H8.00289" stroke="#141414" stroke-width="1.4" stroke-linecap="round" stroke-linejoin="round"/>
<path d="M7.99636 11.4181H8.00289" stroke="#141414" stroke-width="1.4" stroke-linecap="round" stroke-linejoin="round"/>
<path d="M5.30495 9.23644H5.31149" stroke="#141414" stroke-width="1.4" stroke-linecap="round" stroke-linejoin="round"/>
<path d="M5.30495 11.4181H5.31149" stroke="#141414" stroke-width="1.4" stroke-linecap="round" stroke-linejoin="round"/>
</g>
<defs>
<clipPath id="clip0_3797_46309">
<rect width="16" height="16" fill="white"/>
</clipPath>
</defs>
</svg>
