<svg width="14" height="14" viewBox="0 0 14 14" fill="none" xmlns="http://www.w3.org/2000/svg">
<path d="M7 14C10.8593 14 14 10.8593 14 7C14 3.14067 10.8594 0 7 0C3.14063 0 0 3.14067 0 7C0 10.8593 3.14067 14 7 14ZM7 0.933318C10.346 0.933318 13.0667 3.65398 13.0667 7C13.0667 10.346 10.346 13.0667 7 13.0667C3.65398 13.0667 0.933318 10.346 0.933318 7C0.933318 3.65398 3.65401 0.933318 7 0.933318Z" fill="#BBBDC5"/>
<path d="M9.04153 9.23071C9.12788 9.3007 9.23052 9.33339 9.3332 9.33339C9.47086 9.33339 9.60619 9.27272 9.69718 9.15839C9.85819 8.95772 9.82549 8.66372 9.62486 8.50271L7.46652 6.77604V3.26671C7.46652 3.01004 7.25653 2.80005 6.99986 2.80005C6.74319 2.80005 6.5332 3.01004 6.5332 3.26671V7.00006C6.5332 7.1424 6.59855 7.27539 6.7082 7.36404L9.04153 9.23071Z" fill="#BBBDC5"/>
</svg>
