<svg width="9" height="6" viewBox="0 0 9 6" fill="none" xmlns="http://www.w3.org/2000/svg">
<path d="M8.77246 1.00195C8.88704 1.10938 8.94434 1.24007 8.94434 1.39404C8.94434 1.54801 8.88704 1.67871 8.77246 1.78613L4.98047 5.44922C4.86589 5.55664 4.72982 5.61035 4.57227 5.61035C4.41471 5.61035 4.28223 5.55664 4.1748 5.44922L0.586914 1.99023C0.472331 1.88281 0.415039 1.75212 0.415039 1.59814C0.415039 1.44417 0.472331 1.31348 0.586914 1.20605C0.694336 1.09863 0.826823 1.04492 0.984375 1.04492C1.14193 1.04492 1.27799 1.09863 1.39258 1.20605L4.57227 4.28906L7.9668 1.00195C8.08138 0.894531 8.21745 0.84082 8.375 0.84082C8.53255 0.84082 8.66504 0.894531 8.77246 1.00195Z" fill="#99A1B7"/>
</svg>
