<svg width="9" height="6" viewBox="0 0 9 6" fill="none" xmlns="http://www.w3.org/2000/svg">
<g clip-path="url(#clip0_279_9)">
<path d="M8.77148 1.00195C8.88606 1.10938 8.94336 1.24007 8.94336 1.39404C8.94336 1.54801 8.88606 1.67871 8.77148 1.78613L4.97949 5.44922C4.86491 5.55664 4.72884 5.61035 4.57129 5.61035C4.41373 5.61035 4.28125 5.55664 4.17382 5.44922L0.585938 1.99023C0.471354 1.88281 0.414062 1.75212 0.414062 1.59814C0.414062 1.44417 0.471354 1.31348 0.585938 1.20605C0.69336 1.09863 0.825846 1.04492 0.983398 1.04492C1.14095 1.04492 1.27701 1.09863 1.3916 1.20605L4.57129 4.28906L7.96582 1.00195C8.0804 0.894531 8.21647 0.84082 8.37402 0.84082C8.53157 0.84082 8.66406 0.894531 8.77148 1.00195Z" fill="#15191E"/>
</g>
<defs>
<clipPath id="clip0_279_9">
<rect width="9" height="6" fill="white"/>
</clipPath>
</defs>
</svg>
