<svg width="5" height="9" viewBox="0 0 5 9" fill="none" xmlns="http://www.w3.org/2000/svg">
<path d="M0.276367 0.175781C0.383789 0.0683594 0.514486 0.0146484 0.668457 0.0146484C0.822428 0.0146484 0.953125 0.0683594 1.06055 0.175781L4.72363 3.93555C4.83105 4.04297 4.88477 4.17546 4.88477 4.33301C4.88477 4.49056 4.83105 4.62305 4.72363 4.73047L1.25391 8.27539C1.14648 8.38997 1.01758 8.44727 0.867188 8.44727C0.716797 8.44727 0.587891 8.38997 0.480469 8.27539C0.373047 8.16797 0.319336 8.03727 0.319336 7.8833C0.319336 7.72933 0.373047 7.59505 0.480469 7.48047L3.55273 4.33301L0.276367 0.970703C0.168945 0.863281 0.115234 0.732584 0.115234 0.578613C0.115234 0.424642 0.168945 0.290364 0.276367 0.175781Z" fill="#99A1B7"/>
</svg>
