<svg width="9" height="6" viewBox="0 0 9 6" fill="none" xmlns="http://www.w3.org/2000/svg">
<g clip-path="url(#clip0_330_88)">
<mask id="mask0_330_88" style="mask-type:luminance" maskUnits="userSpaceOnUse" x="0" y="0" width="9" height="6">
<path d="M9 0H0V6H9V0Z" fill="white"/>
</mask>
<g mask="url(#mask0_330_88)">
<path d="M8.77148 1.00097C8.88606 1.1084 8.94336 1.23909 8.94336 1.39306C8.94336 1.54703 8.88606 1.67773 8.77148 1.78515L4.97949 5.44824C4.86491 5.55566 4.72884 5.60937 4.57129 5.60937C4.41373 5.60937 4.28125 5.55566 4.17382 5.44824L0.585938 1.98925C0.471354 1.88183 0.414062 1.75114 0.414062 1.59716C0.414062 1.44319 0.471354 1.3125 0.585938 1.20507C0.69336 1.09765 0.825847 1.04394 0.983399 1.04394C1.14095 1.04394 1.27701 1.09765 1.3916 1.20507L4.57129 4.28808L7.96582 1.00097C8.0804 0.893555 8.21647 0.839844 8.37402 0.839844C8.53157 0.839844 8.66406 0.893555 8.77148 1.00097Z" fill="white"/>
</g>
</g>
<defs>
<clipPath id="clip0_330_88">
<rect width="9" height="6" fill="white"/>
</clipPath>
</defs>
</svg>
