<svg width="42" height="42" viewBox="0 0 42 42" fill="none" xmlns="http://www.w3.org/2000/svg">
<path d="M31.4998 10.5C30.4323 10.5 29.4523 9.8875 28.9623 8.9425L27.7023 6.405C26.8973 4.8125 24.7973 3.5 23.0123 3.5H19.0048C17.2023 3.5 15.1023 4.8125 14.2973 6.405L13.0373 8.9425C12.5473 9.8875 11.5673 10.5 10.4998 10.5C6.70231 10.5 3.6923 13.7025 3.9373 17.4825L4.8473 31.9375C5.05731 35.5425 6.99981 38.5 11.8298 38.5H30.1698C34.9998 38.5 36.9248 35.5425 37.1523 31.9375L38.0623 17.4825C38.3073 13.7025 35.2973 10.5 31.4998 10.5ZM18.3748 12.6875H23.6248C24.3423 12.6875 24.9373 13.2825 24.9373 14C24.9373 14.7175 24.3423 15.3125 23.6248 15.3125H18.3748C17.6573 15.3125 17.0623 14.7175 17.0623 14C17.0623 13.2825 17.6573 12.6875 18.3748 12.6875ZM20.9998 31.71C17.7448 31.71 15.0848 29.0675 15.0848 25.795C15.0848 22.5225 17.7273 19.88 20.9998 19.88C24.2723 19.88 26.9148 22.5225 26.9148 25.795C26.9148 29.0675 24.2548 31.71 20.9998 31.71Z" fill="#6B7080"/>
</svg>
