<svg width="239" height="236" viewBox="0 0 239 236" fill="none" xmlns="http://www.w3.org/2000/svg">
<path d="M110.564 64.3886C110.565 74.334 107.616 84.0564 102.092 92.3262C96.5669 100.596 88.7139 107.042 79.5258 110.848C70.3377 114.655 60.2272 115.651 50.4727 113.712C40.7183 111.772 31.7581 106.983 24.7253 99.9511C17.6925 92.9189 12.903 83.9592 10.9624 74.205C9.02182 64.4507 10.0173 54.3401 13.823 45.1516C17.6288 35.9632 24.0738 28.1095 32.3431 22.5841C40.6123 17.0586 50.3343 14.1094 60.2798 14.1094V33.8056C53.1993 33.8037 46.3372 36.2572 40.8629 40.7479C35.3887 45.2385 31.641 51.4885 30.2587 58.4327C28.8763 65.377 29.9448 72.5857 33.282 78.8305C36.6192 85.0752 42.0187 89.9694 48.5601 92.6791C55.1016 95.3888 62.3803 95.7463 69.1558 93.6907C75.9313 91.635 81.7844 87.2935 85.7174 81.4058C89.6505 75.5182 91.4203 68.4489 90.725 61.4026C90.0298 54.3563 86.9127 47.7691 81.9049 42.7636L95.8147 28.8538C100.493 33.5133 104.204 39.0513 106.735 45.1496C109.266 51.2478 110.567 57.786 110.564 64.3886V64.3886Z" stroke="#007AFF" stroke-width="0.46366" stroke-linecap="round" stroke-linejoin="round"/>
<path d="M189.358 121.297C190.999 124.542 192.78 127.872 194.973 130.783C195.329 131.325 195.805 131.777 196.364 132.105C196.644 132.263 196.967 132.33 197.288 132.295C197.608 132.26 197.909 132.125 198.149 131.91C198.761 131.252 198.404 130.195 197.996 129.392C196.75 126.943 195.3 124.602 193.661 122.396" stroke="#111231" stroke-width="0.46366" stroke-linecap="round" stroke-linejoin="round"/>
<path d="M180.78 108.859C181.244 110.714 181.647 112.323 181.708 112.787C182.111 115.902 183.099 118.735 184.105 121.596" stroke="#111231" stroke-width="0.46366" stroke-linecap="round" stroke-linejoin="round"/>
<path d="M197.322 128.059C197.786 128.685 198.25 129.371 199.019 129.636C199.789 129.9 200.781 129.571 200.939 128.796C201.064 128.18 200.633 127.6 200.225 127.122C198.247 124.813 196.213 122.554 194.123 120.344" stroke="#111231" stroke-width="0.46366" stroke-linecap="round" stroke-linejoin="round"/>
<path d="M200.144 127.027C200.455 127.542 201.41 127.491 201.813 127.069C201.998 126.831 202.115 126.548 202.152 126.249C202.189 125.95 202.144 125.647 202.022 125.372C201.766 124.828 201.414 124.335 200.983 123.916L196.648 119.191" stroke="#111231" stroke-width="0.46366" stroke-linecap="round" stroke-linejoin="round"/>
<path d="M201.793 124.928C202.157 124.819 202.469 124.58 202.669 124.256C202.869 123.932 202.944 123.546 202.878 123.171C202.693 122.527 202.348 121.94 201.876 121.464C198.631 117.602 186.024 100.934 186.024 100.934" stroke="#111231" stroke-width="0.46366" stroke-linecap="round" stroke-linejoin="round"/>
<path d="M224.329 113.859L88.2276 139.945L102.022 211.917L238.123 185.831L224.329 113.859Z" fill="white" stroke="black" stroke-width="0.46366" stroke-miterlimit="10"/>
<path d="M166.931 124.457C167.394 124.796 171.47 160.516 171.47 160.516L179.25 197.145L164.32 191.303L156.679 134.43L166.931 124.457Z" fill="#111231"/>
<path d="M132.185 109.895L76.3789 219.216H116.694L154.366 123.981" fill="white"/>
<path d="M132.185 109.895L76.3789 219.216H116.694L154.366 123.981" stroke="#111231" stroke-width="0.46366" stroke-linecap="round" stroke-linejoin="round"/>
<path d="M88.1733 218.69L139.927 128.207" stroke="#111231" stroke-width="0.46366" stroke-linecap="round" stroke-linejoin="round"/>
<path d="M133.306 112.891C133.171 116.327 133.959 119.738 135.59 122.766C137.222 125.794 139.635 128.329 142.58 130.106" stroke="#111231" stroke-width="0.46366" stroke-linecap="round" stroke-linejoin="round"/>
<path d="M139.102 162.354C140.26 181.724 143.076 200.959 147.517 219.848C159.665 217.53 171.984 215.29 184.146 212.958C179.115 195.742 173.176 178.647 166.708 161.918L167.051 107.591L159.22 93.3477" fill="white"/>
<path d="M139.102 162.354C140.26 181.724 143.076 200.959 147.517 219.848C159.665 217.53 171.984 215.29 184.146 212.958C179.115 195.742 173.176 178.647 166.708 161.918L167.051 107.591L159.22 93.3477" stroke="#111231" stroke-width="0.46366" stroke-linecap="round" stroke-linejoin="round"/>
<path d="M146.265 145.277L143.979 167.811C143.979 167.811 175.508 214.288 176.018 214.288" stroke="#111231" stroke-width="0.46366" stroke-linecap="round" stroke-linejoin="round"/>
<path d="M70.0869 235.371L99.9234 219.527H112.071L115.373 235.106L107.977 235.236L107.583 230.484L103.888 235.5L70.0869 235.371Z" fill="#111231"/>
<path d="M137.155 235.368C137.289 234.84 166.602 220.067 166.602 220.067L164.881 216.636L178.216 214.258L182.046 235.252L174.915 235.382L174.521 230.5L170.955 235.136L137.155 235.368Z" fill="#111231"/>
<path d="M85.6507 85.5997L80.518 78.0143C80.2167 77.5507 79.7113 77.0638 79.2291 77.3095C79.0843 77.4168 78.9669 77.5566 78.8863 77.7177C78.8057 77.8789 78.7643 78.0567 78.7654 78.2369L78.362 81.5891C78.3376 81.9973 78.2353 82.3971 78.0606 82.7668C77.9698 82.949 77.8293 83.1018 77.6554 83.2076C77.4815 83.3134 77.2812 83.368 77.0777 83.365C76.614 83.314 76.2802 82.8642 76.0576 82.4376C75.2834 80.9767 74.8806 79.3475 74.8847 77.6941C74.8889 76.0406 75.3 74.4135 76.0816 72.9565C76.8633 71.4995 77.9916 70.2572 79.3669 69.3393C80.7422 68.4214 82.3222 67.8561 83.9676 67.6932C82.875 65.9394 82.1128 64.0001 81.7189 61.9716C81.5705 61.1185 81.6216 60.0104 82.4237 59.6812C82.664 59.6056 82.9204 59.5968 83.1654 59.6556C83.4103 59.7144 83.6348 59.8386 83.8147 60.015C84.174 60.3803 84.4618 60.8096 84.6631 61.2808L94.1357 80.1333" fill="white"/>
<path d="M85.6507 85.5997L80.518 78.0143C80.2167 77.5507 79.7113 77.0638 79.2291 77.3095C79.0843 77.4168 78.9669 77.5566 78.8863 77.7177C78.8057 77.8789 78.7643 78.0567 78.7654 78.2369L78.362 81.5891C78.3376 81.9973 78.2353 82.3971 78.0606 82.7668C77.9698 82.949 77.8293 83.1018 77.6554 83.2076C77.4815 83.3134 77.2812 83.368 77.0777 83.365C76.614 83.314 76.2802 82.8642 76.0576 82.4376C75.2834 80.9767 74.8806 79.3475 74.8847 77.6941C74.8889 76.0406 75.3 74.4135 76.0816 72.9565C76.8633 71.4995 77.9916 70.2572 79.3669 69.3393C80.7422 68.4214 82.3222 67.8561 83.9676 67.6932C82.875 65.9394 82.1128 64.0001 81.7189 61.9716C81.5705 61.1185 81.6216 60.0104 82.4237 59.6812C82.664 59.6056 82.9204 59.5968 83.1654 59.6556C83.4103 59.7144 83.6348 59.8386 83.8147 60.015C84.174 60.3803 84.4618 60.8096 84.6631 61.2808L94.1357 80.1333" stroke="#111231" stroke-width="0.46366" stroke-linecap="round" stroke-linejoin="round"/>
<path d="M128.35 53.3645C127.793 54.1249 127.422 55.0058 126.847 55.7616C126.286 56.5388 125.463 57.0871 124.529 57.3056C124.518 57.3056 124.507 57.3099 124.499 57.3177C124.492 57.3255 124.487 57.3362 124.487 57.3473C124.487 57.3583 124.492 57.369 124.499 57.3768C124.507 57.3846 124.518 57.389 124.529 57.389L126.416 57.7831C126.207 58.4479 126.187 59.1577 126.359 59.8331C126.53 60.5085 126.885 61.1231 127.385 61.6083C127.895 62.0833 128.499 62.4463 129.158 62.6739C129.817 62.9015 130.516 62.9886 131.21 62.9297C132.683 62.8124 134.075 62.2071 135.165 61.2096C136.243 60.2108 137.042 58.9483 137.484 57.5466C137.804 56.6742 137.914 55.7385 137.804 54.8157C137.681 54.151 137.422 53.5188 137.044 52.9586C136.666 52.3983 136.177 51.922 135.606 51.5595C135.036 51.1971 134.397 50.9561 133.729 50.8518C133.061 50.7475 132.379 50.7821 131.725 50.9534C130.37 51.3745 129.187 52.2198 128.35 53.3645V53.3645Z" stroke="#111231" stroke-width="0.46366" stroke-linecap="round" stroke-linejoin="round"/>
<path d="M126.396 59.8233C126.805 60.0199 127.263 60.09 127.711 60.0247C128.16 59.9595 128.578 59.7618 128.914 59.457" stroke="#111231" stroke-width="0.46366" stroke-linecap="round" stroke-linejoin="round"/>
<path d="M128.039 56.2208C128.213 56.0198 128.434 55.8648 128.682 55.77C128.93 55.6751 129.198 55.6433 129.462 55.6773C129.725 55.7113 129.977 55.8101 130.193 55.9648C130.409 56.1195 130.583 56.3254 130.7 56.564" stroke="#111231" stroke-width="0.46366" stroke-linecap="round" stroke-linejoin="round"/>
<path d="M128.461 54.5862C128.988 54.3421 129.581 54.2801 130.147 54.4103C130.712 54.5404 131.219 54.8552 131.586 55.3049" stroke="#111231" stroke-width="0.46366" stroke-linecap="round" stroke-linejoin="round"/>
<path d="M131.163 51.3399C130.846 52.379 130.752 53.4731 130.887 54.5509C131.022 55.6287 131.383 56.6659 131.946 57.5947C132.371 57.2446 132.866 56.99 133.398 56.8482C133.664 56.7809 133.944 56.7859 134.208 56.8625C134.472 56.9391 134.711 57.0846 134.9 57.2841C135.088 57.5476 135.18 57.8676 135.161 58.1908C135.141 58.514 135.012 58.8208 134.793 59.0598C134.567 59.2924 134.292 59.4715 133.988 59.5838C133.684 59.6962 133.359 59.739 133.036 59.709C133.357 60.4338 133.784 61.1073 134.302 61.7074C135.331 61.3921 135.994 60.4184 136.551 59.5004C137.302 58.2624 138.025 56.927 138.048 55.485C138.048 54.7418 137.871 54.0092 137.532 53.3475C137.194 52.6858 136.703 52.1138 136.101 51.6784C135.493 51.2507 134.802 50.9565 134.072 50.815C133.342 50.6736 132.591 50.6881 131.868 50.8577C131.162 51.0221 130.495 51.3196 129.902 51.7341C129.322 52.1328 128.942 52.7402 128.399 53.1251C128.802 52.7015 129.272 52.3474 129.79 52.0772C130.262 51.8594 130.721 51.6132 131.163 51.3399Z" fill="#111231"/>
<path d="M129.522 56.6851C129.809 56.6851 130.041 56.4775 130.041 56.2215C130.041 55.9654 129.809 55.7578 129.522 55.7578C129.235 55.7578 129.003 55.9654 129.003 56.2215C129.003 56.4775 129.235 56.6851 129.522 56.6851Z" fill="#111231"/>
<path d="M131.9 58.5797C132.115 58.3597 132.388 58.2058 132.687 58.1359C132.986 58.0661 133.299 58.0833 133.588 58.1855" stroke="#111231" stroke-width="0.46366" stroke-linecap="round" stroke-linejoin="round"/>
<path d="M132.753 59.1862C132.978 58.8634 133.071 58.4671 133.013 58.0781" stroke="#111231" stroke-width="0.46366" stroke-linecap="round" stroke-linejoin="round"/>
<path d="M134.794 61.4258C134.086 62.0552 133.234 62.5001 132.312 62.7209C131.391 62.9417 130.43 62.9316 129.513 62.6916L129.977 63.9249C130.059 64.3504 130.208 64.7604 130.417 65.1397C130.784 65.5199 131.665 64.7687 132.012 64.5044C132.557 64.079 133.058 63.599 133.505 63.0718C133.902 62.498 134.332 61.9483 134.794 61.4258Z" fill="#111231"/>
<path d="M129.698 62.7891C130.041 63.8648 130.426 64.9312 130.839 65.9837" stroke="#111231" stroke-width="0.46366" stroke-linecap="round" stroke-linejoin="round"/>
<path d="M134.724 61.5039L135.994 64.0865" stroke="#111231" stroke-width="0.46366" stroke-linecap="round" stroke-linejoin="round"/>
<path d="M149.84 54.7675C148.728 53.4324 147.458 52.2381 146.056 51.2112C144.665 50.0984 143.107 48.9764 141.313 48.7817C140.256 48.6887 139.196 48.9225 138.277 49.4516C137.357 49.9806 136.622 50.7795 136.171 51.7399C136.371 52.0876 136.635 52.4492 136.848 52.7969C137.311 52.4558 137.858 52.249 138.431 52.1991C139.004 52.1492 139.579 52.2582 140.094 52.5141C141.105 53.0504 141.867 53.9604 142.217 55.0503C142.56 56.1325 142.678 57.2732 142.565 58.4026C142.491 59.5293 142.291 60.6467 142.185 61.7734C144.712 59.3392 147.165 57.0394 149.84 54.7675Z" fill="#111231"/>
<path d="M193.286 105.123C189.058 110.195 184.625 114.906 179.937 119.556C173.493 110.404 166.454 101.515 159.305 92.9006C150.031 97.2682 139.636 105.67 130.701 112.147C129.459 109.258 128.29 94.44 127.28 91.4633C126.148 96.1694 124.372 100.699 122.606 105.211C121.716 107.469 120.788 109.796 119.077 111.526C115.966 114.669 110.866 115.073 106.665 113.682C102.464 112.291 98.9499 109.412 95.5374 106.592C89.8112 101.858 83.9459 97.1802 78.2336 92.4508L94.5498 76.8023C98.8016 83.3492 103.044 89.6504 107.296 96.1972C109.647 90.4757 112.396 84.4806 114.974 78.8564C115.967 76.6684 117.159 74.5762 118.535 72.6063C119.791 70.8119 121.507 69.6805 123.394 68.5584C127.521 66.101 132.069 64.4597 136.627 62.9945C140.225 61.8493 144.018 60.8014 147.727 61.4969C152.976 62.4752 156.926 66.6806 160.487 70.6542C161.947 72.2863 191.826 103.477 193.286 105.109" fill="#26CA8E"/>
<path d="M159.214 93.4601L151.351 71.3203" stroke="#111231" stroke-width="0.46366" stroke-linecap="round" stroke-linejoin="round"/>
<path d="M124.84 80.9336L127.757 94.0413" stroke="#111231" stroke-width="0.46366" stroke-linecap="round" stroke-linejoin="round"/>
<path d="M79.2388 26.8338C82.132 22.4893 90.26 10.7773 90.26 10.7773H117.213" stroke="black" stroke-width="0.46366" stroke-miterlimit="10"/>
<path d="M40.091 100.133C37.1978 104.477 29.0699 116.189 29.0699 116.189H2.11731" stroke="#007AFF" stroke-width="0.46366" stroke-linecap="round" stroke-linejoin="round"/>
<path d="M183.993 121.295C184.582 122.955 185.291 124.93 185.806 126.678C185.964 127.434 186.299 128.141 186.784 128.742C187.313 129.298 188.236 129.567 188.866 129.122C189.409 128.742 189.543 128.009 189.608 127.351C189.765 124.751 189.637 122.142 189.228 119.57" fill="white"/>
<path d="M183.993 121.295C184.582 122.955 185.291 124.93 185.806 126.678C185.964 127.434 186.299 128.141 186.784 128.742C187.313 129.298 188.236 129.567 188.866 129.122C189.409 128.742 189.543 128.009 189.608 127.351C189.765 124.751 189.637 122.142 189.228 119.57" stroke="#111231" stroke-width="0.46366" stroke-linecap="round" stroke-linejoin="round"/>
<path d="M46.6902 53.536C47.1365 54.7328 47.8582 55.8078 48.797 56.6739C49.7359 57.54 50.8654 58.1729 52.0943 58.5214C53.3231 58.8699 54.6167 58.9242 55.8704 58.68C57.1242 58.4357 58.3028 57.8998 59.311 57.1155C61.0404 55.7662 62.2042 53.74 64.0867 52.6087C66.0526 51.4217 68.5517 51.4078 70.7587 52.043C72.9658 52.6783 74.9317 53.8976 76.9022 55.1078" stroke="#111231" stroke-width="0.46366" stroke-linecap="round" stroke-linejoin="round"/>
<path d="M45.7484 60.8711C46.8362 63.4445 48.8353 65.526 51.3626 66.717C53.8899 67.9079 56.7678 68.1245 59.4449 67.3252C60.9792 66.7885 62.4729 66.1424 63.9146 65.3918C65.389 64.7102 66.9516 64.1213 68.5512 64.1121C70.1508 64.1028 71.8849 64.7611 72.7752 66.1196" stroke="#111231" stroke-width="0.46366" stroke-linecap="round" stroke-linejoin="round"/>
<path d="M117.213 1H107.263V6.38309H117.213V1Z" stroke="#111231" stroke-width="0.46366" stroke-linecap="round" stroke-linejoin="round"/>
<path d="M12.0674 120.797H2.11731V126.18H12.0674V120.797Z" stroke="#007AFF" stroke-width="0.46366" stroke-linecap="round" stroke-linejoin="round"/>
<path d="M81.905 42.7568L95.8148 28.847C91.1516 24.1704 85.6098 20.4618 79.5082 17.9346C73.4066 15.4074 66.8655 14.1114 60.2613 14.1211V33.8128C64.2804 33.8035 68.2616 34.589 71.9761 36.1239C75.6905 37.6589 79.0648 39.9131 81.905 42.7568Z" stroke="black" stroke-width="0.46366" stroke-miterlimit="10"/>
<path d="M195.849 175.813C192.307 175.604 188.852 174.023 186.668 171.246" stroke="#FDC529" stroke-width="0.46366" stroke-linecap="round" stroke-linejoin="round"/>
<path d="M216.514 148.143C215.67 150.578 214.273 152.784 212.434 154.588C209.272 157.625 204.645 159.225 200.351 158.298C196.058 157.37 192.335 153.846 191.63 149.52C190.925 145.195 193.586 140.442 197.773 139.144C201.483 137.994 205.655 139.607 208.312 142.426C210.969 145.246 212.226 149.154 212.68 153.007C213.232 157.741 212.615 162.688 210.362 166.894C208.363 170.654 204.997 173.756 200.986 175.114" stroke="#FDC529" stroke-width="0.46366" stroke-linecap="round" stroke-linejoin="round"/>
<path d="M214.809 130.105C216.733 134.047 217.864 138.451 217.591 142.814" stroke="#FDC529" stroke-width="0.46366" stroke-linecap="round" stroke-linejoin="round"/>
<path d="M159.957 24.851L171.591 9.3925C172.662 7.9737 173.76 6.52243 175.258 5.55338C176.756 4.58433 178.74 4.19026 180.317 5.01093C182.306 6.04953 182.969 8.55328 183.159 10.7881C183.334 12.8336 183.285 14.8919 183.015 16.927C182.839 18.2438 182.366 19.7878 181.086 20.1726C180.099 20.4601 179.014 19.8433 178.494 18.9577C178.023 18.0347 177.851 16.9878 178.003 15.9625C178.207 13.7157 179.074 11.5804 180.496 9.82842C181.917 8.07647 183.828 6.78727 185.984 6.12492C188.141 5.46257 190.446 5.45708 192.606 6.10918C194.765 6.76128 196.682 8.04136 198.112 9.78654" stroke="#111231" stroke-width="0.46366" stroke-linecap="round" stroke-linejoin="round"/>
<path d="M25.556 160.375C22.1574 164.627 20.8684 170.149 19.8994 175.504L25.556 160.375Z" fill="white"/>
<path d="M25.556 160.375C22.1574 164.627 20.8684 170.149 19.8994 175.504" stroke="black" stroke-width="0.46366" stroke-miterlimit="10"/>
<path d="M20.5858 180.996C23.02 183.778 27.2717 184.242 30.879 183.379C34.2264 182.55 37.2906 180.839 39.7531 178.425C42.2156 176.01 43.9864 172.981 44.8815 169.65C45.3823 167.698 45.2849 165.12 43.4489 164.276C42.0579 163.641 40.4721 164.369 39.2064 165.204C36.1331 167.222 33.5548 169.908 31.6635 173.061C29.7722 176.215 28.6167 179.754 28.2829 183.416C27.9491 187.077 28.4457 190.767 29.7357 194.21C31.0257 197.654 33.0759 200.762 35.7335 203.303" fill="white"/>
<path d="M20.5858 180.996C23.02 183.778 27.2717 184.242 30.879 183.379C34.2264 182.55 37.2906 180.839 39.7531 178.425C42.2156 176.01 43.9864 172.981 44.8815 169.65C45.3823 167.698 45.2849 165.12 43.4489 164.276C42.0579 163.641 40.4721 164.369 39.2064 165.204C36.1331 167.222 33.5548 169.908 31.6635 173.061C29.7722 176.215 28.6167 179.754 28.2829 183.416C27.9491 187.077 28.4457 190.767 29.7357 194.21C31.0257 197.654 33.0759 200.762 35.7335 203.303" stroke="black" stroke-width="0.46366" stroke-miterlimit="10"/>
<path d="M36.8555 204.246C38.3298 205.351 40.0103 206.149 41.798 206.595C43.5858 207.04 45.4445 207.122 47.2647 206.838" fill="white"/>
<path d="M36.8555 204.246C38.3298 205.351 40.0103 206.149 41.798 206.595C43.5858 207.04 45.4445 207.122 47.2647 206.838" stroke="black" stroke-width="0.46366" stroke-miterlimit="10"/>
<path d="M20.0389 179.231C19.8678 178.896 19.7664 178.529 19.7409 178.154C19.7154 177.779 19.7663 177.402 19.8905 177.047" fill="white"/>
<path d="M20.0389 179.231C19.8678 178.896 19.7664 178.529 19.7409 178.154C19.7154 177.779 19.7663 177.402 19.8905 177.047" stroke="black" stroke-width="0.46366" stroke-miterlimit="10"/>
<path d="M197.329 48.2109L201.418 52.3004" stroke="#111231" stroke-width="0.46366" stroke-linecap="round" stroke-linejoin="round"/>
<path d="M212.767 22.5729L215.809 19.5312" stroke="#111231" stroke-width="0.46366" stroke-linecap="round" stroke-linejoin="round"/>
<path d="M14.3535 198.172L17.1587 200.972" stroke="#111231" stroke-width="0.46366" stroke-linecap="round" stroke-linejoin="round"/>
<path d="M152.182 46.38C156.926 45.7128 161.745 46.9074 165.628 49.7137" stroke="#111231" stroke-width="0.46366" stroke-linecap="round" stroke-linejoin="round"/>
<path d="M62.0054 138.633L66.0949 142.718" stroke="#111231" stroke-width="0.46366" stroke-linecap="round" stroke-linejoin="round"/>
<path d="M208.392 209.422L212.481 213.511" stroke="#111231" stroke-width="0.46366" stroke-linecap="round" stroke-linejoin="round"/>
<path d="M61.1288 1.85938L65.2183 5.94886" stroke="#111231" stroke-width="0.46366" stroke-linecap="round" stroke-linejoin="round"/>
<path d="M205.919 83.5797H206.151C206.243 83.5829 206.334 83.5621 206.416 83.5194C206.503 83.4924 206.581 83.4429 206.643 83.3757C206.707 83.3137 206.757 83.2375 206.786 83.1532C206.828 83.0696 206.848 82.9774 206.847 82.8842L206.819 82.6987C206.786 82.5838 206.726 82.4787 206.643 82.3927L206.499 82.2814C206.393 82.2205 206.273 82.1886 206.151 82.1887H205.919C205.827 82.182 205.735 82.203 205.655 82.2489C205.571 82.2795 205.493 82.3281 205.429 82.3913C205.365 82.4546 205.316 82.531 205.284 82.6152C205.243 82.6989 205.222 82.7911 205.224 82.8842L205.252 83.0696C205.285 83.1845 205.345 83.2897 205.428 83.3757L205.572 83.4823C205.676 83.5466 205.797 83.5803 205.919 83.5797Z" fill="#111231"/>
<path d="M33.3174 132.524H33.5446C33.6381 132.53 33.7315 132.509 33.8135 132.464C33.8987 132.435 33.9753 132.386 34.0361 132.32C34.1046 132.261 34.1545 132.184 34.1798 132.097C34.2231 132.014 34.2439 131.922 34.2401 131.828L34.2123 131.643C34.1814 131.527 34.1207 131.422 34.0361 131.337L33.8969 131.23C33.7905 131.167 33.6687 131.133 33.5446 131.133H33.3174C33.2242 131.131 33.1321 131.152 33.0485 131.193C32.963 131.221 32.8863 131.27 32.8259 131.337C32.7599 131.398 32.7104 131.474 32.6822 131.559C32.6373 131.642 32.6164 131.735 32.6219 131.828V132.014C32.6523 132.131 32.7149 132.237 32.8027 132.32L32.9418 132.431C33.0493 132.492 33.1707 132.524 33.2942 132.524H33.3174Z" fill="#111231"/>
<path d="M139.064 6.23955H139.292C139.385 6.24101 139.477 6.22041 139.56 6.17933C139.645 6.15054 139.722 6.10113 139.783 6.03556C139.85 5.9739 139.9 5.8955 139.927 5.80837C139.973 5.72825 139.994 5.63619 139.987 5.54406V5.35864C139.956 5.24077 139.893 5.13341 139.806 5.04791L139.667 4.94128C139.56 4.87896 139.438 4.84693 139.315 4.84857H139.088C138.995 4.8431 138.902 4.86235 138.819 4.90426C138.735 4.936 138.659 4.98489 138.596 5.04791C138.529 5.10957 138.479 5.18797 138.452 5.2751C138.409 5.35791 138.388 5.45068 138.392 5.54406V5.72495C138.425 5.84206 138.487 5.94888 138.573 6.03556L138.712 6.1422C138.819 6.20391 138.941 6.23739 139.064 6.23955Z" fill="#111231"/>
<path d="M0.672341 68.5864H0.89953C0.993085 68.5923 1.08637 68.5715 1.16843 68.5261C1.25418 68.4991 1.33104 68.4494 1.39098 68.3824C1.45952 68.3238 1.5095 68.2464 1.53474 68.1598C1.58007 68.0778 1.60099 67.9844 1.59502 67.8909V67.7055C1.56247 67.5894 1.50012 67.4839 1.41419 67.3994L1.27506 67.2927C1.16857 67.229 1.04678 67.1954 0.922679 67.1954H0.69549C0.602343 67.1939 0.510198 67.2146 0.426588 67.2557C0.342224 67.2857 0.266024 67.3348 0.20404 67.3994C0.0817722 67.535 0.00972806 67.7085 0 67.8909V68.0764C0.0303989 68.1933 0.0930649 68.2993 0.180834 68.3824L0.319955 68.4937C0.427655 68.5539 0.548918 68.5858 0.672341 68.5864Z" fill="#111231"/>
<path d="M67.8378 179.278H68.065C68.1579 179.283 68.2507 179.264 68.3339 179.222C68.4182 179.191 68.4946 179.141 68.5578 179.077C68.6211 179.013 68.6696 178.936 68.7002 178.851C68.7455 178.769 68.7664 178.676 68.7605 178.582L68.7373 178.402C68.7059 178.284 68.6434 178.176 68.5564 178.091L68.4174 177.984C68.3103 177.922 68.1889 177.888 68.065 177.887H67.8378C67.7446 177.885 67.6524 177.906 67.5688 177.947C67.4845 177.977 67.4083 178.026 67.3463 178.091C67.2791 178.153 67.2295 178.231 67.2026 178.318C67.1598 178.399 67.1391 178.49 67.1423 178.582V178.768C67.1755 178.885 67.2377 178.992 67.3231 179.078L67.4622 179.185C67.5691 179.247 67.6909 179.279 67.8146 179.278H67.8378Z" fill="#111231"/>
</svg>
