<svg width="15" height="15" viewBox="0 0 15 15" fill="none" xmlns="http://www.w3.org/2000/svg">
<path d="M5.625 7.5C5.625 7.20875 5.625 7.06312 5.6725 6.94812C5.73607 6.79529 5.85767 6.67391 6.01062 6.61062C6.12562 6.5625 6.27125 6.5625 6.5625 6.5625H8.4375C8.72875 6.5625 8.87438 6.5625 8.98938 6.61C9.14221 6.67357 9.26359 6.79517 9.32688 6.94812C9.375 7.06312 9.375 7.20875 9.375 7.5C9.375 7.79125 9.375 7.93688 9.3275 8.05188C9.26393 8.20471 9.14233 8.32609 8.98938 8.38938C8.87438 8.4375 8.72875 8.4375 8.4375 8.4375H6.5625C6.27125 8.4375 6.12562 8.4375 6.01062 8.39C5.85779 8.32643 5.73641 8.20483 5.67312 8.05188C5.625 7.93688 5.625 7.79125 5.625 7.5Z" stroke="#979FB5"/>
<path d="M12.8125 4.375V8.125C12.8125 10.4819 12.8125 11.6606 12.08 12.3925C11.3475 13.1244 10.1694 13.125 7.8125 13.125H7.1875C4.83063 13.125 3.65187 13.125 2.92 12.3925C2.18812 11.66 2.1875 10.4819 2.1875 8.125V4.375" stroke="#979FB5" stroke-linecap="round"/>
<path d="M1.25 3.125C1.25 2.53562 1.25 2.24125 1.43312 2.05812C1.61625 1.875 1.91062 1.875 2.5 1.875H12.5C13.0894 1.875 13.3838 1.875 13.5669 2.05812C13.75 2.24125 13.75 2.53562 13.75 3.125C13.75 3.71438 13.75 4.00875 13.5669 4.19187C13.3838 4.375 13.0894 4.375 12.5 4.375H2.5C1.91062 4.375 1.61625 4.375 1.43312 4.19187C1.25 4.00875 1.25 3.71438 1.25 3.125Z" stroke="#979FB5"/>
</svg>
