<svg width="18" height="18" viewBox="0 0 18 18" fill="none" xmlns="http://www.w3.org/2000/svg">
<path d="M7.50023 16.4172C6.91326 16.4207 6.33421 16.2817 5.81273 16.0122C5.3359 15.7673 4.91712 15.423 4.58462 15.0025C4.25212 14.5821 4.01363 14.0952 3.88523 13.5747C3.61109 12.491 3.75011 11.3441 4.27523 10.3572L6.99023 5.10724C7.05886 4.97397 7.17761 4.87341 7.32037 4.8277C7.46314 4.78199 7.61821 4.79486 7.75148 4.86349C7.88475 4.93211 7.9853 5.05087 8.03102 5.19363C8.07673 5.33639 8.06386 5.49147 7.99523 5.62474L5.25023 10.8747C4.85684 11.6155 4.75004 12.4752 4.95023 13.2897C5.03971 13.6548 5.20654 13.9964 5.43945 14.2914C5.67236 14.5864 5.9659 14.828 6.30023 14.9997C6.65964 15.1628 7.04769 15.2534 7.44216 15.2662C7.83663 15.2791 8.22975 15.214 8.59901 15.0746C8.96827 14.9353 9.3064 14.7244 9.59404 14.4542C9.88168 14.184 10.1132 13.8596 10.2752 13.4997L13.1927 7.89724C13.226 7.83206 13.2719 7.77412 13.3277 7.72674C13.3835 7.67937 13.4481 7.64349 13.5178 7.62119C13.5875 7.59888 13.6609 7.59058 13.7339 7.59677C13.8068 7.60295 13.8778 7.62351 13.9427 7.65724C14.0729 7.72597 14.171 7.84301 14.2159 7.98324C14.2607 8.12346 14.2488 8.27569 14.1827 8.40724L11.2502 13.9947C10.8998 14.6977 10.3668 15.2934 9.70704 15.7196C9.04729 16.1458 8.28508 16.3868 7.50023 16.4172Z" fill="#A1A5B7"/>
<path d="M11.1452 9.75202C11.0534 9.75188 10.9631 9.72867 10.8827 9.68452C10.7538 9.61439 10.657 9.49731 10.6123 9.35763C10.5676 9.21794 10.5785 9.0664 10.6427 8.93452L12.2852 5.76952C12.5605 5.25747 12.6354 4.66125 12.4952 4.09702C12.4364 3.84848 12.3259 3.61513 12.1708 3.41222C12.0157 3.20932 11.8196 3.04143 11.5952 2.91952C11.3643 2.80168 11.1107 2.73529 10.8517 2.72493C10.5928 2.71457 10.3347 2.76049 10.0952 2.85952C9.5524 3.06983 9.10638 3.47311 8.84266 3.99202L7.23766 7.09702C7.20318 7.16252 7.15615 7.22058 7.09924 7.2679C7.04232 7.31522 6.97665 7.35087 6.90596 7.37281C6.7632 7.41711 6.60868 7.40289 6.47641 7.33327C6.41091 7.2988 6.35284 7.25176 6.30552 7.19485C6.2582 7.13794 6.22256 7.07226 6.20062 7.00158C6.15631 6.85881 6.17054 6.7043 6.24016 6.57202L7.86016 3.45202C8.26043 2.67903 8.93421 2.08279 9.75016 1.77952C10.135 1.62609 10.5484 1.55727 10.9622 1.57775C11.376 1.59822 11.7805 1.7075 12.1484 1.89818C12.5162 2.08885 12.8387 2.35645 13.0939 2.68279C13.3492 3.00914 13.5312 3.38659 13.6277 3.78952C13.8358 4.62579 13.729 5.50941 13.3277 6.27202L11.6777 9.42952C11.6313 9.53035 11.5558 9.61498 11.4609 9.67246C11.366 9.72995 11.256 9.75766 11.1452 9.75202Z" fill="#A1A5B7"/>
<path d="M8.49026 12.9321C8.17392 12.9324 7.86232 12.8551 7.58276 12.7071C7.08431 12.422 6.71775 11.9526 6.56204 11.3999C6.40633 10.8472 6.47392 10.2554 6.75026 9.75209L8.85776 5.70209C8.93033 5.57702 9.04827 5.4847 9.1871 5.44429C9.32593 5.40388 9.47499 5.41848 9.60334 5.48507C9.73169 5.55166 9.82947 5.66511 9.87638 5.80189C9.92329 5.93866 9.91573 6.08824 9.85526 6.21959L7.74776 10.2771C7.6023 10.5142 7.55615 10.7992 7.61933 11.0701C7.6825 11.3411 7.84991 11.5762 8.08526 11.7246C8.20251 11.78 8.33058 11.8088 8.46026 11.8088C8.58995 11.8088 8.71802 11.78 8.83526 11.7246C9.1153 11.6123 9.34468 11.4016 9.48026 11.1321L10.8978 8.40959C10.9703 8.28452 11.0883 8.1922 11.2271 8.15179C11.3659 8.11138 11.515 8.12598 11.6433 8.19257C11.7717 8.25916 11.8695 8.37261 11.9164 8.50939C11.9633 8.64616 11.9557 8.79574 11.8953 8.92709L10.5003 11.6646C10.2362 12.1815 9.79 12.5823 9.24776 12.7896C9.00682 12.8855 8.74959 12.9339 8.49026 12.9321Z" fill="#A1A5B7"/>
</svg>
