<svg width="15" height="15" viewBox="0 0 15 15" fill="none" xmlns="http://www.w3.org/2000/svg">
<path d="M3.61239 7.03305H8.70614V5.0018C8.69995 4.92668 8.71818 4.85156 8.75811 4.78762C8.79805 4.72369 8.85756 4.67436 8.92779 4.64697C8.99802 4.61958 9.07521 4.61559 9.14789 4.63561C9.22057 4.65562 9.28484 4.69857 9.33114 4.75805L11.8311 7.25805C11.8968 7.3247 11.9336 7.4145 11.9336 7.50805C11.9336 7.6016 11.8968 7.6914 11.8311 7.75805L9.33114 10.2581C9.28232 10.3145 9.217 10.3542 9.14439 10.3716C9.07178 10.3889 8.99556 10.383 8.92649 10.3547C8.85742 10.3264 8.79899 10.2771 8.75945 10.2138C8.71991 10.1504 8.70127 10.0763 8.70614 10.0018V7.97055H3.61239C3.48807 7.97055 3.36884 7.92117 3.28094 7.83326C3.19303 7.74535 3.14364 7.62612 3.14364 7.5018C3.14364 7.37748 3.19303 7.25825 3.28094 7.17035C3.36884 7.08244 3.48807 7.03305 3.61239 7.03305Z" fill="#3C8BFD"/>
<path opacity="0.3" d="M13.75 11.9754C13.8743 11.9754 13.9935 11.926 14.0815 11.8381C14.1694 11.7502 14.2188 11.631 14.2188 11.5066V3.49414C14.2188 3.36982 14.1694 3.25059 14.0815 3.16268C13.9935 3.07478 13.8743 3.02539 13.75 3.02539C13.6257 3.02539 13.5065 3.07478 13.4185 3.16268C13.3306 3.25059 13.2812 3.36982 13.2812 3.49414V11.5066C13.2804 11.5684 13.292 11.6298 13.3152 11.687C13.3385 11.7443 13.373 11.7963 13.4167 11.84C13.4604 11.8837 13.5124 11.9182 13.5696 11.9414C13.6269 11.9647 13.6882 11.9762 13.75 11.9754Z" fill="#A1A5B7"/>
</svg>
