<svg width="16" height="16" viewBox="0 0 16 16" fill="none" xmlns="http://www.w3.org/2000/svg">
<path d="M7.06667 11.3335C6.97894 11.334 6.89196 11.3172 6.81074 11.284C6.72951 11.2508 6.65563 11.202 6.59334 11.1402L3.53334 8.05351C3.40781 7.92797 3.33728 7.75771 3.33728 7.58018C3.33728 7.40264 3.40781 7.23238 3.53334 7.10684C3.65888 6.98131 3.82914 6.91078 4.00667 6.91078C4.18421 6.91078 4.35447 6.98131 4.48001 7.10684L7.06667 9.70018L11.5133 5.24684C11.6389 5.12131 11.8091 5.05078 11.9867 5.05078C12.1642 5.05078 12.3345 5.12131 12.46 5.24684C12.5855 5.37238 12.6561 5.54264 12.6561 5.72018C12.6561 5.89771 12.5855 6.06797 12.46 6.19351L7.54001 11.1135C7.41649 11.2451 7.24692 11.3239 7.06667 11.3335Z" fill="#3C8BFD"/>
</svg>
