<svg width="10" height="7" viewBox="0 0 10 7" fill="none" xmlns="http://www.w3.org/2000/svg">
<path d="M4.06667 6.33333C3.97894 6.33384 3.89196 6.31702 3.81074 6.28385C3.72951 6.25067 3.65563 6.20179 3.59334 6.14L0.533341 3.05333C0.407806 2.9278 0.33728 2.75753 0.33728 2.58C0.33728 2.40247 0.407806 2.2322 0.533341 2.10667C0.658877 1.98113 0.82914 1.91061 1.00667 1.91061C1.18421 1.91061 1.35447 1.98113 1.48001 2.10667L4.06667 4.7L8.51334 0.246667C8.63888 0.121131 8.80914 0.0506058 8.98667 0.0506058C9.16421 0.0506058 9.33447 0.121131 9.46001 0.246667C9.58554 0.372203 9.65607 0.542466 9.65607 0.72C9.65607 0.897535 9.58554 1.0678 9.46001 1.19333L4.54001 6.11333C4.41649 6.24495 4.24692 6.32377 4.06667 6.33333V6.33333Z" fill="#00AFAF"/>
</svg>
