<svg width="16" height="16" viewBox="0 0 16 16" fill="none" xmlns="http://www.w3.org/2000/svg">
<path d="M6.99967 13.2663V2.73301C6.99967 1.73301 6.57301 1.33301 5.51301 1.33301H2.81967C1.75967 1.33301 1.33301 1.73301 1.33301 2.73301V13.2663C1.33301 14.2663 1.75967 14.6663 2.81967 14.6663H5.51301C6.57301 14.6663 6.99967 14.2663 6.99967 13.2663Z" stroke="#3C8BFD" stroke-width="1.3" stroke-linecap="round" stroke-linejoin="round"/>
<path d="M14.6667 13.2663V2.73301C14.6667 1.73301 14.24 1.33301 13.18 1.33301H10.4867C9.42667 1.33301 9 1.73301 9 2.73301V13.2663C9 14.2663 9.42667 14.6663 10.4867 14.6663H13.18C14.24 14.6663 14.6667 14.2663 14.6667 13.2663Z" stroke="#3C8BFD" stroke-width="1.3" stroke-linecap="round" stroke-linejoin="round"/>
</svg>
