<svg width="16" height="16" viewBox="0 0 16 16" fill="none" xmlns="http://www.w3.org/2000/svg">
<g clip-path="url(#clip0_9711_21680)">
<path d="M10.3866 7.99995C10.3866 9.31995 9.31995 10.3866 7.99995 10.3866C6.67995 10.3866 5.61328 9.31995 5.61328 7.99995C5.61328 6.67995 6.67995 5.61328 7.99995 5.61328C9.31995 5.61328 10.3866 6.67995 10.3866 7.99995Z" stroke="#979FB5" stroke-linecap="round" stroke-linejoin="round"/>
<path d="M8.00014 13.5128C10.3535 13.5128 12.5468 12.1262 14.0735 9.72616C14.6735 8.78616 14.6735 7.20616 14.0735 6.26616C12.5468 3.86616 10.3535 2.47949 8.00014 2.47949C5.64681 2.47949 3.45347 3.86616 1.92681 6.26616C1.32681 7.20616 1.32681 8.78616 1.92681 9.72616C3.45347 12.1262 5.64681 13.5128 8.00014 13.5128Z" stroke="#979FB5" stroke-linecap="round" stroke-linejoin="round"/>
</g>
<defs>
<clipPath id="clip0_9711_21680">
<rect width="16" height="16" rx="5" fill="white"/>
</clipPath>
</defs>
</svg>
