<svg width="18" height="19" viewBox="0 0 18 19" fill="none" xmlns="http://www.w3.org/2000/svg">
<path d="M10.8969 7.15858L7.10194 10.9535C6.61445 10.466 6.31445 9.79853 6.31445 9.05604C6.31445 7.57107 7.51443 6.37109 8.9994 6.37109C9.74189 6.37109 10.4094 6.67109 10.8969 7.15858Z" stroke="#979FB5" stroke-width="1.13" stroke-linecap="round" stroke-linejoin="round"/>
<path d="M13.3637 4.38153C12.0512 3.39155 10.5512 2.85156 8.99877 2.85156C6.35132 2.85156 3.88386 4.41153 2.1664 7.11148C1.49141 8.16896 1.49141 9.94643 2.1664 11.0039C2.75889 11.9339 3.44887 12.7364 4.19886 13.3814" stroke="#979FB5" stroke-width="1.13" stroke-linecap="round" stroke-linejoin="round"/>
<path d="M6.31445 14.6998C7.16944 15.0598 8.07692 15.2548 8.9994 15.2548C11.6469 15.2548 14.1143 13.6949 15.8318 10.9949C16.5068 9.93743 16.5068 8.15996 15.8318 7.10248C15.5843 6.71249 15.3143 6.34499 15.0368 6" stroke="#979FB5" stroke-width="1.13" stroke-linecap="round" stroke-linejoin="round"/>
<path d="M11.6325 9.57812C11.4375 10.6356 10.5751 11.4981 9.51758 11.6931" stroke="#979FB5" stroke-width="1.13" stroke-linecap="round" stroke-linejoin="round"/>
<path d="M7.10239 10.9531L1.5 16.5555" stroke="#979FB5" stroke-width="1.13" stroke-linecap="round" stroke-linejoin="round"/>
<path d="M16.4989 1.55469L10.8965 7.15708" stroke="#979FB5" stroke-width="1.13" stroke-linecap="round" stroke-linejoin="round"/>
</svg>
