<svg width="17" height="17" viewBox="0 0 17 17" fill="none" xmlns="http://www.w3.org/2000/svg">
<path d="M11.0533 8.66792C11.0533 9.98792 9.98667 11.0546 8.66667 11.0546C7.34667 11.0546 6.28 9.98792 6.28 8.66792C6.28 7.34792 7.34667 6.28125 8.66667 6.28125C9.98667 6.28125 11.0533 7.34792 11.0533 8.66792Z" stroke="#979FB5" stroke-linecap="round" stroke-linejoin="round"/>
<path d="M8.66664 14.1818C11.02 14.1818 13.2133 12.7951 14.74 10.3951C15.34 9.4551 15.34 7.8751 14.74 6.9351C13.2133 4.5351 11.02 3.14844 8.66664 3.14844C6.31331 3.14844 4.11998 4.5351 2.59331 6.9351C1.99331 7.8751 1.99331 9.4551 2.59331 10.3951C4.11998 12.7951 6.31331 14.1818 8.66664 14.1818Z" stroke="#979FB5" stroke-linecap="round" stroke-linejoin="round"/>
</svg>
