<svg width="19" height="18" viewBox="0 0 19 18" fill="none" xmlns="http://www.w3.org/2000/svg">
<path d="M5.10894 2.23047H14.6129C15.4049 2.23047 16.0529 2.87843 16.0529 3.67038V5.25428C16.0529 5.83025 15.6929 6.55021 15.3329 6.91018L12.2369 9.64602C11.8049 10.006 11.5169 10.726 11.5169 11.3019V14.3977C11.5169 14.8297 11.2289 15.4057 10.8689 15.6217L9.86092 16.2696C8.92492 16.8456 7.62893 16.1976 7.62893 15.0457V11.2299C7.62893 10.726 7.34093 10.078 7.05293 9.71801L4.31694 6.83819C3.95694 6.47821 3.66895 5.83025 3.66895 5.39828V3.74238C3.66895 2.87843 4.31694 2.23047 5.10894 2.23047Z" stroke="#979FB5" stroke-width="1.3" stroke-miterlimit="10" stroke-linecap="round" stroke-linejoin="round"/>
<path d="M9.0906 2.23047L5.54102 7.91812" stroke="#979FB5" stroke-width="1.3" stroke-miterlimit="10" stroke-linecap="round" stroke-linejoin="round"/>
</svg>
