
<svg width="18" height="18" viewBox="0 0 18 18" fill="none" xmlns="http://www.w3.org/2000/svg">
<path d="M4.41098 1.93359H14.311C15.136 1.93359 15.811 2.60844 15.811 3.43325V5.08287C15.811 5.68273 15.436 6.43256 15.061 6.80747L11.836 9.65682C11.386 10.0317 11.086 10.7816 11.086 11.3814V14.6057C11.086 15.0556 10.786 15.6554 10.411 15.8804L9.36098 16.5552C8.38598 17.1551 7.03598 16.4802 7.03598 15.2805V11.3064C7.03598 10.7816 6.73598 10.1067 6.43598 9.7318L3.58598 6.73249C3.21098 6.35758 2.91098 5.68273 2.91098 5.23284V3.50823C2.91098 2.60844 3.58598 1.93359 4.41098 1.93359Z" stroke="#000000" stroke-width="1.3" stroke-miterlimit="10" stroke-linecap="round" stroke-linejoin="round"/>
<path d="M8.55852 1.93359L4.86102 7.85723" stroke="#000000" stroke-width="1.3" stroke-miterlimit="10" stroke-linecap="round" stroke-linejoin="round"/>
</svg>
