<svg width="18" height="18" viewBox="0 0 18 18" fill="none" xmlns="http://www.w3.org/2000/svg">
<path d="M4.227 13.773C5.33134 14.8773 6.78445 15.5645 8.33872 15.7175C9.89298 15.8705 11.4522 15.4799 12.7507 14.612C14.0492 13.7442 15.0065 12.453 15.4597 10.9584C15.9128 9.4638 15.8336 7.85832 15.2356 6.41556C14.6377 4.97279 13.5579 3.78203 12.1803 3.04618C10.8028 2.31034 9.21265 2.07495 7.68099 2.38014C6.14932 2.68532 4.77087 3.5122 3.78055 4.71984C2.79023 5.92749 2.24932 7.44118 2.25 9.00295V10.5" stroke="#979FB5" stroke-width="1.13" stroke-linecap="round" stroke-linejoin="round"/>
<path d="M0.75 9L2.25 10.5L3.75 9M8.25 6V9.75H12" stroke="#979FB5" stroke-width="1.13" stroke-linecap="round" stroke-linejoin="round"/>
</svg>
