<svg width="17" height="17" viewBox="0 0 17 17" fill="none" xmlns="http://www.w3.org/2000/svg">
<path d="M11.3327 16.1144H2.12435C1.44435 16.1144 0.884766 15.5548 0.884766 14.8748V5.6665C0.884766 2.53567 2.53518 0.885254 5.66602 0.885254H11.3327C14.4635 0.885254 16.1139 2.53567 16.1139 5.6665V11.3332C16.1139 14.464 14.4635 16.1144 11.3327 16.1144ZM5.66602 1.94775C3.13018 1.94775 1.94727 3.13067 1.94727 5.6665V14.8748C1.94727 14.974 2.02518 15.0519 2.12435 15.0519H11.3327C13.8685 15.0519 15.0514 13.869 15.0514 11.3332V5.6665C15.0514 3.13067 13.8685 1.94775 11.3327 1.94775H5.66602Z" fill="#979FB5"/>
<path d="M5.63058 12.5731C5.29767 12.5731 4.99308 12.4527 4.76641 12.2331C4.49725 11.9639 4.37682 11.5814 4.44057 11.1706L4.6389 9.76811C4.6814 9.46352 4.87266 9.07394 5.09224 8.85436L8.76849 5.17811C10.0293 3.91727 11.1272 4.48394 11.8214 5.17811C12.3668 5.72352 12.6147 6.29727 12.5581 6.87102C12.5156 7.33852 12.2677 7.77769 11.8214 8.23102L8.14516 11.9073C7.92557 12.1269 7.54307 12.3181 7.2314 12.3677L5.82891 12.566C5.76516 12.566 5.69433 12.5731 5.63058 12.5731ZM10.2914 5.48977C10.0293 5.48977 9.79558 5.65977 9.52642 5.92186L5.85016 9.59811C5.7935 9.65477 5.7085 9.83186 5.69433 9.90977L5.496 11.3123C5.48891 11.3831 5.49598 11.4469 5.52431 11.4752C5.55265 11.5035 5.61641 11.5106 5.68724 11.5035L7.08975 11.3052C7.17475 11.291 7.34475 11.206 7.40142 11.1494L11.0777 7.47311C11.3468 7.20394 11.4885 6.97019 11.5097 6.75769C11.531 6.51686 11.3893 6.23352 11.0777 5.92186C10.766 5.62436 10.5181 5.48977 10.2914 5.48977Z" fill="#979FB5"/>
<path d="M10.9233 8.91088C10.8737 8.91088 10.8242 8.9038 10.7817 8.88963C9.49957 8.52838 8.4725 7.50838 8.11125 6.21922C8.03333 5.93588 8.19624 5.64547 8.47957 5.56047C8.76291 5.48255 9.05333 5.64547 9.13125 5.9288C9.39333 6.85672 10.1371 7.60047 11.065 7.86255C11.3483 7.94047 11.5112 8.23797 11.4333 8.5213C11.3696 8.75505 11.1571 8.91088 10.9233 8.91088Z" fill="#979FB5"/>
</svg>
