<svg width="20" height="20" viewBox="0 0 20 20" fill="none" xmlns="http://www.w3.org/2000/svg">
<path d="M6.83318 18.2965C6.61807 18.2983 6.40588 18.2466 6.21568 18.146C5.99216 18.0343 5.80415 17.8626 5.67271 17.6501C5.54128 17.4375 5.47161 17.1926 5.47152 16.9427V15.4227C4.40454 15.3699 3.39867 14.9091 2.66192 14.1355C1.92517 13.3619 1.51391 12.3347 1.51318 11.2665V5.86729C1.51524 4.76762 1.95137 3.71323 2.72673 2.93343C3.50208 2.15362 4.55396 1.71147 5.6536 1.70312H14.3619C15.4657 1.70522 16.5237 2.14461 17.3041 2.92509C18.0846 3.70557 18.524 4.76353 18.5261 5.86729V11.2665C18.524 12.3702 18.0846 13.4282 17.3041 14.2087C16.5237 14.9891 15.4657 15.4285 14.3619 15.4306H11.2665C11.2332 15.4192 11.1969 15.4192 11.1636 15.4306L7.62485 18.0431C7.39311 18.2066 7.11678 18.295 6.83318 18.2965ZM5.6536 2.87479C5.26136 2.87479 4.87299 2.9523 4.51081 3.10288C4.14863 3.25346 3.81978 3.47414 3.54316 3.75223C3.26654 4.03032 3.04762 4.36033 2.89896 4.72331C2.7503 5.08628 2.67485 5.47506 2.67693 5.86729V11.2665C2.67902 12.0553 2.99331 12.8112 3.55109 13.369C4.10887 13.9268 4.86478 14.241 5.6536 14.2431C5.78252 14.2431 5.91017 14.2685 6.02927 14.3179C6.14837 14.3672 6.25659 14.4395 6.34774 14.5306C6.4389 14.6218 6.51121 14.73 6.56054 14.8491C6.60988 14.9682 6.63527 15.0959 6.63527 15.2248V16.9427C6.63421 16.9744 6.6427 17.0057 6.65964 17.0325C6.67658 17.0593 6.70119 17.0805 6.73027 17.0931C6.75521 17.1124 6.78584 17.1228 6.81735 17.1228C6.84886 17.1228 6.87949 17.1124 6.90443 17.0931L10.4669 14.5123C10.6982 14.3479 10.9748 14.2594 11.2586 14.259H14.3382C15.127 14.2569 15.8829 13.9426 16.4407 13.3848C16.9985 12.827 17.3128 12.0711 17.3148 11.2823V5.86729C17.3169 5.47573 17.2417 5.0876 17.0936 4.72514C16.9454 4.36268 16.7272 4.03301 16.4514 3.75503C16.1756 3.47705 15.8477 3.2562 15.4865 3.10516C15.1252 2.95411 14.7377 2.87583 14.3461 2.87479H5.6536ZM9.99985 5.34479C9.51694 5.34479 9.0538 5.53663 8.71233 5.8781C8.37085 6.21957 8.17902 6.68271 8.17902 7.16563C8.17902 7.3231 8.24157 7.47412 8.35292 7.58547C8.46427 7.69682 8.61529 7.75938 8.77277 7.75938C8.93024 7.75938 9.08126 7.69682 9.19261 7.58547C9.30396 7.47412 9.36652 7.3231 9.36652 7.16563C9.36652 6.99765 9.43324 6.83656 9.55202 6.71779C9.67079 6.59902 9.83188 6.53229 9.99985 6.53229C10.1678 6.53229 10.3289 6.59902 10.4477 6.71779C10.5665 6.83656 10.6332 6.99765 10.6332 7.16563C10.633 7.2754 10.6036 7.38316 10.5479 7.47778C10.4923 7.5724 10.4124 7.65048 10.3165 7.70396C10.0304 7.8865 9.79625 8.13983 9.63675 8.4394C9.47726 8.73898 9.39781 9.07467 9.4061 9.41396V9.63563C9.4061 9.7931 9.46866 9.94412 9.58001 10.0555C9.69136 10.1668 9.84238 10.2294 9.99985 10.2294C10.1573 10.2294 10.3083 10.1668 10.4197 10.0555C10.531 9.94412 10.5936 9.7931 10.5936 9.63563V9.41396C10.5868 9.28243 10.6129 9.15129 10.6696 9.0324C10.7263 8.91352 10.8117 8.81065 10.9182 8.73312C11.2613 8.53034 11.5284 8.22059 11.6785 7.8514C11.8286 7.48221 11.8534 7.07396 11.7492 6.68929C11.6449 6.30463 11.4173 5.96479 11.1013 5.72192C10.7853 5.47906 10.3984 5.34657 9.99985 5.34479ZM9.99985 10.7915C9.88242 10.7915 9.76762 10.8263 9.66998 10.8915C9.57234 10.9568 9.49624 11.0495 9.4513 11.158C9.40636 11.2665 9.3946 11.3859 9.41751 11.501C9.44042 11.6162 9.49697 11.722 9.58001 11.8051C9.66304 11.8881 9.76884 11.9446 9.88402 11.9676C9.99919 11.9905 10.1186 11.9787 10.2271 11.9338C10.3356 11.8888 10.4283 11.8127 10.4935 11.7151C10.5588 11.6174 10.5936 11.5026 10.5936 11.3852C10.5915 11.2284 10.5283 11.0785 10.4174 10.9676C10.3065 10.8567 10.1567 10.7935 9.99985 10.7915Z" fill="#979FB5"/>
</svg>
