<svg width="18" height="18" viewBox="0 0 18 18" fill="none" xmlns="http://www.w3.org/2000/svg">
<path opacity="0.3" d="M12.491 17.3346H5.50768C4.22359 17.3346 2.9921 16.8245 2.08411 15.9165C1.17612 15.0086 0.666016 13.7771 0.666016 12.493V5.50964C0.666016 4.22555 1.17612 2.99405 2.08411 2.08606C2.9921 1.17807 4.22359 0.667969 5.50768 0.667969H12.491C13.7751 0.667969 15.0066 1.17807 15.9146 2.08606C16.8226 2.99405 17.3327 4.22555 17.3327 5.50964V12.493C17.3327 13.7771 16.8226 15.0086 15.9146 15.9165C15.0066 16.8245 13.7751 17.3346 12.491 17.3346ZM13.9993 9.0013C13.9993 8.78029 13.9116 8.56833 13.7553 8.41205C13.599 8.25577 13.387 8.16797 13.166 8.16797H4.83268C4.61167 8.16797 4.39971 8.25577 4.24343 8.41205C4.08715 8.56833 3.99935 8.78029 3.99935 9.0013C3.99935 9.22232 4.08715 9.43428 4.24343 9.59056C4.39971 9.74684 4.61167 9.83463 4.83268 9.83463H13.166C13.387 9.83463 13.599 9.74684 13.7553 9.59056C13.9116 9.43428 13.9993 9.22232 13.9993 9.0013Z" fill="#3C8BFD"/>
<path d="M13.2316 9.83464H4.76497C4.54396 9.83464 4.332 9.74684 4.17572 9.59056C4.01944 9.43428 3.93164 9.22232 3.93164 9.0013C3.93164 8.78029 4.01944 8.56833 4.17572 8.41205C4.332 8.25577 4.54396 8.16797 4.76497 8.16797H13.2316C13.4527 8.16797 13.6646 8.25577 13.8209 8.41205C13.9772 8.56833 14.065 8.78029 14.065 9.0013C14.065 9.22232 13.9772 9.43428 13.8209 9.59056C13.6646 9.74684 13.4527 9.83464 13.2316 9.83464Z" fill="#3E97FF"/>
</svg>
