<svg width="13" height="15" viewBox="0 0 13 15" fill="none" xmlns="http://www.w3.org/2000/svg">
<path d="M2.40476 7.16667H7.16667M2.40476 9.07143H9.07143M2.40476 10.9762H5.2619M11.9286 11.9286V5.2619L7.16667 0.5H2.40476C1.89959 0.5 1.4151 0.70068 1.05789 1.05789C0.70068 1.4151 0.5 1.89959 0.5 2.40476V11.9286C0.5 12.4337 0.70068 12.9182 1.05789 13.2754C1.4151 13.6327 1.89959 13.8333 2.40476 13.8333H10.0238C10.529 13.8333 11.0135 13.6327 11.3707 13.2754C11.7279 12.9182 11.9286 12.4337 11.9286 11.9286Z" stroke="black" stroke-linecap="round" stroke-linejoin="round"/>
<path d="M7.16666 0.5V3.35714C7.16666 3.86232 7.36734 4.3468 7.72455 4.70401C8.08176 5.06123 8.56624 5.2619 9.07142 5.2619H11.9286" stroke="black" stroke-linecap="round" stroke-linejoin="round"/>
</svg>
