<svg width="17" height="17" viewBox="0 0 17 17" fill="none" xmlns="http://www.w3.org/2000/svg">
<path d="M14.25 1.625C14.4725 1.625 14.69 1.69098 14.875 1.8146C15.06 1.93821 15.2042 2.11391 15.2894 2.31948C15.3745 2.52505 15.3968 2.75125 15.3534 2.96948C15.31 3.18771 15.2028 3.38816 15.0455 3.5455C14.8882 3.70283 14.6877 3.80998 14.4695 3.85338C14.2512 3.89679 14.025 3.87451 13.8195 3.78936C13.6139 3.70422 13.4382 3.56002 13.3146 3.37502C13.191 3.19001 13.125 2.9725 13.125 2.75C13.125 2.45163 13.2435 2.16548 13.4545 1.95451C13.6655 1.74353 13.9516 1.625 14.25 1.625ZM14.25 0.5C13.805 0.5 13.37 0.63196 13 0.879193C12.63 1.12643 12.3416 1.47783 12.1713 1.88896C12.001 2.3001 11.9564 2.7525 12.0432 3.18895C12.1301 3.62541 12.3443 4.02632 12.659 4.34099C12.9737 4.65566 13.3746 4.86995 13.811 4.95677C14.2475 5.04358 14.6999 4.99903 15.111 4.82873C15.5222 4.65843 15.8736 4.37004 16.1208 4.00003C16.368 3.63002 16.5 3.19501 16.5 2.75C16.5 2.15326 16.2629 1.58097 15.841 1.15901C15.419 0.737053 14.8467 0.5 14.25 0.5Z" fill="#979FB5"/>
<path d="M12 16.0625H5.25C4.10928 16.0527 3.01806 15.5952 2.21143 14.7886C1.40479 13.9819 0.947292 12.8907 0.9375 11.75V5C0.947292 3.85928 1.40479 2.76806 2.21143 1.96143C3.01806 1.15479 4.10928 0.697292 5.25 0.6875H10.0425C10.1917 0.6875 10.3348 0.746763 10.4402 0.852252C10.5457 0.957742 10.605 1.10082 10.605 1.25C10.605 1.39918 10.5457 1.54226 10.4402 1.64775C10.3348 1.75324 10.1917 1.8125 10.0425 1.8125H5.25C4.40765 1.82224 3.60254 2.16119 3.00687 2.75687C2.41119 3.35254 2.07224 4.15765 2.0625 5V11.75C2.07224 12.5924 2.41119 13.3975 3.00687 13.9931C3.60254 14.5888 4.40765 14.9278 5.25 14.9375H12C12.8424 14.9278 13.6475 14.5888 14.2431 13.9931C14.8388 13.3975 15.1778 12.5924 15.1875 11.75V7.25C15.1875 7.10082 15.2468 6.95774 15.3523 6.85225C15.4577 6.74676 15.6008 6.6875 15.75 6.6875C15.8992 6.6875 16.0423 6.74676 16.1477 6.85225C16.2532 6.95774 16.3125 7.10082 16.3125 7.25V11.75C16.3027 12.8907 15.8452 13.9819 15.0386 14.7886C14.2319 15.5952 13.1407 16.0527 12 16.0625V16.0625Z" fill="#979FB5"/>
<path d="M8.62492 9.5H5.10742C4.95824 9.5 4.81516 9.44074 4.70967 9.33525C4.60419 9.22976 4.54492 9.08668 4.54492 8.9375C4.54492 8.78832 4.60419 8.64524 4.70967 8.53975C4.81516 8.43426 4.95824 8.375 5.10742 8.375H8.62492C8.77411 8.375 8.91718 8.43426 9.02267 8.53975C9.12816 8.64524 9.18742 8.78832 9.18742 8.9375C9.18742 9.08668 9.12816 9.22976 9.02267 9.33525C8.91718 9.44074 8.77411 9.5 8.62492 9.5V9.5Z" fill="#979FB5"/>
<path d="M11.6249 12.5H5.10742C4.95824 12.5 4.81516 12.4407 4.70967 12.3352C4.60419 12.2298 4.54492 12.0867 4.54492 11.9375C4.54492 11.7883 4.60419 11.6452 4.70967 11.5398C4.81516 11.4343 4.95824 11.375 5.10742 11.375H11.6249C11.7741 11.375 11.9172 11.4343 12.0227 11.5398C12.1282 11.6452 12.1874 11.7883 12.1874 11.9375C12.1874 12.0867 12.1282 12.2298 12.0227 12.3352C11.9172 12.4407 11.7741 12.5 11.6249 12.5V12.5Z" fill="#979FB5"/>
</svg>
