<svg width="20" height="20" viewBox="0 0 20 20" fill="none" xmlns="http://www.w3.org/2000/svg">
<path d="M10.0165 17.1083C8.07487 17.1083 6.1332 16.7999 4.29154 16.1833C3.59154 15.9416 3.0582 15.4499 2.82487 14.8083C2.5832 14.1666 2.66654 13.4583 3.04987 12.8249L4.0082 11.2333C4.2082 10.8999 4.39154 10.2333 4.39154 9.84159V7.43326C4.39154 4.33326 6.91654 1.80826 10.0165 1.80826C13.1165 1.80826 15.6415 4.33326 15.6415 7.43326V9.84159C15.6415 10.2249 15.8249 10.8999 16.0249 11.2416L16.9749 12.8249C17.3332 13.4249 17.3999 14.1499 17.1582 14.8083C16.9165 15.4666 16.3915 15.9666 15.7332 16.1833C13.8999 16.7999 11.9582 17.1083 10.0165 17.1083ZM10.0165 3.05826C7.6082 3.05826 5.64154 5.01659 5.64154 7.43326V9.84159C5.64154 10.4499 5.39154 11.3499 5.0832 11.8749L4.12487 13.4666C3.94154 13.7749 3.89154 14.0999 3.99987 14.3749C4.09987 14.6583 4.34987 14.8749 4.69154 14.9916C8.17487 16.1583 11.8665 16.1583 15.3499 14.9916C15.6499 14.8916 15.8832 14.6666 15.9915 14.3666C16.0999 14.0666 16.0749 13.7416 15.9082 13.4666L14.9499 11.8749C14.6332 11.3333 14.3915 10.4416 14.3915 9.83326V7.43326C14.3915 5.01659 12.4332 3.05826 10.0165 3.05826Z" fill="#979FB5"/>
<path d="M11.5668 3.28306C11.5084 3.28306 11.4501 3.27473 11.3918 3.25806C11.1501 3.1914 10.9168 3.1414 10.6918 3.10806C9.98345 3.0164 9.30012 3.0664 8.65845 3.25806C8.42512 3.33306 8.17512 3.25806 8.01678 3.08306C7.85845 2.90806 7.80845 2.65806 7.90012 2.43306C8.24178 1.55806 9.07512 0.983063 10.0251 0.983063C10.9751 0.983063 11.8084 1.54973 12.1501 2.43306C12.2334 2.65806 12.1918 2.90806 12.0334 3.08306C11.9084 3.2164 11.7334 3.28306 11.5668 3.28306Z" fill="#979FB5"/>
<path d="M10.0167 19.0088C9.19166 19.0088 8.39166 18.6755 7.80833 18.0921C7.225 17.5088 6.89166 16.7088 6.89166 15.8838H8.14166C8.14166 16.3755 8.34166 16.8588 8.69166 17.2088C9.04166 17.5588 9.525 17.7588 10.0167 17.7588C11.05 17.7588 11.8917 16.9171 11.8917 15.8838H13.1417C13.1417 17.6088 11.7417 19.0088 10.0167 19.0088Z" fill="#979FB5"/>
</svg>
