<svg width="30" height="30" viewBox="0 0 30 30" fill="none" xmlns="http://www.w3.org/2000/svg">
<g clip-path="url(#clip0_9708_21475)">
<path fill-rule="evenodd" clip-rule="evenodd" d="M8.2937 1.25H17.4878L25.2802 9.3722V25.1699C25.2802 27.1489 23.6791 28.75 21.707 28.75H8.2937C6.31469 28.75 4.71362 27.1489 4.71362 25.1699V4.83007C4.71359 2.85107 6.31466 1.25 8.2937 1.25Z" fill="#E5252A"/>
<path opacity="0.302" fill-rule="evenodd" clip-rule="evenodd" d="M17.4805 1.25V9.31035H25.2797L17.4805 1.25Z" fill="white"/>
<path d="M8.69141 21.7682V16.7451H10.8285C11.3576 16.7451 11.7768 16.8894 12.0929 17.1849C12.4089 17.4735 12.567 17.8652 12.567 18.3531C12.567 18.841 12.4089 19.2326 12.0929 19.5212C11.7768 19.8167 11.3576 19.961 10.8285 19.961H9.97639V21.7682H8.69141ZM9.97639 18.8685H10.6842C10.8766 18.8685 11.0277 18.8272 11.1308 18.731C11.2339 18.6417 11.2889 18.518 11.2889 18.3531C11.2889 18.1882 11.2339 18.0645 11.1308 17.9751C11.0278 17.879 10.8766 17.8377 10.6842 17.8377H9.97639V18.8685ZM13.096 21.7682V16.7451H14.8758C15.2263 16.7451 15.5562 16.7932 15.8653 16.8962C16.1745 16.9994 16.4563 17.1437 16.7037 17.343C16.951 17.5354 17.1503 17.7965 17.2947 18.1264C17.432 18.4561 17.5077 18.8341 17.5077 19.2601C17.5077 19.6792 17.432 20.0572 17.2947 20.387C17.1503 20.7169 16.951 20.978 16.7037 21.1704C16.4563 21.3696 16.1745 21.514 15.8653 21.617C15.5562 21.7201 15.2263 21.7682 14.8758 21.7682H13.096ZM14.3535 20.6756H14.7247C14.9239 20.6756 15.1094 20.6551 15.2813 20.607C15.4462 20.5589 15.6042 20.4832 15.7554 20.3802C15.8997 20.2771 16.0165 20.1327 16.0989 19.9404C16.1814 19.748 16.2227 19.5212 16.2227 19.2601C16.2227 18.9921 16.1814 18.7654 16.0989 18.573C16.0165 18.3806 15.8997 18.2362 15.7554 18.1332C15.6042 18.0301 15.4462 17.9545 15.2813 17.9065C15.1094 17.8584 14.9239 17.8377 14.7247 17.8377H14.3535V20.6756ZM18.1535 21.7682V16.7451H21.7268V17.8377H19.4385V18.6416H21.2664V19.7274H19.4385V21.7682H18.1535Z" fill="white"/>
</g>
<defs>
<clipPath id="clip0_9708_21475">
<rect width="30" height="30" fill="white"/>
</clipPath>
</defs>
</svg>
