<svg width="32" height="32" viewBox="0 0 32 32" fill="none" xmlns="http://www.w3.org/2000/svg">
<g clip-path="url(#clip0_2010_63242)">
<path d="M7.8099 0.476562C6.73604 0.476562 5.85742 1.35518 5.85742 2.42904V29.7638C5.85742 30.8376 6.73604 31.7162 7.8099 31.7162H27.3347C28.4086 31.7162 29.2872 30.8376 29.2872 29.7638V8.28648L21.4773 0.476562H7.8099Z" fill="#E2E5E7"/>
<path d="M23.43 8.28648H29.2875L21.4775 0.476562V6.334C21.4775 7.40786 22.3562 8.28648 23.43 8.28648Z" fill="#B0B7BD"/>
<path d="M29.2871 14.1426L23.4297 8.28516H29.2871V14.1426Z" fill="#CAD1D8"/>
<path d="M25.3819 25.8597C25.3819 26.3967 24.9426 26.836 24.4057 26.836H2.92839C2.39146 26.836 1.95215 26.3967 1.95215 25.8597V16.0973C1.95215 15.5604 2.39146 15.1211 2.92839 15.1211H24.4057C24.9426 15.1211 25.3819 15.5604 25.3819 16.0973V25.8597Z" fill="#F15642"/>
<path d="M6.20801 18.9725C6.20801 18.7148 6.41107 18.4336 6.73811 18.4336H8.54122C9.55651 18.4336 10.4703 19.1131 10.4703 20.4154C10.4703 21.6493 9.55651 22.3366 8.54122 22.3366H7.23794V23.3675C7.23794 23.7111 7.01926 23.9054 6.73811 23.9054C6.48038 23.9054 6.20801 23.7111 6.20801 23.3675V18.9725ZM7.23794 19.4167V21.3613H8.54122C9.06448 21.3613 9.47841 20.8996 9.47841 20.4154C9.47841 19.8696 9.06448 19.4167 8.54122 19.4167H7.23794Z" fill="white"/>
<path d="M11.9988 23.9054C11.7411 23.9054 11.46 23.7649 11.46 23.4222V18.9881C11.46 18.7079 11.7411 18.5039 11.9988 18.5039H13.7863C17.3535 18.5039 17.2754 23.9054 13.8566 23.9054H11.9988ZM12.4909 19.4567V22.9536H13.7863C15.894 22.9536 15.9878 19.4567 13.7863 19.4567H12.4909Z" fill="white"/>
<path d="M18.5407 19.5163V20.7571H20.5312C20.8124 20.7571 21.0935 21.0382 21.0935 21.3106C21.0935 21.5683 20.8124 21.7792 20.5312 21.7792H18.5407V23.4183C18.5407 23.6916 18.3464 23.9015 18.0731 23.9015C17.7294 23.9015 17.5195 23.6916 17.5195 23.4183V18.9842C17.5195 18.704 17.7304 18.5 18.0731 18.5H20.8134C21.157 18.5 21.3601 18.704 21.3601 18.9842C21.3601 19.2341 21.157 19.5153 20.8134 19.5153H18.5407V19.5163Z" fill="white"/>
<path d="M24.406 26.8356H5.85742V27.8119H24.406C24.9429 27.8119 25.3822 27.3725 25.3822 26.8356V25.8594C25.3822 26.3963 24.9429 26.8356 24.406 26.8356Z" fill="#CAD1D8"/>
</g>
<defs>
<clipPath id="clip0_2010_63242">
<rect width="31.2397" height="31.2397" fill="white" transform="translate(0 0.476562)"/>
</clipPath>
</defs>
</svg>
