<svg width="18" height="18" viewBox="0 0 18 18" fill="none" xmlns="http://www.w3.org/2000/svg">
<path opacity="0.3" d="M8.16862 9.83073H4.83529C4.61427 9.83073 4.40231 9.74293 4.24603 9.58665C4.08975 9.43037 4.00195 9.21841 4.00195 8.9974C4.00195 8.77638 4.08975 8.56442 4.24603 8.40814C4.40231 8.25186 4.61427 8.16406 4.83529 8.16406H8.16862V9.83073ZM13.1686 8.16406H9.83529V9.83073H13.1686C13.3896 9.83073 13.6016 9.74293 13.7579 9.58665C13.9142 9.43037 14.002 9.21841 14.002 8.9974C14.002 8.77638 13.9142 8.56442 13.7579 8.40814C13.6016 8.25186 13.3896 8.16406 13.1686 8.16406Z" fill="#979FB5"/>
<path opacity="0.3" d="M12.493 0.664062H5.50964C2.83566 0.664062 0.667969 2.83175 0.667969 5.50573V12.4891C0.667969 15.163 2.83566 17.3307 5.50964 17.3307H12.493C15.1669 17.3307 17.3346 15.163 17.3346 12.4891V5.50573C17.3346 2.83175 15.1669 0.664062 12.493 0.664062Z" fill="#979FB5"/>
<path d="M13.1686 8.16276H9.83529V4.82943C9.83529 4.60841 9.74749 4.39645 9.59121 4.24017C9.43493 4.08389 9.22297 3.99609 9.00195 3.99609C8.78094 3.99609 8.56898 4.08389 8.4127 4.24017C8.25642 4.39645 8.16862 4.60841 8.16862 4.82943V8.16276H4.83529C4.61427 8.16276 4.40231 8.25056 4.24603 8.40684C4.08975 8.56312 4.00195 8.77508 4.00195 8.99609C4.00195 9.21711 4.08975 9.42907 4.24603 9.58535C4.40231 9.74163 4.61427 9.82943 4.83529 9.82943H8.16862V13.1628C8.16862 13.3838 8.25642 13.5957 8.4127 13.752C8.56898 13.9083 8.78094 13.9961 9.00195 13.9961C9.22297 13.9961 9.43493 13.9083 9.59121 13.752C9.74749 13.5957 9.83529 13.3838 9.83529 13.1628V9.82943H13.1686C13.3896 9.82943 13.6016 9.74163 13.7579 9.58535C13.9142 9.42907 14.002 9.21711 14.002 8.99609C14.002 8.77508 13.9142 8.56312 13.7579 8.40684C13.6016 8.25056 13.3896 8.16276 13.1686 8.16276Z" fill="#979FB5"/>
</svg>
