<svg width="48" height="48" viewBox="0 0 48 48" fill="none" xmlns="http://www.w3.org/2000/svg">
<rect x="24" width="33.9411" height="33.9411" rx="5.25" transform="rotate(45 24 0)" fill="#3C8BFD"/>
<path d="M33.9775 20.1954H37.776L39.0633 18.0078H33.872C33.6962 18.0078 33.5274 18.0359 33.3585 18.0852C28.8215 19.5342 28.5823 25.1475 31.6703 26.2941C31.8673 26.3644 32.0713 26.3996 32.2823 26.3996H36.334L37.7127 24.3526H33.4641C32.7184 24.3526 32.0643 23.804 31.9798 23.0654C31.8884 22.2846 32.1698 21.3561 32.6903 20.7582C33.0139 20.3994 33.4922 20.1954 33.9775 20.1954Z" fill="#FEFEFE"/>
<path d="M27.7805 21.2498C27.6187 21.1724 27.4429 21.1372 27.267 21.1372L23.3701 21.0599C23.0043 20.9825 23.0676 20.1314 23.567 20.0821H28.7231L30.0385 18H23.771C23.4896 18 23.2223 18.0633 22.9691 18.1899C22.3079 18.5205 21.1402 19.3154 20.9784 20.9262C20.9784 20.9262 20.6971 22.1572 21.8155 22.945C22.1039 23.149 22.4627 23.2475 22.8144 23.2475H26.6761C27.0419 23.2967 27.0349 24.2674 26.5003 24.3589H20.2961L19.8459 26.4058H26.7183C26.7183 26.4058 28.8286 26.0612 28.906 23.7047C28.9482 22.0587 28.2307 21.4678 27.7805 21.2498Z" fill="#FEFEFE"/>
<path d="M18.5659 18H12.7205L10.8564 26.3988H12.8823L14.3243 20.0258H17.567C18.1931 20.1947 17.9821 21.081 17.4545 21.2146H15.1473C14.6057 21.2216 14.1062 22.1924 14.4931 22.9169L16.8355 26.3918H19.403L16.9902 22.8747C20.4722 22.9943 20.8801 18.4009 18.5659 18Z" fill="#FEFEFE"/>
<path d="M38.4022 29.4713H9.6676L10.0686 27.1289H38.8031L38.4022 29.4713Z" fill="#FEFEFE"/>
<path d="M38.2686 29.832H9.54102V30.0009H38.2686V29.832Z" fill="#FEFEFE"/>
<path d="M12.8894 29.0139L13.4662 27.5227H14.0782L14.2329 28.0995L14.2611 28.212L14.2892 28.3316C14.2962 28.3175 14.2962 28.2964 14.3033 28.2823C14.3103 28.2683 14.3173 28.2542 14.3244 28.2331C14.3314 28.212 14.3455 28.1979 14.3525 28.1698C14.3666 28.1487 14.3806 28.1276 14.3947 28.0995L14.7394 27.5156H15.3443L15.4428 29.0069H14.9363L14.9082 28.2964C14.9082 28.2824 14.9082 28.2612 14.9082 28.2401C14.9082 28.212 14.9082 28.1909 14.9082 28.1839L14.9152 28.0643C14.9012 28.1135 14.866 28.1768 14.8168 28.2542L14.7957 28.2894L14.3525 29.0139H14.0219L13.8038 28.2894L13.7687 28.1768L13.7405 28.0643C13.7335 28.1065 13.7265 28.1487 13.7124 28.1909L13.6843 28.3035L13.424 29.0139H12.8894Z" fill="#3C8BFD"/>
<path d="M16.1251 28.5854V28.6065C16.1251 28.6698 16.1532 28.7191 16.1954 28.7542C16.2447 28.7894 16.308 28.8035 16.3994 28.8035C16.4627 28.8035 16.519 28.7964 16.5753 28.7753C16.6034 28.7683 16.6315 28.7542 16.6597 28.7402C16.6878 28.7261 16.716 28.705 16.7511 28.6839L17.0255 28.8809C16.9481 28.9371 16.8566 28.9793 16.7511 29.0075C16.6456 29.0356 16.5331 29.0497 16.3994 29.0497C16.1673 29.0497 15.9844 29.0075 15.8578 28.916C15.7241 28.8246 15.6608 28.705 15.6538 28.5432C15.6468 28.3674 15.7171 28.2267 15.8648 28.1141C16.0125 28.0016 16.2095 27.9453 16.4487 27.9453C16.6667 27.9453 16.8426 27.9946 16.9833 28.093C17.1169 28.1915 17.1943 28.3181 17.1943 28.4799L17.1872 28.5573V28.5784H16.1251V28.5854ZM16.723 28.3814C16.723 28.3533 16.716 28.3322 16.7019 28.3111C16.6878 28.29 16.6667 28.2689 16.6386 28.2548C16.5893 28.2196 16.526 28.2056 16.4487 28.2056C16.3783 28.2056 16.315 28.2196 16.2658 28.2548C16.2095 28.283 16.1743 28.3322 16.1462 28.3885H16.723V28.3814Z" fill="#3C8BFD"/>
<path d="M18.5659 28.3611C18.5166 28.3189 18.4604 28.2908 18.4041 28.2697C18.3478 28.2486 18.2916 28.2415 18.2353 28.2415C18.1368 28.2415 18.0594 28.2697 17.9891 28.3259C17.9187 28.3822 17.8906 28.4525 17.8976 28.5299C17.8976 28.6003 17.9258 28.6495 17.9821 28.6917C18.0383 28.7339 18.1087 28.748 18.1931 28.748C18.2493 28.748 18.2986 28.741 18.3549 28.7269C18.4041 28.7128 18.4604 28.6917 18.5096 28.6636L18.4463 29.0012C18.4182 29.0083 18.383 29.0153 18.3549 29.0223C18.3197 29.0294 18.2845 29.0364 18.2564 29.0364C18.1931 29.0434 18.1368 29.0505 18.0735 29.0505C17.8765 29.0505 17.7148 29.0012 17.5811 28.9098C17.4545 28.8183 17.3841 28.6917 17.3841 28.544C17.3771 28.3681 17.4475 28.2204 17.6022 28.1149C17.7499 28.0024 17.9539 27.9531 18.2001 27.9531C18.2775 27.9531 18.3549 27.9602 18.4322 27.9813C18.5026 27.9953 18.5729 28.0235 18.6292 28.0516L18.5659 28.3611Z" fill="#3C8BFD"/>
<path d="M18.791 29.0132L19.0865 27.4375H19.5788L19.4733 27.9932L19.4593 28.0706C19.4593 28.0846 19.4522 28.0917 19.4522 28.1057C19.4522 28.1198 19.4452 28.1339 19.4382 28.1409C19.5155 28.0776 19.5859 28.0284 19.6633 27.9932C19.7406 27.9651 19.825 27.944 19.9165 27.944C20.0642 27.944 20.1767 27.9721 20.2612 28.0284C20.3456 28.0846 20.3878 28.1691 20.3878 28.2675C20.3878 28.3027 20.3807 28.359 20.3667 28.4434C20.3667 28.4504 20.3667 28.4575 20.3667 28.4645L20.2682 29.0061H19.7617L19.8602 28.4645L19.8672 28.4223V28.3871C19.8672 28.3449 19.8461 28.3097 19.811 28.2886C19.7758 28.2675 19.7266 28.2535 19.6633 28.2535C19.5788 28.2535 19.5085 28.2746 19.4663 28.3238C19.4171 28.366 19.3889 28.4434 19.3678 28.5419L19.2834 29.0202H18.791V29.0132Z" fill="#3C8BFD"/>
<path d="M21.7031 28.8785C21.6398 28.9348 21.5625 28.977 21.478 29.0122C21.3936 29.0403 21.3022 29.0544 21.2108 29.0544C21.049 29.0544 20.9153 29.0122 20.8028 28.9207C20.6902 28.8293 20.641 28.7167 20.6339 28.576C20.6269 28.4002 20.6902 28.2525 20.8309 28.1329C20.9646 28.0133 21.1404 27.957 21.3514 27.957C21.4499 27.957 21.5414 27.9711 21.6187 27.9992C21.6961 28.0274 21.7665 28.0766 21.8298 28.1329L21.8579 27.9852H22.3292L22.1393 29.0122H21.675L21.7031 28.8785ZM21.1404 28.5338C21.1404 28.5971 21.1756 28.6534 21.2319 28.6886C21.2881 28.7308 21.3655 28.7519 21.4499 28.7519C21.5484 28.7519 21.6258 28.7238 21.6961 28.6675C21.7594 28.6112 21.7946 28.5409 21.7876 28.4565C21.7876 28.3932 21.7524 28.3439 21.6961 28.3017C21.6398 28.2595 21.5695 28.2384 21.478 28.2384C21.3796 28.2384 21.2952 28.2665 21.2319 28.3228C21.1685 28.3861 21.1404 28.4565 21.1404 28.5338Z" fill="#3C8BFD"/>
<path d="M22.5192 29.0153L22.7091 27.9883H23.1874L23.1593 28.1501C23.2366 28.0868 23.307 28.0375 23.3844 28.0024C23.4617 27.9742 23.5462 27.9531 23.6376 27.9531C23.7853 27.9531 23.8979 27.9813 23.9823 28.0375C24.0667 28.0938 24.1089 28.1782 24.1089 28.2767C24.1089 28.3119 24.1019 28.3681 24.0878 28.4525C24.0878 28.4596 24.0878 28.4666 24.0878 28.4737L23.9893 29.0083H23.4828L23.5813 28.4666L23.5884 28.4244V28.3892C23.5884 28.347 23.5673 28.3119 23.5321 28.2908C23.4969 28.2697 23.4477 28.2556 23.3844 28.2556C23.3 28.2556 23.2296 28.2767 23.1874 28.3259C23.1382 28.3681 23.11 28.4455 23.0889 28.544L23.0045 29.0223H22.5192V29.0153Z" fill="#3C8BFD"/>
<path d="M24.3551 29.0155L24.545 27.9885H25.0515L24.8616 29.0155H24.3551ZM24.5661 27.686C24.5661 27.6297 24.5872 27.5875 24.6365 27.5524C24.6857 27.5172 24.749 27.4961 24.8264 27.4961C24.9038 27.4961 24.9671 27.5172 25.0233 27.5524C25.0796 27.5875 25.1007 27.6368 25.1078 27.693C25.1078 27.7493 25.0867 27.7915 25.0374 27.8337C24.9882 27.8689 24.9249 27.89 24.8475 27.89C24.7772 27.89 24.7068 27.8689 24.6576 27.8337C24.5943 27.7845 24.5732 27.7353 24.5661 27.686Z" fill="#3C8BFD"/>
<path d="M26.4372 28.3611C26.388 28.3189 26.3317 28.2908 26.2754 28.2697C26.2192 28.2486 26.1629 28.2415 26.1066 28.2415C26.0081 28.2415 25.9308 28.2697 25.8604 28.3259C25.7901 28.3822 25.7619 28.4525 25.769 28.5299C25.769 28.6003 25.7971 28.6495 25.8534 28.6917C25.9097 28.7339 25.98 28.748 26.0644 28.748C26.1207 28.748 26.1699 28.741 26.2262 28.7269C26.2754 28.7128 26.3317 28.6917 26.381 28.6636L26.3176 29.0012C26.2895 29.0083 26.2543 29.0153 26.2262 29.0223C26.191 29.0294 26.1559 29.0364 26.1277 29.0364C26.0644 29.0434 26.0081 29.0505 25.9448 29.0505C25.7479 29.0505 25.5861 29.0012 25.4524 28.9098C25.3258 28.8183 25.2555 28.6917 25.2555 28.544C25.2484 28.3681 25.3188 28.2204 25.4735 28.1149C25.6213 28.0024 25.8253 27.9531 26.0714 27.9531C26.1488 27.9531 26.2262 27.9602 26.3036 27.9813C26.3739 27.9953 26.4443 28.0235 26.5005 28.0516L26.4372 28.3611Z" fill="#3C8BFD"/>
<path d="M27.7666 28.8785C27.7033 28.9348 27.6259 28.977 27.5415 29.0122C27.4571 29.0403 27.3657 29.0544 27.2742 29.0544C27.1124 29.0544 26.9788 29.0122 26.8662 28.9207C26.7607 28.8293 26.7045 28.7167 26.6974 28.576C26.6904 28.4002 26.7537 28.2525 26.8944 28.1329C27.028 28.0133 27.2039 27.957 27.4149 27.957C27.5134 27.957 27.6048 27.9711 27.6822 27.9992C27.7596 28.0274 27.8299 28.0766 27.8932 28.1329L27.9214 27.9852H28.3927L28.2027 29.0122H27.7385L27.7666 28.8785ZM27.2039 28.5338C27.2039 28.5971 27.2391 28.6534 27.2953 28.6886C27.3516 28.7308 27.429 28.7519 27.5134 28.7519C27.6119 28.7519 27.6892 28.7238 27.7596 28.6675C27.8229 28.6112 27.8581 28.5409 27.851 28.4565C27.851 28.3932 27.8159 28.3439 27.7596 28.3017C27.7033 28.2595 27.633 28.2384 27.5415 28.2384C27.443 28.2384 27.3586 28.2665 27.2953 28.3228C27.232 28.3861 27.1969 28.4565 27.2039 28.5338Z" fill="#3C8BFD"/>
<path d="M28.8922 27.4375H29.3986L29.1032 29.0132H28.6038L28.8922 27.4375Z" fill="#3C8BFD"/>
<path d="M29.1313 29.3096L29.6167 28.6836H30.2146L29.5604 29.3096H29.1313Z" fill="#3C8BFD"/>
<path d="M31.2908 29.0108L31.5651 27.5195H32.1278L31.8535 29.0108H31.2908Z" fill="#3C8BFD"/>
<path d="M32.2544 29.0153L32.4443 27.9883H32.9226L32.8945 28.1501C32.9719 28.0868 33.0422 28.0375 33.1196 28.0024C33.197 27.9672 33.2814 27.9531 33.3728 27.9531C33.5205 27.9531 33.6331 27.9813 33.7175 28.0375C33.8019 28.0938 33.8441 28.1782 33.8441 28.2767C33.8441 28.3119 33.8371 28.3681 33.823 28.4525C33.823 28.4596 33.823 28.4666 33.823 28.4737L33.7245 29.0083H33.2181L33.3166 28.4666L33.3236 28.4244V28.3892C33.3236 28.347 33.3025 28.3119 33.2673 28.2908C33.2321 28.2697 33.1829 28.2556 33.1196 28.2556C33.0352 28.2556 32.9648 28.2767 32.9226 28.3259C32.8734 28.3681 32.8453 28.4455 32.8242 28.544L32.7398 29.0223H32.2544V29.0153Z" fill="#3C8BFD"/>
<path d="M35.2721 28.3611C35.2228 28.3189 35.1666 28.2908 35.1103 28.2697C35.054 28.2486 34.9977 28.2415 34.9415 28.2415C34.843 28.2415 34.7656 28.2697 34.6953 28.3259C34.6249 28.3822 34.5968 28.4525 34.6038 28.5299C34.6038 28.6003 34.632 28.6495 34.6882 28.6917C34.7445 28.7339 34.8148 28.748 34.8993 28.748C34.9555 28.748 35.0048 28.741 35.061 28.7269C35.1103 28.7128 35.1666 28.6917 35.2158 28.6636L35.1525 29.0012C35.1243 29.0083 35.0892 29.0153 35.061 29.0223C35.0259 29.0294 34.9907 29.0364 34.9626 29.0364C34.8993 29.0434 34.843 29.0505 34.7797 29.0505C34.5827 29.0505 34.4209 29.0012 34.2873 28.9098C34.1607 28.8183 34.0903 28.6917 34.0903 28.544C34.0833 28.3681 34.1536 28.2204 34.3084 28.1149C34.4561 28.0024 34.6601 27.9531 34.9063 27.9531C34.9837 27.9531 35.061 27.9602 35.1384 27.9813C35.2088 27.9953 35.2791 28.0235 35.3354 28.0516L35.2721 28.3611Z" fill="#3C8BFD"/>
<path d="M35.5323 28.8438C35.5323 28.7876 35.5535 28.7383 35.6097 28.6961C35.666 28.6539 35.7293 28.6328 35.8067 28.6328C35.8841 28.6328 35.9544 28.6539 36.0107 28.6891C36.0669 28.7313 36.0951 28.7735 36.1021 28.8368C36.1021 28.8931 36.081 28.9423 36.0247 28.9845C35.9685 29.0267 35.9052 29.0408 35.8278 29.0408C35.7504 29.0408 35.6801 29.0197 35.6238 28.9775C35.5675 28.9353 35.5323 28.9001 35.5323 28.8438Z" fill="#3C8BFD"/>
</svg>
