<svg width="55" height="55" viewBox="0 0 55 55" fill="none" xmlns="http://www.w3.org/2000/svg">
<rect width="55" height="55" rx="27.5" fill="#EEF6FF"/>
<path d="M39.3716 26.3287V20.4796C39.3716 19.3871 38.5456 18.148 37.5197 17.7349L30.0984 14.6971C28.4329 14.0176 26.5543 14.0176 24.8888 14.6971L17.4676 17.7349C16.455 18.148 15.6289 19.3871 15.6289 20.4796V26.3287C15.6289 32.8439 20.3588 38.9462 26.8208 40.7315C27.2604 40.8514 27.7401 40.8514 28.1798 40.7315C34.6417 38.9462 39.3716 32.8439 39.3716 26.3287Z" fill="#3E97FF"/>
<path fill-rule="evenodd" clip-rule="evenodd" d="M31.1919 23.8587L26.4958 28.7135L23.9284 26.1456C23.656 25.7005 23.1304 25.6383 22.7544 26.0068C22.3785 26.3752 22.2944 27.0348 22.5669 27.4799L25.1674 30.102L25.1703 30.1068C25.4207 30.5107 25.7835 30.7624 26.1975 30.8217C26.2197 30.8248 26.242 30.8275 26.2645 30.8295C26.7062 30.8701 27.1431 30.6892 27.4947 30.3203C27.5069 30.3074 27.5189 30.2942 27.5306 30.2806L32.2981 25.3426C32.8282 24.8346 32.6835 24.2727 32.3781 23.8629C32.162 23.5022 31.4958 23.5022 31.1919 23.8587Z" fill="white"/>
</svg>
