<svg width="14" height="14" viewBox="0 0 14 14" fill="none" xmlns="http://www.w3.org/2000/svg">
<path d="M7 8.75C7.9665 8.75 8.75 7.9665 8.75 7C8.75 6.0335 7.9665 5.25 7 5.25C6.0335 5.25 5.25 6.0335 5.25 7C5.25 7.9665 6.0335 8.75 7 8.75Z" stroke="#979FB5" stroke-width="0.875" stroke-miterlimit="10" stroke-linecap="round" stroke-linejoin="round"/>
<path d="M1.16602 7.51338V6.48671C1.16602 5.88004 1.66185 5.37838 2.27435 5.37838C3.33018 5.37838 3.76185 4.63171 3.23102 3.71588C2.92768 3.19088 3.10852 2.50838 3.63935 2.20504L4.64852 1.62754C5.10935 1.35338 5.70435 1.51671 5.97852 1.97754L6.04268 2.08838C6.56768 3.00421 7.43102 3.00421 7.96185 2.08838L8.02602 1.97754C8.30018 1.51671 8.89518 1.35338 9.35602 1.62754L10.3652 2.20504C10.896 2.50838 11.0768 3.19088 10.7735 3.71588C10.2427 4.63171 10.6743 5.37838 11.7302 5.37838C12.3368 5.37838 12.8385 5.87421 12.8385 6.48671V7.51338C12.8385 8.12004 12.3427 8.62171 11.7302 8.62171C10.6743 8.62171 10.2427 9.36838 10.7735 10.2842C11.0768 10.815 10.896 11.4917 10.3652 11.795L9.35602 12.3725C8.89518 12.6467 8.30018 12.4834 8.02602 12.0225L7.96185 11.9117C7.43685 10.9959 6.57352 10.9959 6.04268 11.9117L5.97852 12.0225C5.70435 12.4834 5.10935 12.6467 4.64852 12.3725L3.63935 11.795C3.10852 11.4917 2.92768 10.8092 3.23102 10.2842C3.76185 9.36838 3.33018 8.62171 2.27435 8.62171C1.66185 8.62171 1.16602 8.12004 1.16602 7.51338Z" stroke="#979FB5" stroke-width="0.875" stroke-miterlimit="10" stroke-linecap="round" stroke-linejoin="round"/>
</svg>
