<svg width="22" height="22" viewBox="0 0 22 22" fill="none" xmlns="http://www.w3.org/2000/svg">
<path d="M9.65857 2.31214L5.22301 3.98325C4.20079 4.36547 3.36523 5.57436 3.36523 6.6588V13.2632C3.36523 14.3121 4.05857 15.6899 4.90301 16.321L8.72523 19.1744C9.97857 20.1166 12.0408 20.1166 13.2941 19.1744L17.1163 16.321C17.9608 15.6899 18.6541 14.3121 18.6541 13.2632V6.6588C18.6541 5.56547 17.8186 4.35658 16.7963 3.97436L12.3608 2.31214C11.6052 2.03658 10.3963 2.03658 9.65857 2.31214Z" stroke="white" stroke-width="1.33333" stroke-linecap="round" stroke-linejoin="round"/>
<path d="M11.0004 11.4423C11.9823 11.4423 12.7782 10.6463 12.7782 9.6645C12.7782 8.68266 11.9823 7.88672 11.0004 7.88672C10.0186 7.88672 9.22266 8.68266 9.22266 9.6645C9.22266 10.6463 10.0186 11.4423 11.0004 11.4423Z" stroke="white" stroke-width="1.33333" stroke-miterlimit="10" stroke-linecap="round" stroke-linejoin="round"/>
<path d="M11 11.4414V14.1081" stroke="white" stroke-width="1.33333" stroke-miterlimit="10" stroke-linecap="round" stroke-linejoin="round"/>
</svg>
