<svg width="16" height="16" viewBox="0 0 16 16" fill="none" xmlns="http://www.w3.org/2000/svg">
<path d="M13.4639 7.56249V4.90001C13.4639 2.38126 12.8764 1.75 10.5139 1.75H5.78887C3.42637 1.75 2.83887 2.38126 2.83887 4.90001V11.9375C2.83887 13.6 3.75137 13.9938 4.85762 12.8063L4.86386 12.8C5.37636 12.2562 6.15761 12.3 6.60136 12.8937L7.23262 13.7375" stroke="#979FB5" stroke-width="1.13" stroke-linecap="round" stroke-linejoin="round"/>
<path d="M12.0264 13.875C13.1309 13.875 14.0264 12.9796 14.0264 11.875C14.0264 10.7704 13.1309 9.875 12.0264 9.875C10.9218 9.875 10.0264 10.7704 10.0264 11.875C10.0264 12.9796 10.9218 13.875 12.0264 13.875Z" stroke="#979FB5" stroke-width="1.13" stroke-linecap="round" stroke-linejoin="round"/>
<path d="M14.4014 14.25L13.7764 13.625" stroke="#979FB5" stroke-width="1.13" stroke-linecap="round" stroke-linejoin="round"/>
<path d="M5.65137 4.875H10.6514" stroke="#979FB5" stroke-width="1.13" stroke-linecap="round" stroke-linejoin="round"/>
<path d="M6.27637 7.375H10.0264" stroke="#979FB5" stroke-width="1.13" stroke-linecap="round" stroke-linejoin="round"/>
</svg>
