<svg width="15" height="15" viewBox="0 0 15 15" fill="none" xmlns="http://www.w3.org/2000/svg">
<path d="M13.8725 7.98052V7.97441C13.8717 7.96869 13.8706 7.96303 13.8692 7.95744C13.8613 7.90857 13.8521 7.86106 13.8409 7.81287C13.8371 7.79651 13.8323 7.78041 13.8265 7.76468C13.7981 7.6369 13.7601 7.51163 13.7126 7.39002L12.4119 4.257C12.083 3.46356 11.7711 2.71425 10.1434 2.71425C10.0125 2.71425 9.88702 2.76788 9.79448 2.86334C9.70194 2.95881 9.64996 3.08829 9.64996 3.22329C9.64996 3.3583 9.70194 3.48778 9.79448 3.58325C9.88702 3.67871 10.0125 3.73234 10.1434 3.73234C11.1204 3.73234 11.2092 3.94682 11.5046 4.65813L12.6711 7.46536H10.8171C10.398 7.47497 9.98876 7.59843 9.63068 7.8233C9.27259 8.04816 8.97832 8.36648 8.77755 8.74613C8.64688 8.97618 8.46014 9.16697 8.23589 9.29954C8.01164 9.43212 7.75767 9.50187 7.4992 9.50187C7.24073 9.50187 6.98676 9.43212 6.76251 9.29954C6.53826 9.16697 6.35152 8.97618 6.22085 8.74613C6.01995 8.36665 5.72563 8.04851 5.36755 7.82377C5.00948 7.59904 4.60031 7.47565 4.18128 7.46604H2.32462L3.49112 4.65813C3.78653 3.94682 3.87535 3.73234 4.85237 3.73234C4.98324 3.73234 5.10875 3.67871 5.20128 3.58325C5.29382 3.48778 5.34581 3.3583 5.34581 3.22329C5.34581 3.08829 5.29382 2.95881 5.20128 2.86334C5.10875 2.76788 4.98324 2.71425 4.85237 2.71425C3.22466 2.71425 2.91346 3.46085 2.58384 4.257L1.28246 7.38934C1.23472 7.51159 1.19644 7.63755 1.16799 7.76604C1.16291 7.78006 1.15852 7.79433 1.15483 7.8088C1.14364 7.85835 1.13377 7.90857 1.12522 7.9588V7.97441V7.97984C1.10092 8.11603 1.0875 8.25405 1.08509 8.39251V11.3681C1.04651 11.7118 1.08372 12.06 1.19394 12.3868C1.30416 12.7136 1.48453 13.0104 1.72159 13.2552C1.95865 13.4999 2.24626 13.6862 2.56293 13.8002C2.8796 13.9142 3.21714 13.9528 3.55033 13.9133H11.4454C11.7788 13.9532 12.1165 13.9147 12.4335 13.8009C12.7504 13.6871 13.0383 13.5008 13.2755 13.256C13.5128 13.0113 13.6934 12.7143 13.8037 12.3873C13.9141 12.0604 13.9513 11.7119 13.9127 11.3681V8.39251C13.9102 8.25427 13.8968 8.11648 13.8725 7.98052ZM11.4454 12.8952H3.55033C2.51278 12.8952 2.07 12.4384 2.07 11.3681V8.48346H4.17865C4.42539 8.49407 4.66509 8.57139 4.87375 8.70767C5.0824 8.84394 5.25268 9.03439 5.36752 9.25992C5.58529 9.6433 5.89649 9.96124 6.2702 10.1822C6.64392 10.4031 7.06715 10.5193 7.49788 10.5193C7.92861 10.5193 8.35185 10.4031 8.72556 10.1822C9.09928 9.96124 9.41047 9.6433 9.62825 9.25992C9.74295 9.03422 9.91318 8.8436 10.1219 8.70719C10.3305 8.57079 10.5703 8.49339 10.8171 8.48278H12.9225V11.3681C12.9258 12.4384 12.483 12.8952 11.4454 12.8952ZM5.83333 2.22556C5.7875 2.17834 5.75114 2.12227 5.72633 2.06054C5.70152 1.99882 5.68875 1.93265 5.68875 1.86583C5.68875 1.79901 5.70152 1.73285 5.72633 1.67112C5.75114 1.6094 5.7875 1.55332 5.83333 1.50611L7.14918 0.148644C7.19539 0.101748 7.24989 0.0644229 7.30972 0.0386896C7.43063 -0.0128965 7.56645 -0.0128965 7.68737 0.0386896C7.7472 0.0644229 7.80169 0.101748 7.8479 0.148644L9.16375 1.50611C9.21223 1.55271 9.25112 1.60891 9.27808 1.67135C9.30505 1.73379 9.31956 1.8012 9.32073 1.86955C9.32189 1.9379 9.30971 2.00579 9.28489 2.06918C9.26007 2.13256 9.22313 2.19014 9.17628 2.23848C9.12942 2.28682 9.0736 2.32493 9.01216 2.35053C8.95072 2.37613 8.88491 2.38871 8.81865 2.3875C8.7524 2.38629 8.68706 2.37133 8.62653 2.34351C8.566 2.31569 8.51152 2.27557 8.46635 2.22556L7.99264 1.73755V5.93822C7.99264 6.07322 7.94066 6.2027 7.84812 6.29817C7.75558 6.39363 7.63007 6.44726 7.4992 6.44726C7.36833 6.44726 7.24282 6.39363 7.15028 6.29817C7.05774 6.2027 7.00576 6.07322 7.00576 5.93822V1.73755L6.53205 2.22556C6.48626 2.27305 6.43182 2.31073 6.37186 2.33644C6.31191 2.36216 6.24762 2.37539 6.18269 2.37539C6.11776 2.37539 6.05347 2.36216 5.99352 2.33644C5.93356 2.31073 5.87913 2.27305 5.83333 2.22556Z" fill="#979FB5"/>
</svg>
