<svg width="11" height="14" viewBox="0 0 11 14" fill="none" xmlns="http://www.w3.org/2000/svg">
<path d="M5.23633 13.043C5.41862 13.043 5.57357 12.9792 5.70117 12.8516C5.82877 12.724 5.89258 12.569 5.89258 12.3867L5.89258 3.17187L9.36523 6.6582C9.49284 6.78581 9.64779 6.84961 9.83008 6.84961C10.0124 6.84961 10.1673 6.78581 10.2949 6.6582C10.4225 6.5306 10.4863 6.37793 10.4863 6.2002C10.4863 6.02246 10.4225 5.86979 10.2949 5.74219L5.70117 1.14844C5.57357 1.02083 5.41862 0.957031 5.23633 0.957031C5.05404 0.957031 4.89909 1.02083 4.77148 1.14844L0.177734 5.74219C0.0592447 5.86979 -4.42834e-07 6.02246 -4.58372e-07 6.20019C-4.7391e-07 6.37793 0.0592446 6.5306 0.177734 6.6582C0.305338 6.78581 0.460286 6.84961 0.642578 6.84961C0.82487 6.84961 0.979817 6.78581 1.10742 6.6582L4.58008 3.17187L4.58008 12.3867C4.58008 12.569 4.64388 12.724 4.77148 12.8516C4.89909 12.9792 5.05404 13.043 5.23633 13.043Z" fill="#F8285A"/>
</svg>
