<svg width="11" height="14" viewBox="0 0 11 14" fill="none" xmlns="http://www.w3.org/2000/svg">
<path d="M5.25 0.957031C5.06771 0.957031 4.91276 1.02083 4.78516 1.14844C4.65755 1.27604 4.59375 1.43099 4.59375 1.61328L4.59375 10.8281L1.12109 7.3418C0.99349 7.21419 0.838542 7.15039 0.65625 7.15039C0.473958 7.15039 0.31901 7.21419 0.191406 7.3418C0.0638021 7.4694 0 7.62207 0 7.7998C0 7.97754 0.0638021 8.13021 0.191406 8.25781L4.78516 12.8516C4.91276 12.9792 5.06771 13.043 5.25 13.043C5.43229 13.043 5.58724 12.9792 5.71484 12.8516L10.3086 8.25781C10.4271 8.13021 10.4863 7.97754 10.4863 7.7998C10.4863 7.62207 10.4271 7.4694 10.3086 7.3418C10.181 7.21419 10.026 7.15039 9.84375 7.15039C9.66146 7.15039 9.50651 7.21419 9.37891 7.3418L5.90625 10.8281L5.90625 1.61328C5.90625 1.43099 5.84245 1.27604 5.71484 1.14844C5.58724 1.02083 5.43229 0.957031 5.25 0.957031Z" fill="#188544"/>
</svg>
