<svg width="18" height="16" viewBox="0 0 18 16" fill="none" xmlns="http://www.w3.org/2000/svg">
<path d="M4.93945 0.609375C5.24414 0.410156 5.56641 0.257812 5.90625 0.152344C6.24609 0.046875 6.59766 -0.00585938 6.96094 -0.00585938C7.19531 -0.00585938 7.42969 0.0175781 7.66406 0.0644531C7.89844 0.111328 8.12695 0.181641 8.34961 0.275391C8.57227 0.369141 8.7832 0.483398 8.98242 0.618164C9.18164 0.75293 9.36328 0.902344 9.52734 1.06641C9.70312 1.23047 9.85547 1.41211 9.98438 1.61133C10.1133 1.81055 10.2246 2.02148 10.3184 2.24414C10.4121 2.4668 10.4824 2.69531 10.5293 2.92969C10.5762 3.16406 10.5996 3.39844 10.5996 3.63281C10.5996 3.99609 10.5469 4.35059 10.4414 4.69629C10.3359 5.04199 10.1836 5.36133 9.98438 5.6543C9.78516 5.95898 9.54785 6.22559 9.27246 6.4541C8.99707 6.68262 8.68945 6.86133 8.34961 6.99023C8.02148 7.13086 7.67871 7.21875 7.32129 7.25391C6.96387 7.28906 6.60938 7.27148 6.25781 7.20117C5.90625 7.13086 5.57227 7.01074 5.25586 6.84082C4.93945 6.6709 4.65234 6.45703 4.39453 6.19922C4.13672 5.95312 3.92285 5.67188 3.75293 5.35547C3.58301 5.03906 3.46289 4.70508 3.39258 4.35352C3.32227 3.99023 3.30469 3.62988 3.33984 3.27246C3.375 2.91504 3.46289 2.57227 3.60352 2.24414C3.74414 1.91602 3.92871 1.61133 4.15723 1.33008C4.38574 1.04883 4.64648 0.808594 4.93945 0.609375ZM5.51953 5.77734C5.73047 5.91797 5.95898 6.02637 6.20508 6.10254C6.45117 6.17871 6.70312 6.2168 6.96094 6.2168C7.3125 6.2168 7.64941 6.15234 7.97168 6.02344C8.29395 5.89453 8.57812 5.70703 8.82422 5.46094C9.07031 5.21484 9.26074 4.93066 9.39551 4.6084C9.53027 4.28613 9.59766 3.95508 9.59766 3.61523C9.59766 3.3457 9.55957 3.08789 9.4834 2.8418C9.40723 2.5957 9.29883 2.36719 9.1582 2.15625C9.01758 1.94531 8.84473 1.75488 8.63965 1.58496C8.43457 1.41504 8.21484 1.2832 7.98047 1.18945C7.74609 1.0957 7.5 1.03418 7.24219 1.00488C6.98438 0.975586 6.72656 0.984375 6.46875 1.03125C6.22266 1.08984 5.98535 1.17773 5.75684 1.29492C5.52832 1.41211 5.32031 1.56445 5.13281 1.75195C4.94531 1.92773 4.79004 2.12988 4.66699 2.3584C4.54395 2.58691 4.45898 2.83008 4.41211 3.08789C4.36523 3.3457 4.35352 3.60352 4.37695 3.86133C4.40039 4.11914 4.45898 4.36523 4.55273 4.59961C4.64648 4.83398 4.77539 5.05371 4.93945 5.25879C5.10352 5.46387 5.29688 5.63672 5.51953 5.77734ZM1.30078 11.7891C1.30078 11.2266 1.44727 10.7051 1.74023 10.2246C2.0332 9.74414 2.43457 9.3252 2.94434 8.96777C3.4541 8.61035 4.05469 8.33203 4.74609 8.13281C5.42578 7.92188 6.16406 7.81641 6.96094 7.81641C7.75781 7.81641 8.50195 7.92188 9.19336 8.13281C9.88477 8.33203 10.4854 8.61035 10.9951 8.96777C11.5049 9.3252 11.9062 9.74414 12.1992 10.2246C12.5039 10.7051 12.6562 11.2266 12.6562 11.7891C12.6562 12.3398 12.5039 12.8613 12.1992 13.3535C11.9062 13.834 11.5049 14.25 10.9951 14.6016C10.4854 14.9531 9.88477 15.2344 9.19336 15.4453C8.50195 15.6445 7.75781 15.7441 6.96094 15.7441C6.16406 15.7441 5.42578 15.6445 4.74609 15.4453C4.05469 15.2344 3.4541 14.9531 2.94434 14.6016C2.43457 14.25 2.0332 13.834 1.74023 13.3535C1.44727 12.8613 1.30078 12.3398 1.30078 11.7891ZM2.39062 11.7891C2.39062 12.1758 2.51367 12.5449 2.75977 12.8965C3.00586 13.2363 3.33691 13.5381 3.75293 13.8018C4.16895 14.0654 4.65234 14.2734 5.20312 14.4258C5.75391 14.5781 6.33984 14.6543 6.96094 14.6543C7.58203 14.6543 8.16797 14.5781 8.71875 14.4258C9.26953 14.2734 9.75293 14.0654 10.1689 13.8018C10.585 13.5381 10.916 13.2363 11.1621 12.8965C11.3965 12.5449 11.5137 12.1758 11.5137 11.7891C11.5137 11.4023 11.3965 11.0332 11.1621 10.6816C10.916 10.3301 10.585 10.0254 10.1689 9.76758C9.75293 9.50977 9.26953 9.30469 8.71875 9.15234C8.16797 8.98828 7.58203 8.90625 6.96094 8.90625C6.33984 8.90625 5.75391 8.98828 5.20312 9.15234C4.65234 9.30469 4.16895 9.50977 3.75293 9.76758C3.33691 10.0254 3.00586 10.3301 2.75977 10.6816C2.51367 11.0332 2.39062 11.4023 2.39062 11.7891ZM12.375 7.42969C12.7734 7.41797 13.1514 7.33301 13.5088 7.1748C13.8662 7.0166 14.1855 6.79688 14.4668 6.51562C14.7363 6.22266 14.9414 5.89453 15.082 5.53125C15.2227 5.16797 15.2871 4.78711 15.2754 4.38867C15.2754 4.00195 15.1963 3.62695 15.0381 3.26367C14.8799 2.90039 14.6543 2.58398 14.3613 2.31445C14.0801 2.04492 13.7549 1.83691 13.3857 1.69043C13.0166 1.54395 12.6387 1.47656 12.252 1.48828C12.1816 1.48828 12.1113 1.50293 12.041 1.53223C11.9707 1.56152 11.9121 1.59961 11.8652 1.64648C11.8184 1.70508 11.7803 1.7666 11.751 1.83105C11.7217 1.89551 11.707 1.96289 11.707 2.0332C11.707 2.10352 11.7217 2.17383 11.751 2.24414C11.7803 2.31445 11.8184 2.37305 11.8652 2.41992C11.9121 2.4668 11.9707 2.50488 12.041 2.53418C12.1113 2.56348 12.1816 2.57812 12.252 2.57812C12.3691 2.57812 12.4893 2.58984 12.6123 2.61328C12.7354 2.63672 12.8555 2.66602 12.9727 2.70117C13.0898 2.74805 13.1982 2.80371 13.2979 2.86816C13.3975 2.93262 13.4941 3.01172 13.5879 3.10547C13.6816 3.1875 13.7637 3.27832 13.834 3.37793C13.9043 3.47754 13.9629 3.58594 14.0098 3.70312C14.0566 3.80859 14.0947 3.92285 14.124 4.0459C14.1533 4.16895 14.168 4.28906 14.168 4.40625C14.168 4.53516 14.1592 4.66113 14.1416 4.78418C14.124 4.90723 14.0918 5.02148 14.0449 5.12695C13.998 5.24414 13.9424 5.35547 13.8779 5.46094C13.8135 5.56641 13.7402 5.66602 13.6582 5.75977C13.5645 5.8418 13.4678 5.91797 13.3682 5.98828C13.2686 6.05859 13.1602 6.12305 13.043 6.18164C12.9375 6.22852 12.8232 6.26367 12.7002 6.28711C12.5771 6.31055 12.457 6.32812 12.3398 6.33984C12.2812 6.33984 12.2285 6.33984 12.1816 6.33984C12.1348 6.33984 12.082 6.33984 12.0234 6.33984C11.9531 6.32812 11.8828 6.33105 11.8125 6.34863C11.7422 6.36621 11.6836 6.39844 11.6367 6.44531C11.5781 6.49219 11.5283 6.54492 11.4873 6.60352C11.4463 6.66211 11.4199 6.72656 11.4082 6.79688C11.4082 6.83203 11.4082 6.86719 11.4082 6.90234C11.4082 6.9375 11.4141 6.97266 11.4258 7.00781C11.4375 7.04297 11.4492 7.07812 11.4609 7.11328C11.4727 7.14844 11.4902 7.17773 11.5137 7.20117C11.5371 7.23633 11.5635 7.26562 11.5928 7.28906C11.6221 7.3125 11.6484 7.33008 11.6719 7.3418C11.707 7.36523 11.7422 7.38281 11.7773 7.39453C11.8125 7.40625 11.8477 7.41211 11.8828 7.41211C11.9531 7.42383 12.0205 7.42969 12.085 7.42969C12.1494 7.42969 12.2168 7.42383 12.2871 7.41211L12.375 7.42969ZM16.6992 11.2617C16.6992 11.9766 16.3916 12.6094 15.7764 13.1602C15.1611 13.7109 14.3613 14.0625 13.377 14.2148H13.2891C13.2188 14.2148 13.1543 14.2061 13.0957 14.1885C13.0371 14.1709 12.9844 14.1387 12.9375 14.0918C12.8906 14.0449 12.8496 13.9951 12.8145 13.9424C12.7793 13.8896 12.7559 13.8281 12.7441 13.7578C12.7324 13.6875 12.7354 13.6172 12.7529 13.5469C12.7705 13.4766 12.8027 13.4121 12.8496 13.3535C12.8965 13.2949 12.9492 13.248 13.0078 13.2129C13.0664 13.1777 13.1309 13.1543 13.2012 13.1426C13.9043 13.0371 14.4814 12.8057 14.9326 12.4482C15.3838 12.0908 15.6094 11.6953 15.6094 11.2617C15.6094 10.7344 15.2959 10.2773 14.6689 9.89062C14.042 9.50391 13.3008 9.31055 12.4453 9.31055C12.3633 9.31055 12.29 9.29883 12.2256 9.27539C12.1611 9.25195 12.1055 9.21094 12.0586 9.15234C12 9.10547 11.959 9.04688 11.9355 8.97656C11.9121 8.90625 11.9004 8.83594 11.9004 8.76562C11.9004 8.69531 11.9121 8.62793 11.9355 8.56348C11.959 8.49902 12 8.4375 12.0586 8.37891C12.1055 8.33203 12.1611 8.29395 12.2256 8.26465C12.29 8.23535 12.3633 8.2207 12.4453 8.2207C13.043 8.2207 13.5996 8.30273 14.1152 8.4668C14.6309 8.61914 15.082 8.83008 15.4688 9.09961C15.8555 9.36914 16.1602 9.69141 16.3828 10.0664C16.5938 10.4297 16.6992 10.8281 16.6992 11.2617Z" fill="white"/>
</svg>
