<svg width="20" height="18" viewBox="0 0 20 18" fill="none" xmlns="http://www.w3.org/2000/svg">
<path d="M14.4427 17H5.55382C1.99826 17 1.10938 16.1111 1.10938 12.5556V5.44444C1.10938 1.88889 1.99826 1 5.55382 1H14.4427C17.9983 1 18.8872 1.88889 18.8872 5.44444V12.5556C18.8872 16.1111 17.9983 17 14.4427 17Z" stroke="#141414" stroke-width="1.14286" stroke-linecap="round" stroke-linejoin="round"/>
<path d="M11.7773 5.44434H16.2218" stroke="#141414" stroke-width="1.14286" stroke-linecap="round" stroke-linejoin="round"/>
<path d="M12.668 9H16.2235" stroke="#141414" stroke-width="1.14286" stroke-linecap="round" stroke-linejoin="round"/>
<path d="M14.4414 12.5557H16.2192" stroke="#141414" stroke-width="1.14286" stroke-linecap="round" stroke-linejoin="round"/>
<path d="M6.88623 8.36817C7.7748 8.36817 8.49512 7.64784 8.49512 6.75928C8.49512 5.87071 7.7748 5.15039 6.88623 5.15039C5.99767 5.15039 5.27734 5.87071 5.27734 6.75928C5.27734 7.64784 5.99767 8.36817 6.88623 8.36817Z" stroke="#141414" stroke-width="1.14286" stroke-linecap="round" stroke-linejoin="round"/>
<path d="M9.99957 12.8495C9.87512 11.5607 8.8529 10.5473 7.56401 10.4318C7.11957 10.3873 6.66623 10.3873 6.2129 10.4318C4.92401 10.5562 3.90179 11.5607 3.77734 12.8495" stroke="#141414" stroke-width="1.14286" stroke-linecap="round" stroke-linejoin="round"/>
</svg>
