<svg width="24" height="25" viewBox="0 0 24 25" fill="none" xmlns="http://www.w3.org/2000/svg">
<g clip-path="url(#clip0_697_21252)">
<g clip-path="url(#clip1_697_21252)">
<path fill-rule="evenodd" clip-rule="evenodd" d="M6.63148 1.5H13.9925L20.2236 8.00095V20.6381C20.2236 22.2188 18.9423 23.5 17.3616 23.5H6.63148C5.05072 23.5 3.76953 22.2188 3.76953 20.6381V4.36195C3.76953 2.78122 5.05072 1.5 6.63148 1.5Z" fill="#FF6600"/>
<path opacity="0.302" fill-rule="evenodd" clip-rule="evenodd" d="M13.9844 1.5V7.94756H20.2244L13.9844 1.5Z" fill="white"/>
<path d="M9.00119 17.9155H10.1133C10.143 17.9155 10.1696 17.8947 10.1756 17.868L10.5018 16.6966H11.7623L12.1122 17.868C12.1211 17.8947 12.1478 17.9155 12.1775 17.9155H13.3312C13.3697 17.9155 13.3994 17.8858 13.3994 17.8502C13.3994 17.8384 13.3964 17.8295 13.3935 17.8206L11.9224 13.0813C11.9135 13.0546 11.8898 13.0368 11.8601 13.0368H10.4514C10.4217 13.0368 10.3951 13.0546 10.3891 13.0813L8.93592 17.8295C8.93 17.8502 8.93592 17.871 8.94779 17.8888C8.95969 17.9036 8.98045 17.9155 9.00119 17.9155ZM14.4166 14.0481C14.7903 14.0481 15.0602 13.796 15.0602 13.4461C15.0513 13.0872 14.7903 12.8381 14.4226 12.8381C14.2357 12.8381 14.0696 12.9033 13.954 13.019C13.8472 13.1287 13.7909 13.283 13.7938 13.4461C13.7909 13.6062 13.8472 13.7545 13.957 13.8642C14.0696 13.9829 14.2328 14.0481 14.4166 14.0481ZM13.8887 14.3388C13.8502 14.3388 13.8205 14.3684 13.8205 14.404V17.8502C13.8205 17.8858 13.8502 17.9155 13.8887 17.9155H14.9594C14.9949 17.9155 15.0246 17.8858 15.0246 17.8502V14.404C15.0246 14.3684 14.9949 14.3388 14.9594 14.3388H13.8887ZM11.5666 15.7623H10.6946L10.9526 14.837C10.9971 14.6709 11.0416 14.4752 11.0861 14.2854C11.095 14.2409 11.1039 14.1994 11.1157 14.1549C11.1721 14.3832 11.2344 14.6294 11.2966 14.84L11.5666 15.7623Z" fill="white"/>
</g>
</g>
<defs>
<clipPath id="clip0_697_21252">
<rect width="24" height="24" fill="white" transform="translate(0 0.5)"/>
</clipPath>
<clipPath id="clip1_697_21252">
<rect width="24" height="24" fill="white" transform="translate(0 0.5)"/>
</clipPath>
</defs>
</svg>
