<svg width="16" height="16" viewBox="0 0 16 16" fill="none" xmlns="http://www.w3.org/2000/svg">
<g clip-path="url(#clip0_697_23309)">
<path d="M14.0955 2.30372C12.226 0.434161 9.18387 0.434161 7.31426 2.30372L1.50141 8.11648C0.166113 9.45195 0.166201 11.6249 1.50165 12.9603C2.16941 13.6281 3.04627 13.9619 3.92348 13.9618C4.80046 13.9618 5.67773 13.628 6.34541 12.9603L11.6736 7.63199C12.475 6.83084 12.4751 5.52706 11.6737 4.72561C10.8724 3.92437 9.56857 3.9244 8.76742 4.72576L5.28298 8.21008C5.01547 8.47756 5.01547 8.9113 5.28292 9.17884C5.55049 9.44635 5.98414 9.44635 6.25171 9.17884L9.73621 5.69444C10.0033 5.42733 10.4379 5.42733 10.705 5.69435C10.972 5.96151 10.972 6.39604 10.7049 6.66314L5.3767 11.9915C4.57537 12.7927 3.27165 12.7929 2.47038 11.9916C1.66914 11.1903 1.66905 9.88651 2.4702 9.08521L8.28302 3.27248C9.61846 1.93716 11.7914 1.9371 13.1268 3.27254C13.7738 3.91942 14.1301 4.77955 14.13 5.69441C14.13 6.60929 13.7738 7.46939 13.1267 8.11633L7.31411 13.9292C7.0466 14.1967 7.0466 14.6304 7.31417 14.8979C7.44794 15.0317 7.62325 15.0986 7.79854 15.0986C7.97382 15.0986 8.14916 15.0317 8.28293 14.8979L14.0955 9.08515C15.0012 8.17949 15.5 6.97533 15.5 5.69446C15.5001 4.41354 15.0013 3.20938 14.0955 2.30372Z" fill="black"/>
</g>
<defs>
<clipPath id="clip0_697_23309">
<rect width="15" height="15" fill="white" transform="translate(0.5 0.5)"/>
</clipPath>
</defs>
</svg>
