<svg width="16" height="16" viewBox="0 0 16 16" fill="none" xmlns="http://www.w3.org/2000/svg">
<g clip-path="url(#clip0_78_3)">
<path d="M14.0955 2.30366C12.226 0.4341 9.18387 0.4341 7.31426 2.30366L1.50141 8.11641C0.166113 9.45189 0.166201 11.6248 1.50165 12.9602C2.16941 13.628 3.04627 13.9619 3.92348 13.9618C4.80046 13.9617 5.67773 13.6279 6.34541 12.9602L11.6736 7.63193C12.475 6.83078 12.4751 5.527 11.6737 4.72555C10.8724 3.92431 9.56857 3.92434 8.76742 4.7257L5.28298 8.21002C5.01547 8.4775 5.01547 8.91124 5.28292 9.17878C5.55049 9.44629 5.98414 9.44629 6.25171 9.17878L9.73621 5.69437C10.0033 5.42727 10.4379 5.42727 10.705 5.69429C10.972 5.96145 10.972 6.39598 10.7049 6.66308L5.3767 11.9915C4.57537 12.7927 3.27165 12.7928 2.47038 11.9915C1.66914 11.1902 1.66905 9.88645 2.4702 9.08515L8.28302 3.27242C9.61846 1.93709 11.7914 1.93704 13.1268 3.27248C13.7738 3.91936 14.1301 4.77949 14.13 5.69435C14.13 6.60923 13.7738 7.46933 13.1267 8.11627L7.31411 13.9291C7.0466 14.1966 7.0466 14.6303 7.31417 14.8979C7.44794 15.0316 7.62325 15.0985 7.79854 15.0985C7.97382 15.0985 8.14916 15.0316 8.28293 14.8979L14.0955 9.08509C15.0012 8.17943 15.5 6.97527 15.5 5.6944C15.5001 4.41348 15.0013 3.20932 14.0955 2.30366Z" fill="white"/>
</g>
<defs>
<clipPath id="clip0_78_3">
<rect width="15" height="15" fill="white" transform="translate(0.5 0.5)"/>
</clipPath>
</defs>
</svg>
