<svg width="16" height="17" viewBox="0 0 16 17" fill="none" xmlns="http://www.w3.org/2000/svg">
<path d="M7.9987 9.16671C8.36689 9.16671 8.66536 8.86823 8.66536 8.50004C8.66536 8.13185 8.36689 7.83337 7.9987 7.83337C7.63051 7.83337 7.33203 8.13185 7.33203 8.50004C7.33203 8.86823 7.63051 9.16671 7.9987 9.16671Z" stroke="black" stroke-width="1.33333" stroke-linecap="round" stroke-linejoin="round"/>
<path d="M7.9987 4.49996C8.36689 4.49996 8.66536 4.20148 8.66536 3.83329C8.66536 3.4651 8.36689 3.16663 7.9987 3.16663C7.63051 3.16663 7.33203 3.4651 7.33203 3.83329C7.33203 4.20148 7.63051 4.49996 7.9987 4.49996Z" stroke="black" stroke-width="1.33333" stroke-linecap="round" stroke-linejoin="round"/>
<path d="M7.9987 13.8333C8.36689 13.8333 8.66536 13.5349 8.66536 13.1667C8.66536 12.7985 8.36689 12.5 7.9987 12.5C7.63051 12.5 7.33203 12.7985 7.33203 13.1667C7.33203 13.5349 7.63051 13.8333 7.9987 13.8333Z" stroke="black" stroke-width="1.33333" stroke-linecap="round" stroke-linejoin="round"/>
</svg>
