<svg width="24" height="25" viewBox="0 0 24 25" fill="none" xmlns="http://www.w3.org/2000/svg">
<g clip-path="url(#clip0_697_21239)">
<g clip-path="url(#clip1_697_21239)">
<path d="M6.63148 1.5H13.9925L20.2236 8.00095V20.6381C20.2236 22.2188 18.9423 23.5 17.3616 23.5H6.63148C5.05072 23.5 3.76953 22.2188 3.76953 20.6381V4.36195C3.76953 2.78122 5.05072 1.5 6.63148 1.5Z" fill="#0263D1"/>
<path opacity="0.302" fill-rule="evenodd" clip-rule="evenodd" d="M13.9844 1.5V7.94756H20.2244L13.9844 1.5Z" fill="white"/>
<path d="M6.42578 17.1978V13.5558H7.71589C7.9739 13.5558 8.21415 13.5944 8.43658 13.6656C8.65901 13.7397 8.86068 13.8465 9.04161 13.9888C9.22251 14.1312 9.36489 14.321 9.46868 14.5583C9.57248 14.7955 9.62587 15.0684 9.62587 15.3768C9.62587 15.6852 9.57248 15.9581 9.46868 16.1953C9.36489 16.4326 9.22251 16.6224 9.04161 16.7647C8.86071 16.9071 8.65901 17.0139 8.43658 17.088C8.21415 17.1592 7.97393 17.1978 7.71589 17.1978H6.42578ZM7.33627 16.4059H7.60615C7.75147 16.4059 7.8879 16.3881 8.00948 16.3555C8.13404 16.3199 8.24673 16.2636 8.3535 16.1894C8.46026 16.1152 8.54329 16.0085 8.60261 15.8691C8.66491 15.7327 8.69454 15.5666 8.69454 15.3768C8.69454 15.187 8.66488 15.0209 8.60261 14.8815C8.54329 14.7451 8.46026 14.6383 8.3535 14.5642C8.24673 14.4871 8.13404 14.4337 8.00948 14.3981C7.8879 14.3655 7.75147 14.3477 7.60615 14.3477H7.33627V16.4059ZM11.8353 17.2393C11.2867 17.2393 10.8329 17.0613 10.4741 16.7084C10.1152 16.3555 9.93725 15.9106 9.93725 15.3768C9.93725 14.843 10.1152 14.3981 10.4741 14.0452C10.8329 13.6923 11.2867 13.5143 11.8353 13.5143C12.3751 13.5143 12.8229 13.6923 13.1818 14.0452C13.5377 14.3981 13.7156 14.843 13.7156 15.3768C13.7156 15.9106 13.5377 16.3555 13.1818 16.7084C12.8229 17.0613 12.3751 17.2393 11.8353 17.2393ZM11.1354 16.1449C11.3163 16.3466 11.5476 16.4474 11.8294 16.4474C12.1111 16.4474 12.3395 16.3466 12.5204 16.1449C12.7013 15.9403 12.7903 15.6852 12.7903 15.3768C12.7903 15.0684 12.7013 14.8133 12.5204 14.6086C12.3395 14.407 12.1111 14.3061 11.8294 14.3061C11.5476 14.3061 11.3163 14.407 11.1354 14.6086C10.9545 14.8133 10.8625 15.0684 10.8625 15.3768C10.8625 15.6852 10.9545 15.9403 11.1354 16.1449ZM15.8806 17.2393C15.3498 17.2393 14.9078 17.0732 14.5579 16.747C14.205 16.4178 14.03 15.9611 14.03 15.3768C14.03 14.7955 14.208 14.3388 14.5639 14.0096C14.9227 13.6804 15.3587 13.5143 15.8806 13.5143C16.3522 13.5143 16.7377 13.6299 17.0432 13.8642C17.3457 14.0956 17.5207 14.404 17.5652 14.7896L16.6458 14.9764C16.6073 14.7747 16.5153 14.6116 16.373 14.49C16.2306 14.3684 16.0645 14.3061 15.8747 14.3061C15.6137 14.3061 15.3972 14.3981 15.2222 14.5849C15.0472 14.7747 14.9583 15.0357 14.9583 15.3768C14.9583 15.7178 15.0472 15.9788 15.2192 16.1657C15.3942 16.3555 15.6107 16.4474 15.8747 16.4474C16.0645 16.4474 16.2276 16.394 16.3611 16.2873C16.4945 16.1805 16.5776 16.0382 16.6132 15.8602L17.5533 16.0737C17.4673 16.4415 17.2775 16.7262 16.9809 16.9308C16.6873 17.1355 16.3196 17.2393 15.8806 17.2393Z" fill="white"/>
</g>
</g>
<defs>
<clipPath id="clip0_697_21239">
<rect width="24" height="24" fill="white" transform="translate(0 0.5)"/>
</clipPath>
<clipPath id="clip1_697_21239">
<rect width="24" height="24" fill="white" transform="translate(0 0.5)"/>
</clipPath>
</defs>
</svg>
