<svg width="16" height="16" viewBox="0 0 16 16" fill="none" xmlns="http://www.w3.org/2000/svg">
<g clip-path="url(#clip0_696_17957)">
<path d="M11.75 6.41333H8.25C7.97667 6.41333 7.75 6.18666 7.75 5.91333C7.75 5.64 7.97667 5.41333 8.25 5.41333H11.75C12.0233 5.41333 12.25 5.64 12.25 5.91333C12.25 6.18666 12.03 6.41333 11.75 6.41333Z" fill="#141414"/>
<path d="M4.74833 6.91998C4.62167 6.91998 4.495 6.87332 4.395 6.77332L3.895 6.2733C3.70167 6.07996 3.70167 5.75996 3.895 5.56663C4.08833 5.3733 4.40833 5.3733 4.60167 5.56663L4.74833 5.7133L5.895 4.56663C6.08833 4.3733 6.40833 4.3733 6.60167 4.56663C6.79502 4.75996 6.79502 5.07996 6.60167 5.2733L5.10167 6.77332C5.00833 6.86665 4.88167 6.91998 4.74833 6.91998Z" fill="#141414"/>
<path d="M11.75 11.0801H8.25C7.97667 11.0801 7.75 10.8534 7.75 10.5801C7.75 10.3067 7.97667 10.0801 8.25 10.0801H11.75C12.0233 10.0801 12.25 10.3067 12.25 10.5801C12.25 10.8534 12.03 11.0801 11.75 11.0801Z" fill="#141414"/>
<path d="M4.74833 11.5867C4.62167 11.5867 4.495 11.54 4.395 11.44L3.895 10.94C3.70167 10.7467 3.70167 10.4267 3.895 10.2334C4.08833 10.04 4.40833 10.04 4.60167 10.2334L4.74833 10.38L5.895 9.23338C6.08833 9.04005 6.40833 9.04005 6.60167 9.23338C6.79502 9.42671 6.79502 9.74671 6.60167 9.94005L5.10167 11.44C5.00833 11.5334 4.88167 11.5867 4.74833 11.5867Z" fill="#141414"/>
<path d="M10.0026 15.1666H6.0026C2.3826 15.1666 0.835938 13.6199 0.835938 9.99992V5.99992C0.835938 2.37992 2.3826 0.833252 6.0026 0.833252H10.0026C13.6226 0.833252 15.1693 2.37992 15.1693 5.99992V9.99992C15.1693 13.6199 13.6226 15.1666 10.0026 15.1666ZM6.0026 1.83325C2.92927 1.83325 1.83594 2.92659 1.83594 5.99992V9.99992C1.83594 13.0733 2.92927 14.1666 6.0026 14.1666H10.0026C13.0759 14.1666 14.1693 13.0733 14.1693 9.99992V5.99992C14.1693 2.92659 13.0759 1.83325 10.0026 1.83325H6.0026Z" fill="#141414"/>
</g>
<defs>
<clipPath id="clip0_696_17957">
<rect width="16" height="16" fill="white"/>
</clipPath>
</defs>
</svg>
