<svg width="16" height="16" viewBox="0 0 16 16" fill="none" xmlns="http://www.w3.org/2000/svg">
<path d="M5.7027 4.57143L3.88148 2.73162C3.7158 2.56425 3.7158 2.2929 3.88148 2.12553C4.04716 1.95816 4.31577 1.95816 4.48144 2.12553L7.02694 4.69696C7.19257 4.86432 7.19257 5.13568 7.02694 5.30304L4.48144 7.87451C4.31577 8.04183 4.04716 8.04183 3.88148 7.87451C3.7158 7.70711 3.7158 7.43574 3.88148 7.26834L5.7027 5.42857H2.48449C1.78158 5.42857 1.21177 6.0042 1.21177 6.71429V11.8571C1.21177 12.5672 1.78158 13.1429 2.48449 13.1429H6.72692C6.96118 13.1429 7.15116 13.3348 7.15116 13.5714C7.15116 13.8081 6.96118 14 6.72692 14H2.48449C1.31298 14 0.363281 13.0406 0.363281 11.8571V6.71429C0.363281 5.53082 1.31298 4.57143 2.48449 4.57143H5.7027ZM9.27237 5.42857C9.03811 5.42857 8.84813 5.23669 8.84813 5C8.84813 4.76331 9.03811 4.57143 9.27237 4.57143H15.2118C15.446 4.57143 15.636 4.76331 15.636 5C15.636 5.23669 15.446 5.42857 15.2118 5.42857H9.27237ZM9.27237 9.71429C9.03811 9.71429 8.84813 9.52237 8.84813 9.28572C8.84813 9.04906 9.03811 8.85714 9.27237 8.85714H15.2118C15.446 8.85714 15.636 9.04906 15.636 9.28572C15.636 9.52237 15.446 9.71429 15.2118 9.71429H9.27237ZM9.27237 14C9.03811 14 8.84813 13.8081 8.84813 13.5714C8.84813 13.3348 9.03811 13.1429 9.27237 13.1429H15.2118C15.446 13.1429 15.636 13.3348 15.636 13.5714C15.636 13.8081 15.446 14 15.2118 14H9.27237Z" fill="#141414"/>
</svg>
