<svg width="18" height="18" viewBox="0 0 18 18" fill="none" xmlns="http://www.w3.org/2000/svg">
<path d="M10.5 6.75H13.5M10.5 9.375H12.75" stroke="#99A1B7" stroke-linecap="round" stroke-linejoin="round"/>
<path d="M12.75 2.25H5.25C3.17893 2.25 1.5 3.92893 1.5 6V12C1.5 14.0711 3.17893 15.75 5.25 15.75H12.75C14.8211 15.75 16.5 14.0711 16.5 12V6C16.5 3.92893 14.8211 2.25 12.75 2.25Z" stroke="#99A1B7" stroke-linecap="round" stroke-linejoin="round"/>
<path d="M3.75 12C4.656 10.0642 8.034 9.9375 9 12M7.875 6.75C7.875 7.14782 7.71696 7.52936 7.43566 7.81066C7.15436 8.09196 6.77282 8.25 6.375 8.25C5.97718 8.25 5.59564 8.09196 5.31434 7.81066C5.03304 7.52936 4.875 7.14782 4.875 6.75C4.875 6.35218 5.03304 5.97064 5.31434 5.68934C5.59564 5.40804 5.97718 5.25 6.375 5.25C6.77282 5.25 7.15436 5.40804 7.43566 5.68934C7.71696 5.97064 7.875 6.35218 7.875 6.75Z" stroke="#99A1B7" stroke-linecap="round" stroke-linejoin="round"/>
</svg>
