<svg width="16" height="16" viewBox="0 0 16 16" fill="none" xmlns="http://www.w3.org/2000/svg">
<path d="M14.6667 7.26668V2.73334C14.6667 1.73334 14.24 1.33334 13.18 1.33334H10.4867C9.42667 1.33334 9 1.73334 9 2.73334V7.26668C9 8.26668 9.42667 8.66668 10.4867 8.66668H13.18C14.24 8.66668 14.6667 8.26668 14.6667 7.26668Z" stroke="#99A1B7" stroke-linecap="round" stroke-linejoin="round"/>
<path d="M14.6667 13.2667V12.0667C14.6667 11.0667 14.24 10.6667 13.18 10.6667H10.4867C9.42667 10.6667 9 11.0667 9 12.0667V13.2667C9 14.2667 9.42667 14.6667 10.4867 14.6667H13.18C14.24 14.6667 14.6667 14.2667 14.6667 13.2667Z" stroke="#99A1B7" stroke-linecap="round" stroke-linejoin="round"/>
<path d="M6.99992 8.73334V13.2667C6.99992 14.2667 6.57325 14.6667 5.51325 14.6667H2.81992C1.75992 14.6667 1.33325 14.2667 1.33325 13.2667V8.73334C1.33325 7.73334 1.75992 7.33334 2.81992 7.33334H5.51325C6.57325 7.33334 6.99992 7.73334 6.99992 8.73334Z" stroke="#99A1B7" stroke-linecap="round" stroke-linejoin="round"/>
<path d="M6.99992 2.73334V3.93334C6.99992 4.93334 6.57325 5.33334 5.51325 5.33334H2.81992C1.75992 5.33334 1.33325 4.93334 1.33325 3.93334V2.73334C1.33325 1.73334 1.75992 1.33334 2.81992 1.33334H5.51325C6.57325 1.33334 6.99992 1.73334 6.99992 2.73334Z" stroke="#99A1B7" stroke-linecap="round" stroke-linejoin="round"/>
</svg>
