<svg width="16" height="16" viewBox="0 0 16 16" fill="none" xmlns="http://www.w3.org/2000/svg">
<g clip-path="url(#clip0_8269_61341)">
<path d="M11.7461 6.41333H8.24609C7.97276 6.41333 7.74609 6.18666 7.74609 5.91333C7.74609 5.64 7.97276 5.41333 8.24609 5.41333H11.7461C12.0194 5.41333 12.2461 5.64 12.2461 5.91333C12.2461 6.18666 12.0261 6.41333 11.7461 6.41333Z" fill="#99A1B7"/>
<path d="M4.74638 6.92008C4.61971 6.92008 4.49305 6.87341 4.39305 6.77341L3.89305 6.27339C3.69971 6.08006 3.69971 5.76006 3.89305 5.56672C4.08638 5.37339 4.40638 5.37339 4.59971 5.56672L4.74638 5.71339L5.89305 4.56672C6.08638 4.37339 6.40638 4.37339 6.59971 4.56672C6.79307 4.76006 6.79307 5.08006 6.59971 5.27339L5.09971 6.77341C5.00638 6.86674 4.87971 6.92008 4.74638 6.92008Z" fill="#99A1B7"/>
<path d="M11.7461 11.0801H8.24609C7.97276 11.0801 7.74609 10.8534 7.74609 10.5801C7.74609 10.3067 7.97276 10.0801 8.24609 10.0801H11.7461C12.0194 10.0801 12.2461 10.3067 12.2461 10.5801C12.2461 10.8534 12.0261 11.0801 11.7461 11.0801Z" fill="#99A1B7"/>
<path d="M4.74638 11.5867C4.61971 11.5867 4.49305 11.5401 4.39305 11.4401L3.89305 10.9401C3.69971 10.7467 3.69971 10.4267 3.89305 10.2334C4.08638 10.0401 4.40638 10.0401 4.59971 10.2334L4.74638 10.3801L5.89305 9.23341C6.08638 9.04008 6.40638 9.04008 6.59971 9.23341C6.79307 9.42674 6.79307 9.74674 6.59971 9.94008L5.09971 11.4401C5.00638 11.5334 4.87971 11.5867 4.74638 11.5867Z" fill="#99A1B7"/>
<path d="M10.0007 15.1666H6.00065C2.38065 15.1666 0.833984 13.6199 0.833984 9.99992V5.99992C0.833984 2.37992 2.38065 0.833252 6.00065 0.833252H10.0007C13.6207 0.833252 15.1673 2.37992 15.1673 5.99992V9.99992C15.1673 13.6199 13.6207 15.1666 10.0007 15.1666ZM6.00065 1.83325C2.92732 1.83325 1.83398 2.92659 1.83398 5.99992V9.99992C1.83398 13.0733 2.92732 14.1666 6.00065 14.1666H10.0007C13.074 14.1666 14.1673 13.0733 14.1673 9.99992V5.99992C14.1673 2.92659 13.074 1.83325 10.0007 1.83325H6.00065Z" fill="#99A1B7"/>
</g>
<defs>
<clipPath id="clip0_8269_61341">
<rect width="16" height="16" fill="white"/>
</clipPath>
</defs>
</svg>
