<svg width="18" height="18" viewBox="0 0 18 18" fill="none" xmlns="http://www.w3.org/2000/svg">
<path d="M3 6.2V9.612C3 12.152 3 13.4224 3.7816 14.2112C4.5624 15 5.8192 15 8.3336 15H9.6672C12.1808 15 13.4376 15 14.2192 14.2112C15 13.4216 15 12.152 15 9.612V6.2M3 6.2H15M3 6.2L3.5768 4.9696C4.0248 4.0144 4.2488 3.5376 4.7016 3.2688C5.1552 3 5.736 3 6.9 3H11.1C12.2632 3 12.8448 3 13.2984 3.2688C13.752 3.5376 13.976 4.0144 14.4232 4.9696L15 6.2M7.8 8.6H10.2" stroke="#99A1B7" stroke-width="1.13" stroke-linecap="round" stroke-linejoin="round"/>
</svg>
