<svg width="16" height="16" viewBox="0 0 16 16" fill="none" xmlns="http://www.w3.org/2000/svg">
<path d="M3.75 16H12.25C12.6478 16 13.0294 15.842 13.3107 15.5607C13.592 15.2794 13.75 14.8978 13.75 14.5V2.5C13.75 2.10218 13.592 1.72064 13.3107 1.43934C13.0294 1.15804 12.6478 1 12.25 1H11.1625C11.0592 0.707824 10.8679 0.454815 10.615 0.275749C10.3621 0.0966843 10.0599 0.000354093 9.75 0L6.25 0C5.9401 0.000354093 5.63792 0.0966843 5.38499 0.275749C5.13206 0.454815 4.9408 0.707824 4.8375 1H3.75C3.35218 1 2.97064 1.15804 2.68934 1.43934C2.40804 1.72064 2.25 2.10218 2.25 2.5V14.5C2.25 14.8978 2.40804 15.2794 2.68934 15.5607C2.97064 15.842 3.35218 16 3.75 16ZM6.25 1H9.75C9.88261 1 10.0098 1.05268 10.1036 1.14645C10.1973 1.24021 10.25 1.36739 10.25 1.5C10.25 1.63261 10.1973 1.75979 10.1036 1.85355C10.0098 1.94732 9.88261 2 9.75 2H6.25C6.11739 2 5.99021 1.94732 5.89645 1.85355C5.80268 1.75979 5.75 1.63261 5.75 1.5C5.75 1.36739 5.80268 1.24021 5.89645 1.14645C5.99021 1.05268 6.11739 1 6.25 1ZM3.25 2.5C3.25 2.36739 3.30268 2.24021 3.39645 2.14645C3.49021 2.05268 3.61739 2 3.75 2H4.8375C4.9408 2.29218 5.13206 2.54519 5.38499 2.72425C5.63792 2.90332 5.9401 2.99965 6.25 3H9.75C10.0599 2.99965 10.3621 2.90332 10.615 2.72425C10.8679 2.54519 11.0592 2.29218 11.1625 2H12.25C12.3826 2 12.5098 2.05268 12.6036 2.14645C12.6973 2.24021 12.75 2.36739 12.75 2.5V14.5C12.75 14.6326 12.6973 14.7598 12.6036 14.8536C12.5098 14.9473 12.3826 15 12.25 15H3.75C3.61739 15 3.49021 14.9473 3.39645 14.8536C3.30268 14.7598 3.25 14.6326 3.25 14.5V2.5Z" fill="#99A1B7"/>
<path d="M6.75053 11.3425C6.79851 11.3936 6.85669 11.434 6.92129 11.4611C6.98589 11.4882 7.05548 11.5015 7.12553 11.5H7.15053C7.22326 11.4962 7.29427 11.4766 7.35862 11.4424C7.42296 11.4083 7.47907 11.3606 7.52303 11.3025L11.523 6.05251C11.5964 5.94668 11.6261 5.81662 11.606 5.68941C11.5859 5.56221 11.5174 5.44768 11.415 5.36969C11.3125 5.2917 11.1838 5.25626 11.0559 5.27076C10.9279 5.28525 10.8105 5.34857 10.728 5.44751L7.08553 10.2275L5.61553 8.65751C5.52469 8.56071 5.39912 8.50395 5.26644 8.49973C5.13376 8.49551 5.00484 8.54417 4.90803 8.63501C4.81123 8.72585 4.75447 8.85142 4.75025 8.9841C4.74603 9.11678 4.79469 9.2457 4.88553 9.34251L6.75053 11.3425Z" fill="#99A1B7"/>
</svg>
