<svg width="16" height="16" viewBox="0 0 16 16" fill="none" xmlns="http://www.w3.org/2000/svg">
<path d="M6.10671 7.24666C6.04004 7.24 5.96004 7.24 5.88671 7.24666C4.30004 7.19333 3.04004 5.89333 3.04004 4.29333C3.04004 2.65999 4.36004 1.33333 6.00004 1.33333C7.63337 1.33333 8.96004 2.65999 8.96004 4.29333C8.95337 5.89333 7.69337 7.19333 6.10671 7.24666Z" stroke="#99A1B7" stroke-linecap="round" stroke-linejoin="round"/>
<path d="M10.9399 2.66667C12.2333 2.66667 13.2733 3.71334 13.2733 5C13.2733 6.26 12.2733 7.28667 11.0266 7.33334C10.9733 7.32667 10.9133 7.32667 10.8533 7.33334" stroke="#99A1B7" stroke-linecap="round" stroke-linejoin="round"/>
<path d="M2.77323 9.70667C1.1599 10.7867 1.1599 12.5467 2.77323 13.62C4.60657 14.8467 7.61323 14.8467 9.44657 13.62C11.0599 12.54 11.0599 10.78 9.44657 9.70667C7.6199 8.48667 4.61323 8.48667 2.77323 9.70667Z" stroke="#99A1B7" stroke-linecap="round" stroke-linejoin="round"/>
<path d="M12.2268 13.3333C12.7068 13.2333 13.1601 13.04 13.5335 12.7533C14.5735 11.9733 14.5735 10.6867 13.5335 9.90666C13.1668 9.62666 12.7201 9.43999 12.2468 9.33333" stroke="#99A1B7" stroke-linecap="round" stroke-linejoin="round"/>
</svg>
