<svg width="18" height="18" viewBox="0 0 18 18" fill="none" xmlns="http://www.w3.org/2000/svg">
<path d="M10.5005 8.25C10.5005 8.05109 10.5795 7.86032 10.7202 7.71967C10.8608 7.57902 11.0516 7.5 11.2505 7.5C11.4494 7.5 11.6402 7.57902 11.7808 7.71967C11.9215 7.86032 12.0005 8.05109 12.0005 8.25V9.75C12.0005 9.94891 11.9215 10.1397 11.7808 10.2803C11.6402 10.421 11.4494 10.5 11.2505 10.5C11.0516 10.5 10.8608 10.421 10.7202 10.2803C10.5795 10.1397 10.5005 9.94891 10.5005 9.75V8.25Z" stroke="#99A1B7" stroke-width="1.125"/>
<path d="M10.5104 12.75L11.0729 12.7515V12.75H10.5104ZM10.5104 5.25H11.0729V5.2485L10.5104 5.25ZM11.0684 14.2537L11.0729 12.7515L9.94786 12.7485L9.94336 14.2508L11.0684 14.2537ZM11.2619 12.5625C11.3676 12.5625 11.4516 12.648 11.4516 12.75H12.5766C12.5766 12.024 11.9864 11.4375 11.2619 11.4375V12.5625ZM11.2619 11.4375C10.5374 11.4375 9.94786 12.024 9.94786 12.75H11.0729C11.0729 12.648 11.1561 12.5625 11.2619 12.5625V11.4375ZM7.49611 3.5625H10.1286V2.4375H7.49611V3.5625ZM9.75586 14.4375H7.49611V15.5625H9.75586V14.4375ZM7.49611 14.4375C6.06286 14.4375 5.04361 14.436 4.27111 14.3325C3.51361 14.2313 3.07786 14.0408 2.75911 13.7228L1.96486 14.52C2.52736 15.081 3.24136 15.33 4.12186 15.4485C4.98736 15.5648 6.09436 15.5633 7.49686 15.5633L7.49611 14.4375ZM7.49611 2.4375C6.09361 2.4375 4.98661 2.436 4.12111 2.55225C3.24061 2.67075 2.52736 2.91975 1.96486 3.48075L2.75986 4.27725C3.07786 3.95925 3.51436 3.76875 4.27111 3.6675C5.04361 3.564 6.06286 3.5625 7.49611 3.5625V2.4375ZM1.94011 8.18175C2.22961 8.343 2.42236 8.64975 2.42236 9H3.54736C3.5473 8.63289 3.44926 8.27245 3.26336 7.95589C3.07746 7.63934 2.81043 7.37813 2.48986 7.19925L1.94011 8.18175ZM2.06986 6.765C2.12836 5.373 2.31811 4.71675 2.75986 4.27725L1.96486 3.48075C1.19236 4.25175 1.00486 5.31 0.944856 6.7185L2.06986 6.765ZM2.42236 9C2.42236 9.35025 2.22961 9.657 1.94011 9.819L2.48911 10.8015C2.80993 10.6227 3.07718 10.3614 3.26322 10.0447C3.44927 9.72796 3.54736 9.36731 3.54736 9H2.42236ZM0.945606 11.2815C1.00561 12.6885 1.19311 13.749 1.96486 14.5193L2.75986 13.7228C2.31811 13.2833 2.12836 12.6263 2.06986 11.2343L0.945606 11.2815ZM15.5774 9C15.5774 8.64975 15.7701 8.343 16.0596 8.18175L15.5106 7.19925C15.1899 7.37804 14.9227 7.6392 14.7367 7.95576C14.5506 8.27233 14.4525 8.63282 14.4524 9H15.5774ZM17.0541 6.7185C16.9941 5.3115 16.8066 4.251 16.0349 3.48075L15.2399 4.27725C15.6809 4.71675 15.8714 5.37375 15.9299 6.76575L17.0541 6.7185ZM16.0596 9.819C15.9135 9.73785 15.7918 9.61914 15.707 9.47514C15.6222 9.33115 15.5775 9.16711 15.5774 9H14.4524C14.4524 9.7755 14.8806 10.449 15.5106 10.8008L16.0596 9.819ZM15.9299 11.2343C15.8714 12.6263 15.6816 13.2833 15.2399 13.7228L16.0349 14.5193C16.8074 13.749 16.9949 12.6893 17.0541 11.2815L15.9299 11.2343ZM15.5106 10.8008C15.7236 10.92 15.8631 10.998 15.9569 11.0573C16.0034 11.0865 16.0244 11.1023 16.0304 11.1068C16.0409 11.1158 16.0026 11.0888 15.9666 11.0243L16.9491 10.4745C16.8972 10.3845 16.8287 10.3051 16.7474 10.2405C16.6868 10.1914 16.6232 10.1463 16.5569 10.1055C16.4316 10.026 16.2599 9.93075 16.0596 9.81825L15.5106 10.8008ZM17.0541 11.2815C17.0594 11.1533 17.0654 11.0205 17.0609 10.9095C17.0577 10.7577 17.0192 10.6088 16.9484 10.4745L15.9666 11.0235C15.9291 10.956 15.9344 10.9095 15.9366 10.959C15.9376 10.979 15.9376 11.0125 15.9366 11.0595L15.9299 11.2343L17.0541 11.2815ZM16.0596 8.18175C16.2599 8.06925 16.4316 7.974 16.5569 7.8945C16.6227 7.85283 16.6862 7.80777 16.7474 7.7595C16.8285 7.69483 16.8967 7.61545 16.9484 7.5255L15.9666 6.9765C16.0026 6.91125 16.0409 6.88425 16.0296 6.89325C16.0063 6.91116 15.9821 6.92769 15.9569 6.94275C15.8631 7.00275 15.7244 7.08 15.5106 7.19925L16.0596 8.18175ZM15.9299 6.76575L15.9366 6.93975C15.9376 6.98675 15.9376 7.02025 15.9366 7.04025C15.9344 7.08975 15.9291 7.04325 15.9666 6.97575L16.9491 7.52475C17.0197 7.39042 17.058 7.24147 17.0609 7.08975C17.0635 6.9657 17.061 6.84159 17.0534 6.71775L15.9299 6.76575ZM1.94011 9.81825C1.73986 9.93075 1.56811 10.0253 1.44286 10.1048C1.3765 10.1456 1.31287 10.1907 1.25236 10.2398C1.17124 10.3044 1.10305 10.3846 1.05136 10.4745L2.03311 11.0228C1.99711 11.088 1.95886 11.115 1.96936 11.106C1.97611 11.1007 1.99636 11.0858 2.04286 11.0565C2.13661 10.9965 2.27536 10.9193 2.48911 10.8L1.94011 9.81825ZM2.06986 11.2335L2.06311 11.0588C2.06198 11.0253 2.06198 10.9917 2.06311 10.9583C2.06536 10.9088 2.07061 10.9553 2.03311 11.0228L1.05061 10.4738C0.980012 10.6081 0.941747 10.757 0.938856 10.9088C0.934356 11.0198 0.940356 11.1525 0.946356 11.2808L2.06986 11.2335ZM2.48911 7.1985C2.27611 7.07925 2.13661 7.00125 2.04286 6.942C2.0174 6.92696 1.99286 6.91044 1.96936 6.8925C1.95886 6.8835 1.99711 6.9105 2.03311 6.975L1.05061 7.52475C1.11361 7.63575 1.19686 7.71225 1.25236 7.75875C1.31236 7.80825 1.37911 7.85325 1.44286 7.89375C1.56811 7.97325 1.73986 8.0685 1.94011 8.181L2.48911 7.1985ZM0.944856 6.7185C0.939606 6.84675 0.933606 6.9795 0.938106 7.0905C0.943356 7.203 0.960606 7.36575 1.05061 7.5255L2.03311 6.9765C2.07061 7.044 2.06461 7.0905 2.06236 7.041C2.06123 7.00751 2.06123 6.97399 2.06236 6.9405L2.06911 6.76575L0.944856 6.7185ZM11.0721 5.2485L11.0661 3.372L9.94186 3.37575L9.94711 5.2515L11.0721 5.2485ZM11.2611 5.4375C11.2364 5.4377 11.2118 5.433 11.1889 5.42366C11.166 5.41433 11.1451 5.40055 11.1276 5.38312C11.11 5.36569 11.096 5.34495 11.0865 5.3221C11.077 5.29926 11.0721 5.27475 11.0721 5.25H9.94711C9.94711 5.976 10.5366 6.5625 11.2611 6.5625V5.4375ZM11.4524 5.25C11.4524 5.352 11.3684 5.4375 11.2626 5.4375V6.5625C11.9871 6.5625 12.5774 5.976 12.5774 5.25H11.4524ZM11.4524 3.387V5.25H12.5774V3.387H11.4524ZM12.3824 3.57675C14.0234 3.61875 14.7591 3.79575 15.2414 4.27725L16.0364 3.48075C15.2016 2.64825 14.0211 2.49375 12.4109 2.45175L12.3824 3.57675ZM12.5774 3.387C12.5774 3.492 12.4904 3.579 12.3824 3.57675L12.4109 2.45175C12.2861 2.44865 12.162 2.47055 12.0458 2.51616C11.9296 2.56177 11.8238 2.63016 11.7345 2.71732C11.6451 2.80448 11.5742 2.90863 11.5257 3.02364C11.4773 3.13866 11.4523 3.2622 11.4524 3.387H12.5774ZM10.1286 3.5625C10.079 3.5623 10.0323 3.54246 9.99726 3.50732C9.96226 3.47218 9.94261 3.4246 9.94261 3.375L11.0676 3.372C11.0668 3.12388 10.9677 2.88619 10.792 2.71103C10.6162 2.53586 10.3782 2.4375 10.1301 2.4375L10.1286 3.5625ZM12.7986 15.5355C14.2049 15.4755 15.2654 15.288 16.0356 14.5193L15.2399 13.7228C14.8004 14.1623 14.1426 14.3528 12.7521 14.4113L12.7986 15.5355ZM11.4524 12.75V14.2327H12.5774V12.75H11.4524ZM9.94411 14.25C9.94411 14.3408 9.94411 14.4105 9.94186 14.4698C9.94036 14.5298 9.93736 14.5643 9.93436 14.586C9.93136 14.6078 9.93061 14.6003 9.93886 14.5785C9.9534 14.5465 9.97346 14.5173 9.99811 14.4923L10.7924 15.2888C10.9369 15.1393 11.0272 14.9458 11.0489 14.739C11.0691 14.5913 11.0676 14.4143 11.0684 14.2537L9.94411 14.25ZM9.75586 15.5625C9.91636 15.5625 10.0941 15.564 10.2419 15.5438C10.4061 15.5213 10.6154 15.465 10.7924 15.2888L9.99736 14.4923C10.0229 14.4677 10.0526 14.4479 10.0851 14.4338C10.1061 14.4248 10.1136 14.4263 10.0926 14.4285C10.0537 14.4325 10.0147 14.435 9.97561 14.436C9.91561 14.4375 9.84586 14.4375 9.75586 14.4375V15.5625ZM12.7521 14.4113C12.6621 14.415 12.5924 14.418 12.5331 14.4188C12.4739 14.4195 12.4394 14.4188 12.4191 14.4165C12.3989 14.4143 12.4079 14.4128 12.4304 14.4218C12.4581 14.4323 12.4904 14.4518 12.5196 14.4788L11.7411 15.291C11.9241 15.4665 12.1379 15.519 12.3089 15.5355C12.4604 15.5505 12.6381 15.5423 12.7986 15.5355L12.7521 14.4113ZM11.4524 14.2327C11.4524 14.3962 11.4509 14.5778 11.4719 14.73C11.4951 14.8995 11.5559 15.1133 11.7411 15.291L12.5196 14.4788C12.5496 14.5073 12.5691 14.5395 12.5811 14.5665C12.5901 14.589 12.5886 14.5965 12.5864 14.5755C12.5823 14.5359 12.5798 14.4961 12.5789 14.4563C12.5774 14.3963 12.5774 14.325 12.5774 14.2327H11.4524Z" fill="#99A1B7"/>
</svg>
