<svg xmlns="http://www.w3.org/2000/svg" xmlns:xlink="http://www.w3.org/1999/xlink" version="1.1" width="256" height="256" viewBox="0 0 256 256" xml:space="preserve">

<defs>
</defs>
<g style="stroke: none; stroke-width: 0; stroke-dasharray: none; stroke-linecap: butt; stroke-linejoin: miter; stroke-miterlimit: 10; fill: none; fill-rule: nonzero; opacity: 1;" transform="translate(1.4065934065934016 1.4065934065934016) scale(2.81 2.81)" >
	<path d="M 53.222 52.583 c -14.813 -0.787 -29.834 -0.787 -44.646 0 L 8.47 50.585 c 14.883 -0.789 29.976 -0.789 44.858 0 L 53.222 52.583 z" style="stroke: none; stroke-width: 1; stroke-dasharray: none; stroke-linecap: butt; stroke-linejoin: miter; stroke-miterlimit: 10; fill: rgb(0,0,0); fill-rule: nonzero; opacity: 1;" transform=" matrix(1 0 0 1 0 0) " stroke-linecap="round" />
	<path d="M 43.122 71.639 H 18.676 c -0.552 0 -1 -0.447 -1 -1 s 0.448 -1 1 -1 h 24.446 c 0.552 0 1 0.447 1 1 S 43.674 71.639 43.122 71.639 z" style="stroke: none; stroke-width: 1; stroke-dasharray: none; stroke-linecap: butt; stroke-linejoin: miter; stroke-miterlimit: 10; fill: rgb(0,0,0); fill-rule: nonzero; opacity: 1;" transform=" matrix(1 0 0 1 0 0) " stroke-linecap="round" />
	<path d="M 12.313 86.159 H 3.665 c -1.632 0 -2.96 -1.328 -2.96 -2.961 v -8.756 c 0 -0.553 0.448 -1 1 -1 s 1 0.447 1 1 v 8.756 c 0 0.53 0.431 0.961 0.96 0.961 h 8.647 c 0.53 0 0.961 -0.431 0.961 -0.961 v -4.559 c 0 -0.553 0.448 -1 1 -1 c 0.552 0 1 0.447 1 1 v 4.559 C 15.273 84.83 13.945 86.159 12.313 86.159 z" style="stroke: none; stroke-width: 1; stroke-dasharray: none; stroke-linecap: butt; stroke-linejoin: miter; stroke-miterlimit: 10; fill: rgb(0,0,0); fill-rule: nonzero; opacity: 1;" transform=" matrix(1 0 0 1 0 0) " stroke-linecap="round" />
	<path d="M 58.132 86.159 h -8.647 c -1.633 0 -2.961 -1.328 -2.961 -2.961 v -4.376 c 0 -0.553 0.447 -1 1 -1 s 1 0.447 1 1 v 4.376 c 0 0.53 0.431 0.961 0.961 0.961 h 8.647 c 0.53 0 0.961 -0.431 0.961 -0.961 v -8.764 c 0 -0.553 0.447 -1 1 -1 s 1 0.447 1 1 v 8.764 C 61.093 84.83 59.765 86.159 58.132 86.159 z" style="stroke: none; stroke-width: 1; stroke-dasharray: none; stroke-linecap: butt; stroke-linejoin: miter; stroke-miterlimit: 10; fill: rgb(0,0,0); fill-rule: nonzero; opacity: 1;" transform=" matrix(1 0 0 1 0 0) " stroke-linecap="round" />
	<path d="M 39.362 67.537 H 22.437 c -0.552 0 -1 -0.447 -1 -1 s 0.448 -1 1 -1 h 16.925 c 0.552 0 1 0.447 1 1 S 39.914 67.537 39.362 67.537 z" style="stroke: none; stroke-width: 1; stroke-dasharray: none; stroke-linecap: butt; stroke-linejoin: miter; stroke-miterlimit: 10; fill: rgb(0,0,0); fill-rule: nonzero; opacity: 1;" transform=" matrix(1 0 0 1 0 0) " stroke-linecap="round" />
	<path d="M 9.235 70.893 c -0.737 0 -1.453 -0.169 -2.112 -0.507 c -1.309 -0.67 -2.21 -1.913 -2.537 -3.501 c -0.311 -1.507 -0.062 -3.156 0.701 -4.646 c 1.613 -3.148 5.059 -4.616 7.684 -3.27 c 1.309 0.67 2.21 1.913 2.537 3.5 c 0.311 1.507 0.062 3.156 -0.701 4.646 c -0.763 1.488 -1.956 2.655 -3.36 3.283 C 10.712 70.728 9.963 70.893 9.235 70.893 z M 10.848 60.463 c -1.405 0 -2.927 1.022 -3.78 2.689 c -0.556 1.085 -0.742 2.268 -0.522 3.33 c 0.202 0.981 0.731 1.736 1.49 2.125 c 0.758 0.388 1.68 0.377 2.594 -0.033 c 0.99 -0.443 1.841 -1.285 2.397 -2.37 l 0 0 c 0.556 -1.085 0.742 -2.268 0.523 -3.329 c -0.203 -0.981 -0.731 -1.736 -1.49 -2.125 C 11.681 60.556 11.27 60.463 10.848 60.463 z" style="stroke: none; stroke-width: 1; stroke-dasharray: none; stroke-linecap: butt; stroke-linejoin: miter; stroke-miterlimit: 10; fill: rgb(0,0,0); fill-rule: nonzero; opacity: 1;" transform=" matrix(1 0 0 1 0 0) " stroke-linecap="round" />
	<path d="M 52.562 70.893 c -0.728 0 -1.477 -0.165 -2.211 -0.494 c -1.404 -0.628 -2.598 -1.794 -3.359 -3.283 l 0 0 c -0.763 -1.489 -1.012 -3.139 -0.702 -4.646 c 0.327 -1.587 1.229 -2.83 2.537 -3.5 c 1.311 -0.671 2.845 -0.676 4.323 -0.014 c 1.404 0.628 2.598 1.794 3.36 3.283 c 1.612 3.148 0.788 6.803 -1.836 8.147 C 54.016 70.724 53.299 70.893 52.562 70.893 z M 50.941 60.466 c -0.426 0 -0.833 0.095 -1.202 0.283 c -0.759 0.389 -1.288 1.144 -1.49 2.125 c -0.219 1.062 -0.033 2.244 0.522 3.329 c 0 0 0 0 0.001 0 c 0.555 1.085 1.406 1.927 2.397 2.37 c 0.915 0.411 1.837 0.42 2.594 0.033 c 1.644 -0.842 2.077 -3.289 0.968 -5.455 c -0.556 -1.085 -1.406 -1.927 -2.397 -2.37 C 51.864 60.571 51.391 60.466 50.941 60.466 z" style="stroke: none; stroke-width: 1; stroke-dasharray: none; stroke-linecap: butt; stroke-linejoin: miter; stroke-miterlimit: 10; fill: rgb(0,0,0); fill-rule: nonzero; opacity: 1;" transform=" matrix(1 0 0 1 0 0) " stroke-linecap="round" />
	<path d="M 54.218 79.639 H 7.58 c -3.825 0 -6.987 -2.992 -7.198 -6.812 l -0.358 -6.47 c -0.246 -4.442 1.383 -8.827 4.469 -12.03 l 3.173 -3.296 l 3.837 -9.585 c 0.712 -1.78 2.322 -3.024 4.202 -3.246 c 10.081 -1.192 20.305 -1.192 30.386 0 c 1.879 0.222 3.489 1.466 4.202 3.246 l 3.836 9.585 l 3.175 3.296 c 3.085 3.204 4.714 7.589 4.468 12.03 l -0.357 6.47 C 61.206 76.647 58.044 79.639 54.218 79.639 z M 30.899 39.306 c -4.998 0 -9.995 0.293 -14.958 0.88 c -1.152 0.136 -2.141 0.903 -2.581 2.003 l -3.981 9.947 l -3.445 3.577 c -2.702 2.805 -4.127 6.644 -3.913 10.532 l 0.358 6.471 c 0.152 2.76 2.437 4.922 5.201 4.922 h 46.638 c 2.764 0 5.049 -2.162 5.201 -4.921 l 0.357 -6.471 c 0.215 -3.889 -1.211 -7.728 -3.913 -10.533 l -3.444 -3.577 l -3.982 -9.947 c -0.439 -1.1 -1.429 -1.867 -2.58 -2.003 C 40.894 39.6 35.897 39.306 30.899 39.306 z" style="stroke: none; stroke-width: 1; stroke-dasharray: none; stroke-linecap: butt; stroke-linejoin: miter; stroke-miterlimit: 10; fill: rgb(0,0,0); fill-rule: nonzero; opacity: 1;" transform=" matrix(1 0 0 1 0 0) " stroke-linecap="round" />
	<path d="M 81.478 34.437 c -0.018 0 -0.036 0 -0.054 -0.001 c -14.813 -0.786 -29.833 -0.786 -44.646 0 c -0.543 0.027 -1.022 -0.394 -1.052 -0.945 c -0.029 -0.552 0.394 -1.022 0.945 -1.052 c 14.883 -0.79 29.975 -0.79 44.858 0 c 0.552 0.029 0.976 0.5 0.946 1.052 C 82.448 34.024 82.006 34.437 81.478 34.437 z" style="stroke: none; stroke-width: 1; stroke-dasharray: none; stroke-linecap: butt; stroke-linejoin: miter; stroke-miterlimit: 10; fill: rgb(0,0,0); fill-rule: nonzero; opacity: 1;" transform=" matrix(1 0 0 1 0 0) " stroke-linecap="round" />
	<path d="M 71.325 53.492 h -7.787 c -0.553 0 -1 -0.447 -1 -1 s 0.447 -1 1 -1 h 7.787 c 0.553 0 1 0.447 1 1 S 71.878 53.492 71.325 53.492 z" style="stroke: none; stroke-width: 1; stroke-dasharray: none; stroke-linecap: butt; stroke-linejoin: miter; stroke-miterlimit: 10; fill: rgb(0,0,0); fill-rule: nonzero; opacity: 1;" transform=" matrix(1 0 0 1 0 0) " stroke-linecap="round" />
	<path d="M 86.335 68.012 h -8.647 c -1.633 0 -2.961 -1.328 -2.961 -2.961 v -4.376 c 0 -0.553 0.447 -1 1 -1 s 1 0.447 1 1 v 4.376 c 0 0.53 0.431 0.961 0.961 0.961 h 8.647 c 0.53 0 0.961 -0.431 0.961 -0.961 v -8.764 c 0 -0.553 0.447 -1 1 -1 s 1 0.447 1 1 v 8.764 C 89.296 66.684 87.968 68.012 86.335 68.012 z" style="stroke: none; stroke-width: 1; stroke-dasharray: none; stroke-linecap: butt; stroke-linejoin: miter; stroke-miterlimit: 10; fill: rgb(0,0,0); fill-rule: nonzero; opacity: 1;" transform=" matrix(1 0 0 1 0 0) " stroke-linecap="round" />
	<path d="M 67.564 49.39 h -7.125 c -0.553 0 -1 -0.447 -1 -1 s 0.447 -1 1 -1 h 7.125 c 0.553 0 1 0.447 1 1 S 68.117 49.39 67.564 49.39 z" style="stroke: none; stroke-width: 1; stroke-dasharray: none; stroke-linecap: butt; stroke-linejoin: miter; stroke-miterlimit: 10; fill: rgb(0,0,0); fill-rule: nonzero; opacity: 1;" transform=" matrix(1 0 0 1 0 0) " stroke-linecap="round" />
	<path d="M 80.781 52.737 c -2.147 0 -4.381 -1.414 -5.587 -3.769 c -1.612 -3.148 -0.789 -6.802 1.835 -8.147 c 2.625 -1.345 6.071 0.123 7.684 3.27 c 1.612 3.148 0.789 6.802 -1.835 8.146 C 82.217 52.577 81.504 52.737 80.781 52.737 z M 79.152 42.316 c -0.421 0 -0.832 0.092 -1.211 0.286 c -1.643 0.842 -2.077 3.289 -0.968 5.454 c 1.109 2.165 3.347 3.241 4.992 2.402 c 1.643 -0.842 2.077 -3.289 0.968 -5.455 C 82.08 43.338 80.558 42.316 79.152 42.316 z" style="stroke: none; stroke-width: 1; stroke-dasharray: none; stroke-linecap: butt; stroke-linejoin: miter; stroke-miterlimit: 10; fill: rgb(0,0,0); fill-rule: nonzero; opacity: 1;" transform=" matrix(1 0 0 1 0 0) " stroke-linecap="round" />
	<path d="M 82.421 61.491 H 65.959 c -0.553 0 -1 -0.447 -1 -1 s 0.447 -1 1 -1 h 16.462 c 2.764 0 5.049 -2.162 5.201 -4.921 l 0.357 -6.47 c 0.215 -3.889 -1.211 -7.728 -3.913 -10.533 l -3.31 -3.437 c -0.089 -0.093 -0.16 -0.203 -0.208 -0.322 l -3.908 -9.766 c -0.44 -1.099 -1.429 -1.867 -2.58 -2.003 c -9.927 -1.174 -19.992 -1.174 -29.917 0 c -1.151 0.136 -2.14 0.903 -2.581 2.003 l -3.909 9.766 c -0.205 0.513 -0.785 0.764 -1.3 0.557 c -0.513 -0.205 -0.762 -0.787 -0.557 -1.3 l 3.909 -9.766 c 0.713 -1.78 2.323 -3.024 4.203 -3.246 c 10.08 -1.191 20.303 -1.191 30.386 0 c 1.879 0.222 3.489 1.466 4.202 3.246 l 3.836 9.586 l 3.175 3.295 c 3.085 3.204 4.714 7.589 4.468 12.031 l -0.357 6.469 C 89.408 58.499 86.246 61.491 82.421 61.491 z" style="stroke: none; stroke-width: 1; stroke-dasharray: none; stroke-linecap: butt; stroke-linejoin: miter; stroke-miterlimit: 10; fill: rgb(0,0,0); fill-rule: nonzero; opacity: 1;" transform=" matrix(1 0 0 1 0 0) " stroke-linecap="round" />
	<path d="M 50.799 17.494 c -0.018 0 -0.036 0 -0.054 -0.001 c -12.996 -0.69 -26.175 -0.69 -39.17 0 c -0.54 0.032 -1.022 -0.394 -1.052 -0.945 c -0.029 -0.552 0.394 -1.022 0.945 -1.052 c 13.068 -0.694 26.318 -0.694 39.382 0 c 0.552 0.029 0.976 0.5 0.946 1.052 C 51.769 17.08 51.327 17.494 50.799 17.494 z" style="stroke: none; stroke-width: 1; stroke-dasharray: none; stroke-linecap: butt; stroke-linejoin: miter; stroke-miterlimit: 10; fill: rgb(0,0,0); fill-rule: nonzero; opacity: 1;" transform=" matrix(1 0 0 1 0 0) " stroke-linecap="round" />
	<path d="M 31.108 34.218 H 20.433 c -0.552 0 -1 -0.448 -1 -1 s 0.448 -1 1 -1 h 10.675 c 0.552 0 1 0.448 1 1 S 31.66 34.218 31.108 34.218 z" style="stroke: none; stroke-width: 1; stroke-dasharray: none; stroke-linecap: butt; stroke-linejoin: miter; stroke-miterlimit: 10; fill: rgb(0,0,0); fill-rule: nonzero; opacity: 1;" transform=" matrix(1 0 0 1 0 0) " stroke-linecap="round" />
	<path d="M 30.748 30.618 h -7.015 c -0.552 0 -1 -0.448 -1 -1 s 0.448 -1 1 -1 h 7.015 c 0.552 0 1 0.448 1 1 S 31.301 30.618 30.748 30.618 z" style="stroke: none; stroke-width: 1; stroke-dasharray: none; stroke-linecap: butt; stroke-linejoin: miter; stroke-miterlimit: 10; fill: rgb(0,0,0); fill-rule: nonzero; opacity: 1;" transform=" matrix(1 0 0 1 0 0) " stroke-linecap="round" />
	<path d="M 12.133 33.555 c -0.653 0 -1.297 -0.145 -1.895 -0.451 c -2.363 -1.211 -3.11 -4.492 -1.665 -7.315 c 0.682 -1.332 1.751 -2.375 3.008 -2.938 c 1.333 -0.596 2.719 -0.59 3.9 0.015 c 1.182 0.605 1.996 1.727 2.29 3.157 c 0.278 1.35 0.056 2.826 -0.626 4.158 C 16.066 32.29 14.063 33.555 12.133 33.555 z M 13.57 24.412 c -0.378 0 -0.775 0.089 -1.171 0.266 c -0.844 0.377 -1.57 1.096 -2.045 2.024 c -0.943 1.841 -0.586 3.915 0.796 4.623 c 1.381 0.707 3.273 -0.214 4.216 -2.055 c 0.475 -0.927 0.634 -1.937 0.448 -2.842 c -0.17 -0.825 -0.612 -1.457 -1.244 -1.78 C 14.265 24.49 13.926 24.412 13.57 24.412 z" style="stroke: none; stroke-width: 1; stroke-dasharray: none; stroke-linecap: butt; stroke-linejoin: miter; stroke-miterlimit: 10; fill: rgb(0,0,0); fill-rule: nonzero; opacity: 1;" transform=" matrix(1 0 0 1 0 0) " stroke-linecap="round" />
	<path d="M 8.678 40.853 c -0.123 0 -0.248 -0.023 -0.37 -0.071 c -1.524 -0.607 -2.749 -1.759 -3.448 -3.243 c -0.355 -0.752 -0.559 -1.558 -0.605 -2.394 l -0.314 -5.679 c -0.217 -3.932 1.225 -7.814 3.956 -10.65 l 2.769 -2.875 l 3.358 -8.39 c 0.642 -1.604 2.093 -2.725 3.787 -2.925 c 8.859 -1.046 17.841 -1.046 26.697 0 c 1.695 0.2 3.146 1.321 3.788 2.926 l 3.431 8.57 c 0.205 0.513 -0.044 1.095 -0.557 1.3 c -0.512 0.206 -1.095 -0.043 -1.301 -0.557 l -3.431 -8.571 c -0.369 -0.923 -1.198 -1.568 -2.165 -1.682 c -8.702 -1.029 -17.526 -1.029 -26.228 0 c -0.966 0.114 -1.795 0.759 -2.165 1.682 l -3.431 8.571 c -0.048 0.12 -0.119 0.229 -0.208 0.322 l -2.905 3.016 c -2.347 2.438 -3.586 5.773 -3.399 9.152 l 0.314 5.679 c 0.032 0.578 0.172 1.133 0.417 1.651 c 0.483 1.024 1.328 1.819 2.38 2.238 c 0.513 0.205 0.763 0.786 0.559 1.299 C 9.452 40.615 9.076 40.853 8.678 40.853 z" style="stroke: none; stroke-width: 1; stroke-dasharray: none; stroke-linecap: butt; stroke-linejoin: miter; stroke-miterlimit: 10; fill: rgb(0,0,0); fill-rule: nonzero; opacity: 1;" transform=" matrix(1 0 0 1 0 0) " stroke-linecap="round" />
</g>
</svg>